ISO-10303-21;
HEADER;
/* Generated by software containing ST-Developer
 * from STEP Tools, Inc. (www.steptools.com) 
 */
/* OPTION: using custom renumber hook */

FILE_DESCRIPTION(
/* description */ ('STEP AP242 Edition 2',
'CAx-IF Rec.Pracs.---Representation and Presentation of Product Manufa
cturing Information (PMI)---4.0---2014-10-13',
'CAx-IF Rec.Pracs.---3D Tessellated Geometry---0.4---2014-09-14','2;1',
'CAx-IF Rec.Pracs.---User Defined Attributes---1.5---2016-08-15'),
/* implementation_level */ '2;1');

FILE_NAME(
/* name */ 'landedConcept v4 parts - box_2',
/* time_stamp */ '2026-01-03T01:02:39Z',
/* author */ (''),
/* organization */ (''),
/* preprocessor_version */ 'ST-DEVELOPER v20',
/* originating_system */ 'ONSHAPE BY PTC INC, 1.208',
/* authorisation */ '  ');

FILE_SCHEMA (('AP242_MANAGED_MODEL_BASED_3D_ENGINEERING_MIM_LF { 1 0 10303 442 3 1 4 }'));
ENDSEC;

DATA;
#10=SHAPE_REPRESENTATION_RELATIONSHIP('','',#281,#11);
#11=ADVANCED_BREP_SHAPE_REPRESENTATION('',(#279),#459);
#12=CIRCLE('',#289,0.005);
#13=CIRCLE('',#290,0.005);
#14=CIRCLE('',#293,0.005);
#15=CIRCLE('',#294,0.005);
#16=CIRCLE('',#297,0.005);
#17=CIRCLE('',#298,0.005);
#18=CIRCLE('',#301,0.005);
#19=CIRCLE('',#302,0.005);
#20=CYLINDRICAL_SURFACE('',#288,0.005);
#21=CYLINDRICAL_SURFACE('',#292,0.005);
#22=CYLINDRICAL_SURFACE('',#296,0.005);
#23=CYLINDRICAL_SURFACE('',#300,0.005);
#24=ORIENTED_EDGE('',*,*,#96,.T.);
#25=ORIENTED_EDGE('',*,*,#97,.F.);
#26=ORIENTED_EDGE('',*,*,#98,.F.);
#27=ORIENTED_EDGE('',*,*,#99,.T.);
#28=ORIENTED_EDGE('',*,*,#100,.T.);
#29=ORIENTED_EDGE('',*,*,#101,.F.);
#30=ORIENTED_EDGE('',*,*,#96,.F.);
#31=ORIENTED_EDGE('',*,*,#102,.T.);
#32=ORIENTED_EDGE('',*,*,#103,.T.);
#33=ORIENTED_EDGE('',*,*,#100,.F.);
#34=ORIENTED_EDGE('',*,*,#104,.F.);
#35=ORIENTED_EDGE('',*,*,#105,.T.);
#36=ORIENTED_EDGE('',*,*,#98,.T.);
#37=ORIENTED_EDGE('',*,*,#106,.F.);
#38=ORIENTED_EDGE('',*,*,#105,.F.);
#39=ORIENTED_EDGE('',*,*,#107,.T.);
#40=ORIENTED_EDGE('',*,*,#99,.F.);
#41=ORIENTED_EDGE('',*,*,#107,.F.);
#42=ORIENTED_EDGE('',*,*,#104,.T.);
#43=ORIENTED_EDGE('',*,*,#102,.F.);
#44=ORIENTED_EDGE('',*,*,#108,.F.);
#45=ORIENTED_EDGE('',*,*,#109,.F.);
#46=ORIENTED_EDGE('',*,*,#110,.T.);
#47=ORIENTED_EDGE('',*,*,#111,.T.);
#48=ORIENTED_EDGE('',*,*,#112,.F.);
#49=ORIENTED_EDGE('',*,*,#111,.F.);
#50=ORIENTED_EDGE('',*,*,#113,.T.);
#51=ORIENTED_EDGE('',*,*,#114,.T.);
#52=ORIENTED_EDGE('',*,*,#115,.F.);
#53=ORIENTED_EDGE('',*,*,#114,.F.);
#54=ORIENTED_EDGE('',*,*,#116,.T.);
#55=ORIENTED_EDGE('',*,*,#117,.T.);
#56=ORIENTED_EDGE('',*,*,#118,.F.);
#57=ORIENTED_EDGE('',*,*,#117,.F.);
#58=ORIENTED_EDGE('',*,*,#119,.T.);
#59=ORIENTED_EDGE('',*,*,#120,.T.);
#60=ORIENTED_EDGE('',*,*,#121,.F.);
#61=ORIENTED_EDGE('',*,*,#120,.F.);
#62=ORIENTED_EDGE('',*,*,#122,.T.);
#63=ORIENTED_EDGE('',*,*,#123,.T.);
#64=ORIENTED_EDGE('',*,*,#124,.F.);
#65=ORIENTED_EDGE('',*,*,#123,.F.);
#66=ORIENTED_EDGE('',*,*,#125,.T.);
#67=ORIENTED_EDGE('',*,*,#126,.T.);
#68=ORIENTED_EDGE('',*,*,#127,.F.);
#69=ORIENTED_EDGE('',*,*,#126,.F.);
#70=ORIENTED_EDGE('',*,*,#128,.T.);
#71=ORIENTED_EDGE('',*,*,#129,.T.);
#72=ORIENTED_EDGE('',*,*,#130,.F.);
#73=ORIENTED_EDGE('',*,*,#129,.F.);
#74=ORIENTED_EDGE('',*,*,#131,.T.);
#75=ORIENTED_EDGE('',*,*,#109,.T.);
#76=ORIENTED_EDGE('',*,*,#97,.T.);
#77=ORIENTED_EDGE('',*,*,#101,.T.);
#78=ORIENTED_EDGE('',*,*,#103,.F.);
#79=ORIENTED_EDGE('',*,*,#106,.T.);
#80=ORIENTED_EDGE('',*,*,#110,.F.);
#81=ORIENTED_EDGE('',*,*,#131,.F.);
#82=ORIENTED_EDGE('',*,*,#128,.F.);
#83=ORIENTED_EDGE('',*,*,#125,.F.);
#84=ORIENTED_EDGE('',*,*,#122,.F.);
#85=ORIENTED_EDGE('',*,*,#119,.F.);
#86=ORIENTED_EDGE('',*,*,#116,.F.);
#87=ORIENTED_EDGE('',*,*,#113,.F.);
#88=ORIENTED_EDGE('',*,*,#108,.T.);
#89=ORIENTED_EDGE('',*,*,#112,.T.);
#90=ORIENTED_EDGE('',*,*,#115,.T.);
#91=ORIENTED_EDGE('',*,*,#118,.T.);
#92=ORIENTED_EDGE('',*,*,#121,.T.);
#93=ORIENTED_EDGE('',*,*,#124,.T.);
#94=ORIENTED_EDGE('',*,*,#127,.T.);
#95=ORIENTED_EDGE('',*,*,#130,.T.);
#96=EDGE_CURVE('',#132,#133,#156,.T.);
#97=EDGE_CURVE('',#134,#133,#157,.T.);
#98=EDGE_CURVE('',#135,#134,#158,.T.);
#99=EDGE_CURVE('',#135,#132,#159,.T.);
#100=EDGE_CURVE('',#136,#137,#160,.T.);
#101=EDGE_CURVE('',#133,#137,#161,.T.);
#102=EDGE_CURVE('',#132,#136,#162,.T.);
#103=EDGE_CURVE('',#138,#137,#163,.T.);
#104=EDGE_CURVE('',#139,#136,#164,.T.);
#105=EDGE_CURVE('',#139,#138,#165,.T.);
#106=EDGE_CURVE('',#138,#134,#166,.T.);
#107=EDGE_CURVE('',#139,#135,#167,.T.);
#108=EDGE_CURVE('',#140,#141,#12,.T.);
#109=EDGE_CURVE('',#142,#140,#168,.T.);
#110=EDGE_CURVE('',#142,#143,#13,.T.);
#111=EDGE_CURVE('',#143,#141,#169,.T.);
#112=EDGE_CURVE('',#141,#144,#170,.T.);
#113=EDGE_CURVE('',#143,#145,#171,.T.);
#114=EDGE_CURVE('',#145,#144,#172,.T.);
#115=EDGE_CURVE('',#144,#146,#14,.T.);
#116=EDGE_CURVE('',#145,#147,#15,.T.);
#117=EDGE_CURVE('',#147,#146,#173,.T.);
#118=EDGE_CURVE('',#146,#148,#174,.T.);
#119=EDGE_CURVE('',#147,#149,#175,.T.);
#120=EDGE_CURVE('',#149,#148,#176,.T.);
#121=EDGE_CURVE('',#148,#150,#16,.T.);
#122=EDGE_CURVE('',#149,#151,#17,.T.);
#123=EDGE_CURVE('',#151,#150,#177,.T.);
#124=EDGE_CURVE('',#150,#152,#178,.T.);
#125=EDGE_CURVE('',#151,#153,#179,.T.);
#126=EDGE_CURVE('',#153,#152,#180,.T.);
#127=EDGE_CURVE('',#152,#154,#18,.T.);
#128=EDGE_CURVE('',#153,#155,#19,.T.);
#129=EDGE_CURVE('',#155,#154,#181,.T.);
#130=EDGE_CURVE('',#154,#140,#182,.T.);
#131=EDGE_CURVE('',#155,#142,#183,.T.);
#132=VERTEX_POINT('',#385);
#133=VERTEX_POINT('',#386);
#134=VERTEX_POINT('',#388);
#135=VERTEX_POINT('',#390);
#136=VERTEX_POINT('',#394);
#137=VERTEX_POINT('',#395);
#138=VERTEX_POINT('',#400);
#139=VERTEX_POINT('',#402);
#140=VERTEX_POINT('',#410);
#141=VERTEX_POINT('',#411);
#142=VERTEX_POINT('',#413);
#143=VERTEX_POINT('',#415);
#144=VERTEX_POINT('',#419);
#145=VERTEX_POINT('',#421);
#146=VERTEX_POINT('',#425);
#147=VERTEX_POINT('',#427);
#148=VERTEX_POINT('',#431);
#149=VERTEX_POINT('',#433);
#150=VERTEX_POINT('',#437);
#151=VERTEX_POINT('',#439);
#152=VERTEX_POINT('',#443);
#153=VERTEX_POINT('',#445);
#154=VERTEX_POINT('',#449);
#155=VERTEX_POINT('',#451);
#156=LINE('',#384,#184);
#157=LINE('',#387,#185);
#158=LINE('',#389,#186);
#159=LINE('',#391,#187);
#160=LINE('',#393,#188);
#161=LINE('',#396,#189);
#162=LINE('',#397,#190);
#163=LINE('',#399,#191);
#164=LINE('',#401,#192);
#165=LINE('',#403,#193);
#166=LINE('',#405,#194);
#167=LINE('',#406,#195);
#168=LINE('',#412,#196);
#169=LINE('',#416,#197);
#170=LINE('',#418,#198);
#171=LINE('',#420,#199);
#172=LINE('',#422,#200);
#173=LINE('',#428,#201);
#174=LINE('',#430,#202);
#175=LINE('',#432,#203);
#176=LINE('',#434,#204);
#177=LINE('',#440,#205);
#178=LINE('',#442,#206);
#179=LINE('',#444,#207);
#180=LINE('',#446,#208);
#181=LINE('',#452,#209);
#182=LINE('',#454,#210);
#183=LINE('',#455,#211);
#184=VECTOR('',#310,1.);
#185=VECTOR('',#311,1.);
#186=VECTOR('',#312,1.);
#187=VECTOR('',#313,1.);
#188=VECTOR('',#316,1.);
#189=VECTOR('',#317,1.);
#190=VECTOR('',#318,1.);
#191=VECTOR('',#321,1.);
#192=VECTOR('',#322,1.);
#193=VECTOR('',#323,1.);
#194=VECTOR('',#326,1.);
#195=VECTOR('',#327,1.);
#196=VECTOR('',#334,1.);
#197=VECTOR('',#337,1.);
#198=VECTOR('',#340,1.);
#199=VECTOR('',#341,1.);
#200=VECTOR('',#342,1.);
#201=VECTOR('',#349,1.);
#202=VECTOR('',#352,1.);
#203=VECTOR('',#353,1.);
#204=VECTOR('',#354,1.);
#205=VECTOR('',#361,1.);
#206=VECTOR('',#364,1.);
#207=VECTOR('',#365,1.);
#208=VECTOR('',#366,1.);
#209=VECTOR('',#373,1.);
#210=VECTOR('',#376,1.);
#211=VECTOR('',#377,1.);
#212=EDGE_LOOP('',(#24,#25,#26,#27));
#213=EDGE_LOOP('',(#28,#29,#30,#31));
#214=EDGE_LOOP('',(#32,#33,#34,#35));
#215=EDGE_LOOP('',(#36,#37,#38,#39));
#216=EDGE_LOOP('',(#40,#41,#42,#43));
#217=EDGE_LOOP('',(#44,#45,#46,#47));
#218=EDGE_LOOP('',(#48,#49,#50,#51));
#219=EDGE_LOOP('',(#52,#53,#54,#55));
#220=EDGE_LOOP('',(#56,#57,#58,#59));
#221=EDGE_LOOP('',(#60,#61,#62,#63));
#222=EDGE_LOOP('',(#64,#65,#66,#67));
#223=EDGE_LOOP('',(#68,#69,#70,#71));
#224=EDGE_LOOP('',(#72,#73,#74,#75));
#225=EDGE_LOOP('',(#76,#77,#78,#79));
#226=EDGE_LOOP('',(#80,#81,#82,#83,#84,#85,#86,#87));
#227=EDGE_LOOP('',(#88,#89,#90,#91,#92,#93,#94,#95));
#228=FACE_BOUND('',#212,.T.);
#229=FACE_BOUND('',#213,.T.);
#230=FACE_BOUND('',#214,.T.);
#231=FACE_BOUND('',#215,.T.);
#232=FACE_BOUND('',#216,.T.);
#233=FACE_BOUND('',#217,.T.);
#234=FACE_BOUND('',#218,.T.);
#235=FACE_BOUND('',#219,.T.);
#236=FACE_BOUND('',#220,.T.);
#237=FACE_BOUND('',#221,.T.);
#238=FACE_BOUND('',#222,.T.);
#239=FACE_BOUND('',#223,.T.);
#240=FACE_BOUND('',#224,.T.);
#241=FACE_BOUND('',#225,.T.);
#242=FACE_BOUND('',#226,.T.);
#243=FACE_BOUND('',#227,.T.);
#244=PLANE('',#283);
#245=PLANE('',#284);
#246=PLANE('',#285);
#247=PLANE('',#286);
#248=PLANE('',#287);
#249=PLANE('',#291);
#250=PLANE('',#295);
#251=PLANE('',#299);
#252=PLANE('',#303);
#253=PLANE('',#304);
#254=PLANE('',#305);
#255=ADVANCED_FACE('',(#228),#244,.T.);
#256=ADVANCED_FACE('',(#229),#245,.T.);
#257=ADVANCED_FACE('',(#230),#246,.F.);
#258=ADVANCED_FACE('',(#231),#247,.T.);
#259=ADVANCED_FACE('',(#232),#248,.F.);
#260=ADVANCED_FACE('',(#233),#20,.T.);
#261=ADVANCED_FACE('',(#234),#249,.T.);
#262=ADVANCED_FACE('',(#235),#21,.T.);
#263=ADVANCED_FACE('',(#236),#250,.T.);
#264=ADVANCED_FACE('',(#237),#22,.T.);
#265=ADVANCED_FACE('',(#238),#251,.T.);
#266=ADVANCED_FACE('',(#239),#23,.T.);
#267=ADVANCED_FACE('',(#240),#252,.T.);
#268=ADVANCED_FACE('',(#241,#242),#253,.F.);
#269=ADVANCED_FACE('',(#243),#254,.T.);
#270=CLOSED_SHELL('',(#255,#256,#257,#258,#259,#260,#261,#262,#263,#264,
#265,#266,#267,#268,#269));
#271=STYLED_ITEM('',(#272),#279);
#272=PRESENTATION_STYLE_ASSIGNMENT((#273));
#273=SURFACE_STYLE_USAGE(.BOTH.,#274);
#274=SURFACE_SIDE_STYLE('',(#275));
#275=SURFACE_STYLE_FILL_AREA(#276);
#276=FILL_AREA_STYLE('',(#277));
#277=FILL_AREA_STYLE_COLOUR('',#278);
#278=COLOUR_RGB('',0.768627450980392,0.886274509803922,0.952941176470588);
#279=MANIFOLD_SOLID_BREP('box_2',#270);
#280=SHAPE_DEFINITION_REPRESENTATION(#464,#281);
#281=SHAPE_REPRESENTATION('box_2',(#282),#459);
#282=AXIS2_PLACEMENT_3D('',#382,#306,#307);
#283=AXIS2_PLACEMENT_3D('',#383,#308,#309);
#284=AXIS2_PLACEMENT_3D('',#392,#314,#315);
#285=AXIS2_PLACEMENT_3D('',#398,#319,#320);
#286=AXIS2_PLACEMENT_3D('',#404,#324,#325);
#287=AXIS2_PLACEMENT_3D('',#407,#328,#329);
#288=AXIS2_PLACEMENT_3D('',#408,#330,#331);
#289=AXIS2_PLACEMENT_3D('',#409,#332,#333);
#290=AXIS2_PLACEMENT_3D('',#414,#335,#336);
#291=AXIS2_PLACEMENT_3D('',#417,#338,#339);
#292=AXIS2_PLACEMENT_3D('',#423,#343,#344);
#293=AXIS2_PLACEMENT_3D('',#424,#345,#346);
#294=AXIS2_PLACEMENT_3D('',#426,#347,#348);
#295=AXIS2_PLACEMENT_3D('',#429,#350,#351);
#296=AXIS2_PLACEMENT_3D('',#435,#355,#356);
#297=AXIS2_PLACEMENT_3D('',#436,#357,#358);
#298=AXIS2_PLACEMENT_3D('',#438,#359,#360);
#299=AXIS2_PLACEMENT_3D('',#441,#362,#363);
#300=AXIS2_PLACEMENT_3D('',#447,#367,#368);
#301=AXIS2_PLACEMENT_3D('',#448,#369,#370);
#302=AXIS2_PLACEMENT_3D('',#450,#371,#372);
#303=AXIS2_PLACEMENT_3D('',#453,#374,#375);
#304=AXIS2_PLACEMENT_3D('',#456,#378,#379);
#305=AXIS2_PLACEMENT_3D('',#457,#380,#381);
#306=DIRECTION('',(0.,0.,1.));
#307=DIRECTION('',(1.,0.,0.));
#308=DIRECTION('',(0.,-1.,0.));
#309=DIRECTION('',(0.,0.,-1.));
#310=DIRECTION('',(0.,0.,-1.));
#311=DIRECTION('',(-1.,0.,0.));
#312=DIRECTION('',(0.,0.,-1.));
#313=DIRECTION('',(-1.,0.,0.));
#314=DIRECTION('',(-1.,0.,0.));
#315=DIRECTION('',(0.,0.,1.));
#316=DIRECTION('',(0.,0.,-1.));
#317=DIRECTION('',(0.,1.,0.));
#318=DIRECTION('',(0.,1.,0.));
#319=DIRECTION('',(0.,-1.,0.));
#320=DIRECTION('',(0.,0.,-1.));
#321=DIRECTION('',(-1.,0.,0.));
#322=DIRECTION('',(-1.,0.,0.));
#323=DIRECTION('',(0.,0.,-1.));
#324=DIRECTION('',(1.,0.,0.));
#325=DIRECTION('',(0.,0.,-1.));
#326=DIRECTION('',(0.,-1.,0.));
#327=DIRECTION('',(0.,-1.,0.));
#328=DIRECTION('',(0.,0.,-1.));
#329=DIRECTION('',(1.,0.,0.));
#330=DIRECTION('',(0.,0.,-1.));
#331=DIRECTION('',(-1.,0.,0.));
#332=DIRECTION('',(0.,0.,-1.));
#333=DIRECTION('',(-1.,0.,0.));
#334=DIRECTION('',(0.,0.,-1.));
#335=DIRECTION('',(0.,0.,-1.));
#336=DIRECTION('',(-1.,0.,0.));
#337=DIRECTION('',(0.,0.,-1.));
#338=DIRECTION('',(-1.,0.,0.));
#339=DIRECTION('',(0.,0.,1.));
#340=DIRECTION('',(0.,1.,0.));
#341=DIRECTION('',(0.,1.,0.));
#342=DIRECTION('',(0.,0.,-1.));
#343=DIRECTION('',(0.,0.,-1.));
#344=DIRECTION('',(-1.,0.,0.));
#345=DIRECTION('',(0.,0.,-1.));
#346=DIRECTION('',(-1.,0.,0.));
#347=DIRECTION('',(0.,0.,-1.));
#348=DIRECTION('',(-1.,0.,0.));
#349=DIRECTION('',(0.,0.,-1.));
#350=DIRECTION('',(0.,1.,0.));
#351=DIRECTION('',(0.,0.,1.));
#352=DIRECTION('',(1.,0.,0.));
#353=DIRECTION('',(1.,0.,0.));
#354=DIRECTION('',(0.,0.,-1.));
#355=DIRECTION('',(0.,0.,-1.));
#356=DIRECTION('',(-1.,0.,0.));
#357=DIRECTION('',(0.,0.,-1.));
#358=DIRECTION('',(-1.,0.,0.));
#359=DIRECTION('',(0.,0.,-1.));
#360=DIRECTION('',(-1.,0.,0.));
#361=DIRECTION('',(0.,0.,-1.));
#362=DIRECTION('',(1.,0.,0.));
#363=DIRECTION('',(0.,0.,-1.));
#364=DIRECTION('',(0.,-1.,0.));
#365=DIRECTION('',(0.,-1.,0.));
#366=DIRECTION('',(0.,0.,-1.));
#367=DIRECTION('',(0.,0.,-1.));
#368=DIRECTION('',(-1.,0.,0.));
#369=DIRECTION('',(0.,0.,-1.));
#370=DIRECTION('',(-1.,0.,0.));
#371=DIRECTION('',(0.,0.,-1.));
#372=DIRECTION('',(-1.,0.,0.));
#373=DIRECTION('',(0.,0.,-1.));
#374=DIRECTION('',(0.,-1.,0.));
#375=DIRECTION('',(0.,0.,-1.));
#376=DIRECTION('',(-1.,0.,0.));
#377=DIRECTION('',(-1.,0.,0.));
#378=DIRECTION('',(0.,0.,-1.));
#379=DIRECTION('',(1.,0.,0.));
#380=DIRECTION('',(0.,0.,-1.));
#381=DIRECTION('',(1.,0.,0.));
#382=CARTESIAN_POINT('',(0.,0.,0.));
#383=CARTESIAN_POINT('',(0.000781778809535692,0.0794452888852981,-0.104));
#384=CARTESIAN_POINT('',(-0.0227349145595942,0.0794452888852981,-0.104));
#385=CARTESIAN_POINT('',(-0.0227349145595942,0.0794452888852981,-0.104));
#386=CARTESIAN_POINT('',(-0.0227349145595942,0.0794452888852981,-0.108));
#387=CARTESIAN_POINT('',(0.000781778809535692,0.0794452888852981,-0.108));
#388=CARTESIAN_POINT('',(0.0242984721786656,0.0794452888852981,-0.108));
#389=CARTESIAN_POINT('',(0.0242984721786656,0.0794452888852981,-0.104));
#390=CARTESIAN_POINT('',(0.0242984721786656,0.0794452888852981,-0.104));
#391=CARTESIAN_POINT('',(0.000781778809535692,0.0794452888852981,-0.104));
#392=CARTESIAN_POINT('',(-0.0227349145595942,0.121745288885298,-0.104));
#393=CARTESIAN_POINT('',(-0.0227349145595942,0.164045288885298,-0.104));
#394=CARTESIAN_POINT('',(-0.0227349145595942,0.164045288885298,-0.104));
#395=CARTESIAN_POINT('',(-0.0227349145595942,0.164045288885298,-0.108));
#396=CARTESIAN_POINT('',(-0.0227349145595942,0.121745288885298,-0.108));
#397=CARTESIAN_POINT('',(-0.0227349145595942,0.121745288885298,-0.104));
#398=CARTESIAN_POINT('',(0.000781778809535692,0.164045288885298,-0.104));
#399=CARTESIAN_POINT('',(0.000781778809535692,0.164045288885298,-0.108));
#400=CARTESIAN_POINT('',(0.0242984721786656,0.164045288885298,-0.108));
#401=CARTESIAN_POINT('',(0.000781778809535692,0.164045288885298,-0.104));
#402=CARTESIAN_POINT('',(0.0242984721786656,0.164045288885298,-0.104));
#403=CARTESIAN_POINT('',(0.0242984721786656,0.164045288885298,-0.104));
#404=CARTESIAN_POINT('',(0.0242984721786656,0.121745288885298,-0.104));
#405=CARTESIAN_POINT('',(0.0242984721786656,0.121745288885298,-0.108));
#406=CARTESIAN_POINT('',(0.0242984721786656,0.121745288885298,-0.104));
#407=CARTESIAN_POINT('',(0.000781778809535692,0.129245288885298,-0.104));
#408=CARTESIAN_POINT('',(-0.0229349145595942,0.0792452888852981,-0.108));
#409=CARTESIAN_POINT('',(-0.0229349145595942,0.0792452888852981,-0.11));
#410=CARTESIAN_POINT('',(-0.0229349145595942,0.0742452888852981,-0.11));
#411=CARTESIAN_POINT('',(-0.0279349145595942,0.0792452888852981,-0.11));
#412=CARTESIAN_POINT('',(-0.0229349145595942,0.0742452888852981,-0.108));
#413=CARTESIAN_POINT('',(-0.0229349145595942,0.0742452888852981,-0.108));
#414=CARTESIAN_POINT('',(-0.0229349145595942,0.0792452888852981,-0.108));
#415=CARTESIAN_POINT('',(-0.0279349145595942,0.0792452888852981,-0.108));
#416=CARTESIAN_POINT('',(-0.0279349145595942,0.0792452888852981,-0.108));
#417=CARTESIAN_POINT('',(-0.0279349145595942,0.129245288885298,-0.108));
#418=CARTESIAN_POINT('',(-0.0279349145595942,0.129245288885298,-0.11));
#419=CARTESIAN_POINT('',(-0.0279349145595942,0.179245288885298,-0.11));
#420=CARTESIAN_POINT('',(-0.0279349145595942,0.129245288885298,-0.108));
#421=CARTESIAN_POINT('',(-0.0279349145595942,0.179245288885298,-0.108));
#422=CARTESIAN_POINT('',(-0.0279349145595942,0.179245288885298,-0.108));
#423=CARTESIAN_POINT('',(-0.0229349145595942,0.179245288885298,-0.108));
#424=CARTESIAN_POINT('',(-0.0229349145595942,0.179245288885298,-0.11));
#425=CARTESIAN_POINT('',(-0.0229349145595941,0.184245288885298,-0.11));
#426=CARTESIAN_POINT('',(-0.0229349145595942,0.179245288885298,-0.108));
#427=CARTESIAN_POINT('',(-0.0229349145595941,0.184245288885298,-0.108));
#428=CARTESIAN_POINT('',(-0.0229349145595941,0.184245288885298,-0.108));
#429=CARTESIAN_POINT('',(0.00078177880953571,0.184245288885298,-0.108));
#430=CARTESIAN_POINT('',(0.00078177880953571,0.184245288885298,-0.11));
#431=CARTESIAN_POINT('',(0.0244984721786656,0.184245288885298,-0.11));
#432=CARTESIAN_POINT('',(0.00078177880953571,0.184245288885298,-0.108));
#433=CARTESIAN_POINT('',(0.0244984721786656,0.184245288885298,-0.108));
#434=CARTESIAN_POINT('',(0.0244984721786656,0.184245288885298,-0.108));
#435=CARTESIAN_POINT('',(0.0244984721786656,0.179245288885298,-0.108));
#436=CARTESIAN_POINT('',(0.0244984721786656,0.179245288885298,-0.11));
#437=CARTESIAN_POINT('',(0.0294984721786656,0.179245288885298,-0.11));
#438=CARTESIAN_POINT('',(0.0244984721786656,0.179245288885298,-0.108));
#439=CARTESIAN_POINT('',(0.0294984721786656,0.179245288885298,-0.108));
#440=CARTESIAN_POINT('',(0.0294984721786656,0.179245288885298,-0.108));
#441=CARTESIAN_POINT('',(0.0294984721786656,0.129245288885298,-0.108));
#442=CARTESIAN_POINT('',(0.0294984721786656,0.129245288885298,-0.11));
#443=CARTESIAN_POINT('',(0.0294984721786656,0.0792452888852981,-0.11));
#444=CARTESIAN_POINT('',(0.0294984721786656,0.129245288885298,-0.108));
#445=CARTESIAN_POINT('',(0.0294984721786656,0.0792452888852981,-0.108));
#446=CARTESIAN_POINT('',(0.0294984721786656,0.0792452888852981,-0.108));
#447=CARTESIAN_POINT('',(0.0244984721786656,0.0792452888852981,-0.108));
#448=CARTESIAN_POINT('',(0.0244984721786656,0.0792452888852981,-0.11));
#449=CARTESIAN_POINT('',(0.0244984721786656,0.0742452888852981,-0.11));
#450=CARTESIAN_POINT('',(0.0244984721786656,0.0792452888852981,-0.108));
#451=CARTESIAN_POINT('',(0.0244984721786656,0.0742452888852981,-0.108));
#452=CARTESIAN_POINT('',(0.0244984721786656,0.0742452888852981,-0.108));
#453=CARTESIAN_POINT('',(0.000781778809535704,0.0742452888852981,-0.108));
#454=CARTESIAN_POINT('',(0.000781778809535704,0.0742452888852981,-0.11));
#455=CARTESIAN_POINT('',(0.000781778809535704,0.0742452888852981,-0.108));
#456=CARTESIAN_POINT('',(0.000781778809535692,0.129245288885298,-0.108));
#457=CARTESIAN_POINT('',(0.000781778809535692,0.129245288885298,-0.11));
#458=MECHANICAL_DESIGN_GEOMETRIC_PRESENTATION_REPRESENTATION('',(#271),
#459);
#459=(
GEOMETRIC_REPRESENTATION_CONTEXT(3)
GLOBAL_UNCERTAINTY_ASSIGNED_CONTEXT((#460))
GLOBAL_UNIT_ASSIGNED_CONTEXT((#463,#462,#461))
REPRESENTATION_CONTEXT('box_2','TOP_LEVEL_ASSEMBLY_PART')
);
#460=UNCERTAINTY_MEASURE_WITH_UNIT(LENGTH_MEASURE(1.E-8),#463,
'DISTANCE_ACCURACY_VALUE','Maximum Tolerance applied to model');
#461=(
NAMED_UNIT(*)
SI_UNIT($,.STERADIAN.)
SOLID_ANGLE_UNIT()
);
#462=(
NAMED_UNIT(*)
PLANE_ANGLE_UNIT()
SI_UNIT($,.RADIAN.)
);
#463=(
LENGTH_UNIT()
NAMED_UNIT(*)
SI_UNIT($,.METRE.)
);
#464=PRODUCT_DEFINITION_SHAPE('','',#465);
#465=PRODUCT_DEFINITION('','',#467,#466);
#466=PRODUCT_DEFINITION_CONTEXT('',#473,'design');
#467=PRODUCT_DEFINITION_FORMATION_WITH_SPECIFIED_SOURCE('','',#469,
 .NOT_KNOWN.);
#468=PRODUCT_RELATED_PRODUCT_CATEGORY('','',(#469));
#469=PRODUCT('box_2','box_2','box_2',(#471));
#470=PRODUCT_CATEGORY('','');
#471=PRODUCT_CONTEXT('',#473,'mechanical');
#472=APPLICATION_PROTOCOL_DEFINITION('international standard',
'ap242_managed_model_based_3d_engineering',2020,#473);
#473=APPLICATION_CONTEXT('managed model based 3d engineering');
ENDSEC;
END-ISO-10303-21;
