ISO-10303-21;
HEADER;
/* Generated by software containing ST-Developer
 * from STEP Tools, Inc. (www.steptools.com) 
 */
/* OPTION: using custom renumber hook */

FILE_DESCRIPTION(
/* description */ ('STEP AP242 Edition 2',
'CAx-IF Rec.Pracs.---Representation and Presentation of Product Manufa
cturing Information (PMI)---4.0---2014-10-13',
'CAx-IF Rec.Pracs.---3D Tessellated Geometry---0.4---2014-09-14','2;1',
'CAx-IF Rec.Pracs.---User Defined Attributes---1.5---2016-08-15'),
/* implementation_level */ '2;1');

FILE_NAME(
/* name */ 'landedConcept v4 parts - base_hinge_1',
/* time_stamp */ '2026-01-03T01:02:39Z',
/* author */ (''),
/* organization */ (''),
/* preprocessor_version */ 'ST-DEVELOPER v20',
/* originating_system */ 'ONSHAPE BY PTC INC, 1.208',
/* authorisation */ '  ');

FILE_SCHEMA (('AP242_MANAGED_MODEL_BASED_3D_ENGINEERING_MIM_LF { 1 0 10303 442 3 1 4 }'));
ENDSEC;

DATA;
#10=SHAPE_REPRESENTATION_RELATIONSHIP('','',#852,#11);
#11=ADVANCED_BREP_SHAPE_REPRESENTATION('',(#850),#1506);
#12=B_SPLINE_CURVE_WITH_KNOTS('',3,(#1378,#1379,#1380,#1381,#1382,#1383,
#1384,#1385,#1386,#1387,#1388,#1389,#1390,#1391,#1392,#1393,#1394,#1395,
#1396,#1397,#1398,#1399,#1400,#1401,#1402,#1403,#1404,#1405,#1406,#1407,
#1408,#1409,#1410,#1411,#1412),.UNSPECIFIED.,.T.,.F.,(1,1,1,1,1,1,1,1,1,
1,1,1,1,1,1,1,1,1,1,1,1,1,1,1,1,1,1,1,1,1,1,1,1,1,1,1,1,1,1),(-0.00479084374540303,
-0.00319389583026868,-0.00159694791513434,8.39821905839148E-19,0.00159694791513434,
0.00319389583026869,0.00479084374540303,0.00638779166053737,0.00798473957567171,
0.00958168749080606,0.0111786354059404,0.0127755833210747,0.0143725312362091,
0.0159694791513434,0.0175664270664778,0.0191633749816121,0.0207603228967465,
0.0223572708118808,0.0239542187270151,0.0255511666421495,0.0271481145572838,
0.0287450624724182,0.0303420103875525,0.0319389583026869,0.0335359062178212,
0.0351328541329555,0.0367298020480899,0.0383267499632242,0.0399236978783586,
0.0415206457934929,0.0431175937086272,0.0447145416237616,0.0463114895388959,
0.0479084374540303,0.0495053853691646,0.051102333284299,0.0526992811994333,
0.0542962291145676,0.055893177029702),.UNSPECIFIED.);
#13=B_SPLINE_CURVE_WITH_KNOTS('',3,(#1417,#1418,#1419,#1420,#1421,#1422,
#1423,#1424,#1425,#1426,#1427),.UNSPECIFIED.,.F.,.F.,(4,1,1,1,1,1,1,1,4),
(0.,0.00156238340995263,0.00312476681990526,0.00468715022985789,0.00624953363981052,
0.00781191704976315,0.00937430045971578,0.0109366838696684,0.012499067279621),
 .UNSPECIFIED.);
#14=B_SPLINE_CURVE_WITH_KNOTS('',3,(#1432,#1433,#1434,#1435,#1436,#1437,
#1438,#1439,#1440),.UNSPECIFIED.,.F.,.F.,(4,1,1,1,1,1,4),(1.73472347597681E-18,
0.00158831816628878,0.00317663633257756,0.00635327266515512,0.00952990899773268,
0.0111182271640215,0.0127065453303102),.UNSPECIFIED.);
#15=B_SPLINE_CURVE_WITH_KNOTS('',3,(#1443,#1444,#1445,#1446,#1447,#1448,
#1449,#1450,#1451,#1452,#1453),.UNSPECIFIED.,.F.,.F.,(4,1,1,1,1,1,1,1,4),
(1.73472347597681E-18,0.00185954069899995,0.0037190813979999,0.00557862209699985,
0.00743816279599979,0.00929770349499974,0.0111572441939997,0.0130167848929996,
0.0148763255919996),.UNSPECIFIED.);
#16=B_SPLINE_CURVE_WITH_KNOTS('',3,(#1457,#1458,#1459,#1460,#1461,#1462,
#1463),.UNSPECIFIED.,.F.,.F.,(4,1,1,1,4),(0.,0.00262048683916778,0.00524097367833555,
0.00786146051750333,0.0104819473566711),.UNSPECIFIED.);
#17=CYLINDRICAL_SURFACE('',#873,0.09);
#18=CYLINDRICAL_SURFACE('',#875,0.09);
#19=CYLINDRICAL_SURFACE('',#877,0.0725400000000014);
#20=CYLINDRICAL_SURFACE('',#880,0.00220000000000003);
#21=CYLINDRICAL_SURFACE('',#882,0.08274);
#22=CYLINDRICAL_SURFACE('',#885,0.07734);
#23=CYLINDRICAL_SURFACE('',#888,0.07274);
#24=CYLINDRICAL_SURFACE('',#891,0.077339999999999);
#25=CYLINDRICAL_SURFACE('',#894,0.08274);
#26=CYLINDRICAL_SURFACE('',#896,0.0022);
#27=CYLINDRICAL_SURFACE('',#899,0.0725400000000014);
#28=CYLINDRICAL_SURFACE('',#910,0.01);
#29=CYLINDRICAL_SURFACE('',#911,0.01);
#30=CYLINDRICAL_SURFACE('',#912,0.006);
#31=CYLINDRICAL_SURFACE('',#913,0.00628755831279067);
#32=CYLINDRICAL_SURFACE('',#914,0.01);
#33=CYLINDRICAL_SURFACE('',#915,0.00492697748478413);
#34=CYLINDRICAL_SURFACE('',#925,0.01);
#35=CYLINDRICAL_SURFACE('',#927,0.01);
#36=CYLINDRICAL_SURFACE('',#929,0.01);
#37=CYLINDRICAL_SURFACE('',#931,0.01);
#38=CYLINDRICAL_SURFACE('',#939,0.004);
#39=CYLINDRICAL_SURFACE('',#940,0.004);
#40=CYLINDRICAL_SURFACE('',#941,0.004);
#41=LINE('',#1194,#111);
#42=LINE('',#1197,#112);
#43=LINE('',#1199,#113);
#44=LINE('',#1201,#114);
#45=LINE('',#1207,#115);
#46=LINE('',#1211,#116);
#47=LINE('',#1217,#117);
#48=LINE('',#1221,#118);
#49=LINE('',#1225,#119);
#50=LINE('',#1229,#120);
#51=LINE('',#1235,#121);
#52=LINE('',#1239,#122);
#53=LINE('',#1245,#123);
#54=LINE('',#1247,#124);
#55=LINE('',#1249,#125);
#56=LINE('',#1251,#126);
#57=LINE('',#1259,#127);
#58=LINE('',#1262,#128);
#59=LINE('',#1264,#129);
#60=LINE('',#1266,#130);
#61=LINE('',#1268,#131);
#62=LINE('',#1270,#132);
#63=LINE('',#1274,#133);
#64=LINE('',#1278,#134);
#65=LINE('',#1283,#135);
#66=LINE('',#1284,#136);
#67=LINE('',#1286,#137);
#68=LINE('',#1288,#138);
#69=LINE('',#1292,#139);
#70=LINE('',#1296,#140);
#71=LINE('',#1298,#141);
#72=LINE('',#1300,#142);
#73=LINE('',#1304,#143);
#74=LINE('',#1306,#144);
#75=LINE('',#1308,#145);
#76=LINE('',#1312,#146);
#77=LINE('',#1314,#147);
#78=LINE('',#1316,#148);
#79=LINE('',#1320,#149);
#80=LINE('',#1322,#150);
#81=LINE('',#1324,#151);
#82=LINE('',#1328,#152);
#83=LINE('',#1332,#153);
#84=LINE('',#1334,#154);
#85=LINE('',#1336,#155);
#86=LINE('',#1340,#156);
#87=LINE('',#1342,#157);
#88=LINE('',#1344,#158);
#89=LINE('',#1346,#159);
#90=LINE('',#1348,#160);
#91=LINE('',#1350,#161);
#92=LINE('',#1353,#162);
#93=LINE('',#1361,#163);
#94=LINE('',#1363,#164);
#95=LINE('',#1365,#165);
#96=LINE('',#1367,#166);
#97=LINE('',#1370,#167);
#98=LINE('',#1372,#168);
#99=LINE('',#1415,#169);
#100=LINE('',#1429,#170);
#101=LINE('',#1430,#171);
#102=LINE('',#1441,#172);
#103=LINE('',#1455,#173);
#104=LINE('',#1464,#174);
#105=LINE('',#1470,#175);
#106=LINE('',#1474,#176);
#107=LINE('',#1477,#177);
#108=LINE('',#1478,#178);
#109=LINE('',#1493,#179);
#110=LINE('',#1498,#180);
#111=VECTOR('',#948,1.);
#112=VECTOR('',#949,1.);
#113=VECTOR('',#950,1.);
#114=VECTOR('',#951,1.);
#115=VECTOR('',#956,1.);
#116=VECTOR('',#959,1.);
#117=VECTOR('',#964,1.);
#118=VECTOR('',#967,1.);
#119=VECTOR('',#970,1.);
#120=VECTOR('',#973,1.);
#121=VECTOR('',#978,1.);
#122=VECTOR('',#981,1.);
#123=VECTOR('',#986,1.);
#124=VECTOR('',#987,1.);
#125=VECTOR('',#988,1.);
#126=VECTOR('',#989,1.);
#127=VECTOR('',#998,1.);
#128=VECTOR('',#999,1.);
#129=VECTOR('',#1000,1.);
#130=VECTOR('',#1001,1.);
#131=VECTOR('',#1004,1.);
#132=VECTOR('',#1005,1.);
#133=VECTOR('',#1010,1.);
#134=VECTOR('',#1013,1.);
#135=VECTOR('',#1018,1.);
#136=VECTOR('',#1019,1.);
#137=VECTOR('',#1022,1.);
#138=VECTOR('',#1023,1.);
#139=VECTOR('',#1028,1.);
#140=VECTOR('',#1033,1.);
#141=VECTOR('',#1036,1.);
#142=VECTOR('',#1037,1.);
#143=VECTOR('',#1042,1.);
#144=VECTOR('',#1045,1.);
#145=VECTOR('',#1046,1.);
#146=VECTOR('',#1051,1.);
#147=VECTOR('',#1054,1.);
#148=VECTOR('',#1055,1.);
#149=VECTOR('',#1060,1.);
#150=VECTOR('',#1063,1.);
#151=VECTOR('',#1064,1.);
#152=VECTOR('',#1069,1.);
#153=VECTOR('',#1074,1.);
#154=VECTOR('',#1077,1.);
#155=VECTOR('',#1078,1.);
#156=VECTOR('',#1083,1.);
#157=VECTOR('',#1086,1.);
#158=VECTOR('',#1087,1.);
#159=VECTOR('',#1090,1.);
#160=VECTOR('',#1091,1.);
#161=VECTOR('',#1094,1.);
#162=VECTOR('',#1095,1.);
#163=VECTOR('',#1102,1.);
#164=VECTOR('',#1103,1.);
#165=VECTOR('',#1104,1.);
#166=VECTOR('',#1105,1.);
#167=VECTOR('',#1110,1.);
#168=VECTOR('',#1111,1.);
#169=VECTOR('',#1122,1.);
#170=VECTOR('',#1123,1.);
#171=VECTOR('',#1124,1.);
#172=VECTOR('',#1127,1.);
#173=VECTOR('',#1128,1.);
#174=VECTOR('',#1131,1.);
#175=VECTOR('',#1138,1.);
#176=VECTOR('',#1143,1.);
#177=VECTOR('',#1144,1.);
#178=VECTOR('',#1145,1.);
#179=VECTOR('',#1172,1.);
#180=VECTOR('',#1179,1.);
#181=ORIENTED_EDGE('',*,*,#423,.F.);
#182=ORIENTED_EDGE('',*,*,#424,.F.);
#183=ORIENTED_EDGE('',*,*,#425,.T.);
#184=ORIENTED_EDGE('',*,*,#426,.T.);
#185=ORIENTED_EDGE('',*,*,#427,.F.);
#186=ORIENTED_EDGE('',*,*,#428,.T.);
#187=ORIENTED_EDGE('',*,*,#429,.T.);
#188=ORIENTED_EDGE('',*,*,#430,.T.);
#189=ORIENTED_EDGE('',*,*,#431,.F.);
#190=ORIENTED_EDGE('',*,*,#432,.F.);
#191=ORIENTED_EDGE('',*,*,#433,.F.);
#192=ORIENTED_EDGE('',*,*,#434,.F.);
#193=ORIENTED_EDGE('',*,*,#435,.F.);
#194=ORIENTED_EDGE('',*,*,#436,.T.);
#195=ORIENTED_EDGE('',*,*,#437,.F.);
#196=ORIENTED_EDGE('',*,*,#438,.T.);
#197=ORIENTED_EDGE('',*,*,#439,.T.);
#198=ORIENTED_EDGE('',*,*,#440,.T.);
#199=ORIENTED_EDGE('',*,*,#441,.F.);
#200=ORIENTED_EDGE('',*,*,#442,.F.);
#201=ORIENTED_EDGE('',*,*,#443,.F.);
#202=ORIENTED_EDGE('',*,*,#444,.T.);
#203=ORIENTED_EDGE('',*,*,#445,.T.);
#204=ORIENTED_EDGE('',*,*,#446,.T.);
#205=ORIENTED_EDGE('',*,*,#447,.T.);
#206=ORIENTED_EDGE('',*,*,#448,.T.);
#207=ORIENTED_EDGE('',*,*,#449,.T.);
#208=ORIENTED_EDGE('',*,*,#450,.T.);
#209=ORIENTED_EDGE('',*,*,#451,.F.);
#210=ORIENTED_EDGE('',*,*,#452,.T.);
#211=ORIENTED_EDGE('',*,*,#453,.F.);
#212=ORIENTED_EDGE('',*,*,#454,.T.);
#213=ORIENTED_EDGE('',*,*,#455,.F.);
#214=ORIENTED_EDGE('',*,*,#456,.T.);
#215=ORIENTED_EDGE('',*,*,#457,.T.);
#216=ORIENTED_EDGE('',*,*,#458,.T.);
#217=ORIENTED_EDGE('',*,*,#459,.F.);
#218=ORIENTED_EDGE('',*,*,#460,.F.);
#219=ORIENTED_EDGE('',*,*,#448,.F.);
#220=ORIENTED_EDGE('',*,*,#461,.T.);
#221=ORIENTED_EDGE('',*,*,#462,.T.);
#222=ORIENTED_EDGE('',*,*,#428,.F.);
#223=ORIENTED_EDGE('',*,*,#463,.T.);
#224=ORIENTED_EDGE('',*,*,#464,.T.);
#225=ORIENTED_EDGE('',*,*,#465,.T.);
#226=ORIENTED_EDGE('',*,*,#466,.F.);
#227=ORIENTED_EDGE('',*,*,#467,.F.);
#228=ORIENTED_EDGE('',*,*,#431,.T.);
#229=ORIENTED_EDGE('',*,*,#468,.T.);
#230=ORIENTED_EDGE('',*,*,#469,.F.);
#231=ORIENTED_EDGE('',*,*,#470,.F.);
#232=ORIENTED_EDGE('',*,*,#432,.T.);
#233=ORIENTED_EDGE('',*,*,#467,.T.);
#234=ORIENTED_EDGE('',*,*,#471,.F.);
#235=ORIENTED_EDGE('',*,*,#472,.F.);
#236=ORIENTED_EDGE('',*,*,#433,.T.);
#237=ORIENTED_EDGE('',*,*,#470,.T.);
#238=ORIENTED_EDGE('',*,*,#473,.F.);
#239=ORIENTED_EDGE('',*,*,#474,.F.);
#240=ORIENTED_EDGE('',*,*,#434,.T.);
#241=ORIENTED_EDGE('',*,*,#472,.T.);
#242=ORIENTED_EDGE('',*,*,#475,.F.);
#243=ORIENTED_EDGE('',*,*,#476,.F.);
#244=ORIENTED_EDGE('',*,*,#435,.T.);
#245=ORIENTED_EDGE('',*,*,#474,.T.);
#246=ORIENTED_EDGE('',*,*,#477,.T.);
#247=ORIENTED_EDGE('',*,*,#478,.F.);
#248=ORIENTED_EDGE('',*,*,#436,.F.);
#249=ORIENTED_EDGE('',*,*,#476,.T.);
#250=ORIENTED_EDGE('',*,*,#479,.F.);
#251=ORIENTED_EDGE('',*,*,#480,.F.);
#252=ORIENTED_EDGE('',*,*,#437,.T.);
#253=ORIENTED_EDGE('',*,*,#478,.T.);
#254=ORIENTED_EDGE('',*,*,#481,.T.);
#255=ORIENTED_EDGE('',*,*,#482,.F.);
#256=ORIENTED_EDGE('',*,*,#438,.F.);
#257=ORIENTED_EDGE('',*,*,#480,.T.);
#258=ORIENTED_EDGE('',*,*,#483,.T.);
#259=ORIENTED_EDGE('',*,*,#484,.F.);
#260=ORIENTED_EDGE('',*,*,#439,.F.);
#261=ORIENTED_EDGE('',*,*,#482,.T.);
#262=ORIENTED_EDGE('',*,*,#485,.T.);
#263=ORIENTED_EDGE('',*,*,#486,.F.);
#264=ORIENTED_EDGE('',*,*,#440,.F.);
#265=ORIENTED_EDGE('',*,*,#484,.T.);
#266=ORIENTED_EDGE('',*,*,#487,.F.);
#267=ORIENTED_EDGE('',*,*,#488,.F.);
#268=ORIENTED_EDGE('',*,*,#441,.T.);
#269=ORIENTED_EDGE('',*,*,#486,.T.);
#270=ORIENTED_EDGE('',*,*,#489,.F.);
#271=ORIENTED_EDGE('',*,*,#490,.F.);
#272=ORIENTED_EDGE('',*,*,#442,.T.);
#273=ORIENTED_EDGE('',*,*,#488,.T.);
#274=ORIENTED_EDGE('',*,*,#491,.F.);
#275=ORIENTED_EDGE('',*,*,#492,.F.);
#276=ORIENTED_EDGE('',*,*,#443,.T.);
#277=ORIENTED_EDGE('',*,*,#490,.T.);
#278=ORIENTED_EDGE('',*,*,#493,.T.);
#279=ORIENTED_EDGE('',*,*,#494,.F.);
#280=ORIENTED_EDGE('',*,*,#444,.F.);
#281=ORIENTED_EDGE('',*,*,#492,.T.);
#282=ORIENTED_EDGE('',*,*,#495,.T.);
#283=ORIENTED_EDGE('',*,*,#496,.F.);
#284=ORIENTED_EDGE('',*,*,#445,.F.);
#285=ORIENTED_EDGE('',*,*,#494,.T.);
#286=ORIENTED_EDGE('',*,*,#497,.T.);
#287=ORIENTED_EDGE('',*,*,#498,.T.);
#288=ORIENTED_EDGE('',*,*,#446,.F.);
#289=ORIENTED_EDGE('',*,*,#496,.T.);
#290=ORIENTED_EDGE('',*,*,#430,.F.);
#291=ORIENTED_EDGE('',*,*,#499,.T.);
#292=ORIENTED_EDGE('',*,*,#500,.T.);
#293=ORIENTED_EDGE('',*,*,#468,.F.);
#294=ORIENTED_EDGE('',*,*,#501,.F.);
#295=ORIENTED_EDGE('',*,*,#502,.T.);
#296=ORIENTED_EDGE('',*,*,#503,.F.);
#297=ORIENTED_EDGE('',*,*,#504,.T.);
#298=ORIENTED_EDGE('',*,*,#505,.F.);
#299=ORIENTED_EDGE('',*,*,#506,.F.);
#300=ORIENTED_EDGE('',*,*,#507,.T.);
#301=ORIENTED_EDGE('',*,*,#508,.T.);
#302=ORIENTED_EDGE('',*,*,#509,.F.);
#303=ORIENTED_EDGE('',*,*,#462,.F.);
#304=ORIENTED_EDGE('',*,*,#510,.T.);
#305=ORIENTED_EDGE('',*,*,#497,.F.);
#306=ORIENTED_EDGE('',*,*,#495,.F.);
#307=ORIENTED_EDGE('',*,*,#493,.F.);
#308=ORIENTED_EDGE('',*,*,#491,.T.);
#309=ORIENTED_EDGE('',*,*,#489,.T.);
#310=ORIENTED_EDGE('',*,*,#487,.T.);
#311=ORIENTED_EDGE('',*,*,#485,.F.);
#312=ORIENTED_EDGE('',*,*,#483,.F.);
#313=ORIENTED_EDGE('',*,*,#481,.F.);
#314=ORIENTED_EDGE('',*,*,#479,.T.);
#315=ORIENTED_EDGE('',*,*,#477,.F.);
#316=ORIENTED_EDGE('',*,*,#475,.T.);
#317=ORIENTED_EDGE('',*,*,#473,.T.);
#318=ORIENTED_EDGE('',*,*,#471,.T.);
#319=ORIENTED_EDGE('',*,*,#469,.T.);
#320=ORIENTED_EDGE('',*,*,#466,.T.);
#321=ORIENTED_EDGE('',*,*,#500,.F.);
#322=ORIENTED_EDGE('',*,*,#511,.T.);
#323=ORIENTED_EDGE('',*,*,#464,.F.);
#324=ORIENTED_EDGE('',*,*,#512,.T.);
#325=ORIENTED_EDGE('',*,*,#513,.T.);
#326=ORIENTED_EDGE('',*,*,#514,.F.);
#327=ORIENTED_EDGE('',*,*,#447,.F.);
#328=ORIENTED_EDGE('',*,*,#498,.F.);
#329=ORIENTED_EDGE('',*,*,#510,.F.);
#330=ORIENTED_EDGE('',*,*,#461,.F.);
#331=ORIENTED_EDGE('',*,*,#429,.F.);
#332=ORIENTED_EDGE('',*,*,#465,.F.);
#333=ORIENTED_EDGE('',*,*,#511,.F.);
#334=ORIENTED_EDGE('',*,*,#499,.F.);
#335=ORIENTED_EDGE('',*,*,#515,.T.);
#336=ORIENTED_EDGE('',*,*,#514,.T.);
#337=ORIENTED_EDGE('',*,*,#423,.T.);
#338=ORIENTED_EDGE('',*,*,#516,.F.);
#339=ORIENTED_EDGE('',*,*,#517,.T.);
#340=ORIENTED_EDGE('',*,*,#518,.F.);
#341=ORIENTED_EDGE('',*,*,#503,.T.);
#342=ORIENTED_EDGE('',*,*,#519,.T.);
#343=ORIENTED_EDGE('',*,*,#455,.T.);
#344=ORIENTED_EDGE('',*,*,#520,.F.);
#345=ORIENTED_EDGE('',*,*,#516,.T.);
#346=ORIENTED_EDGE('',*,*,#454,.F.);
#347=ORIENTED_EDGE('',*,*,#521,.F.);
#348=ORIENTED_EDGE('',*,*,#522,.F.);
#349=ORIENTED_EDGE('',*,*,#523,.F.);
#350=ORIENTED_EDGE('',*,*,#504,.F.);
#351=ORIENTED_EDGE('',*,*,#518,.T.);
#352=ORIENTED_EDGE('',*,*,#523,.T.);
#353=ORIENTED_EDGE('',*,*,#524,.T.);
#354=ORIENTED_EDGE('',*,*,#521,.T.);
#355=ORIENTED_EDGE('',*,*,#453,.T.);
#356=ORIENTED_EDGE('',*,*,#525,.F.);
#357=ORIENTED_EDGE('',*,*,#505,.T.);
#358=ORIENTED_EDGE('',*,*,#526,.F.);
#359=ORIENTED_EDGE('',*,*,#427,.T.);
#360=ORIENTED_EDGE('',*,*,#527,.T.);
#361=ORIENTED_EDGE('',*,*,#528,.F.);
#362=ORIENTED_EDGE('',*,*,#529,.T.);
#363=ORIENTED_EDGE('',*,*,#512,.F.);
#364=ORIENTED_EDGE('',*,*,#463,.F.);
#365=ORIENTED_EDGE('',*,*,#530,.F.);
#366=ORIENTED_EDGE('',*,*,#531,.T.);
#367=ORIENTED_EDGE('',*,*,#528,.T.);
#368=ORIENTED_EDGE('',*,*,#532,.T.);
#369=ORIENTED_EDGE('',*,*,#533,.F.);
#370=ORIENTED_EDGE('',*,*,#509,.T.);
#371=ORIENTED_EDGE('',*,*,#534,.T.);
#372=ORIENTED_EDGE('',*,*,#459,.T.);
#373=ORIENTED_EDGE('',*,*,#535,.T.);
#374=ORIENTED_EDGE('',*,*,#449,.F.);
#375=ORIENTED_EDGE('',*,*,#460,.T.);
#376=ORIENTED_EDGE('',*,*,#536,.F.);
#377=ORIENTED_EDGE('',*,*,#456,.F.);
#378=ORIENTED_EDGE('',*,*,#534,.F.);
#379=ORIENTED_EDGE('',*,*,#508,.F.);
#380=ORIENTED_EDGE('',*,*,#537,.F.);
#381=ORIENTED_EDGE('',*,*,#450,.F.);
#382=ORIENTED_EDGE('',*,*,#535,.F.);
#383=ORIENTED_EDGE('',*,*,#458,.F.);
#384=ORIENTED_EDGE('',*,*,#538,.F.);
#385=ORIENTED_EDGE('',*,*,#532,.F.);
#386=ORIENTED_EDGE('',*,*,#527,.F.);
#387=ORIENTED_EDGE('',*,*,#426,.F.);
#388=ORIENTED_EDGE('',*,*,#539,.F.);
#389=ORIENTED_EDGE('',*,*,#513,.F.);
#390=ORIENTED_EDGE('',*,*,#529,.F.);
#391=ORIENTED_EDGE('',*,*,#531,.F.);
#392=ORIENTED_EDGE('',*,*,#525,.T.);
#393=ORIENTED_EDGE('',*,*,#452,.F.);
#394=ORIENTED_EDGE('',*,*,#540,.F.);
#395=ORIENTED_EDGE('',*,*,#506,.T.);
#396=ORIENTED_EDGE('',*,*,#541,.F.);
#397=ORIENTED_EDGE('',*,*,#457,.F.);
#398=ORIENTED_EDGE('',*,*,#536,.T.);
#399=ORIENTED_EDGE('',*,*,#507,.F.);
#400=ORIENTED_EDGE('',*,*,#540,.T.);
#401=ORIENTED_EDGE('',*,*,#451,.T.);
#402=ORIENTED_EDGE('',*,*,#537,.T.);
#403=ORIENTED_EDGE('',*,*,#519,.F.);
#404=ORIENTED_EDGE('',*,*,#502,.F.);
#405=ORIENTED_EDGE('',*,*,#542,.T.);
#406=ORIENTED_EDGE('',*,*,#424,.T.);
#407=ORIENTED_EDGE('',*,*,#543,.T.);
#408=ORIENTED_EDGE('',*,*,#530,.T.);
#409=ORIENTED_EDGE('',*,*,#538,.T.);
#410=ORIENTED_EDGE('',*,*,#425,.F.);
#411=ORIENTED_EDGE('',*,*,#542,.F.);
#412=ORIENTED_EDGE('',*,*,#501,.T.);
#413=ORIENTED_EDGE('',*,*,#539,.T.);
#414=ORIENTED_EDGE('',*,*,#526,.T.);
#415=ORIENTED_EDGE('',*,*,#543,.F.);
#416=ORIENTED_EDGE('',*,*,#541,.T.);
#417=ORIENTED_EDGE('',*,*,#533,.T.);
#418=ORIENTED_EDGE('',*,*,#515,.F.);
#419=ORIENTED_EDGE('',*,*,#520,.T.);
#420=ORIENTED_EDGE('',*,*,#517,.F.);
#421=ORIENTED_EDGE('',*,*,#522,.T.);
#422=ORIENTED_EDGE('',*,*,#524,.F.);
#423=EDGE_CURVE('',#544,#544,#627,.T.);
#424=EDGE_CURVE('',#545,#546,#41,.T.);
#425=EDGE_CURVE('',#545,#547,#42,.T.);
#426=EDGE_CURVE('',#547,#548,#43,.T.);
#427=EDGE_CURVE('',#549,#548,#44,.T.);
#428=EDGE_CURVE('',#549,#550,#628,.T.);
#429=EDGE_CURVE('',#550,#551,#629,.T.);
#430=EDGE_CURVE('',#551,#552,#45,.T.);
#431=EDGE_CURVE('',#553,#552,#630,.T.);
#432=EDGE_CURVE('',#554,#553,#46,.T.);
#433=EDGE_CURVE('',#555,#554,#631,.T.);
#434=EDGE_CURVE('',#556,#555,#632,.T.);
#435=EDGE_CURVE('',#557,#556,#47,.T.);
#436=EDGE_CURVE('',#557,#558,#633,.T.);
#437=EDGE_CURVE('',#559,#558,#48,.T.);
#438=EDGE_CURVE('',#559,#560,#634,.T.);
#439=EDGE_CURVE('',#560,#561,#49,.T.);
#440=EDGE_CURVE('',#561,#562,#635,.T.);
#441=EDGE_CURVE('',#563,#562,#50,.T.);
#442=EDGE_CURVE('',#564,#563,#636,.T.);
#443=EDGE_CURVE('',#565,#564,#637,.T.);
#444=EDGE_CURVE('',#565,#566,#51,.T.);
#445=EDGE_CURVE('',#566,#567,#638,.T.);
#446=EDGE_CURVE('',#567,#568,#52,.T.);
#447=EDGE_CURVE('',#568,#569,#639,.T.);
#448=EDGE_CURVE('',#569,#570,#640,.T.);
#449=EDGE_CURVE('',#570,#571,#53,.T.);
#450=EDGE_CURVE('',#571,#572,#54,.T.);
#451=EDGE_CURVE('',#573,#572,#55,.T.);
#452=EDGE_CURVE('',#573,#574,#56,.T.);
#453=EDGE_CURVE('',#575,#574,#641,.T.);
#454=EDGE_CURVE('',#575,#576,#642,.T.);
#455=EDGE_CURVE('',#546,#576,#643,.T.);
#456=EDGE_CURVE('',#577,#578,#57,.F.);
#457=EDGE_CURVE('',#578,#579,#58,.T.);
#458=EDGE_CURVE('',#579,#580,#59,.F.);
#459=EDGE_CURVE('',#577,#580,#60,.T.);
#460=EDGE_CURVE('',#570,#581,#61,.T.);
#461=EDGE_CURVE('',#569,#582,#62,.T.);
#462=EDGE_CURVE('',#582,#581,#644,.T.);
#463=EDGE_CURVE('',#549,#583,#63,.T.);
#464=EDGE_CURVE('',#583,#584,#645,.T.);
#465=EDGE_CURVE('',#584,#550,#64,.F.);
#466=EDGE_CURVE('',#585,#586,#646,.T.);
#467=EDGE_CURVE('',#553,#585,#65,.T.);
#468=EDGE_CURVE('',#552,#586,#66,.T.);
#469=EDGE_CURVE('',#587,#585,#67,.T.);
#470=EDGE_CURVE('',#554,#587,#68,.T.);
#471=EDGE_CURVE('',#588,#587,#647,.T.);
#472=EDGE_CURVE('',#555,#588,#69,.T.);
#473=EDGE_CURVE('',#589,#588,#648,.T.);
#474=EDGE_CURVE('',#556,#589,#70,.T.);
#475=EDGE_CURVE('',#590,#589,#71,.T.);
#476=EDGE_CURVE('',#557,#590,#72,.T.);
#477=EDGE_CURVE('',#590,#591,#649,.T.);
#478=EDGE_CURVE('',#558,#591,#73,.T.);
#479=EDGE_CURVE('',#592,#591,#74,.T.);
#480=EDGE_CURVE('',#559,#592,#75,.T.);
#481=EDGE_CURVE('',#592,#593,#650,.T.);
#482=EDGE_CURVE('',#560,#593,#76,.T.);
#483=EDGE_CURVE('',#593,#594,#77,.T.);
#484=EDGE_CURVE('',#561,#594,#78,.T.);
#485=EDGE_CURVE('',#594,#595,#651,.T.);
#486=EDGE_CURVE('',#562,#595,#79,.T.);
#487=EDGE_CURVE('',#596,#595,#80,.T.);
#488=EDGE_CURVE('',#563,#596,#81,.T.);
#489=EDGE_CURVE('',#597,#596,#652,.T.);
#490=EDGE_CURVE('',#564,#597,#82,.T.);
#491=EDGE_CURVE('',#598,#597,#653,.T.);
#492=EDGE_CURVE('',#565,#598,#83,.T.);
#493=EDGE_CURVE('',#598,#599,#84,.T.);
#494=EDGE_CURVE('',#566,#599,#85,.T.);
#495=EDGE_CURVE('',#599,#600,#654,.T.);
#496=EDGE_CURVE('',#567,#600,#86,.T.);
#497=EDGE_CURVE('',#600,#601,#87,.T.);
#498=EDGE_CURVE('',#601,#568,#88,.F.);
#499=EDGE_CURVE('',#551,#602,#89,.T.);
#500=EDGE_CURVE('',#602,#586,#90,.T.);
#501=EDGE_CURVE('',#603,#604,#91,.T.);
#502=EDGE_CURVE('',#603,#605,#92,.T.);
#503=EDGE_CURVE('',#606,#605,#655,.F.);
#504=EDGE_CURVE('',#606,#607,#656,.F.);
#505=EDGE_CURVE('',#608,#607,#657,.F.);
#506=EDGE_CURVE('',#609,#608,#93,.T.);
#507=EDGE_CURVE('',#609,#610,#94,.T.);
#508=EDGE_CURVE('',#610,#611,#95,.T.);
#509=EDGE_CURVE('',#581,#611,#96,.T.);
#510=EDGE_CURVE('',#582,#601,#658,.F.);
#511=EDGE_CURVE('',#602,#584,#659,.F.);
#512=EDGE_CURVE('',#583,#612,#97,.T.);
#513=EDGE_CURVE('',#612,#604,#98,.T.);
#514=EDGE_CURVE('',#613,#613,#660,.F.);
#515=EDGE_CURVE('',#614,#614,#12,.T.);
#516=EDGE_CURVE('',#615,#576,#99,.T.);
#517=EDGE_CURVE('',#615,#616,#13,.T.);
#518=EDGE_CURVE('',#606,#616,#100,.T.);
#519=EDGE_CURVE('',#605,#546,#101,.T.);
#520=EDGE_CURVE('',#615,#616,#14,.T.);
#521=EDGE_CURVE('',#617,#575,#102,.T.);
#522=EDGE_CURVE('',#618,#617,#15,.T.);
#523=EDGE_CURVE('',#607,#618,#103,.T.);
#524=EDGE_CURVE('',#618,#617,#16,.T.);
#525=EDGE_CURVE('',#608,#574,#104,.T.);
#526=EDGE_CURVE('',#619,#619,#661,.T.);
#527=EDGE_CURVE('',#548,#620,#662,.T.);
#528=EDGE_CURVE('',#621,#620,#105,.T.);
#529=EDGE_CURVE('',#621,#612,#663,.T.);
#530=EDGE_CURVE('',#622,#623,#106,.T.);
#531=EDGE_CURVE('',#622,#621,#107,.F.);
#532=EDGE_CURVE('',#620,#623,#108,.F.);
#533=EDGE_CURVE('',#624,#624,#664,.T.);
#534=EDGE_CURVE('',#611,#577,#665,.F.);
#535=EDGE_CURVE('',#580,#571,#666,.F.);
#536=EDGE_CURVE('',#578,#610,#667,.T.);
#537=EDGE_CURVE('',#572,#579,#668,.T.);
#538=EDGE_CURVE('',#623,#547,#669,.F.);
#539=EDGE_CURVE('',#604,#622,#670,.F.);
#540=EDGE_CURVE('',#609,#573,#109,.T.);
#541=EDGE_CURVE('',#625,#625,#671,.T.);
#542=EDGE_CURVE('',#603,#545,#110,.T.);
#543=EDGE_CURVE('',#626,#626,#672,.T.);
#544=VERTEX_POINT('',#1193);
#545=VERTEX_POINT('',#1195);
#546=VERTEX_POINT('',#1196);
#547=VERTEX_POINT('',#1198);
#548=VERTEX_POINT('',#1200);
#549=VERTEX_POINT('',#1202);
#550=VERTEX_POINT('',#1204);
#551=VERTEX_POINT('',#1206);
#552=VERTEX_POINT('',#1208);
#553=VERTEX_POINT('',#1210);
#554=VERTEX_POINT('',#1212);
#555=VERTEX_POINT('',#1214);
#556=VERTEX_POINT('',#1216);
#557=VERTEX_POINT('',#1218);
#558=VERTEX_POINT('',#1220);
#559=VERTEX_POINT('',#1222);
#560=VERTEX_POINT('',#1224);
#561=VERTEX_POINT('',#1226);
#562=VERTEX_POINT('',#1228);
#563=VERTEX_POINT('',#1230);
#564=VERTEX_POINT('',#1232);
#565=VERTEX_POINT('',#1234);
#566=VERTEX_POINT('',#1236);
#567=VERTEX_POINT('',#1238);
#568=VERTEX_POINT('',#1240);
#569=VERTEX_POINT('',#1242);
#570=VERTEX_POINT('',#1244);
#571=VERTEX_POINT('',#1246);
#572=VERTEX_POINT('',#1248);
#573=VERTEX_POINT('',#1250);
#574=VERTEX_POINT('',#1252);
#575=VERTEX_POINT('',#1254);
#576=VERTEX_POINT('',#1256);
#577=VERTEX_POINT('',#1260);
#578=VERTEX_POINT('',#1261);
#579=VERTEX_POINT('',#1263);
#580=VERTEX_POINT('',#1265);
#581=VERTEX_POINT('',#1269);
#582=VERTEX_POINT('',#1271);
#583=VERTEX_POINT('',#1275);
#584=VERTEX_POINT('',#1277);
#585=VERTEX_POINT('',#1281);
#586=VERTEX_POINT('',#1282);
#587=VERTEX_POINT('',#1287);
#588=VERTEX_POINT('',#1291);
#589=VERTEX_POINT('',#1295);
#590=VERTEX_POINT('',#1299);
#591=VERTEX_POINT('',#1303);
#592=VERTEX_POINT('',#1307);
#593=VERTEX_POINT('',#1311);
#594=VERTEX_POINT('',#1315);
#595=VERTEX_POINT('',#1319);
#596=VERTEX_POINT('',#1323);
#597=VERTEX_POINT('',#1327);
#598=VERTEX_POINT('',#1331);
#599=VERTEX_POINT('',#1335);
#600=VERTEX_POINT('',#1339);
#601=VERTEX_POINT('',#1343);
#602=VERTEX_POINT('',#1347);
#603=VERTEX_POINT('',#1351);
#604=VERTEX_POINT('',#1352);
#605=VERTEX_POINT('',#1354);
#606=VERTEX_POINT('',#1356);
#607=VERTEX_POINT('',#1358);
#608=VERTEX_POINT('',#1360);
#609=VERTEX_POINT('',#1362);
#610=VERTEX_POINT('',#1364);
#611=VERTEX_POINT('',#1366);
#612=VERTEX_POINT('',#1371);
#613=VERTEX_POINT('',#1374);
#614=VERTEX_POINT('',#1413);
#615=VERTEX_POINT('',#1416);
#616=VERTEX_POINT('',#1428);
#617=VERTEX_POINT('',#1442);
#618=VERTEX_POINT('',#1454);
#619=VERTEX_POINT('',#1467);
#620=VERTEX_POINT('',#1469);
#621=VERTEX_POINT('',#1471);
#622=VERTEX_POINT('',#1475);
#623=VERTEX_POINT('',#1476);
#624=VERTEX_POINT('',#1481);
#625=VERTEX_POINT('',#1496);
#626=VERTEX_POINT('',#1501);
#627=CIRCLE('',#855,0.006);
#628=CIRCLE('',#856,0.09);
#629=CIRCLE('',#857,0.01);
#630=CIRCLE('',#858,0.0725400000000014);
#631=CIRCLE('',#859,0.00220000000000003);
#632=CIRCLE('',#860,0.08274);
#633=CIRCLE('',#861,0.07734);
#634=CIRCLE('',#862,0.07274);
#635=CIRCLE('',#863,0.077339999999999);
#636=CIRCLE('',#864,0.08274);
#637=CIRCLE('',#865,0.0022);
#638=CIRCLE('',#866,0.0725400000000014);
#639=CIRCLE('',#867,0.01);
#640=CIRCLE('',#868,0.09);
#641=CIRCLE('',#869,0.00492697748478413);
#642=CIRCLE('',#870,0.01);
#643=CIRCLE('',#871,0.00628755831279067);
#644=CIRCLE('',#874,0.09);
#645=CIRCLE('',#876,0.09);
#646=CIRCLE('',#878,0.0725400000000014);
#647=CIRCLE('',#881,0.00220000000000003);
#648=CIRCLE('',#883,0.08274);
#649=CIRCLE('',#886,0.07734);
#650=CIRCLE('',#889,0.07274);
#651=CIRCLE('',#892,0.077339999999999);
#652=CIRCLE('',#895,0.08274);
#653=CIRCLE('',#897,0.0022);
#654=CIRCLE('',#900,0.0725400000000014);
#655=CIRCLE('',#904,0.00628755831279067);
#656=CIRCLE('',#905,0.01);
#657=CIRCLE('',#906,0.00492697748478413);
#658=CIRCLE('',#907,0.01);
#659=CIRCLE('',#908,0.01);
#660=CIRCLE('',#909,0.006);
#661=CIRCLE('',#917,0.004);
#662=CIRCLE('',#918,0.01);
#663=CIRCLE('',#919,0.01);
#664=CIRCLE('',#922,0.004);
#665=CIRCLE('',#923,0.01);
#666=CIRCLE('',#924,0.01);
#667=CIRCLE('',#926,0.01);
#668=CIRCLE('',#928,0.01);
#669=CIRCLE('',#930,0.01);
#670=CIRCLE('',#932,0.01);
#671=CIRCLE('',#935,0.004);
#672=CIRCLE('',#938,0.004);
#673=EDGE_LOOP('',(#181));
#674=EDGE_LOOP('',(#182,#183,#184,#185,#186,#187,#188,#189,#190,#191,#192,
#193,#194,#195,#196,#197,#198,#199,#200,#201,#202,#203,#204,#205,#206,#207,
#208,#209,#210,#211,#212,#213));
#675=EDGE_LOOP('',(#214,#215,#216,#217));
#676=EDGE_LOOP('',(#218,#219,#220,#221));
#677=EDGE_LOOP('',(#222,#223,#224,#225));
#678=EDGE_LOOP('',(#226,#227,#228,#229));
#679=EDGE_LOOP('',(#230,#231,#232,#233));
#680=EDGE_LOOP('',(#234,#235,#236,#237));
#681=EDGE_LOOP('',(#238,#239,#240,#241));
#682=EDGE_LOOP('',(#242,#243,#244,#245));
#683=EDGE_LOOP('',(#246,#247,#248,#249));
#684=EDGE_LOOP('',(#250,#251,#252,#253));
#685=EDGE_LOOP('',(#254,#255,#256,#257));
#686=EDGE_LOOP('',(#258,#259,#260,#261));
#687=EDGE_LOOP('',(#262,#263,#264,#265));
#688=EDGE_LOOP('',(#266,#267,#268,#269));
#689=EDGE_LOOP('',(#270,#271,#272,#273));
#690=EDGE_LOOP('',(#274,#275,#276,#277));
#691=EDGE_LOOP('',(#278,#279,#280,#281));
#692=EDGE_LOOP('',(#282,#283,#284,#285));
#693=EDGE_LOOP('',(#286,#287,#288,#289));
#694=EDGE_LOOP('',(#290,#291,#292,#293));
#695=EDGE_LOOP('',(#294,#295,#296,#297,#298,#299,#300,#301,#302,#303,#304,
#305,#306,#307,#308,#309,#310,#311,#312,#313,#314,#315,#316,#317,#318,#319,
#320,#321,#322,#323,#324,#325));
#696=EDGE_LOOP('',(#326));
#697=EDGE_LOOP('',(#327,#328,#329,#330));
#698=EDGE_LOOP('',(#331,#332,#333,#334));
#699=EDGE_LOOP('',(#335));
#700=EDGE_LOOP('',(#336));
#701=EDGE_LOOP('',(#337));
#702=EDGE_LOOP('',(#338,#339,#340,#341,#342,#343));
#703=EDGE_LOOP('',(#344,#345,#346,#347,#348,#349,#350,#351));
#704=EDGE_LOOP('',(#352,#353,#354,#355,#356,#357));
#705=EDGE_LOOP('',(#358));
#706=EDGE_LOOP('',(#359,#360,#361,#362,#363,#364));
#707=EDGE_LOOP('',(#365,#366,#367,#368));
#708=EDGE_LOOP('',(#369));
#709=EDGE_LOOP('',(#370,#371,#372,#373,#374,#375));
#710=EDGE_LOOP('',(#376,#377,#378,#379));
#711=EDGE_LOOP('',(#380,#381,#382,#383));
#712=EDGE_LOOP('',(#384,#385,#386,#387));
#713=EDGE_LOOP('',(#388,#389,#390,#391));
#714=EDGE_LOOP('',(#392,#393,#394,#395));
#715=EDGE_LOOP('',(#396));
#716=EDGE_LOOP('',(#397,#398,#399,#400,#401,#402));
#717=EDGE_LOOP('',(#403,#404,#405,#406));
#718=EDGE_LOOP('',(#407));
#719=EDGE_LOOP('',(#408,#409,#410,#411,#412,#413));
#720=EDGE_LOOP('',(#414));
#721=EDGE_LOOP('',(#415));
#722=EDGE_LOOP('',(#416));
#723=EDGE_LOOP('',(#417));
#724=EDGE_LOOP('',(#418));
#725=EDGE_LOOP('',(#419,#420));
#726=EDGE_LOOP('',(#421,#422));
#727=FACE_BOUND('',#673,.T.);
#728=FACE_BOUND('',#674,.T.);
#729=FACE_BOUND('',#675,.T.);
#730=FACE_BOUND('',#676,.T.);
#731=FACE_BOUND('',#677,.T.);
#732=FACE_BOUND('',#678,.T.);
#733=FACE_BOUND('',#679,.T.);
#734=FACE_BOUND('',#680,.T.);
#735=FACE_BOUND('',#681,.T.);
#736=FACE_BOUND('',#682,.T.);
#737=FACE_BOUND('',#683,.T.);
#738=FACE_BOUND('',#684,.T.);
#739=FACE_BOUND('',#685,.T.);
#740=FACE_BOUND('',#686,.T.);
#741=FACE_BOUND('',#687,.T.);
#742=FACE_BOUND('',#688,.T.);
#743=FACE_BOUND('',#689,.T.);
#744=FACE_BOUND('',#690,.T.);
#745=FACE_BOUND('',#691,.T.);
#746=FACE_BOUND('',#692,.T.);
#747=FACE_BOUND('',#693,.T.);
#748=FACE_BOUND('',#694,.T.);
#749=FACE_BOUND('',#695,.T.);
#750=FACE_BOUND('',#696,.T.);
#751=FACE_BOUND('',#697,.T.);
#752=FACE_BOUND('',#698,.T.);
#753=FACE_BOUND('',#699,.T.);
#754=FACE_BOUND('',#700,.T.);
#755=FACE_BOUND('',#701,.T.);
#756=FACE_BOUND('',#702,.T.);
#757=FACE_BOUND('',#703,.T.);
#758=FACE_BOUND('',#704,.T.);
#759=FACE_BOUND('',#705,.T.);
#760=FACE_BOUND('',#706,.T.);
#761=FACE_BOUND('',#707,.T.);
#762=FACE_BOUND('',#708,.T.);
#763=FACE_BOUND('',#709,.T.);
#764=FACE_BOUND('',#710,.T.);
#765=FACE_BOUND('',#711,.T.);
#766=FACE_BOUND('',#712,.T.);
#767=FACE_BOUND('',#713,.T.);
#768=FACE_BOUND('',#714,.T.);
#769=FACE_BOUND('',#715,.T.);
#770=FACE_BOUND('',#716,.T.);
#771=FACE_BOUND('',#717,.T.);
#772=FACE_BOUND('',#718,.T.);
#773=FACE_BOUND('',#719,.T.);
#774=FACE_BOUND('',#720,.T.);
#775=FACE_BOUND('',#721,.T.);
#776=FACE_BOUND('',#722,.T.);
#777=FACE_BOUND('',#723,.T.);
#778=FACE_BOUND('',#724,.T.);
#779=FACE_BOUND('',#725,.T.);
#780=FACE_BOUND('',#726,.T.);
#781=PLANE('',#854);
#782=PLANE('',#872);
#783=PLANE('',#879);
#784=PLANE('',#884);
#785=PLANE('',#887);
#786=PLANE('',#890);
#787=PLANE('',#893);
#788=PLANE('',#898);
#789=PLANE('',#901);
#790=PLANE('',#902);
#791=PLANE('',#903);
#792=PLANE('',#916);
#793=PLANE('',#920);
#794=PLANE('',#921);
#795=PLANE('',#933);
#796=PLANE('',#934);
#797=PLANE('',#936);
#798=PLANE('',#937);
#799=ADVANCED_FACE('',(#727,#728),#781,.T.);
#800=ADVANCED_FACE('',(#729),#782,.T.);
#801=ADVANCED_FACE('',(#730),#17,.T.);
#802=ADVANCED_FACE('',(#731),#18,.T.);
#803=ADVANCED_FACE('',(#732),#19,.F.);
#804=ADVANCED_FACE('',(#733),#783,.T.);
#805=ADVANCED_FACE('',(#734),#20,.F.);
#806=ADVANCED_FACE('',(#735),#21,.F.);
#807=ADVANCED_FACE('',(#736),#784,.T.);
#808=ADVANCED_FACE('',(#737),#22,.T.);
#809=ADVANCED_FACE('',(#738),#785,.T.);
#810=ADVANCED_FACE('',(#739),#23,.F.);
#811=ADVANCED_FACE('',(#740),#786,.F.);
#812=ADVANCED_FACE('',(#741),#24,.T.);
#813=ADVANCED_FACE('',(#742),#787,.T.);
#814=ADVANCED_FACE('',(#743),#25,.F.);
#815=ADVANCED_FACE('',(#744),#26,.F.);
#816=ADVANCED_FACE('',(#745),#788,.F.);
#817=ADVANCED_FACE('',(#746),#27,.F.);
#818=ADVANCED_FACE('',(#747),#789,.F.);
#819=ADVANCED_FACE('',(#748),#790,.F.);
#820=ADVANCED_FACE('',(#749,#750),#791,.F.);
#821=ADVANCED_FACE('',(#751),#28,.T.);
#822=ADVANCED_FACE('',(#752),#29,.T.);
#823=ADVANCED_FACE('',(#753,#754,#755),#30,.F.);
#824=ADVANCED_FACE('',(#756),#31,.F.);
#825=ADVANCED_FACE('',(#757),#32,.T.);
#826=ADVANCED_FACE('',(#758),#33,.F.);
#827=ADVANCED_FACE('',(#759,#760),#792,.T.);
#828=ADVANCED_FACE('',(#761),#793,.T.);
#829=ADVANCED_FACE('',(#762,#763),#794,.F.);
#830=ADVANCED_FACE('',(#764),#34,.T.);
#831=ADVANCED_FACE('',(#765),#35,.T.);
#832=ADVANCED_FACE('',(#766),#36,.T.);
#833=ADVANCED_FACE('',(#767),#37,.T.);
#834=ADVANCED_FACE('',(#768),#795,.F.);
#835=ADVANCED_FACE('',(#769,#770),#796,.T.);
#836=ADVANCED_FACE('',(#771),#797,.T.);
#837=ADVANCED_FACE('',(#772,#773),#798,.F.);
#838=ADVANCED_FACE('',(#774,#775),#38,.F.);
#839=ADVANCED_FACE('',(#776,#777),#39,.F.);
#840=ADVANCED_FACE('',(#778,#779,#780),#40,.F.);
#841=CLOSED_SHELL('',(#799,#800,#801,#802,#803,#804,#805,#806,#807,#808,
#809,#810,#811,#812,#813,#814,#815,#816,#817,#818,#819,#820,#821,#822,#823,
#824,#825,#826,#827,#828,#829,#830,#831,#832,#833,#834,#835,#836,#837,#838,
#839,#840));
#842=STYLED_ITEM('',(#843),#850);
#843=PRESENTATION_STYLE_ASSIGNMENT((#844));
#844=SURFACE_STYLE_USAGE(.BOTH.,#845);
#845=SURFACE_SIDE_STYLE('',(#846));
#846=SURFACE_STYLE_FILL_AREA(#847);
#847=FILL_AREA_STYLE('',(#848));
#848=FILL_AREA_STYLE_COLOUR('',#849);
#849=COLOUR_RGB('',0.615686274509804,0.811764705882353,0.929411764705882);
#850=MANIFOLD_SOLID_BREP('base_hinge_1',#841);
#851=SHAPE_DEFINITION_REPRESENTATION(#1511,#852);
#852=SHAPE_REPRESENTATION('base_hinge_1',(#853),#1506);
#853=AXIS2_PLACEMENT_3D('',#1190,#942,#943);
#854=AXIS2_PLACEMENT_3D('',#1191,#944,#945);
#855=AXIS2_PLACEMENT_3D('',#1192,#946,#947);
#856=AXIS2_PLACEMENT_3D('',#1203,#952,#953);
#857=AXIS2_PLACEMENT_3D('',#1205,#954,#955);
#858=AXIS2_PLACEMENT_3D('',#1209,#957,#958);
#859=AXIS2_PLACEMENT_3D('',#1213,#960,#961);
#860=AXIS2_PLACEMENT_3D('',#1215,#962,#963);
#861=AXIS2_PLACEMENT_3D('',#1219,#965,#966);
#862=AXIS2_PLACEMENT_3D('',#1223,#968,#969);
#863=AXIS2_PLACEMENT_3D('',#1227,#971,#972);
#864=AXIS2_PLACEMENT_3D('',#1231,#974,#975);
#865=AXIS2_PLACEMENT_3D('',#1233,#976,#977);
#866=AXIS2_PLACEMENT_3D('',#1237,#979,#980);
#867=AXIS2_PLACEMENT_3D('',#1241,#982,#983);
#868=AXIS2_PLACEMENT_3D('',#1243,#984,#985);
#869=AXIS2_PLACEMENT_3D('',#1253,#990,#991);
#870=AXIS2_PLACEMENT_3D('',#1255,#992,#993);
#871=AXIS2_PLACEMENT_3D('',#1257,#994,#995);
#872=AXIS2_PLACEMENT_3D('',#1258,#996,#997);
#873=AXIS2_PLACEMENT_3D('',#1267,#1002,#1003);
#874=AXIS2_PLACEMENT_3D('',#1272,#1006,#1007);
#875=AXIS2_PLACEMENT_3D('',#1273,#1008,#1009);
#876=AXIS2_PLACEMENT_3D('',#1276,#1011,#1012);
#877=AXIS2_PLACEMENT_3D('',#1279,#1014,#1015);
#878=AXIS2_PLACEMENT_3D('',#1280,#1016,#1017);
#879=AXIS2_PLACEMENT_3D('',#1285,#1020,#1021);
#880=AXIS2_PLACEMENT_3D('',#1289,#1024,#1025);
#881=AXIS2_PLACEMENT_3D('',#1290,#1026,#1027);
#882=AXIS2_PLACEMENT_3D('',#1293,#1029,#1030);
#883=AXIS2_PLACEMENT_3D('',#1294,#1031,#1032);
#884=AXIS2_PLACEMENT_3D('',#1297,#1034,#1035);
#885=AXIS2_PLACEMENT_3D('',#1301,#1038,#1039);
#886=AXIS2_PLACEMENT_3D('',#1302,#1040,#1041);
#887=AXIS2_PLACEMENT_3D('',#1305,#1043,#1044);
#888=AXIS2_PLACEMENT_3D('',#1309,#1047,#1048);
#889=AXIS2_PLACEMENT_3D('',#1310,#1049,#1050);
#890=AXIS2_PLACEMENT_3D('',#1313,#1052,#1053);
#891=AXIS2_PLACEMENT_3D('',#1317,#1056,#1057);
#892=AXIS2_PLACEMENT_3D('',#1318,#1058,#1059);
#893=AXIS2_PLACEMENT_3D('',#1321,#1061,#1062);
#894=AXIS2_PLACEMENT_3D('',#1325,#1065,#1066);
#895=AXIS2_PLACEMENT_3D('',#1326,#1067,#1068);
#896=AXIS2_PLACEMENT_3D('',#1329,#1070,#1071);
#897=AXIS2_PLACEMENT_3D('',#1330,#1072,#1073);
#898=AXIS2_PLACEMENT_3D('',#1333,#1075,#1076);
#899=AXIS2_PLACEMENT_3D('',#1337,#1079,#1080);
#900=AXIS2_PLACEMENT_3D('',#1338,#1081,#1082);
#901=AXIS2_PLACEMENT_3D('',#1341,#1084,#1085);
#902=AXIS2_PLACEMENT_3D('',#1345,#1088,#1089);
#903=AXIS2_PLACEMENT_3D('',#1349,#1092,#1093);
#904=AXIS2_PLACEMENT_3D('',#1355,#1096,#1097);
#905=AXIS2_PLACEMENT_3D('',#1357,#1098,#1099);
#906=AXIS2_PLACEMENT_3D('',#1359,#1100,#1101);
#907=AXIS2_PLACEMENT_3D('',#1368,#1106,#1107);
#908=AXIS2_PLACEMENT_3D('',#1369,#1108,#1109);
#909=AXIS2_PLACEMENT_3D('',#1373,#1112,#1113);
#910=AXIS2_PLACEMENT_3D('',#1375,#1114,#1115);
#911=AXIS2_PLACEMENT_3D('',#1376,#1116,#1117);
#912=AXIS2_PLACEMENT_3D('',#1377,#1118,#1119);
#913=AXIS2_PLACEMENT_3D('',#1414,#1120,#1121);
#914=AXIS2_PLACEMENT_3D('',#1431,#1125,#1126);
#915=AXIS2_PLACEMENT_3D('',#1456,#1129,#1130);
#916=AXIS2_PLACEMENT_3D('',#1465,#1132,#1133);
#917=AXIS2_PLACEMENT_3D('',#1466,#1134,#1135);
#918=AXIS2_PLACEMENT_3D('',#1468,#1136,#1137);
#919=AXIS2_PLACEMENT_3D('',#1472,#1139,#1140);
#920=AXIS2_PLACEMENT_3D('',#1473,#1141,#1142);
#921=AXIS2_PLACEMENT_3D('',#1479,#1146,#1147);
#922=AXIS2_PLACEMENT_3D('',#1480,#1148,#1149);
#923=AXIS2_PLACEMENT_3D('',#1482,#1150,#1151);
#924=AXIS2_PLACEMENT_3D('',#1483,#1152,#1153);
#925=AXIS2_PLACEMENT_3D('',#1484,#1154,#1155);
#926=AXIS2_PLACEMENT_3D('',#1485,#1156,#1157);
#927=AXIS2_PLACEMENT_3D('',#1486,#1158,#1159);
#928=AXIS2_PLACEMENT_3D('',#1487,#1160,#1161);
#929=AXIS2_PLACEMENT_3D('',#1488,#1162,#1163);
#930=AXIS2_PLACEMENT_3D('',#1489,#1164,#1165);
#931=AXIS2_PLACEMENT_3D('',#1490,#1166,#1167);
#932=AXIS2_PLACEMENT_3D('',#1491,#1168,#1169);
#933=AXIS2_PLACEMENT_3D('',#1492,#1170,#1171);
#934=AXIS2_PLACEMENT_3D('',#1494,#1173,#1174);
#935=AXIS2_PLACEMENT_3D('',#1495,#1175,#1176);
#936=AXIS2_PLACEMENT_3D('',#1497,#1177,#1178);
#937=AXIS2_PLACEMENT_3D('',#1499,#1180,#1181);
#938=AXIS2_PLACEMENT_3D('',#1500,#1182,#1183);
#939=AXIS2_PLACEMENT_3D('',#1502,#1184,#1185);
#940=AXIS2_PLACEMENT_3D('',#1503,#1186,#1187);
#941=AXIS2_PLACEMENT_3D('',#1504,#1188,#1189);
#942=DIRECTION('',(0.,0.,1.));
#943=DIRECTION('',(1.,0.,0.));
#944=DIRECTION('',(0.,-1.,0.));
#945=DIRECTION('',(1.,0.,0.));
#946=DIRECTION('',(0.,-1.,0.));
#947=DIRECTION('',(0.,0.,-1.));
#948=DIRECTION('',(-1.,0.,0.));
#949=DIRECTION('',(0.,0.,-1.));
#950=DIRECTION('',(1.,0.,0.));
#951=DIRECTION('',(0.,0.,-1.));
#952=DIRECTION('',(0.,-1.,0.));
#953=DIRECTION('',(0.,0.,-1.));
#954=DIRECTION('',(0.,-1.,0.));
#955=DIRECTION('',(0.,0.,-1.));
#956=DIRECTION('',(-0.762138663343414,0.,0.64741382271088));
#957=DIRECTION('',(0.,-1.,0.));
#958=DIRECTION('',(0.,0.,-1.));
#959=DIRECTION('',(-0.5299192642332,0.,0.848048096156429));
#960=DIRECTION('',(0.,-1.,0.));
#961=DIRECTION('',(0.,0.,-1.));
#962=DIRECTION('',(0.,-1.,0.));
#963=DIRECTION('',(0.,0.,-1.));
#964=DIRECTION('',(0.207911690817766,0.,-0.978147600733804));
#965=DIRECTION('',(0.,-1.,0.));
#966=DIRECTION('',(0.,0.,-1.));
#967=DIRECTION('',(0.292371704722736,0.,-0.956304755963036));
#968=DIRECTION('',(0.,1.,0.));
#969=DIRECTION('',(0.,0.,-1.));
#970=DIRECTION('',(-0.292371704722736,0.,-0.956304755963036));
#971=DIRECTION('',(0.,-1.,0.));
#972=DIRECTION('',(0.,0.,-1.));
#973=DIRECTION('',(0.207911690817767,0.,0.978147600733804));
#974=DIRECTION('',(0.,-1.,0.));
#975=DIRECTION('',(0.,0.,-1.));
#976=DIRECTION('',(0.,-1.,0.));
#977=DIRECTION('',(0.,0.,-1.));
#978=DIRECTION('',(0.529919264233205,0.,0.848048096156426));
#979=DIRECTION('',(0.,1.,0.));
#980=DIRECTION('',(0.,0.,-1.));
#981=DIRECTION('',(-0.642787609686539,0.,-0.766044443118979));
#982=DIRECTION('',(0.,-1.,0.));
#983=DIRECTION('',(0.,0.,-1.));
#984=DIRECTION('',(0.,-1.,0.));
#985=DIRECTION('',(0.,0.,-1.));
#986=DIRECTION('',(0.,0.,-1.));
#987=DIRECTION('',(1.,0.,0.));
#988=DIRECTION('',(0.,0.,-1.));
#989=DIRECTION('',(1.,0.,0.));
#990=DIRECTION('',(0.,-1.,0.));
#991=DIRECTION('',(0.,0.,-1.));
#992=DIRECTION('',(0.,-1.,0.));
#993=DIRECTION('',(0.,0.,-1.));
#994=DIRECTION('',(0.,-1.,0.));
#995=DIRECTION('',(0.,0.,-1.));
#996=DIRECTION('',(0.,0.,-1.));
#997=DIRECTION('',(1.,0.,0.));
#998=DIRECTION('',(-1.,0.,0.));
#999=DIRECTION('',(0.,-1.,0.));
#1000=DIRECTION('',(1.,0.,0.));
#1001=DIRECTION('',(0.,-1.,0.));
#1002=DIRECTION('',(0.,1.,0.));
#1003=DIRECTION('',(0.,0.,1.));
#1004=DIRECTION('',(0.,1.,0.));
#1005=DIRECTION('',(0.,1.,0.));
#1006=DIRECTION('',(0.,-1.,0.));
#1007=DIRECTION('',(0.,0.,-1.));
#1008=DIRECTION('',(0.,1.,0.));
#1009=DIRECTION('',(0.,0.,1.));
#1010=DIRECTION('',(0.,1.,0.));
#1011=DIRECTION('',(0.,-1.,0.));
#1012=DIRECTION('',(0.,0.,-1.));
#1013=DIRECTION('',(0.,1.,0.));
#1014=DIRECTION('',(0.,1.,0.));
#1015=DIRECTION('',(0.,0.,1.));
#1016=DIRECTION('',(0.,-1.,0.));
#1017=DIRECTION('',(0.,0.,-1.));
#1018=DIRECTION('',(0.,1.,0.));
#1019=DIRECTION('',(0.,1.,0.));
#1020=DIRECTION('',(-0.848048096156429,0.,-0.5299192642332));
#1021=DIRECTION('',(-0.5299192642332,0.,0.848048096156429));
#1022=DIRECTION('',(-0.5299192642332,0.,0.848048096156429));
#1023=DIRECTION('',(0.,1.,0.));
#1024=DIRECTION('',(0.,1.,0.));
#1025=DIRECTION('',(0.,0.,1.));
#1026=DIRECTION('',(0.,-1.,0.));
#1027=DIRECTION('',(0.,0.,-1.));
#1028=DIRECTION('',(0.,1.,0.));
#1029=DIRECTION('',(0.,1.,0.));
#1030=DIRECTION('',(0.,0.,1.));
#1031=DIRECTION('',(0.,-1.,0.));
#1032=DIRECTION('',(0.,0.,-1.));
#1033=DIRECTION('',(0.,1.,0.));
#1034=DIRECTION('',(0.978147600733804,0.,0.207911690817766));
#1035=DIRECTION('',(0.207911690817766,0.,-0.978147600733804));
#1036=DIRECTION('',(0.207911690817766,0.,-0.978147600733804));
#1037=DIRECTION('',(0.,1.,0.));
#1038=DIRECTION('',(0.,1.,0.));
#1039=DIRECTION('',(0.,0.,1.));
#1040=DIRECTION('',(0.,-1.,0.));
#1041=DIRECTION('',(0.,0.,-1.));
#1042=DIRECTION('',(0.,1.,0.));
#1043=DIRECTION('',(0.956304755963036,0.,0.292371704722736));
#1044=DIRECTION('',(0.292371704722736,0.,-0.956304755963036));
#1045=DIRECTION('',(0.292371704722736,0.,-0.956304755963036));
#1046=DIRECTION('',(0.,1.,0.));
#1047=DIRECTION('',(0.,1.,0.));
#1048=DIRECTION('',(0.,0.,1.));
#1049=DIRECTION('',(0.,1.,0.));
#1050=DIRECTION('',(0.,0.,-1.));
#1051=DIRECTION('',(0.,1.,0.));
#1052=DIRECTION('',(0.956304755963036,0.,-0.292371704722736));
#1053=DIRECTION('',(-0.292371704722736,0.,-0.956304755963036));
#1054=DIRECTION('',(-0.292371704722736,0.,-0.956304755963036));
#1055=DIRECTION('',(0.,1.,0.));
#1056=DIRECTION('',(0.,1.,0.));
#1057=DIRECTION('',(0.,0.,1.));
#1058=DIRECTION('',(0.,-1.,0.));
#1059=DIRECTION('',(0.,0.,-1.));
#1060=DIRECTION('',(0.,1.,0.));
#1061=DIRECTION('',(-0.978147600733804,0.,0.207911690817767));
#1062=DIRECTION('',(0.207911690817767,0.,0.978147600733804));
#1063=DIRECTION('',(0.207911690817767,0.,0.978147600733804));
#1064=DIRECTION('',(0.,1.,0.));
#1065=DIRECTION('',(0.,1.,0.));
#1066=DIRECTION('',(0.,0.,1.));
#1067=DIRECTION('',(0.,-1.,0.));
#1068=DIRECTION('',(0.,0.,-1.));
#1069=DIRECTION('',(0.,1.,0.));
#1070=DIRECTION('',(0.,1.,0.));
#1071=DIRECTION('',(0.,0.,1.));
#1072=DIRECTION('',(0.,-1.,0.));
#1073=DIRECTION('',(0.,0.,-1.));
#1074=DIRECTION('',(0.,1.,0.));
#1075=DIRECTION('',(-0.848048096156426,0.,0.529919264233204));
#1076=DIRECTION('',(0.529919264233205,0.,0.848048096156427));
#1077=DIRECTION('',(0.529919264233205,0.,0.848048096156426));
#1078=DIRECTION('',(0.,1.,0.));
#1079=DIRECTION('',(0.,1.,0.));
#1080=DIRECTION('',(0.,0.,1.));
#1081=DIRECTION('',(0.,1.,0.));
#1082=DIRECTION('',(0.,0.,-1.));
#1083=DIRECTION('',(0.,1.,0.));
#1084=DIRECTION('',(0.766044443118979,0.,-0.642787609686539));
#1085=DIRECTION('',(-0.642787609686539,0.,-0.766044443118979));
#1086=DIRECTION('',(-0.642787609686539,0.,-0.766044443118979));
#1087=DIRECTION('',(0.,1.,0.));
#1088=DIRECTION('',(-0.64741382271088,0.,-0.762138663343414));
#1089=DIRECTION('',(-0.762138663343414,0.,0.64741382271088));
#1090=DIRECTION('',(0.,1.,0.));
#1091=DIRECTION('',(-0.762138663343414,0.,0.64741382271088));
#1092=DIRECTION('',(0.,-1.,0.));
#1093=DIRECTION('',(1.,0.,0.));
#1094=DIRECTION('',(0.,0.,-1.));
#1095=DIRECTION('',(-1.,0.,0.));
#1096=DIRECTION('',(0.,-1.,0.));
#1097=DIRECTION('',(0.,0.,-1.));
#1098=DIRECTION('',(0.,-1.,0.));
#1099=DIRECTION('',(0.,0.,-1.));
#1100=DIRECTION('',(0.,-1.,0.));
#1101=DIRECTION('',(0.,0.,-1.));
#1102=DIRECTION('',(1.,0.,0.));
#1103=DIRECTION('',(0.,0.,-1.));
#1104=DIRECTION('',(-1.,0.,0.));
#1105=DIRECTION('',(0.,0.,-1.));
#1106=DIRECTION('',(0.,-1.,0.));
#1107=DIRECTION('',(0.,0.,-1.));
#1108=DIRECTION('',(0.,-1.,0.));
#1109=DIRECTION('',(0.,0.,-1.));
#1110=DIRECTION('',(0.,0.,-1.));
#1111=DIRECTION('',(-1.,0.,0.));
#1112=DIRECTION('',(0.,-1.,0.));
#1113=DIRECTION('',(0.,0.,-1.));
#1114=DIRECTION('',(0.,1.,0.));
#1115=DIRECTION('',(0.,0.,1.));
#1116=DIRECTION('',(0.,1.,0.));
#1117=DIRECTION('',(0.,0.,1.));
#1118=DIRECTION('',(0.,-1.,0.));
#1119=DIRECTION('',(0.,0.,-1.));
#1120=DIRECTION('',(0.,-1.,0.));
#1121=DIRECTION('',(0.,0.,-1.));
#1122=DIRECTION('',(0.,-1.,0.));
#1123=DIRECTION('',(0.,-1.,0.));
#1124=DIRECTION('',(0.,-1.,0.));
#1125=DIRECTION('',(0.,-1.,0.));
#1126=DIRECTION('',(0.,0.,-1.));
#1127=DIRECTION('',(0.,-1.,0.));
#1128=DIRECTION('',(0.,-1.,0.));
#1129=DIRECTION('',(0.,-1.,0.));
#1130=DIRECTION('',(0.,0.,-1.));
#1131=DIRECTION('',(0.,-1.,0.));
#1132=DIRECTION('',(1.,0.,0.));
#1133=DIRECTION('',(0.,0.,-1.));
#1134=DIRECTION('',(1.,0.,0.));
#1135=DIRECTION('',(0.,0.,-1.));
#1136=DIRECTION('',(1.,0.,0.));
#1137=DIRECTION('',(0.,0.,-1.));
#1138=DIRECTION('',(0.,-1.,0.));
#1139=DIRECTION('',(1.,0.,0.));
#1140=DIRECTION('',(0.,0.,-1.));
#1141=DIRECTION('',(0.,0.,-1.));
#1142=DIRECTION('',(1.,0.,0.));
#1143=DIRECTION('',(0.,-1.,0.));
#1144=DIRECTION('',(-1.,0.,0.));
#1145=DIRECTION('',(1.,0.,0.));
#1146=DIRECTION('',(1.,0.,0.));
#1147=DIRECTION('',(0.,0.,-1.));
#1148=DIRECTION('',(-1.,0.,0.));
#1149=DIRECTION('',(0.,0.,1.));
#1150=DIRECTION('',(1.,0.,0.));
#1151=DIRECTION('',(0.,0.,-1.));
#1152=DIRECTION('',(1.,0.,0.));
#1153=DIRECTION('',(0.,0.,-1.));
#1154=DIRECTION('',(1.,0.,0.));
#1155=DIRECTION('',(0.,0.,-1.));
#1156=DIRECTION('',(1.,0.,0.));
#1157=DIRECTION('',(0.,0.,-1.));
#1158=DIRECTION('',(1.,0.,0.));
#1159=DIRECTION('',(0.,0.,-1.));
#1160=DIRECTION('',(1.,0.,0.));
#1161=DIRECTION('',(0.,0.,-1.));
#1162=DIRECTION('',(1.,0.,0.));
#1163=DIRECTION('',(0.,0.,-1.));
#1164=DIRECTION('',(1.,0.,0.));
#1165=DIRECTION('',(0.,0.,-1.));
#1166=DIRECTION('',(1.,0.,0.));
#1167=DIRECTION('',(0.,0.,-1.));
#1168=DIRECTION('',(1.,0.,0.));
#1169=DIRECTION('',(0.,0.,-1.));
#1170=DIRECTION('',(0.,0.,1.));
#1171=DIRECTION('',(1.,0.,0.));
#1172=DIRECTION('',(0.,-1.,0.));
#1173=DIRECTION('',(1.,0.,0.));
#1174=DIRECTION('',(0.,0.,-1.));
#1175=DIRECTION('',(1.,0.,0.));
#1176=DIRECTION('',(0.,0.,-1.));
#1177=DIRECTION('',(0.,0.,-1.));
#1178=DIRECTION('',(-1.,0.,0.));
#1179=DIRECTION('',(0.,-1.,0.));
#1180=DIRECTION('',(1.,0.,0.));
#1181=DIRECTION('',(0.,0.,-1.));
#1182=DIRECTION('',(1.,0.,0.));
#1183=DIRECTION('',(0.,0.,-1.));
#1184=DIRECTION('',(-1.,0.,0.));
#1185=DIRECTION('',(0.,0.,1.));
#1186=DIRECTION('',(-1.,0.,0.));
#1187=DIRECTION('',(0.,0.,1.));
#1188=DIRECTION('',(-1.,0.,0.));
#1189=DIRECTION('',(0.,0.,1.));
#1190=CARTESIAN_POINT('',(0.,0.,0.));
#1191=CARTESIAN_POINT('',(0.00168515580815593,0.185,-0.0772891086336667));
#1192=CARTESIAN_POINT('',(0.,0.185,-0.0999980730087348));
#1193=CARTESIAN_POINT('',(0.,0.185,-0.105998073008735));
#1194=CARTESIAN_POINT('',(0.0184984721786656,0.185,-0.0888245140965288));
#1195=CARTESIAN_POINT('',(0.0184984721786656,0.185,-0.0888245140965288));
#1196=CARTESIAN_POINT('',(0.0144984721786656,0.185,-0.0888245140965288));
#1197=CARTESIAN_POINT('',(0.0184984721786656,0.185,-0.0814));
#1198=CARTESIAN_POINT('',(0.0184984721786656,0.185,-0.102));
#1199=CARTESIAN_POINT('',(0.00168515580815593,0.185,-0.102));
#1200=CARTESIAN_POINT('',(0.0294984721786656,0.185,-0.102));
#1201=CARTESIAN_POINT('',(0.0294984721786656,0.185,-0.0814));
#1202=CARTESIAN_POINT('',(0.0294984721786656,0.185,-0.0850284666398522));
#1203=CARTESIAN_POINT('',(-1.35308431126191E-16,0.185,1.31838984174237E-16));
#1204=CARTESIAN_POINT('',(0.0497648251470503,0.185,-0.074989747153084));
#1205=CARTESIAN_POINT('',(0.0442354001307114,0.185,-0.0666575530249636));
#1206=CARTESIAN_POINT('',(0.0507095383578202,0.185,-0.0590361663915294));
#1207=CARTESIAN_POINT('',(0.0533580036204534,0.185,-0.0612859578041267));
#1208=CARTESIAN_POINT('',(0.0466278132066615,0.185,-0.0555688639038507));
#1209=CARTESIAN_POINT('',(-9.19403442267708E-16,0.185,1.11369247157711E-15));
#1210=CARTESIAN_POINT('',(0.0386098069424148,0.185,-0.0614111912265953));
#1211=CARTESIAN_POINT('',(0.0391326887855885,0.185,-0.0622479770948348));
#1212=CARTESIAN_POINT('',(0.0428361459740144,0.185,-0.0681747475102983));
#1213=CARTESIAN_POINT('',(0.0409704401624703,0.185,-0.0693405698916113));
#1214=CARTESIAN_POINT('',(0.0420895731194784,0.185,-0.0712346505193931));
#1215=CARTESIAN_POINT('',(-1.16226472890446E-16,0.185,6.93889390390723E-17));
#1216=CARTESIAN_POINT('',(0.0170069335214082,0.185,-0.0809732783836644));
#1217=CARTESIAN_POINT('',(0.0164455702016935,0.185,-0.0783322716073782));
#1218=CARTESIAN_POINT('',(0.0158842068819789,0.185,-0.075691264831092));
#1219=CARTESIAN_POINT('',(-4.85722573273506E-17,0.185,-7.0082828429463E-16));
#1220=CARTESIAN_POINT('',(0.0224206910850833,0.185,-0.0740188368678357));
#1221=CARTESIAN_POINT('',(0.0217482337735599,0.185,-0.0718193281096204));
#1222=CARTESIAN_POINT('',(0.0210757764620364,0.185,-0.0696198193514051));
#1223=CARTESIAN_POINT('',(-1.49186218934005E-16,0.185,-4.23272528138341E-16));
#1224=CARTESIAN_POINT('',(-0.0210757764620364,0.185,-0.0696198193514051));
#1225=CARTESIAN_POINT('',(-0.0217482337735599,0.185,-0.0718193281096204));
#1226=CARTESIAN_POINT('',(-0.0224206910850832,0.185,-0.0740188368678353));
#1227=CARTESIAN_POINT('',(-2.28983498828938E-16,0.185,-5.48172618408671E-16));
#1228=CARTESIAN_POINT('',(-0.0158842068819789,0.185,-0.075691264831092));
#1229=CARTESIAN_POINT('',(-0.0164455702016935,0.185,-0.0783322716073782));
#1230=CARTESIAN_POINT('',(-0.0170069335214082,0.185,-0.0809732783836644));
#1231=CARTESIAN_POINT('',(9.19403442267708E-17,0.185,-6.24500451351651E-17));
#1232=CARTESIAN_POINT('',(-0.0420895731194784,0.185,-0.0712346505193931));
#1233=CARTESIAN_POINT('',(-0.0409704401624703,0.185,-0.0693405698916113));
#1234=CARTESIAN_POINT('',(-0.0428361459740145,0.185,-0.0681747475102983));
#1235=CARTESIAN_POINT('',(-0.0420478476709443,0.185,-0.0669132065167105));
#1236=CARTESIAN_POINT('',(-0.0386098069424148,0.185,-0.0614111912265953));
#1237=CARTESIAN_POINT('',(8.18789480661053E-16,0.185,1.11369247157711E-15));
#1238=CARTESIAN_POINT('',(-0.0466278132066615,0.185,-0.0555688639038507));
#1239=CARTESIAN_POINT('',(-0.052239349039225,0.185,-0.0622564318922794));
#1240=CARTESIAN_POINT('',(-0.051019684831927,0.185,-0.0608028926914734));
#1241=CARTESIAN_POINT('',(-0.0433592404007372,0.185,-0.0672307687883388));
#1242=CARTESIAN_POINT('',(-0.0487791454508294,0.185,-0.0756346148868812));
#1243=CARTESIAN_POINT('',(-1.35308431126191E-16,0.185,1.31838984174237E-16));
#1244=CARTESIAN_POINT('',(-0.0279349145595942,0.185,-0.0855548978641676));
#1245=CARTESIAN_POINT('',(-0.0279349145595942,0.185,-0.0814));
#1246=CARTESIAN_POINT('',(-0.0279349145595942,0.185,-0.102));
#1247=CARTESIAN_POINT('',(0.00168515580815593,0.185,-0.102));
#1248=CARTESIAN_POINT('',(-0.0169349145595942,0.185,-0.102));
#1249=CARTESIAN_POINT('',(-0.0169349145595942,0.185,-0.0814));
#1250=CARTESIAN_POINT('',(-0.0169349145595942,0.185,-0.0890656386343015));
#1251=CARTESIAN_POINT('',(-0.0169349145595942,0.185,-0.0890656386343015));
#1252=CARTESIAN_POINT('',(-0.0129349145595942,0.185,-0.0890656386343015));
#1253=CARTESIAN_POINT('',(-0.01364302603518,0.185,-0.0939414652589584));
#1254=CARTESIAN_POINT('',(-0.00913984498810098,0.185,-0.0959405819621045));
#1255=CARTESIAN_POINT('',(-1.7726705520138E-17,0.185,-0.0999980730087348));
#1256=CARTESIAN_POINT('',(0.0095234415438121,0.185,-0.0969478170913414));
#1257=CARTESIAN_POINT('',(0.0155113609483293,0.185,-0.0950299508963868));
#1258=CARTESIAN_POINT('',(0.000781778809535692,0.125,-0.112));
#1259=CARTESIAN_POINT('',(-0.0129349145595942,0.215,-0.112));
#1260=CARTESIAN_POINT('',(-0.0279349145595942,0.215,-0.112));
#1261=CARTESIAN_POINT('',(-0.0169349145595942,0.215,-0.112));
#1262=CARTESIAN_POINT('',(-0.0169349145595942,0.205,-0.112));
#1263=CARTESIAN_POINT('',(-0.0169349145595942,0.195,-0.112));
#1264=CARTESIAN_POINT('',(0.000781778809535692,0.195,-0.112));
#1265=CARTESIAN_POINT('',(-0.0279349145595942,0.195,-0.112));
#1266=CARTESIAN_POINT('',(-0.0279349145595942,0.205,-0.112));
#1267=CARTESIAN_POINT('',(-1.35308431126191E-16,0.185,1.31838984174237E-16));
#1268=CARTESIAN_POINT('',(-0.0279349145595942,0.185,-0.0855548978641676));
#1269=CARTESIAN_POINT('',(-0.0279349145595942,0.225,-0.0855548978641676));
#1270=CARTESIAN_POINT('',(-0.0487791454508293,0.185,-0.0756346148868812));
#1271=CARTESIAN_POINT('',(-0.0487791454508294,0.225,-0.0756346148868812));
#1272=CARTESIAN_POINT('',(-1.35308431126191E-16,0.225,1.31838984174237E-16));
#1273=CARTESIAN_POINT('',(-1.35308431126191E-16,0.185,1.31838984174237E-16));
#1274=CARTESIAN_POINT('',(0.0294984721786656,0.185,-0.0850284666398522));
#1275=CARTESIAN_POINT('',(0.0294984721786656,0.225,-0.0850284666398522));
#1276=CARTESIAN_POINT('',(-1.35308431126191E-16,0.225,1.31838984174237E-16));
#1277=CARTESIAN_POINT('',(0.0497648251470503,0.225,-0.074989747153084));
#1278=CARTESIAN_POINT('',(0.0497648251470503,0.185,-0.074989747153084));
#1279=CARTESIAN_POINT('',(-9.19403442267708E-16,0.185,1.11369247157711E-15));
#1280=CARTESIAN_POINT('',(-9.19403442267708E-16,0.225,1.11369247157711E-15));
#1281=CARTESIAN_POINT('',(0.0386098069424148,0.225,-0.0614111912265953));
#1282=CARTESIAN_POINT('',(0.0466278132066615,0.225,-0.0555688639038507));
#1283=CARTESIAN_POINT('',(0.0386098069424148,0.185,-0.0614111912265953));
#1284=CARTESIAN_POINT('',(0.0466278132066615,0.185,-0.0555688639038507));
#1285=CARTESIAN_POINT('',(0.0391326887855885,0.185,-0.0622479770948348));
#1286=CARTESIAN_POINT('',(0.0391326887855885,0.225,-0.0622479770948348));
#1287=CARTESIAN_POINT('',(0.0428361459740144,0.225,-0.0681747475102983));
#1288=CARTESIAN_POINT('',(0.0428361459740144,0.185,-0.0681747475102983));
#1289=CARTESIAN_POINT('',(0.0409704401624703,0.185,-0.0693405698916113));
#1290=CARTESIAN_POINT('',(0.0409704401624703,0.225,-0.0693405698916113));
#1291=CARTESIAN_POINT('',(0.0420895731194784,0.225,-0.0712346505193931));
#1292=CARTESIAN_POINT('',(0.0420895731194784,0.185,-0.0712346505193931));
#1293=CARTESIAN_POINT('',(-1.16226472890446E-16,0.185,6.93889390390723E-17));
#1294=CARTESIAN_POINT('',(-1.16226472890446E-16,0.225,6.93889390390723E-17));
#1295=CARTESIAN_POINT('',(0.0170069335214082,0.225,-0.0809732783836644));
#1296=CARTESIAN_POINT('',(0.0170069335214082,0.185,-0.0809732783836644));
#1297=CARTESIAN_POINT('',(0.0164455702016935,0.185,-0.0783322716073782));
#1298=CARTESIAN_POINT('',(0.0164455702016935,0.225,-0.0783322716073782));
#1299=CARTESIAN_POINT('',(0.0158842068819789,0.225,-0.075691264831092));
#1300=CARTESIAN_POINT('',(0.0158842068819789,0.185,-0.075691264831092));
#1301=CARTESIAN_POINT('',(-4.85722573273506E-17,0.185,-7.0082828429463E-16));
#1302=CARTESIAN_POINT('',(-4.85722573273506E-17,0.225,-7.0082828429463E-16));
#1303=CARTESIAN_POINT('',(0.0224206910850833,0.225,-0.0740188368678357));
#1304=CARTESIAN_POINT('',(0.0224206910850833,0.185,-0.0740188368678357));
#1305=CARTESIAN_POINT('',(0.0217482337735599,0.185,-0.0718193281096204));
#1306=CARTESIAN_POINT('',(0.0217482337735599,0.225,-0.0718193281096204));
#1307=CARTESIAN_POINT('',(0.0210757764620364,0.225,-0.0696198193514051));
#1308=CARTESIAN_POINT('',(0.0210757764620364,0.185,-0.0696198193514051));
#1309=CARTESIAN_POINT('',(-1.49186218934005E-16,0.185,-4.23272528138341E-16));
#1310=CARTESIAN_POINT('',(-1.49186218934005E-16,0.225,-4.23272528138341E-16));
#1311=CARTESIAN_POINT('',(-0.0210757764620364,0.225,-0.0696198193514051));
#1312=CARTESIAN_POINT('',(-0.0210757764620364,0.185,-0.0696198193514051));
#1313=CARTESIAN_POINT('',(-0.0217482337735599,0.185,-0.0718193281096204));
#1314=CARTESIAN_POINT('',(-0.0217482337735599,0.225,-0.0718193281096204));
#1315=CARTESIAN_POINT('',(-0.0224206910850832,0.225,-0.0740188368678353));
#1316=CARTESIAN_POINT('',(-0.0224206910850832,0.185,-0.0740188368678353));
#1317=CARTESIAN_POINT('',(-2.28983498828938E-16,0.185,-5.48172618408671E-16));
#1318=CARTESIAN_POINT('',(-2.28983498828938E-16,0.225,-5.48172618408671E-16));
#1319=CARTESIAN_POINT('',(-0.0158842068819789,0.225,-0.075691264831092));
#1320=CARTESIAN_POINT('',(-0.0158842068819789,0.185,-0.075691264831092));
#1321=CARTESIAN_POINT('',(-0.0164455702016935,0.185,-0.0783322716073782));
#1322=CARTESIAN_POINT('',(-0.0164455702016935,0.225,-0.0783322716073782));
#1323=CARTESIAN_POINT('',(-0.0170069335214082,0.225,-0.0809732783836644));
#1324=CARTESIAN_POINT('',(-0.0170069335214082,0.185,-0.0809732783836644));
#1325=CARTESIAN_POINT('',(9.19403442267708E-17,0.185,-6.24500451351651E-17));
#1326=CARTESIAN_POINT('',(9.19403442267708E-17,0.225,-6.24500451351651E-17));
#1327=CARTESIAN_POINT('',(-0.0420895731194784,0.225,-0.0712346505193931));
#1328=CARTESIAN_POINT('',(-0.0420895731194784,0.185,-0.0712346505193931));
#1329=CARTESIAN_POINT('',(-0.0409704401624703,0.185,-0.0693405698916113));
#1330=CARTESIAN_POINT('',(-0.0409704401624703,0.225,-0.0693405698916113));
#1331=CARTESIAN_POINT('',(-0.0428361459740145,0.225,-0.0681747475102983));
#1332=CARTESIAN_POINT('',(-0.0428361459740145,0.185,-0.0681747475102983));
#1333=CARTESIAN_POINT('',(-0.0420478476709443,0.185,-0.0669132065167105));
#1334=CARTESIAN_POINT('',(-0.0420478476709443,0.225,-0.0669132065167105));
#1335=CARTESIAN_POINT('',(-0.0386098069424148,0.225,-0.0614111912265953));
#1336=CARTESIAN_POINT('',(-0.0386098069424148,0.185,-0.0614111912265953));
#1337=CARTESIAN_POINT('',(8.18789480661053E-16,0.185,1.11369247157711E-15));
#1338=CARTESIAN_POINT('',(8.18789480661053E-16,0.225,1.11369247157711E-15));
#1339=CARTESIAN_POINT('',(-0.0466278132066615,0.225,-0.0555688639038507));
#1340=CARTESIAN_POINT('',(-0.0466278132066615,0.185,-0.0555688639038507));
#1341=CARTESIAN_POINT('',(-0.052239349039225,0.185,-0.0622564318922794));
#1342=CARTESIAN_POINT('',(-0.052239349039225,0.225,-0.0622564318922794));
#1343=CARTESIAN_POINT('',(-0.051019684831927,0.225,-0.0608028926914734));
#1344=CARTESIAN_POINT('',(-0.051019684831927,0.185,-0.0608028926914734));
#1345=CARTESIAN_POINT('',(0.0533580036204534,0.185,-0.0612859578041267));
#1346=CARTESIAN_POINT('',(0.0507095383578202,0.185,-0.0590361663915294));
#1347=CARTESIAN_POINT('',(0.0507095383578202,0.225,-0.0590361663915294));
#1348=CARTESIAN_POINT('',(0.0533580036204534,0.225,-0.0612859578041267));
#1349=CARTESIAN_POINT('',(0.00168515580815593,0.225,-0.0772891086336667));
#1350=CARTESIAN_POINT('',(0.0184984721786656,0.225,-0.0814));
#1351=CARTESIAN_POINT('',(0.0184984721786656,0.225,-0.0888245140965288));
#1352=CARTESIAN_POINT('',(0.0184984721786656,0.225,-0.102));
#1353=CARTESIAN_POINT('',(0.0184984721786656,0.225,-0.0888245140965288));
#1354=CARTESIAN_POINT('',(0.0144984721786656,0.225,-0.0888245140965288));
#1355=CARTESIAN_POINT('',(0.0155113609483293,0.225,-0.0950299508963868));
#1356=CARTESIAN_POINT('',(0.0095234415438121,0.225,-0.0969478170913414));
#1357=CARTESIAN_POINT('',(-1.7726705520138E-17,0.225,-0.0999980730087348));
#1358=CARTESIAN_POINT('',(-0.00913984498810098,0.225,-0.0959405819621045));
#1359=CARTESIAN_POINT('',(-0.01364302603518,0.225,-0.0939414652589584));
#1360=CARTESIAN_POINT('',(-0.0129349145595942,0.225,-0.0890656386343015));
#1361=CARTESIAN_POINT('',(-0.0169349145595942,0.225,-0.0890656386343015));
#1362=CARTESIAN_POINT('',(-0.0169349145595942,0.225,-0.0890656386343015));
#1363=CARTESIAN_POINT('',(-0.0169349145595942,0.225,-0.0814));
#1364=CARTESIAN_POINT('',(-0.0169349145595942,0.225,-0.102));
#1365=CARTESIAN_POINT('',(-0.0279349145595942,0.225,-0.102));
#1366=CARTESIAN_POINT('',(-0.0279349145595942,0.225,-0.102));
#1367=CARTESIAN_POINT('',(-0.0279349145595942,0.225,-0.0814));
#1368=CARTESIAN_POINT('',(-0.0433592404007372,0.225,-0.0672307687883388));
#1369=CARTESIAN_POINT('',(0.0442354001307114,0.225,-0.0666575530249636));
#1370=CARTESIAN_POINT('',(0.0294984721786656,0.225,-0.0814));
#1371=CARTESIAN_POINT('',(0.0294984721786656,0.225,-0.102));
#1372=CARTESIAN_POINT('',(0.0144984721786656,0.225,-0.102));
#1373=CARTESIAN_POINT('',(0.,0.225,-0.0999980730087348));
#1374=CARTESIAN_POINT('',(0.,0.225,-0.105998073008735));
#1375=CARTESIAN_POINT('',(-0.0433592404007372,0.185,-0.0672307687883388));
#1376=CARTESIAN_POINT('',(0.0442354001307114,0.185,-0.0666575530249636));
#1377=CARTESIAN_POINT('',(0.,0.225002,-0.0999980730087348));
#1378=CARTESIAN_POINT('',(0.001601116521433,0.207821089955469,-0.0941450679482036));
#1379=CARTESIAN_POINT('',(-3.35368347540121E-7,0.207554812331763,-0.0939245402742527));
#1380=CARTESIAN_POINT('',(-0.00159977504804285,0.207821048935667,-0.0941452090071946));
#1381=CARTESIAN_POINT('',(-0.00300846509185086,0.208339010811661,-0.0947340847095405));
#1382=CARTESIAN_POINT('',(-0.00423935959692707,0.208826250343195,-0.09565699341862));
#1383=CARTESIAN_POINT('',(-0.00523692577147968,0.209081162066084,-0.0969200108516343));
#1384=CARTESIAN_POINT('',(-0.00586187958097199,0.208847985644279,-0.09843154435904));
#1385=CARTESIAN_POINT('',(-0.00603732012351284,0.207978610600469,-0.0998344061853127));
#1386=CARTESIAN_POINT('',(-0.00595984819482648,0.206624288958005,-0.100774774559469));
#1387=CARTESIAN_POINT('',(-0.00589423710089559,0.205016755982956,-0.101109454048673));
#1388=CARTESIAN_POINT('',(-0.00595775876377046,0.203405288172481,-0.100787214833277));
#1389=CARTESIAN_POINT('',(-0.00603702398358725,0.202047164015239,-0.0998602790050426));
#1390=CARTESIAN_POINT('',(-0.00587092575777586,0.201164975582025,-0.0984673318788428));
#1391=CARTESIAN_POINT('',(-0.00525473330350558,0.200917130539892,-0.0969493009499754));
#1392=CARTESIAN_POINT('',(-0.00425869350128969,0.201166578759328,-0.0956748669747493));
#1393=CARTESIAN_POINT('',(-0.00302432192461739,0.201654553127789,-0.0947425980907436));
#1394=CARTESIAN_POINT('',(-0.00161262888473665,0.202175590796664,-0.0941481622596268));
#1395=CARTESIAN_POINT('',(-7.14487686056385E-6,0.202445435725304,-0.0939243554849248));
#1396=CARTESIAN_POINT('',(0.00159264413934934,0.202181240886719,-0.0941428866098568));
#1397=CARTESIAN_POINT('',(0.00300891638452899,0.201660959586492,-0.0947339531341077));
#1398=CARTESIAN_POINT('',(0.00423996000090022,0.201173369909606,-0.0956571399949713));
#1399=CARTESIAN_POINT('',(0.00524256129069227,0.200917560918268,-0.0969278810265243));
#1400=CARTESIAN_POINT('',(0.00586514388647324,0.201157109842152,-0.0984449924832785));
#1401=CARTESIAN_POINT('',(0.00603701300620445,0.202027858647443,-0.0998401427758691));
#1402=CARTESIAN_POINT('',(0.00595938889603972,0.203382704540787,-0.100778188636226));
#1403=CARTESIAN_POINT('',(0.00589414429180439,0.204994651487351,-0.101109749704314));
#1404=CARTESIAN_POINT('',(0.00595856041885815,0.206604825824044,-0.100782788655896));
#1405=CARTESIAN_POINT('',(0.0060367172470761,0.207958650488347,-0.0998533091773962));
#1406=CARTESIAN_POINT('',(0.00587004683207919,0.208836246908465,-0.0984638385039202));
#1407=CARTESIAN_POINT('',(0.00525085964447653,0.209083276134543,-0.0969415431663628));
#1408=CARTESIAN_POINT('',(0.00425042377422712,0.208830427276865,-0.0956669295129219));
#1409=CARTESIAN_POINT('',(0.00301677153179355,0.208342283065307,-0.0947381715947107));
#1410=CARTESIAN_POINT('',(0.001601116521433,0.207821089955469,-0.0941450679482036));
#1411=CARTESIAN_POINT('',(-3.35368347540121E-7,0.207554812331763,-0.0939245402742527));
#1412=CARTESIAN_POINT('',(-0.00159977504804285,0.207821048935667,-0.0941452090071946));
#1413=CARTESIAN_POINT('',(-8.70234069409494E-19,0.207643564703031,-0.0939980730087348));
#1414=CARTESIAN_POINT('',(0.0155113609483293,0.225002,-0.0950299508963868));
#1415=CARTESIAN_POINT('',(0.0095234415438121,0.225002,-0.0969478170913414));
#1416=CARTESIAN_POINT('',(0.0095234415438121,0.201000340396478,-0.0969478170913414));
#1417=CARTESIAN_POINT('',(0.0095234415438121,0.201000340396478,-0.0969478170913414));
#1418=CARTESIAN_POINT('',(0.00936232071189118,0.201006903580613,-0.0964447691944291));
#1419=CARTESIAN_POINT('',(0.00917769875669137,0.201215112137848,-0.0954126300075247));
#1420=CARTESIAN_POINT('',(0.00926129113066662,0.202114255877522,-0.0940829891992657));
#1421=CARTESIAN_POINT('',(0.00948378040711885,0.203434108617489,-0.093208389490951));
#1422=CARTESIAN_POINT('',(0.00959896922029257,0.20500069152816,-0.0928955555410044));
#1423=CARTESIAN_POINT('',(0.00948337127579349,0.206568906024673,-0.0932093890412214));
#1424=CARTESIAN_POINT('',(0.00926121232812905,0.20788684846032,-0.0940849942381106));
#1425=CARTESIAN_POINT('',(0.00917758838774068,0.208783478028238,-0.0954095804260247));
#1426=CARTESIAN_POINT('',(0.00936222561046373,0.208993092545473,-0.0964444722708562));
#1427=CARTESIAN_POINT('',(0.00952344154381211,0.208999659603522,-0.0969478170913414));
#1428=CARTESIAN_POINT('',(0.0095234415438121,0.208999659603522,-0.0969478170913414));
#1429=CARTESIAN_POINT('',(0.0095234415438121,0.225002,-0.0969478170913414));
#1430=CARTESIAN_POINT('',(0.0144984721786656,0.225002,-0.0888245140965288));
#1431=CARTESIAN_POINT('',(-1.7726705520138E-17,0.225002,-0.0999980730087348));
#1432=CARTESIAN_POINT('',(0.00952344154381208,0.201000340396478,-0.0969478170913414));
#1433=CARTESIAN_POINT('',(0.00968715171363493,0.200993671736836,-0.0974589493617667));
#1434=CARTESIAN_POINT('',(0.00992639639352656,0.201178307313868,-0.0984979078905292));
#1435=CARTESIAN_POINT('',(0.0100504165582875,0.202350732874339,-0.100328150984547));
#1436=CARTESIAN_POINT('',(0.00988263684896858,0.204996463839662,-0.101447832058258));
#1437=CARTESIAN_POINT('',(0.010050075786617,0.207648453053997,-0.100328349578811));
#1438=CARTESIAN_POINT('',(0.00992710199380035,0.208820176037924,-0.0985020562347478));
#1439=CARTESIAN_POINT('',(0.00968720432345609,0.209006330406201,-0.0974591136189864));
#1440=CARTESIAN_POINT('',(0.00952344154381208,0.208999659603522,-0.0969478170913414));
#1441=CARTESIAN_POINT('',(-0.00913984498810098,0.225002,-0.0959405819621045));
#1442=CARTESIAN_POINT('',(-0.009139844988101,0.201142846461316,-0.0959405819621045));
#1443=CARTESIAN_POINT('',(-0.009139844988101,0.208857153538684,-0.0959405819621045));
#1444=CARTESIAN_POINT('',(-0.00938696286998761,0.20901004592851,-0.0964972360885769));
#1445=CARTESIAN_POINT('',(-0.0097941346727731,0.209080014391748,-0.0977020453975127));
#1446=CARTESIAN_POINT('',(-0.0100258804592375,0.208340789882012,-0.0994615756526461));
#1447=CARTESIAN_POINT('',(-0.00998596474085171,0.206866044555569,-0.100704865028639));
#1448=CARTESIAN_POINT('',(-0.00993156869834906,0.205003547167888,-0.101147356557261));
#1449=CARTESIAN_POINT('',(-0.00998584404112494,0.203135194963928,-0.100705703783377));
#1450=CARTESIAN_POINT('',(-0.0100258726292369,0.201664091215797,-0.0994667535342772));
#1451=CARTESIAN_POINT('',(-0.00979604018967333,0.200920083835363,-0.0977087144235329));
#1452=CARTESIAN_POINT('',(-0.00938708206592142,0.200989880324698,-0.0964975045875941));
#1453=CARTESIAN_POINT('',(-0.00913984498810099,0.201142846461316,-0.0959405819621045));
#1454=CARTESIAN_POINT('',(-0.00913984498810098,0.208857153538684,-0.0959405819621045));
#1455=CARTESIAN_POINT('',(-0.00913984498810098,0.225002,-0.0959405819621045));
#1456=CARTESIAN_POINT('',(-0.01364302603518,0.225002,-0.0939414652589584));
#1457=CARTESIAN_POINT('',(-0.00913984498810098,0.208857153538684,-0.0959405819621045));
#1458=CARTESIAN_POINT('',(-0.00879080022376189,0.208641198757231,-0.095154328830969));
#1459=CARTESIAN_POINT('',(-0.00863564402703623,0.207630443394335,-0.0935903733212727));
#1460=CARTESIAN_POINT('',(-0.00889241629013517,0.204996947100179,-0.0927040670499283));
#1461=CARTESIAN_POINT('',(-0.00863569593091718,0.202367687198314,-0.0935933626097383));
#1462=CARTESIAN_POINT('',(-0.00879054029173512,0.201358962063299,-0.0951537433118872));
#1463=CARTESIAN_POINT('',(-0.00913984498810097,0.201142846461316,-0.0959405819621045));
#1464=CARTESIAN_POINT('',(-0.0129349145595942,0.225002,-0.0890656386343015));
#1465=CARTESIAN_POINT('',(0.0294984721786656,0.205,-0.0814));
#1466=CARTESIAN_POINT('',(0.0294984721786656,0.205,-0.097));
#1467=CARTESIAN_POINT('',(0.0294984721786656,0.205,-0.101));
#1468=CARTESIAN_POINT('',(0.0294984721786656,0.195,-0.102));
#1469=CARTESIAN_POINT('',(0.0294984721786656,0.195,-0.112));
#1470=CARTESIAN_POINT('',(0.0294984721786656,0.205,-0.112));
#1471=CARTESIAN_POINT('',(0.0294984721786656,0.215,-0.112));
#1472=CARTESIAN_POINT('',(0.0294984721786656,0.215,-0.102));
#1473=CARTESIAN_POINT('',(0.000781778809535692,0.125,-0.112));
#1474=CARTESIAN_POINT('',(0.0184984721786656,0.205,-0.112));
#1475=CARTESIAN_POINT('',(0.0184984721786656,0.215,-0.112));
#1476=CARTESIAN_POINT('',(0.0184984721786656,0.195,-0.112));
#1477=CARTESIAN_POINT('',(0.0294984721786656,0.215,-0.112));
#1478=CARTESIAN_POINT('',(0.000781778809535692,0.195,-0.112));
#1479=CARTESIAN_POINT('',(-0.0279349145595942,0.205,-0.0814));
#1480=CARTESIAN_POINT('',(-0.0279349145595942,0.205,-0.097));
#1481=CARTESIAN_POINT('',(-0.0279349145595942,0.205,-0.093));
#1482=CARTESIAN_POINT('',(-0.0279349145595942,0.215,-0.102));
#1483=CARTESIAN_POINT('',(-0.0279349145595942,0.195,-0.102));
#1484=CARTESIAN_POINT('',(0.00168515580815593,0.215,-0.102));
#1485=CARTESIAN_POINT('',(-0.0169349145595942,0.215,-0.102));
#1486=CARTESIAN_POINT('',(0.00168515580815593,0.195,-0.102));
#1487=CARTESIAN_POINT('',(-0.0169349145595942,0.195,-0.102));
#1488=CARTESIAN_POINT('',(0.00168515580815593,0.195,-0.102));
#1489=CARTESIAN_POINT('',(0.0184984721786656,0.195,-0.102));
#1490=CARTESIAN_POINT('',(0.00168515580815593,0.215,-0.102));
#1491=CARTESIAN_POINT('',(0.0184984721786656,0.215,-0.102));
#1492=CARTESIAN_POINT('',(-0.0169349145595942,0.225002,-0.0890656386343015));
#1493=CARTESIAN_POINT('',(-0.0169349145595942,0.225002,-0.0890656386343015));
#1494=CARTESIAN_POINT('',(-0.0169349145595942,0.205,-0.0814));
#1495=CARTESIAN_POINT('',(-0.0169349145595942,0.205,-0.097));
#1496=CARTESIAN_POINT('',(-0.0169349145595942,0.205,-0.101));
#1497=CARTESIAN_POINT('',(0.0184984721786656,0.225002,-0.0888245140965288));
#1498=CARTESIAN_POINT('',(0.0184984721786656,0.225002,-0.0888245140965288));
#1499=CARTESIAN_POINT('',(0.0184984721786656,0.205,-0.0814));
#1500=CARTESIAN_POINT('',(0.0184984721786656,0.205,-0.097));
#1501=CARTESIAN_POINT('',(0.0184984721786656,0.205,-0.101));
#1502=CARTESIAN_POINT('',(0.0325650854404058,0.205,-0.097));
#1503=CARTESIAN_POINT('',(0.0325650854404058,0.205,-0.097));
#1504=CARTESIAN_POINT('',(0.0325650854404058,0.205,-0.097));
#1505=MECHANICAL_DESIGN_GEOMETRIC_PRESENTATION_REPRESENTATION('',(#842),
#1506);
#1506=(
GEOMETRIC_REPRESENTATION_CONTEXT(3)
GLOBAL_UNCERTAINTY_ASSIGNED_CONTEXT((#1507))
GLOBAL_UNIT_ASSIGNED_CONTEXT((#1510,#1509,#1508))
REPRESENTATION_CONTEXT('base_hinge_1','TOP_LEVEL_ASSEMBLY_PART')
);
#1507=UNCERTAINTY_MEASURE_WITH_UNIT(LENGTH_MEASURE(2.E-5),#1510,
'DISTANCE_ACCURACY_VALUE','Maximum Tolerance applied to model');
#1508=(
NAMED_UNIT(*)
SI_UNIT($,.STERADIAN.)
SOLID_ANGLE_UNIT()
);
#1509=(
NAMED_UNIT(*)
PLANE_ANGLE_UNIT()
SI_UNIT($,.RADIAN.)
);
#1510=(
LENGTH_UNIT()
NAMED_UNIT(*)
SI_UNIT($,.METRE.)
);
#1511=PRODUCT_DEFINITION_SHAPE('','',#1512);
#1512=PRODUCT_DEFINITION('','',#1514,#1513);
#1513=PRODUCT_DEFINITION_CONTEXT('',#1520,'design');
#1514=PRODUCT_DEFINITION_FORMATION_WITH_SPECIFIED_SOURCE('','',#1516,
 .NOT_KNOWN.);
#1515=PRODUCT_RELATED_PRODUCT_CATEGORY('','',(#1516));
#1516=PRODUCT('base_hinge_1','base_hinge_1','base_hinge_1',(#1518));
#1517=PRODUCT_CATEGORY('','');
#1518=PRODUCT_CONTEXT('',#1520,'mechanical');
#1519=APPLICATION_PROTOCOL_DEFINITION('international standard',
'ap242_managed_model_based_3d_engineering',2020,#1520);
#1520=APPLICATION_CONTEXT('managed model based 3d engineering');
ENDSEC;
END-ISO-10303-21;
