ISO-10303-21;
HEADER;
/* Generated by software containing ST-Developer
 * from STEP Tools, Inc. (www.steptools.com) 
 */
/* OPTION: using custom renumber hook */

FILE_DESCRIPTION(
/* description */ ('STEP AP242 Edition 2',
'CAx-IF Rec.Pracs.---Representation and Presentation of Product Manufa
cturing Information (PMI)---4.0---2014-10-13',
'CAx-IF Rec.Pracs.---3D Tessellated Geometry---0.4---2014-09-14','2;1',
'CAx-IF Rec.Pracs.---User Defined Attributes---1.5---2016-08-15'),
/* implementation_level */ '2;1');

FILE_NAME(
/* name */ 'landedConcept v4 parts - base_hinge_2',
/* time_stamp */ '2026-01-03T01:02:39Z',
/* author */ (''),
/* organization */ (''),
/* preprocessor_version */ 'ST-DEVELOPER v20',
/* originating_system */ 'ONSHAPE BY PTC INC, 1.208',
/* authorisation */ '  ');

FILE_SCHEMA (('AP242_MANAGED_MODEL_BASED_3D_ENGINEERING_MIM_LF { 1 0 10303 442 3 1 4 }'));
ENDSEC;

DATA;
#10=SHAPE_REPRESENTATION_RELATIONSHIP('','',#852,#11);
#11=ADVANCED_BREP_SHAPE_REPRESENTATION('',(#850),#1506);
#12=B_SPLINE_CURVE_WITH_KNOTS('',3,(#1380,#1381,#1382,#1383,#1384,#1385,
#1386),.UNSPECIFIED.,.F.,.F.,(4,1,1,1,4),(0.,0.00262048683916767,0.00524097367833534,
0.007861460517503,0.0104819473566707),.UNSPECIFIED.);
#13=B_SPLINE_CURVE_WITH_KNOTS('',3,(#1391,#1392,#1393,#1394,#1395,#1396,
#1397,#1398,#1399,#1400,#1401),.UNSPECIFIED.,.F.,.F.,(4,1,1,1,1,1,1,1,4),
(1.73472347597681E-18,0.00185954069899991,0.00371908139799982,0.00557862209699972,
0.00743816279599963,0.00929770349499954,0.0111572441939994,0.0130167848929994,
0.0148763255919993),.UNSPECIFIED.);
#14=B_SPLINE_CURVE_WITH_KNOTS('',3,(#1404,#1405,#1406,#1407,#1408,#1409,
#1410,#1411,#1412),.UNSPECIFIED.,.F.,.F.,(4,1,1,1,1,1,4),(1.73472347597681E-18,
0.00158831816628879,0.00317663633257757,0.00635327266515515,0.00952990899773272,
0.0111182271640215,0.0127065453303103),.UNSPECIFIED.);
#15=B_SPLINE_CURVE_WITH_KNOTS('',3,(#1416,#1417,#1418,#1419,#1420,#1421,
#1422,#1423,#1424,#1425,#1426),.UNSPECIFIED.,.F.,.F.,(4,1,1,1,1,1,1,1,4),
(0.,0.00156238340995258,0.00312476681990517,0.00468715022985775,0.00624953363981033,
0.00781191704976292,0.0093743004597155,0.0109366838696681,0.0124990672796207),
 .UNSPECIFIED.);
#16=B_SPLINE_CURVE_WITH_KNOTS('',3,(#1429,#1430,#1431,#1432,#1433,#1434,
#1435,#1436,#1437,#1438,#1439,#1440,#1441,#1442,#1443,#1444,#1445,#1446,
#1447,#1448,#1449,#1450,#1451,#1452,#1453,#1454,#1455,#1456,#1457,#1458,
#1459,#1460,#1461,#1462,#1463),.UNSPECIFIED.,.T.,.F.,(1,1,1,1,1,1,1,1,1,
1,1,1,1,1,1,1,1,1,1,1,1,1,1,1,1,1,1,1,1,1,1,1,1,1,1,1,1,1,1),(-0.0047908437454027,
-0.00319389583026847,-0.00159694791513423,1.21149425726718E-18,0.00159694791513424,
0.00319389583026847,0.0047908437454027,0.00638779166053694,0.00798473957567117,
0.00958168749080541,0.0111786354059396,0.0127755833210739,0.0143725312362081,
0.0159694791513423,0.0175664270664766,0.0191633749816108,0.0207603228967451,
0.0223572708118793,0.0239542187270135,0.0255511666421478,0.027148114557282,
0.0287450624724162,0.0303420103875505,0.0319389583026847,0.0335359062178189,
0.0351328541329532,0.0367298020480874,0.0383267499632216,0.0399236978783559,
0.0415206457934901,0.0431175937086243,0.0447145416237586,0.0463114895388928,
0.047908437454027,0.0495053853691613,0.0511023332842955,0.0526992811994297,
0.054296229114564,0.0558931770296982),.UNSPECIFIED.);
#17=CYLINDRICAL_SURFACE('',#873,0.09);
#18=CYLINDRICAL_SURFACE('',#875,0.0725400000000014);
#19=CYLINDRICAL_SURFACE('',#878,0.00220000000000003);
#20=CYLINDRICAL_SURFACE('',#880,0.08274);
#21=CYLINDRICAL_SURFACE('',#883,0.07734);
#22=CYLINDRICAL_SURFACE('',#886,0.07274);
#23=CYLINDRICAL_SURFACE('',#889,0.077339999999999);
#24=CYLINDRICAL_SURFACE('',#892,0.08274);
#25=CYLINDRICAL_SURFACE('',#894,0.0022);
#26=CYLINDRICAL_SURFACE('',#897,0.0725400000000014);
#27=CYLINDRICAL_SURFACE('',#900,0.09);
#28=CYLINDRICAL_SURFACE('',#910,0.01);
#29=CYLINDRICAL_SURFACE('',#911,0.01);
#30=CYLINDRICAL_SURFACE('',#912,0.00492697748478413);
#31=CYLINDRICAL_SURFACE('',#913,0.01);
#32=CYLINDRICAL_SURFACE('',#914,0.00628755831279067);
#33=CYLINDRICAL_SURFACE('',#915,0.006);
#34=CYLINDRICAL_SURFACE('',#925,0.01);
#35=CYLINDRICAL_SURFACE('',#927,0.01);
#36=CYLINDRICAL_SURFACE('',#929,0.01);
#37=CYLINDRICAL_SURFACE('',#931,0.01);
#38=CYLINDRICAL_SURFACE('',#939,0.004);
#39=CYLINDRICAL_SURFACE('',#940,0.004);
#40=CYLINDRICAL_SURFACE('',#941,0.004);
#41=CIRCLE('',#856,0.006);
#42=CIRCLE('',#857,0.00628755831279067);
#43=CIRCLE('',#858,0.01);
#44=CIRCLE('',#859,0.00492697748478413);
#45=CIRCLE('',#860,0.09);
#46=CIRCLE('',#861,0.01);
#47=CIRCLE('',#862,0.0725400000000014);
#48=CIRCLE('',#863,0.0022);
#49=CIRCLE('',#864,0.08274);
#50=CIRCLE('',#865,0.077339999999999);
#51=CIRCLE('',#866,0.07274);
#52=CIRCLE('',#867,0.07734);
#53=CIRCLE('',#868,0.08274);
#54=CIRCLE('',#869,0.00220000000000003);
#55=CIRCLE('',#870,0.0725400000000014);
#56=CIRCLE('',#871,0.01);
#57=CIRCLE('',#872,0.09);
#58=CIRCLE('',#874,0.09);
#59=CIRCLE('',#876,0.0725400000000014);
#60=CIRCLE('',#879,0.00220000000000003);
#61=CIRCLE('',#881,0.08274);
#62=CIRCLE('',#884,0.07734);
#63=CIRCLE('',#887,0.07274);
#64=CIRCLE('',#890,0.077339999999999);
#65=CIRCLE('',#893,0.08274);
#66=CIRCLE('',#895,0.0022);
#67=CIRCLE('',#898,0.0725400000000014);
#68=CIRCLE('',#901,0.09);
#69=CIRCLE('',#904,0.01);
#70=CIRCLE('',#905,0.01);
#71=CIRCLE('',#906,0.00492697748478413);
#72=CIRCLE('',#907,0.01);
#73=CIRCLE('',#908,0.00628755831279067);
#74=CIRCLE('',#909,0.006);
#75=CIRCLE('',#917,0.004);
#76=CIRCLE('',#918,0.01);
#77=CIRCLE('',#919,0.01);
#78=CIRCLE('',#921,0.004);
#79=CIRCLE('',#922,0.01);
#80=CIRCLE('',#923,0.01);
#81=CIRCLE('',#926,0.01);
#82=CIRCLE('',#928,0.01);
#83=CIRCLE('',#930,0.01);
#84=CIRCLE('',#932,0.01);
#85=CIRCLE('',#935,0.004);
#86=CIRCLE('',#938,0.004);
#87=ORIENTED_EDGE('',*,*,#329,.T.);
#88=ORIENTED_EDGE('',*,*,#330,.T.);
#89=ORIENTED_EDGE('',*,*,#331,.T.);
#90=ORIENTED_EDGE('',*,*,#332,.F.);
#91=ORIENTED_EDGE('',*,*,#333,.T.);
#92=ORIENTED_EDGE('',*,*,#334,.F.);
#93=ORIENTED_EDGE('',*,*,#335,.T.);
#94=ORIENTED_EDGE('',*,*,#336,.T.);
#95=ORIENTED_EDGE('',*,*,#337,.F.);
#96=ORIENTED_EDGE('',*,*,#338,.T.);
#97=ORIENTED_EDGE('',*,*,#339,.F.);
#98=ORIENTED_EDGE('',*,*,#340,.T.);
#99=ORIENTED_EDGE('',*,*,#341,.T.);
#100=ORIENTED_EDGE('',*,*,#342,.F.);
#101=ORIENTED_EDGE('',*,*,#343,.F.);
#102=ORIENTED_EDGE('',*,*,#344,.F.);
#103=ORIENTED_EDGE('',*,*,#345,.F.);
#104=ORIENTED_EDGE('',*,*,#346,.F.);
#105=ORIENTED_EDGE('',*,*,#347,.F.);
#106=ORIENTED_EDGE('',*,*,#348,.T.);
#107=ORIENTED_EDGE('',*,*,#349,.T.);
#108=ORIENTED_EDGE('',*,*,#350,.T.);
#109=ORIENTED_EDGE('',*,*,#351,.F.);
#110=ORIENTED_EDGE('',*,*,#352,.F.);
#111=ORIENTED_EDGE('',*,*,#353,.F.);
#112=ORIENTED_EDGE('',*,*,#354,.T.);
#113=ORIENTED_EDGE('',*,*,#355,.F.);
#114=ORIENTED_EDGE('',*,*,#356,.T.);
#115=ORIENTED_EDGE('',*,*,#357,.T.);
#116=ORIENTED_EDGE('',*,*,#358,.T.);
#117=ORIENTED_EDGE('',*,*,#359,.T.);
#118=ORIENTED_EDGE('',*,*,#360,.T.);
#119=ORIENTED_EDGE('',*,*,#361,.F.);
#120=ORIENTED_EDGE('',*,*,#362,.F.);
#121=ORIENTED_EDGE('',*,*,#363,.F.);
#122=ORIENTED_EDGE('',*,*,#364,.T.);
#123=ORIENTED_EDGE('',*,*,#365,.T.);
#124=ORIENTED_EDGE('',*,*,#366,.F.);
#125=ORIENTED_EDGE('',*,*,#363,.T.);
#126=ORIENTED_EDGE('',*,*,#367,.F.);
#127=ORIENTED_EDGE('',*,*,#368,.F.);
#128=ORIENTED_EDGE('',*,*,#369,.T.);
#129=ORIENTED_EDGE('',*,*,#370,.F.);
#130=ORIENTED_EDGE('',*,*,#360,.F.);
#131=ORIENTED_EDGE('',*,*,#371,.T.);
#132=ORIENTED_EDGE('',*,*,#372,.T.);
#133=ORIENTED_EDGE('',*,*,#371,.F.);
#134=ORIENTED_EDGE('',*,*,#359,.F.);
#135=ORIENTED_EDGE('',*,*,#373,.T.);
#136=ORIENTED_EDGE('',*,*,#374,.T.);
#137=ORIENTED_EDGE('',*,*,#373,.F.);
#138=ORIENTED_EDGE('',*,*,#358,.F.);
#139=ORIENTED_EDGE('',*,*,#375,.T.);
#140=ORIENTED_EDGE('',*,*,#376,.T.);
#141=ORIENTED_EDGE('',*,*,#375,.F.);
#142=ORIENTED_EDGE('',*,*,#357,.F.);
#143=ORIENTED_EDGE('',*,*,#377,.T.);
#144=ORIENTED_EDGE('',*,*,#378,.T.);
#145=ORIENTED_EDGE('',*,*,#377,.F.);
#146=ORIENTED_EDGE('',*,*,#356,.F.);
#147=ORIENTED_EDGE('',*,*,#379,.T.);
#148=ORIENTED_EDGE('',*,*,#380,.F.);
#149=ORIENTED_EDGE('',*,*,#379,.F.);
#150=ORIENTED_EDGE('',*,*,#355,.T.);
#151=ORIENTED_EDGE('',*,*,#381,.T.);
#152=ORIENTED_EDGE('',*,*,#382,.T.);
#153=ORIENTED_EDGE('',*,*,#381,.F.);
#154=ORIENTED_EDGE('',*,*,#354,.F.);
#155=ORIENTED_EDGE('',*,*,#383,.T.);
#156=ORIENTED_EDGE('',*,*,#384,.F.);
#157=ORIENTED_EDGE('',*,*,#383,.F.);
#158=ORIENTED_EDGE('',*,*,#353,.T.);
#159=ORIENTED_EDGE('',*,*,#385,.T.);
#160=ORIENTED_EDGE('',*,*,#386,.F.);
#161=ORIENTED_EDGE('',*,*,#385,.F.);
#162=ORIENTED_EDGE('',*,*,#352,.T.);
#163=ORIENTED_EDGE('',*,*,#387,.T.);
#164=ORIENTED_EDGE('',*,*,#388,.F.);
#165=ORIENTED_EDGE('',*,*,#387,.F.);
#166=ORIENTED_EDGE('',*,*,#351,.T.);
#167=ORIENTED_EDGE('',*,*,#389,.T.);
#168=ORIENTED_EDGE('',*,*,#390,.T.);
#169=ORIENTED_EDGE('',*,*,#389,.F.);
#170=ORIENTED_EDGE('',*,*,#350,.F.);
#171=ORIENTED_EDGE('',*,*,#391,.T.);
#172=ORIENTED_EDGE('',*,*,#392,.T.);
#173=ORIENTED_EDGE('',*,*,#391,.F.);
#174=ORIENTED_EDGE('',*,*,#349,.F.);
#175=ORIENTED_EDGE('',*,*,#393,.T.);
#176=ORIENTED_EDGE('',*,*,#394,.T.);
#177=ORIENTED_EDGE('',*,*,#393,.F.);
#178=ORIENTED_EDGE('',*,*,#348,.F.);
#179=ORIENTED_EDGE('',*,*,#395,.T.);
#180=ORIENTED_EDGE('',*,*,#396,.F.);
#181=ORIENTED_EDGE('',*,*,#395,.F.);
#182=ORIENTED_EDGE('',*,*,#347,.T.);
#183=ORIENTED_EDGE('',*,*,#397,.T.);
#184=ORIENTED_EDGE('',*,*,#398,.F.);
#185=ORIENTED_EDGE('',*,*,#397,.F.);
#186=ORIENTED_EDGE('',*,*,#346,.T.);
#187=ORIENTED_EDGE('',*,*,#399,.T.);
#188=ORIENTED_EDGE('',*,*,#400,.F.);
#189=ORIENTED_EDGE('',*,*,#399,.F.);
#190=ORIENTED_EDGE('',*,*,#345,.T.);
#191=ORIENTED_EDGE('',*,*,#401,.F.);
#192=ORIENTED_EDGE('',*,*,#343,.T.);
#193=ORIENTED_EDGE('',*,*,#402,.T.);
#194=ORIENTED_EDGE('',*,*,#403,.F.);
#195=ORIENTED_EDGE('',*,*,#404,.F.);
#196=ORIENTED_EDGE('',*,*,#361,.T.);
#197=ORIENTED_EDGE('',*,*,#370,.T.);
#198=ORIENTED_EDGE('',*,*,#405,.F.);
#199=ORIENTED_EDGE('',*,*,#406,.F.);
#200=ORIENTED_EDGE('',*,*,#407,.F.);
#201=ORIENTED_EDGE('',*,*,#408,.T.);
#202=ORIENTED_EDGE('',*,*,#409,.T.);
#203=ORIENTED_EDGE('',*,*,#410,.F.);
#204=ORIENTED_EDGE('',*,*,#368,.T.);
#205=ORIENTED_EDGE('',*,*,#411,.F.);
#206=ORIENTED_EDGE('',*,*,#405,.T.);
#207=ORIENTED_EDGE('',*,*,#369,.F.);
#208=ORIENTED_EDGE('',*,*,#372,.F.);
#209=ORIENTED_EDGE('',*,*,#374,.F.);
#210=ORIENTED_EDGE('',*,*,#376,.F.);
#211=ORIENTED_EDGE('',*,*,#378,.F.);
#212=ORIENTED_EDGE('',*,*,#380,.T.);
#213=ORIENTED_EDGE('',*,*,#382,.F.);
#214=ORIENTED_EDGE('',*,*,#384,.T.);
#215=ORIENTED_EDGE('',*,*,#386,.T.);
#216=ORIENTED_EDGE('',*,*,#388,.T.);
#217=ORIENTED_EDGE('',*,*,#390,.F.);
#218=ORIENTED_EDGE('',*,*,#392,.F.);
#219=ORIENTED_EDGE('',*,*,#394,.F.);
#220=ORIENTED_EDGE('',*,*,#396,.T.);
#221=ORIENTED_EDGE('',*,*,#398,.T.);
#222=ORIENTED_EDGE('',*,*,#400,.T.);
#223=ORIENTED_EDGE('',*,*,#412,.F.);
#224=ORIENTED_EDGE('',*,*,#403,.T.);
#225=ORIENTED_EDGE('',*,*,#413,.T.);
#226=ORIENTED_EDGE('',*,*,#414,.T.);
#227=ORIENTED_EDGE('',*,*,#415,.F.);
#228=ORIENTED_EDGE('',*,*,#416,.T.);
#229=ORIENTED_EDGE('',*,*,#417,.T.);
#230=ORIENTED_EDGE('',*,*,#418,.F.);
#231=ORIENTED_EDGE('',*,*,#419,.T.);
#232=ORIENTED_EDGE('',*,*,#420,.T.);
#233=ORIENTED_EDGE('',*,*,#344,.T.);
#234=ORIENTED_EDGE('',*,*,#404,.T.);
#235=ORIENTED_EDGE('',*,*,#412,.T.);
#236=ORIENTED_EDGE('',*,*,#401,.T.);
#237=ORIENTED_EDGE('',*,*,#362,.T.);
#238=ORIENTED_EDGE('',*,*,#406,.T.);
#239=ORIENTED_EDGE('',*,*,#411,.T.);
#240=ORIENTED_EDGE('',*,*,#367,.T.);
#241=ORIENTED_EDGE('',*,*,#421,.F.);
#242=ORIENTED_EDGE('',*,*,#422,.T.);
#243=ORIENTED_EDGE('',*,*,#423,.F.);
#244=ORIENTED_EDGE('',*,*,#417,.F.);
#245=ORIENTED_EDGE('',*,*,#424,.T.);
#246=ORIENTED_EDGE('',*,*,#338,.F.);
#247=ORIENTED_EDGE('',*,*,#425,.F.);
#248=ORIENTED_EDGE('',*,*,#421,.T.);
#249=ORIENTED_EDGE('',*,*,#337,.T.);
#250=ORIENTED_EDGE('',*,*,#426,.F.);
#251=ORIENTED_EDGE('',*,*,#427,.F.);
#252=ORIENTED_EDGE('',*,*,#428,.F.);
#253=ORIENTED_EDGE('',*,*,#418,.T.);
#254=ORIENTED_EDGE('',*,*,#423,.T.);
#255=ORIENTED_EDGE('',*,*,#428,.T.);
#256=ORIENTED_EDGE('',*,*,#429,.T.);
#257=ORIENTED_EDGE('',*,*,#426,.T.);
#258=ORIENTED_EDGE('',*,*,#336,.F.);
#259=ORIENTED_EDGE('',*,*,#430,.F.);
#260=ORIENTED_EDGE('',*,*,#419,.F.);
#261=ORIENTED_EDGE('',*,*,#431,.T.);
#262=ORIENTED_EDGE('',*,*,#420,.F.);
#263=ORIENTED_EDGE('',*,*,#333,.F.);
#264=ORIENTED_EDGE('',*,*,#432,.T.);
#265=ORIENTED_EDGE('',*,*,#410,.T.);
#266=ORIENTED_EDGE('',*,*,#433,.T.);
#267=ORIENTED_EDGE('',*,*,#332,.T.);
#268=ORIENTED_EDGE('',*,*,#434,.T.);
#269=ORIENTED_EDGE('',*,*,#364,.F.);
#270=ORIENTED_EDGE('',*,*,#366,.T.);
#271=ORIENTED_EDGE('',*,*,#435,.F.);
#272=ORIENTED_EDGE('',*,*,#436,.F.);
#273=ORIENTED_EDGE('',*,*,#437,.T.);
#274=ORIENTED_EDGE('',*,*,#413,.F.);
#275=ORIENTED_EDGE('',*,*,#402,.F.);
#276=ORIENTED_EDGE('',*,*,#342,.T.);
#277=ORIENTED_EDGE('',*,*,#438,.T.);
#278=ORIENTED_EDGE('',*,*,#439,.F.);
#279=ORIENTED_EDGE('',*,*,#440,.T.);
#280=ORIENTED_EDGE('',*,*,#436,.T.);
#281=ORIENTED_EDGE('',*,*,#441,.T.);
#282=ORIENTED_EDGE('',*,*,#442,.F.);
#283=ORIENTED_EDGE('',*,*,#329,.F.);
#284=ORIENTED_EDGE('',*,*,#433,.F.);
#285=ORIENTED_EDGE('',*,*,#409,.F.);
#286=ORIENTED_EDGE('',*,*,#443,.F.);
#287=ORIENTED_EDGE('',*,*,#365,.F.);
#288=ORIENTED_EDGE('',*,*,#434,.F.);
#289=ORIENTED_EDGE('',*,*,#331,.F.);
#290=ORIENTED_EDGE('',*,*,#444,.F.);
#291=ORIENTED_EDGE('',*,*,#414,.F.);
#292=ORIENTED_EDGE('',*,*,#437,.F.);
#293=ORIENTED_EDGE('',*,*,#440,.F.);
#294=ORIENTED_EDGE('',*,*,#445,.F.);
#295=ORIENTED_EDGE('',*,*,#441,.F.);
#296=ORIENTED_EDGE('',*,*,#438,.F.);
#297=ORIENTED_EDGE('',*,*,#341,.F.);
#298=ORIENTED_EDGE('',*,*,#424,.F.);
#299=ORIENTED_EDGE('',*,*,#416,.F.);
#300=ORIENTED_EDGE('',*,*,#446,.T.);
#301=ORIENTED_EDGE('',*,*,#339,.T.);
#302=ORIENTED_EDGE('',*,*,#447,.T.);
#303=ORIENTED_EDGE('',*,*,#415,.T.);
#304=ORIENTED_EDGE('',*,*,#444,.T.);
#305=ORIENTED_EDGE('',*,*,#439,.T.);
#306=ORIENTED_EDGE('',*,*,#445,.T.);
#307=ORIENTED_EDGE('',*,*,#340,.F.);
#308=ORIENTED_EDGE('',*,*,#446,.F.);
#309=ORIENTED_EDGE('',*,*,#430,.T.);
#310=ORIENTED_EDGE('',*,*,#335,.F.);
#311=ORIENTED_EDGE('',*,*,#448,.F.);
#312=ORIENTED_EDGE('',*,*,#407,.T.);
#313=ORIENTED_EDGE('',*,*,#449,.F.);
#314=ORIENTED_EDGE('',*,*,#330,.F.);
#315=ORIENTED_EDGE('',*,*,#442,.T.);
#316=ORIENTED_EDGE('',*,*,#408,.F.);
#317=ORIENTED_EDGE('',*,*,#448,.T.);
#318=ORIENTED_EDGE('',*,*,#334,.T.);
#319=ORIENTED_EDGE('',*,*,#443,.T.);
#320=ORIENTED_EDGE('',*,*,#449,.T.);
#321=ORIENTED_EDGE('',*,*,#432,.F.);
#322=ORIENTED_EDGE('',*,*,#435,.T.);
#323=ORIENTED_EDGE('',*,*,#447,.F.);
#324=ORIENTED_EDGE('',*,*,#431,.F.);
#325=ORIENTED_EDGE('',*,*,#427,.T.);
#326=ORIENTED_EDGE('',*,*,#429,.F.);
#327=ORIENTED_EDGE('',*,*,#425,.T.);
#328=ORIENTED_EDGE('',*,*,#422,.F.);
#329=EDGE_CURVE('',#450,#451,#533,.F.);
#330=EDGE_CURVE('',#451,#452,#534,.T.);
#331=EDGE_CURVE('',#452,#453,#535,.T.);
#332=EDGE_CURVE('',#450,#453,#536,.T.);
#333=EDGE_CURVE('',#454,#454,#41,.T.);
#334=EDGE_CURVE('',#455,#456,#537,.T.);
#335=EDGE_CURVE('',#455,#457,#538,.T.);
#336=EDGE_CURVE('',#457,#458,#42,.T.);
#337=EDGE_CURVE('',#459,#458,#43,.T.);
#338=EDGE_CURVE('',#459,#460,#44,.T.);
#339=EDGE_CURVE('',#461,#460,#539,.T.);
#340=EDGE_CURVE('',#461,#462,#540,.T.);
#341=EDGE_CURVE('',#462,#463,#541,.F.);
#342=EDGE_CURVE('',#464,#463,#542,.T.);
#343=EDGE_CURVE('',#465,#464,#45,.T.);
#344=EDGE_CURVE('',#466,#465,#46,.T.);
#345=EDGE_CURVE('',#467,#466,#543,.T.);
#346=EDGE_CURVE('',#468,#467,#47,.T.);
#347=EDGE_CURVE('',#469,#468,#544,.T.);
#348=EDGE_CURVE('',#469,#470,#48,.T.);
#349=EDGE_CURVE('',#470,#471,#49,.T.);
#350=EDGE_CURVE('',#471,#472,#545,.T.);
#351=EDGE_CURVE('',#473,#472,#50,.T.);
#352=EDGE_CURVE('',#474,#473,#546,.T.);
#353=EDGE_CURVE('',#475,#474,#51,.T.);
#354=EDGE_CURVE('',#475,#476,#547,.T.);
#355=EDGE_CURVE('',#477,#476,#52,.T.);
#356=EDGE_CURVE('',#477,#478,#548,.T.);
#357=EDGE_CURVE('',#478,#479,#53,.T.);
#358=EDGE_CURVE('',#479,#480,#54,.T.);
#359=EDGE_CURVE('',#480,#481,#549,.T.);
#360=EDGE_CURVE('',#481,#482,#55,.T.);
#361=EDGE_CURVE('',#483,#482,#550,.T.);
#362=EDGE_CURVE('',#484,#483,#56,.T.);
#363=EDGE_CURVE('',#485,#484,#57,.T.);
#364=EDGE_CURVE('',#485,#486,#551,.T.);
#365=EDGE_CURVE('',#486,#456,#552,.F.);
#366=EDGE_CURVE('',#485,#487,#553,.T.);
#367=EDGE_CURVE('',#488,#484,#554,.F.);
#368=EDGE_CURVE('',#487,#488,#58,.T.);
#369=EDGE_CURVE('',#489,#490,#59,.T.);
#370=EDGE_CURVE('',#482,#490,#555,.T.);
#371=EDGE_CURVE('',#481,#489,#556,.T.);
#372=EDGE_CURVE('',#491,#489,#557,.T.);
#373=EDGE_CURVE('',#480,#491,#558,.T.);
#374=EDGE_CURVE('',#492,#491,#60,.T.);
#375=EDGE_CURVE('',#479,#492,#559,.T.);
#376=EDGE_CURVE('',#493,#492,#61,.T.);
#377=EDGE_CURVE('',#478,#493,#560,.T.);
#378=EDGE_CURVE('',#494,#493,#561,.T.);
#379=EDGE_CURVE('',#477,#494,#562,.T.);
#380=EDGE_CURVE('',#494,#495,#62,.T.);
#381=EDGE_CURVE('',#476,#495,#563,.T.);
#382=EDGE_CURVE('',#496,#495,#564,.T.);
#383=EDGE_CURVE('',#475,#496,#565,.T.);
#384=EDGE_CURVE('',#496,#497,#63,.T.);
#385=EDGE_CURVE('',#474,#497,#566,.T.);
#386=EDGE_CURVE('',#497,#498,#567,.T.);
#387=EDGE_CURVE('',#473,#498,#568,.T.);
#388=EDGE_CURVE('',#498,#499,#64,.T.);
#389=EDGE_CURVE('',#472,#499,#569,.T.);
#390=EDGE_CURVE('',#500,#499,#570,.T.);
#391=EDGE_CURVE('',#471,#500,#571,.T.);
#392=EDGE_CURVE('',#501,#500,#65,.T.);
#393=EDGE_CURVE('',#470,#501,#572,.T.);
#394=EDGE_CURVE('',#502,#501,#66,.T.);
#395=EDGE_CURVE('',#469,#502,#573,.T.);
#396=EDGE_CURVE('',#502,#503,#574,.T.);
#397=EDGE_CURVE('',#468,#503,#575,.T.);
#398=EDGE_CURVE('',#503,#504,#67,.T.);
#399=EDGE_CURVE('',#467,#504,#576,.T.);
#400=EDGE_CURVE('',#504,#505,#577,.T.);
#401=EDGE_CURVE('',#505,#466,#578,.F.);
#402=EDGE_CURVE('',#464,#506,#579,.T.);
#403=EDGE_CURVE('',#507,#506,#68,.T.);
#404=EDGE_CURVE('',#465,#507,#580,.T.);
#405=EDGE_CURVE('',#508,#490,#581,.T.);
#406=EDGE_CURVE('',#483,#508,#582,.T.);
#407=EDGE_CURVE('',#509,#510,#583,.T.);
#408=EDGE_CURVE('',#509,#511,#584,.T.);
#409=EDGE_CURVE('',#511,#512,#585,.T.);
#410=EDGE_CURVE('',#487,#512,#586,.T.);
#411=EDGE_CURVE('',#508,#488,#69,.F.);
#412=EDGE_CURVE('',#507,#505,#70,.F.);
#413=EDGE_CURVE('',#506,#513,#587,.T.);
#414=EDGE_CURVE('',#513,#514,#588,.T.);
#415=EDGE_CURVE('',#515,#514,#589,.T.);
#416=EDGE_CURVE('',#515,#516,#590,.T.);
#417=EDGE_CURVE('',#516,#517,#71,.F.);
#418=EDGE_CURVE('',#518,#517,#72,.F.);
#419=EDGE_CURVE('',#518,#510,#73,.F.);
#420=EDGE_CURVE('',#519,#519,#74,.F.);
#421=EDGE_CURVE('',#520,#459,#591,.T.);
#422=EDGE_CURVE('',#520,#521,#12,.T.);
#423=EDGE_CURVE('',#517,#521,#592,.T.);
#424=EDGE_CURVE('',#516,#460,#593,.T.);
#425=EDGE_CURVE('',#520,#521,#13,.T.);
#426=EDGE_CURVE('',#522,#458,#594,.T.);
#427=EDGE_CURVE('',#523,#522,#14,.T.);
#428=EDGE_CURVE('',#518,#523,#595,.T.);
#429=EDGE_CURVE('',#523,#522,#15,.T.);
#430=EDGE_CURVE('',#510,#457,#596,.T.);
#431=EDGE_CURVE('',#524,#524,#16,.T.);
#432=EDGE_CURVE('',#525,#525,#75,.T.);
#433=EDGE_CURVE('',#512,#450,#76,.F.);
#434=EDGE_CURVE('',#453,#486,#77,.F.);
#435=EDGE_CURVE('',#526,#526,#78,.T.);
#436=EDGE_CURVE('',#527,#528,#597,.T.);
#437=EDGE_CURVE('',#527,#513,#79,.T.);
#438=EDGE_CURVE('',#463,#528,#80,.T.);
#439=EDGE_CURVE('',#529,#530,#598,.T.);
#440=EDGE_CURVE('',#529,#527,#599,.F.);
#441=EDGE_CURVE('',#528,#530,#600,.T.);
#442=EDGE_CURVE('',#451,#511,#81,.T.);
#443=EDGE_CURVE('',#456,#452,#82,.T.);
#444=EDGE_CURVE('',#514,#529,#83,.F.);
#445=EDGE_CURVE('',#530,#462,#84,.F.);
#446=EDGE_CURVE('',#515,#461,#601,.T.);
#447=EDGE_CURVE('',#531,#531,#85,.T.);
#448=EDGE_CURVE('',#509,#455,#602,.T.);
#449=EDGE_CURVE('',#532,#532,#86,.T.);
#450=VERTEX_POINT('',#1193);
#451=VERTEX_POINT('',#1194);
#452=VERTEX_POINT('',#1196);
#453=VERTEX_POINT('',#1198);
#454=VERTEX_POINT('',#1202);
#455=VERTEX_POINT('',#1204);
#456=VERTEX_POINT('',#1205);
#457=VERTEX_POINT('',#1207);
#458=VERTEX_POINT('',#1209);
#459=VERTEX_POINT('',#1211);
#460=VERTEX_POINT('',#1213);
#461=VERTEX_POINT('',#1215);
#462=VERTEX_POINT('',#1217);
#463=VERTEX_POINT('',#1219);
#464=VERTEX_POINT('',#1221);
#465=VERTEX_POINT('',#1223);
#466=VERTEX_POINT('',#1225);
#467=VERTEX_POINT('',#1227);
#468=VERTEX_POINT('',#1229);
#469=VERTEX_POINT('',#1231);
#470=VERTEX_POINT('',#1233);
#471=VERTEX_POINT('',#1235);
#472=VERTEX_POINT('',#1237);
#473=VERTEX_POINT('',#1239);
#474=VERTEX_POINT('',#1241);
#475=VERTEX_POINT('',#1243);
#476=VERTEX_POINT('',#1245);
#477=VERTEX_POINT('',#1247);
#478=VERTEX_POINT('',#1249);
#479=VERTEX_POINT('',#1251);
#480=VERTEX_POINT('',#1253);
#481=VERTEX_POINT('',#1255);
#482=VERTEX_POINT('',#1257);
#483=VERTEX_POINT('',#1259);
#484=VERTEX_POINT('',#1261);
#485=VERTEX_POINT('',#1263);
#486=VERTEX_POINT('',#1265);
#487=VERTEX_POINT('',#1269);
#488=VERTEX_POINT('',#1271);
#489=VERTEX_POINT('',#1275);
#490=VERTEX_POINT('',#1276);
#491=VERTEX_POINT('',#1281);
#492=VERTEX_POINT('',#1285);
#493=VERTEX_POINT('',#1289);
#494=VERTEX_POINT('',#1293);
#495=VERTEX_POINT('',#1297);
#496=VERTEX_POINT('',#1301);
#497=VERTEX_POINT('',#1305);
#498=VERTEX_POINT('',#1309);
#499=VERTEX_POINT('',#1313);
#500=VERTEX_POINT('',#1317);
#501=VERTEX_POINT('',#1321);
#502=VERTEX_POINT('',#1325);
#503=VERTEX_POINT('',#1329);
#504=VERTEX_POINT('',#1333);
#505=VERTEX_POINT('',#1337);
#506=VERTEX_POINT('',#1341);
#507=VERTEX_POINT('',#1343);
#508=VERTEX_POINT('',#1347);
#509=VERTEX_POINT('',#1351);
#510=VERTEX_POINT('',#1352);
#511=VERTEX_POINT('',#1354);
#512=VERTEX_POINT('',#1356);
#513=VERTEX_POINT('',#1361);
#514=VERTEX_POINT('',#1363);
#515=VERTEX_POINT('',#1365);
#516=VERTEX_POINT('',#1367);
#517=VERTEX_POINT('',#1369);
#518=VERTEX_POINT('',#1371);
#519=VERTEX_POINT('',#1374);
#520=VERTEX_POINT('',#1379);
#521=VERTEX_POINT('',#1387);
#522=VERTEX_POINT('',#1403);
#523=VERTEX_POINT('',#1413);
#524=VERTEX_POINT('',#1464);
#525=VERTEX_POINT('',#1467);
#526=VERTEX_POINT('',#1472);
#527=VERTEX_POINT('',#1474);
#528=VERTEX_POINT('',#1475);
#529=VERTEX_POINT('',#1480);
#530=VERTEX_POINT('',#1481);
#531=VERTEX_POINT('',#1496);
#532=VERTEX_POINT('',#1501);
#533=LINE('',#1192,#603);
#534=LINE('',#1195,#604);
#535=LINE('',#1197,#605);
#536=LINE('',#1199,#606);
#537=LINE('',#1203,#607);
#538=LINE('',#1206,#608);
#539=LINE('',#1214,#609);
#540=LINE('',#1216,#610);
#541=LINE('',#1218,#611);
#542=LINE('',#1220,#612);
#543=LINE('',#1226,#613);
#544=LINE('',#1230,#614);
#545=LINE('',#1236,#615);
#546=LINE('',#1240,#616);
#547=LINE('',#1244,#617);
#548=LINE('',#1248,#618);
#549=LINE('',#1254,#619);
#550=LINE('',#1258,#620);
#551=LINE('',#1264,#621);
#552=LINE('',#1266,#622);
#553=LINE('',#1268,#623);
#554=LINE('',#1270,#624);
#555=LINE('',#1277,#625);
#556=LINE('',#1278,#626);
#557=LINE('',#1280,#627);
#558=LINE('',#1282,#628);
#559=LINE('',#1286,#629);
#560=LINE('',#1290,#630);
#561=LINE('',#1292,#631);
#562=LINE('',#1294,#632);
#563=LINE('',#1298,#633);
#564=LINE('',#1300,#634);
#565=LINE('',#1302,#635);
#566=LINE('',#1306,#636);
#567=LINE('',#1308,#637);
#568=LINE('',#1310,#638);
#569=LINE('',#1314,#639);
#570=LINE('',#1316,#640);
#571=LINE('',#1318,#641);
#572=LINE('',#1322,#642);
#573=LINE('',#1326,#643);
#574=LINE('',#1328,#644);
#575=LINE('',#1330,#645);
#576=LINE('',#1334,#646);
#577=LINE('',#1336,#647);
#578=LINE('',#1338,#648);
#579=LINE('',#1340,#649);
#580=LINE('',#1344,#650);
#581=LINE('',#1346,#651);
#582=LINE('',#1348,#652);
#583=LINE('',#1350,#653);
#584=LINE('',#1353,#654);
#585=LINE('',#1355,#655);
#586=LINE('',#1357,#656);
#587=LINE('',#1360,#657);
#588=LINE('',#1362,#658);
#589=LINE('',#1364,#659);
#590=LINE('',#1366,#660);
#591=LINE('',#1378,#661);
#592=LINE('',#1388,#662);
#593=LINE('',#1389,#663);
#594=LINE('',#1402,#664);
#595=LINE('',#1414,#665);
#596=LINE('',#1427,#666);
#597=LINE('',#1473,#667);
#598=LINE('',#1479,#668);
#599=LINE('',#1482,#669);
#600=LINE('',#1483,#670);
#601=LINE('',#1493,#671);
#602=LINE('',#1498,#672);
#603=VECTOR('',#946,1.);
#604=VECTOR('',#947,1.);
#605=VECTOR('',#948,1.);
#606=VECTOR('',#949,1.);
#607=VECTOR('',#954,1.);
#608=VECTOR('',#955,1.);
#609=VECTOR('',#962,1.);
#610=VECTOR('',#963,1.);
#611=VECTOR('',#964,1.);
#612=VECTOR('',#965,1.);
#613=VECTOR('',#970,1.);
#614=VECTOR('',#973,1.);
#615=VECTOR('',#978,1.);
#616=VECTOR('',#981,1.);
#617=VECTOR('',#984,1.);
#618=VECTOR('',#987,1.);
#619=VECTOR('',#992,1.);
#620=VECTOR('',#995,1.);
#621=VECTOR('',#1000,1.);
#622=VECTOR('',#1001,1.);
#623=VECTOR('',#1004,1.);
#624=VECTOR('',#1005,1.);
#625=VECTOR('',#1012,1.);
#626=VECTOR('',#1013,1.);
#627=VECTOR('',#1016,1.);
#628=VECTOR('',#1017,1.);
#629=VECTOR('',#1022,1.);
#630=VECTOR('',#1027,1.);
#631=VECTOR('',#1030,1.);
#632=VECTOR('',#1031,1.);
#633=VECTOR('',#1036,1.);
#634=VECTOR('',#1039,1.);
#635=VECTOR('',#1040,1.);
#636=VECTOR('',#1045,1.);
#637=VECTOR('',#1048,1.);
#638=VECTOR('',#1049,1.);
#639=VECTOR('',#1054,1.);
#640=VECTOR('',#1057,1.);
#641=VECTOR('',#1058,1.);
#642=VECTOR('',#1063,1.);
#643=VECTOR('',#1068,1.);
#644=VECTOR('',#1071,1.);
#645=VECTOR('',#1072,1.);
#646=VECTOR('',#1077,1.);
#647=VECTOR('',#1080,1.);
#648=VECTOR('',#1081,1.);
#649=VECTOR('',#1084,1.);
#650=VECTOR('',#1087,1.);
#651=VECTOR('',#1090,1.);
#652=VECTOR('',#1091,1.);
#653=VECTOR('',#1094,1.);
#654=VECTOR('',#1095,1.);
#655=VECTOR('',#1096,1.);
#656=VECTOR('',#1097,1.);
#657=VECTOR('',#1102,1.);
#658=VECTOR('',#1103,1.);
#659=VECTOR('',#1104,1.);
#660=VECTOR('',#1105,1.);
#661=VECTOR('',#1120,1.);
#662=VECTOR('',#1121,1.);
#663=VECTOR('',#1122,1.);
#664=VECTOR('',#1125,1.);
#665=VECTOR('',#1126,1.);
#666=VECTOR('',#1129,1.);
#667=VECTOR('',#1144,1.);
#668=VECTOR('',#1151,1.);
#669=VECTOR('',#1152,1.);
#670=VECTOR('',#1153,1.);
#671=VECTOR('',#1172,1.);
#672=VECTOR('',#1179,1.);
#673=EDGE_LOOP('',(#87,#88,#89,#90));
#674=EDGE_LOOP('',(#91));
#675=EDGE_LOOP('',(#92,#93,#94,#95,#96,#97,#98,#99,#100,#101,#102,#103,
#104,#105,#106,#107,#108,#109,#110,#111,#112,#113,#114,#115,#116,#117,#118,
#119,#120,#121,#122,#123));
#676=EDGE_LOOP('',(#124,#125,#126,#127));
#677=EDGE_LOOP('',(#128,#129,#130,#131));
#678=EDGE_LOOP('',(#132,#133,#134,#135));
#679=EDGE_LOOP('',(#136,#137,#138,#139));
#680=EDGE_LOOP('',(#140,#141,#142,#143));
#681=EDGE_LOOP('',(#144,#145,#146,#147));
#682=EDGE_LOOP('',(#148,#149,#150,#151));
#683=EDGE_LOOP('',(#152,#153,#154,#155));
#684=EDGE_LOOP('',(#156,#157,#158,#159));
#685=EDGE_LOOP('',(#160,#161,#162,#163));
#686=EDGE_LOOP('',(#164,#165,#166,#167));
#687=EDGE_LOOP('',(#168,#169,#170,#171));
#688=EDGE_LOOP('',(#172,#173,#174,#175));
#689=EDGE_LOOP('',(#176,#177,#178,#179));
#690=EDGE_LOOP('',(#180,#181,#182,#183));
#691=EDGE_LOOP('',(#184,#185,#186,#187));
#692=EDGE_LOOP('',(#188,#189,#190,#191));
#693=EDGE_LOOP('',(#192,#193,#194,#195));
#694=EDGE_LOOP('',(#196,#197,#198,#199));
#695=EDGE_LOOP('',(#200,#201,#202,#203,#204,#205,#206,#207,#208,#209,#210,
#211,#212,#213,#214,#215,#216,#217,#218,#219,#220,#221,#222,#223,#224,#225,
#226,#227,#228,#229,#230,#231));
#696=EDGE_LOOP('',(#232));
#697=EDGE_LOOP('',(#233,#234,#235,#236));
#698=EDGE_LOOP('',(#237,#238,#239,#240));
#699=EDGE_LOOP('',(#241,#242,#243,#244,#245,#246));
#700=EDGE_LOOP('',(#247,#248,#249,#250,#251,#252,#253,#254));
#701=EDGE_LOOP('',(#255,#256,#257,#258,#259,#260));
#702=EDGE_LOOP('',(#261));
#703=EDGE_LOOP('',(#262));
#704=EDGE_LOOP('',(#263));
#705=EDGE_LOOP('',(#264));
#706=EDGE_LOOP('',(#265,#266,#267,#268,#269,#270));
#707=EDGE_LOOP('',(#271));
#708=EDGE_LOOP('',(#272,#273,#274,#275,#276,#277));
#709=EDGE_LOOP('',(#278,#279,#280,#281));
#710=EDGE_LOOP('',(#282,#283,#284,#285));
#711=EDGE_LOOP('',(#286,#287,#288,#289));
#712=EDGE_LOOP('',(#290,#291,#292,#293));
#713=EDGE_LOOP('',(#294,#295,#296,#297));
#714=EDGE_LOOP('',(#298,#299,#300,#301));
#715=EDGE_LOOP('',(#302));
#716=EDGE_LOOP('',(#303,#304,#305,#306,#307,#308));
#717=EDGE_LOOP('',(#309,#310,#311,#312));
#718=EDGE_LOOP('',(#313));
#719=EDGE_LOOP('',(#314,#315,#316,#317,#318,#319));
#720=EDGE_LOOP('',(#320));
#721=EDGE_LOOP('',(#321));
#722=EDGE_LOOP('',(#322));
#723=EDGE_LOOP('',(#323));
#724=EDGE_LOOP('',(#324));
#725=EDGE_LOOP('',(#325,#326));
#726=EDGE_LOOP('',(#327,#328));
#727=FACE_BOUND('',#673,.T.);
#728=FACE_BOUND('',#674,.T.);
#729=FACE_BOUND('',#675,.T.);
#730=FACE_BOUND('',#676,.T.);
#731=FACE_BOUND('',#677,.T.);
#732=FACE_BOUND('',#678,.T.);
#733=FACE_BOUND('',#679,.T.);
#734=FACE_BOUND('',#680,.T.);
#735=FACE_BOUND('',#681,.T.);
#736=FACE_BOUND('',#682,.T.);
#737=FACE_BOUND('',#683,.T.);
#738=FACE_BOUND('',#684,.T.);
#739=FACE_BOUND('',#685,.T.);
#740=FACE_BOUND('',#686,.T.);
#741=FACE_BOUND('',#687,.T.);
#742=FACE_BOUND('',#688,.T.);
#743=FACE_BOUND('',#689,.T.);
#744=FACE_BOUND('',#690,.T.);
#745=FACE_BOUND('',#691,.T.);
#746=FACE_BOUND('',#692,.T.);
#747=FACE_BOUND('',#693,.T.);
#748=FACE_BOUND('',#694,.T.);
#749=FACE_BOUND('',#695,.T.);
#750=FACE_BOUND('',#696,.T.);
#751=FACE_BOUND('',#697,.T.);
#752=FACE_BOUND('',#698,.T.);
#753=FACE_BOUND('',#699,.T.);
#754=FACE_BOUND('',#700,.T.);
#755=FACE_BOUND('',#701,.T.);
#756=FACE_BOUND('',#702,.T.);
#757=FACE_BOUND('',#703,.T.);
#758=FACE_BOUND('',#704,.T.);
#759=FACE_BOUND('',#705,.T.);
#760=FACE_BOUND('',#706,.T.);
#761=FACE_BOUND('',#707,.T.);
#762=FACE_BOUND('',#708,.T.);
#763=FACE_BOUND('',#709,.T.);
#764=FACE_BOUND('',#710,.T.);
#765=FACE_BOUND('',#711,.T.);
#766=FACE_BOUND('',#712,.T.);
#767=FACE_BOUND('',#713,.T.);
#768=FACE_BOUND('',#714,.T.);
#769=FACE_BOUND('',#715,.T.);
#770=FACE_BOUND('',#716,.T.);
#771=FACE_BOUND('',#717,.T.);
#772=FACE_BOUND('',#718,.T.);
#773=FACE_BOUND('',#719,.T.);
#774=FACE_BOUND('',#720,.T.);
#775=FACE_BOUND('',#721,.T.);
#776=FACE_BOUND('',#722,.T.);
#777=FACE_BOUND('',#723,.T.);
#778=FACE_BOUND('',#724,.T.);
#779=FACE_BOUND('',#725,.T.);
#780=FACE_BOUND('',#726,.T.);
#781=PLANE('',#854);
#782=PLANE('',#855);
#783=PLANE('',#877);
#784=PLANE('',#882);
#785=PLANE('',#885);
#786=PLANE('',#888);
#787=PLANE('',#891);
#788=PLANE('',#896);
#789=PLANE('',#899);
#790=PLANE('',#902);
#791=PLANE('',#903);
#792=PLANE('',#916);
#793=PLANE('',#920);
#794=PLANE('',#924);
#795=PLANE('',#933);
#796=PLANE('',#934);
#797=PLANE('',#936);
#798=PLANE('',#937);
#799=ADVANCED_FACE('',(#727),#781,.T.);
#800=ADVANCED_FACE('',(#728,#729),#782,.T.);
#801=ADVANCED_FACE('',(#730),#17,.T.);
#802=ADVANCED_FACE('',(#731),#18,.F.);
#803=ADVANCED_FACE('',(#732),#783,.T.);
#804=ADVANCED_FACE('',(#733),#19,.F.);
#805=ADVANCED_FACE('',(#734),#20,.F.);
#806=ADVANCED_FACE('',(#735),#784,.T.);
#807=ADVANCED_FACE('',(#736),#21,.T.);
#808=ADVANCED_FACE('',(#737),#785,.T.);
#809=ADVANCED_FACE('',(#738),#22,.F.);
#810=ADVANCED_FACE('',(#739),#786,.F.);
#811=ADVANCED_FACE('',(#740),#23,.T.);
#812=ADVANCED_FACE('',(#741),#787,.T.);
#813=ADVANCED_FACE('',(#742),#24,.F.);
#814=ADVANCED_FACE('',(#743),#25,.F.);
#815=ADVANCED_FACE('',(#744),#788,.F.);
#816=ADVANCED_FACE('',(#745),#26,.F.);
#817=ADVANCED_FACE('',(#746),#789,.F.);
#818=ADVANCED_FACE('',(#747),#27,.T.);
#819=ADVANCED_FACE('',(#748),#790,.F.);
#820=ADVANCED_FACE('',(#749,#750),#791,.F.);
#821=ADVANCED_FACE('',(#751),#28,.T.);
#822=ADVANCED_FACE('',(#752),#29,.T.);
#823=ADVANCED_FACE('',(#753),#30,.F.);
#824=ADVANCED_FACE('',(#754),#31,.T.);
#825=ADVANCED_FACE('',(#755),#32,.F.);
#826=ADVANCED_FACE('',(#756,#757,#758),#33,.F.);
#827=ADVANCED_FACE('',(#759,#760),#792,.F.);
#828=ADVANCED_FACE('',(#761,#762),#793,.T.);
#829=ADVANCED_FACE('',(#763),#794,.T.);
#830=ADVANCED_FACE('',(#764),#34,.T.);
#831=ADVANCED_FACE('',(#765),#35,.T.);
#832=ADVANCED_FACE('',(#766),#36,.T.);
#833=ADVANCED_FACE('',(#767),#37,.T.);
#834=ADVANCED_FACE('',(#768),#795,.T.);
#835=ADVANCED_FACE('',(#769,#770),#796,.F.);
#836=ADVANCED_FACE('',(#771),#797,.F.);
#837=ADVANCED_FACE('',(#772,#773),#798,.T.);
#838=ADVANCED_FACE('',(#774,#775),#38,.F.);
#839=ADVANCED_FACE('',(#776,#777),#39,.F.);
#840=ADVANCED_FACE('',(#778,#779,#780),#40,.F.);
#841=CLOSED_SHELL('',(#799,#800,#801,#802,#803,#804,#805,#806,#807,#808,
#809,#810,#811,#812,#813,#814,#815,#816,#817,#818,#819,#820,#821,#822,#823,
#824,#825,#826,#827,#828,#829,#830,#831,#832,#833,#834,#835,#836,#837,#838,
#839,#840));
#842=STYLED_ITEM('',(#843),#850);
#843=PRESENTATION_STYLE_ASSIGNMENT((#844));
#844=SURFACE_STYLE_USAGE(.BOTH.,#845);
#845=SURFACE_SIDE_STYLE('',(#846));
#846=SURFACE_STYLE_FILL_AREA(#847);
#847=FILL_AREA_STYLE('',(#848));
#848=FILL_AREA_STYLE_COLOUR('',#849);
#849=COLOUR_RGB('',0.615686274509804,0.811764705882353,0.929411764705882);
#850=MANIFOLD_SOLID_BREP('base_hinge_2',#841);
#851=SHAPE_DEFINITION_REPRESENTATION(#1511,#852);
#852=SHAPE_REPRESENTATION('base_hinge_2',(#853),#1506);
#853=AXIS2_PLACEMENT_3D('',#1190,#942,#943);
#854=AXIS2_PLACEMENT_3D('',#1191,#944,#945);
#855=AXIS2_PLACEMENT_3D('',#1200,#950,#951);
#856=AXIS2_PLACEMENT_3D('',#1201,#952,#953);
#857=AXIS2_PLACEMENT_3D('',#1208,#956,#957);
#858=AXIS2_PLACEMENT_3D('',#1210,#958,#959);
#859=AXIS2_PLACEMENT_3D('',#1212,#960,#961);
#860=AXIS2_PLACEMENT_3D('',#1222,#966,#967);
#861=AXIS2_PLACEMENT_3D('',#1224,#968,#969);
#862=AXIS2_PLACEMENT_3D('',#1228,#971,#972);
#863=AXIS2_PLACEMENT_3D('',#1232,#974,#975);
#864=AXIS2_PLACEMENT_3D('',#1234,#976,#977);
#865=AXIS2_PLACEMENT_3D('',#1238,#979,#980);
#866=AXIS2_PLACEMENT_3D('',#1242,#982,#983);
#867=AXIS2_PLACEMENT_3D('',#1246,#985,#986);
#868=AXIS2_PLACEMENT_3D('',#1250,#988,#989);
#869=AXIS2_PLACEMENT_3D('',#1252,#990,#991);
#870=AXIS2_PLACEMENT_3D('',#1256,#993,#994);
#871=AXIS2_PLACEMENT_3D('',#1260,#996,#997);
#872=AXIS2_PLACEMENT_3D('',#1262,#998,#999);
#873=AXIS2_PLACEMENT_3D('',#1267,#1002,#1003);
#874=AXIS2_PLACEMENT_3D('',#1272,#1006,#1007);
#875=AXIS2_PLACEMENT_3D('',#1273,#1008,#1009);
#876=AXIS2_PLACEMENT_3D('',#1274,#1010,#1011);
#877=AXIS2_PLACEMENT_3D('',#1279,#1014,#1015);
#878=AXIS2_PLACEMENT_3D('',#1283,#1018,#1019);
#879=AXIS2_PLACEMENT_3D('',#1284,#1020,#1021);
#880=AXIS2_PLACEMENT_3D('',#1287,#1023,#1024);
#881=AXIS2_PLACEMENT_3D('',#1288,#1025,#1026);
#882=AXIS2_PLACEMENT_3D('',#1291,#1028,#1029);
#883=AXIS2_PLACEMENT_3D('',#1295,#1032,#1033);
#884=AXIS2_PLACEMENT_3D('',#1296,#1034,#1035);
#885=AXIS2_PLACEMENT_3D('',#1299,#1037,#1038);
#886=AXIS2_PLACEMENT_3D('',#1303,#1041,#1042);
#887=AXIS2_PLACEMENT_3D('',#1304,#1043,#1044);
#888=AXIS2_PLACEMENT_3D('',#1307,#1046,#1047);
#889=AXIS2_PLACEMENT_3D('',#1311,#1050,#1051);
#890=AXIS2_PLACEMENT_3D('',#1312,#1052,#1053);
#891=AXIS2_PLACEMENT_3D('',#1315,#1055,#1056);
#892=AXIS2_PLACEMENT_3D('',#1319,#1059,#1060);
#893=AXIS2_PLACEMENT_3D('',#1320,#1061,#1062);
#894=AXIS2_PLACEMENT_3D('',#1323,#1064,#1065);
#895=AXIS2_PLACEMENT_3D('',#1324,#1066,#1067);
#896=AXIS2_PLACEMENT_3D('',#1327,#1069,#1070);
#897=AXIS2_PLACEMENT_3D('',#1331,#1073,#1074);
#898=AXIS2_PLACEMENT_3D('',#1332,#1075,#1076);
#899=AXIS2_PLACEMENT_3D('',#1335,#1078,#1079);
#900=AXIS2_PLACEMENT_3D('',#1339,#1082,#1083);
#901=AXIS2_PLACEMENT_3D('',#1342,#1085,#1086);
#902=AXIS2_PLACEMENT_3D('',#1345,#1088,#1089);
#903=AXIS2_PLACEMENT_3D('',#1349,#1092,#1093);
#904=AXIS2_PLACEMENT_3D('',#1358,#1098,#1099);
#905=AXIS2_PLACEMENT_3D('',#1359,#1100,#1101);
#906=AXIS2_PLACEMENT_3D('',#1368,#1106,#1107);
#907=AXIS2_PLACEMENT_3D('',#1370,#1108,#1109);
#908=AXIS2_PLACEMENT_3D('',#1372,#1110,#1111);
#909=AXIS2_PLACEMENT_3D('',#1373,#1112,#1113);
#910=AXIS2_PLACEMENT_3D('',#1375,#1114,#1115);
#911=AXIS2_PLACEMENT_3D('',#1376,#1116,#1117);
#912=AXIS2_PLACEMENT_3D('',#1377,#1118,#1119);
#913=AXIS2_PLACEMENT_3D('',#1390,#1123,#1124);
#914=AXIS2_PLACEMENT_3D('',#1415,#1127,#1128);
#915=AXIS2_PLACEMENT_3D('',#1428,#1130,#1131);
#916=AXIS2_PLACEMENT_3D('',#1465,#1132,#1133);
#917=AXIS2_PLACEMENT_3D('',#1466,#1134,#1135);
#918=AXIS2_PLACEMENT_3D('',#1468,#1136,#1137);
#919=AXIS2_PLACEMENT_3D('',#1469,#1138,#1139);
#920=AXIS2_PLACEMENT_3D('',#1470,#1140,#1141);
#921=AXIS2_PLACEMENT_3D('',#1471,#1142,#1143);
#922=AXIS2_PLACEMENT_3D('',#1476,#1145,#1146);
#923=AXIS2_PLACEMENT_3D('',#1477,#1147,#1148);
#924=AXIS2_PLACEMENT_3D('',#1478,#1149,#1150);
#925=AXIS2_PLACEMENT_3D('',#1484,#1154,#1155);
#926=AXIS2_PLACEMENT_3D('',#1485,#1156,#1157);
#927=AXIS2_PLACEMENT_3D('',#1486,#1158,#1159);
#928=AXIS2_PLACEMENT_3D('',#1487,#1160,#1161);
#929=AXIS2_PLACEMENT_3D('',#1488,#1162,#1163);
#930=AXIS2_PLACEMENT_3D('',#1489,#1164,#1165);
#931=AXIS2_PLACEMENT_3D('',#1490,#1166,#1167);
#932=AXIS2_PLACEMENT_3D('',#1491,#1168,#1169);
#933=AXIS2_PLACEMENT_3D('',#1492,#1170,#1171);
#934=AXIS2_PLACEMENT_3D('',#1494,#1173,#1174);
#935=AXIS2_PLACEMENT_3D('',#1495,#1175,#1176);
#936=AXIS2_PLACEMENT_3D('',#1497,#1177,#1178);
#937=AXIS2_PLACEMENT_3D('',#1499,#1180,#1181);
#938=AXIS2_PLACEMENT_3D('',#1500,#1182,#1183);
#939=AXIS2_PLACEMENT_3D('',#1502,#1184,#1185);
#940=AXIS2_PLACEMENT_3D('',#1503,#1186,#1187);
#941=AXIS2_PLACEMENT_3D('',#1504,#1188,#1189);
#942=DIRECTION('',(0.,0.,1.));
#943=DIRECTION('',(1.,0.,0.));
#944=DIRECTION('',(0.,0.,-1.));
#945=DIRECTION('',(1.,0.,0.));
#946=DIRECTION('',(1.,0.,0.));
#947=DIRECTION('',(0.,1.,0.));
#948=DIRECTION('',(1.,0.,0.));
#949=DIRECTION('',(0.,1.,0.));
#950=DIRECTION('',(0.,1.,0.));
#951=DIRECTION('',(1.,0.,0.));
#952=DIRECTION('',(0.,-1.,0.));
#953=DIRECTION('',(0.,0.,-1.));
#954=DIRECTION('',(0.,0.,-1.));
#955=DIRECTION('',(-1.,0.,0.));
#956=DIRECTION('',(0.,-1.,0.));
#957=DIRECTION('',(0.,0.,-1.));
#958=DIRECTION('',(0.,-1.,0.));
#959=DIRECTION('',(0.,0.,-1.));
#960=DIRECTION('',(0.,-1.,0.));
#961=DIRECTION('',(0.,0.,-1.));
#962=DIRECTION('',(1.,0.,0.));
#963=DIRECTION('',(0.,0.,-1.));
#964=DIRECTION('',(1.,0.,0.));
#965=DIRECTION('',(0.,0.,-1.));
#966=DIRECTION('',(0.,-1.,0.));
#967=DIRECTION('',(0.,0.,-1.));
#968=DIRECTION('',(0.,-1.,0.));
#969=DIRECTION('',(0.,0.,-1.));
#970=DIRECTION('',(-0.642787609686539,0.,-0.766044443118979));
#971=DIRECTION('',(0.,1.,0.));
#972=DIRECTION('',(0.,0.,-1.));
#973=DIRECTION('',(0.529919264233205,0.,0.848048096156426));
#974=DIRECTION('',(0.,-1.,0.));
#975=DIRECTION('',(0.,0.,-1.));
#976=DIRECTION('',(0.,-1.,0.));
#977=DIRECTION('',(0.,0.,-1.));
#978=DIRECTION('',(0.207911690817767,0.,0.978147600733804));
#979=DIRECTION('',(0.,-1.,0.));
#980=DIRECTION('',(0.,0.,-1.));
#981=DIRECTION('',(-0.292371704722736,0.,-0.956304755963036));
#982=DIRECTION('',(0.,1.,0.));
#983=DIRECTION('',(0.,0.,-1.));
#984=DIRECTION('',(0.292371704722736,0.,-0.956304755963036));
#985=DIRECTION('',(0.,-1.,0.));
#986=DIRECTION('',(0.,0.,-1.));
#987=DIRECTION('',(0.207911690817766,0.,-0.978147600733804));
#988=DIRECTION('',(0.,-1.,0.));
#989=DIRECTION('',(0.,0.,-1.));
#990=DIRECTION('',(0.,-1.,0.));
#991=DIRECTION('',(0.,0.,-1.));
#992=DIRECTION('',(-0.5299192642332,0.,0.848048096156429));
#993=DIRECTION('',(0.,-1.,0.));
#994=DIRECTION('',(0.,0.,-1.));
#995=DIRECTION('',(-0.762138663343414,0.,0.64741382271088));
#996=DIRECTION('',(0.,-1.,0.));
#997=DIRECTION('',(0.,0.,-1.));
#998=DIRECTION('',(0.,-1.,0.));
#999=DIRECTION('',(0.,0.,-1.));
#1000=DIRECTION('',(0.,0.,-1.));
#1001=DIRECTION('',(1.,0.,0.));
#1002=DIRECTION('',(0.,-1.,0.));
#1003=DIRECTION('',(0.,0.,1.));
#1004=DIRECTION('',(0.,-1.,0.));
#1005=DIRECTION('',(0.,-1.,0.));
#1006=DIRECTION('',(0.,-1.,0.));
#1007=DIRECTION('',(0.,0.,-1.));
#1008=DIRECTION('',(0.,-1.,0.));
#1009=DIRECTION('',(0.,0.,1.));
#1010=DIRECTION('',(0.,-1.,0.));
#1011=DIRECTION('',(0.,0.,-1.));
#1012=DIRECTION('',(0.,-1.,0.));
#1013=DIRECTION('',(0.,-1.,0.));
#1014=DIRECTION('',(-0.848048096156429,0.,-0.5299192642332));
#1015=DIRECTION('',(-0.5299192642332,0.,0.848048096156429));
#1016=DIRECTION('',(-0.5299192642332,0.,0.848048096156429));
#1017=DIRECTION('',(0.,-1.,0.));
#1018=DIRECTION('',(0.,-1.,0.));
#1019=DIRECTION('',(0.,0.,1.));
#1020=DIRECTION('',(0.,-1.,0.));
#1021=DIRECTION('',(0.,0.,-1.));
#1022=DIRECTION('',(0.,-1.,0.));
#1023=DIRECTION('',(0.,-1.,0.));
#1024=DIRECTION('',(0.,0.,1.));
#1025=DIRECTION('',(0.,-1.,0.));
#1026=DIRECTION('',(0.,0.,-1.));
#1027=DIRECTION('',(0.,-1.,0.));
#1028=DIRECTION('',(0.978147600733804,0.,0.207911690817766));
#1029=DIRECTION('',(0.207911690817766,0.,-0.978147600733804));
#1030=DIRECTION('',(0.207911690817766,0.,-0.978147600733804));
#1031=DIRECTION('',(0.,-1.,0.));
#1032=DIRECTION('',(0.,-1.,0.));
#1033=DIRECTION('',(0.,0.,1.));
#1034=DIRECTION('',(0.,-1.,0.));
#1035=DIRECTION('',(0.,0.,-1.));
#1036=DIRECTION('',(0.,-1.,0.));
#1037=DIRECTION('',(0.956304755963036,0.,0.292371704722736));
#1038=DIRECTION('',(0.292371704722736,0.,-0.956304755963036));
#1039=DIRECTION('',(0.292371704722736,0.,-0.956304755963036));
#1040=DIRECTION('',(0.,-1.,0.));
#1041=DIRECTION('',(0.,-1.,0.));
#1042=DIRECTION('',(0.,0.,1.));
#1043=DIRECTION('',(0.,1.,0.));
#1044=DIRECTION('',(0.,0.,-1.));
#1045=DIRECTION('',(0.,-1.,0.));
#1046=DIRECTION('',(0.956304755963036,0.,-0.292371704722736));
#1047=DIRECTION('',(-0.292371704722736,0.,-0.956304755963036));
#1048=DIRECTION('',(-0.292371704722736,0.,-0.956304755963036));
#1049=DIRECTION('',(0.,-1.,0.));
#1050=DIRECTION('',(0.,-1.,0.));
#1051=DIRECTION('',(0.,0.,1.));
#1052=DIRECTION('',(0.,-1.,0.));
#1053=DIRECTION('',(0.,0.,-1.));
#1054=DIRECTION('',(0.,-1.,0.));
#1055=DIRECTION('',(-0.978147600733804,0.,0.207911690817767));
#1056=DIRECTION('',(0.207911690817767,0.,0.978147600733804));
#1057=DIRECTION('',(0.207911690817767,0.,0.978147600733804));
#1058=DIRECTION('',(0.,-1.,0.));
#1059=DIRECTION('',(0.,-1.,0.));
#1060=DIRECTION('',(0.,0.,1.));
#1061=DIRECTION('',(0.,-1.,0.));
#1062=DIRECTION('',(0.,0.,-1.));
#1063=DIRECTION('',(0.,-1.,0.));
#1064=DIRECTION('',(0.,-1.,0.));
#1065=DIRECTION('',(0.,0.,1.));
#1066=DIRECTION('',(0.,-1.,0.));
#1067=DIRECTION('',(0.,0.,-1.));
#1068=DIRECTION('',(0.,-1.,0.));
#1069=DIRECTION('',(-0.848048096156426,0.,0.529919264233204));
#1070=DIRECTION('',(0.529919264233205,0.,0.848048096156427));
#1071=DIRECTION('',(0.529919264233205,0.,0.848048096156426));
#1072=DIRECTION('',(0.,-1.,0.));
#1073=DIRECTION('',(0.,-1.,0.));
#1074=DIRECTION('',(0.,0.,1.));
#1075=DIRECTION('',(0.,1.,0.));
#1076=DIRECTION('',(0.,0.,-1.));
#1077=DIRECTION('',(0.,-1.,0.));
#1078=DIRECTION('',(0.766044443118979,0.,-0.642787609686539));
#1079=DIRECTION('',(-0.642787609686539,0.,-0.766044443118979));
#1080=DIRECTION('',(-0.642787609686539,0.,-0.766044443118979));
#1081=DIRECTION('',(0.,-1.,0.));
#1082=DIRECTION('',(0.,-1.,0.));
#1083=DIRECTION('',(0.,0.,1.));
#1084=DIRECTION('',(0.,-1.,0.));
#1085=DIRECTION('',(0.,-1.,0.));
#1086=DIRECTION('',(0.,0.,-1.));
#1087=DIRECTION('',(0.,-1.,0.));
#1088=DIRECTION('',(-0.64741382271088,0.,-0.762138663343414));
#1089=DIRECTION('',(-0.762138663343414,0.,0.64741382271088));
#1090=DIRECTION('',(-0.762138663343414,0.,0.64741382271088));
#1091=DIRECTION('',(0.,-1.,0.));
#1092=DIRECTION('',(0.,1.,0.));
#1093=DIRECTION('',(1.,0.,0.));
#1094=DIRECTION('',(-1.,0.,0.));
#1095=DIRECTION('',(0.,0.,-1.));
#1096=DIRECTION('',(1.,0.,0.));
#1097=DIRECTION('',(0.,0.,-1.));
#1098=DIRECTION('',(0.,-1.,0.));
#1099=DIRECTION('',(0.,0.,-1.));
#1100=DIRECTION('',(0.,-1.,0.));
#1101=DIRECTION('',(0.,0.,-1.));
#1102=DIRECTION('',(0.,0.,-1.));
#1103=DIRECTION('',(1.,0.,0.));
#1104=DIRECTION('',(0.,0.,-1.));
#1105=DIRECTION('',(1.,0.,0.));
#1106=DIRECTION('',(0.,-1.,0.));
#1107=DIRECTION('',(0.,0.,-1.));
#1108=DIRECTION('',(0.,-1.,0.));
#1109=DIRECTION('',(0.,0.,-1.));
#1110=DIRECTION('',(0.,-1.,0.));
#1111=DIRECTION('',(0.,0.,-1.));
#1112=DIRECTION('',(0.,-1.,0.));
#1113=DIRECTION('',(0.,0.,-1.));
#1114=DIRECTION('',(0.,-1.,0.));
#1115=DIRECTION('',(0.,0.,1.));
#1116=DIRECTION('',(0.,-1.,0.));
#1117=DIRECTION('',(0.,0.,1.));
#1118=DIRECTION('',(0.,1.,0.));
#1119=DIRECTION('',(0.,0.,-1.));
#1120=DIRECTION('',(0.,1.,0.));
#1121=DIRECTION('',(0.,1.,0.));
#1122=DIRECTION('',(0.,1.,0.));
#1123=DIRECTION('',(0.,1.,0.));
#1124=DIRECTION('',(0.,0.,-1.));
#1125=DIRECTION('',(0.,1.,0.));
#1126=DIRECTION('',(0.,1.,0.));
#1127=DIRECTION('',(0.,1.,0.));
#1128=DIRECTION('',(0.,0.,-1.));
#1129=DIRECTION('',(0.,1.,0.));
#1130=DIRECTION('',(0.,1.,0.));
#1131=DIRECTION('',(0.,0.,-1.));
#1132=DIRECTION('',(-1.,0.,0.));
#1133=DIRECTION('',(0.,0.,1.));
#1134=DIRECTION('',(-1.,0.,0.));
#1135=DIRECTION('',(0.,0.,1.));
#1136=DIRECTION('',(-1.,0.,0.));
#1137=DIRECTION('',(0.,0.,1.));
#1138=DIRECTION('',(-1.,0.,0.));
#1139=DIRECTION('',(0.,0.,1.));
#1140=DIRECTION('',(-1.,0.,0.));
#1141=DIRECTION('',(0.,0.,1.));
#1142=DIRECTION('',(-1.,0.,0.));
#1143=DIRECTION('',(0.,0.,1.));
#1144=DIRECTION('',(0.,1.,0.));
#1145=DIRECTION('',(-1.,0.,0.));
#1146=DIRECTION('',(0.,0.,1.));
#1147=DIRECTION('',(-1.,0.,0.));
#1148=DIRECTION('',(0.,0.,1.));
#1149=DIRECTION('',(0.,0.,-1.));
#1150=DIRECTION('',(1.,0.,0.));
#1151=DIRECTION('',(0.,1.,0.));
#1152=DIRECTION('',(1.,0.,0.));
#1153=DIRECTION('',(1.,0.,0.));
#1154=DIRECTION('',(-1.,0.,0.));
#1155=DIRECTION('',(0.,0.,1.));
#1156=DIRECTION('',(-1.,0.,0.));
#1157=DIRECTION('',(0.,0.,1.));
#1158=DIRECTION('',(1.,0.,0.));
#1159=DIRECTION('',(0.,0.,-1.));
#1160=DIRECTION('',(-1.,0.,0.));
#1161=DIRECTION('',(0.,0.,1.));
#1162=DIRECTION('',(-1.,0.,0.));
#1163=DIRECTION('',(0.,0.,1.));
#1164=DIRECTION('',(-1.,0.,0.));
#1165=DIRECTION('',(0.,0.,1.));
#1166=DIRECTION('',(1.,0.,0.));
#1167=DIRECTION('',(0.,0.,-1.));
#1168=DIRECTION('',(-1.,0.,0.));
#1169=DIRECTION('',(0.,0.,1.));
#1170=DIRECTION('',(0.,0.,-1.));
#1171=DIRECTION('',(-1.,0.,0.));
#1172=DIRECTION('',(0.,1.,0.));
#1173=DIRECTION('',(-1.,0.,0.));
#1174=DIRECTION('',(0.,0.,1.));
#1175=DIRECTION('',(-1.,0.,0.));
#1176=DIRECTION('',(0.,0.,1.));
#1177=DIRECTION('',(0.,0.,1.));
#1178=DIRECTION('',(1.,0.,0.));
#1179=DIRECTION('',(0.,1.,0.));
#1180=DIRECTION('',(-1.,0.,0.));
#1181=DIRECTION('',(0.,0.,1.));
#1182=DIRECTION('',(-1.,0.,0.));
#1183=DIRECTION('',(0.,0.,1.));
#1184=DIRECTION('',(-1.,0.,0.));
#1185=DIRECTION('',(0.,0.,1.));
#1186=DIRECTION('',(-1.,0.,0.));
#1187=DIRECTION('',(0.,0.,1.));
#1188=DIRECTION('',(-1.,0.,0.));
#1189=DIRECTION('',(0.,0.,1.));
#1190=CARTESIAN_POINT('',(0.,0.,0.));
#1191=CARTESIAN_POINT('',(0.000781778809535692,0.125,-0.112));
#1192=CARTESIAN_POINT('',(0.0144984721786656,0.035,-0.112));
#1193=CARTESIAN_POINT('',(0.0294984721786656,0.035,-0.112));
#1194=CARTESIAN_POINT('',(0.0184984721786656,0.035,-0.112));
#1195=CARTESIAN_POINT('',(0.0184984721786656,0.045,-0.112));
#1196=CARTESIAN_POINT('',(0.0184984721786656,0.055,-0.112));
#1197=CARTESIAN_POINT('',(0.000781778809535692,0.055,-0.112));
#1198=CARTESIAN_POINT('',(0.0294984721786656,0.055,-0.112));
#1199=CARTESIAN_POINT('',(0.0294984721786656,0.045,-0.112));
#1200=CARTESIAN_POINT('',(0.00168515580815593,0.065,-0.0772891086336667));
#1201=CARTESIAN_POINT('',(0.,0.065,-0.0999980730087348));
#1202=CARTESIAN_POINT('',(0.,0.065,-0.105998073008735));
#1203=CARTESIAN_POINT('',(0.0184984721786656,0.065,-0.0814));
#1204=CARTESIAN_POINT('',(0.0184984721786656,0.065,-0.0888245140965288));
#1205=CARTESIAN_POINT('',(0.0184984721786656,0.065,-0.102));
#1206=CARTESIAN_POINT('',(0.0184984721786656,0.065,-0.0888245140965288));
#1207=CARTESIAN_POINT('',(0.0144984721786656,0.065,-0.0888245140965288));
#1208=CARTESIAN_POINT('',(0.0155113609483293,0.065,-0.0950299508963868));
#1209=CARTESIAN_POINT('',(0.0095234415438121,0.065,-0.0969478170913414));
#1210=CARTESIAN_POINT('',(-1.7726705520138E-17,0.065,-0.0999980730087348));
#1211=CARTESIAN_POINT('',(-0.00913984498810098,0.065,-0.0959405819621045));
#1212=CARTESIAN_POINT('',(-0.01364302603518,0.065,-0.0939414652589584));
#1213=CARTESIAN_POINT('',(-0.0129349145595942,0.065,-0.0890656386343015));
#1214=CARTESIAN_POINT('',(-0.0169349145595942,0.065,-0.0890656386343015));
#1215=CARTESIAN_POINT('',(-0.0169349145595942,0.065,-0.0890656386343015));
#1216=CARTESIAN_POINT('',(-0.0169349145595942,0.065,-0.0814));
#1217=CARTESIAN_POINT('',(-0.0169349145595942,0.065,-0.102));
#1218=CARTESIAN_POINT('',(0.00168515580815593,0.065,-0.102));
#1219=CARTESIAN_POINT('',(-0.0279349145595942,0.065,-0.102));
#1220=CARTESIAN_POINT('',(-0.0279349145595942,0.065,-0.0814));
#1221=CARTESIAN_POINT('',(-0.0279349145595942,0.065,-0.0855548978641676));
#1222=CARTESIAN_POINT('',(-1.35308431126191E-16,0.065,1.31838984174237E-16));
#1223=CARTESIAN_POINT('',(-0.0487791454508294,0.065,-0.0756346148868812));
#1224=CARTESIAN_POINT('',(-0.0433592404007372,0.065,-0.0672307687883388));
#1225=CARTESIAN_POINT('',(-0.051019684831927,0.065,-0.0608028926914734));
#1226=CARTESIAN_POINT('',(-0.052239349039225,0.065,-0.0622564318922794));
#1227=CARTESIAN_POINT('',(-0.0466278132066615,0.065,-0.0555688639038507));
#1228=CARTESIAN_POINT('',(8.18789480661053E-16,0.065,1.11369247157711E-15));
#1229=CARTESIAN_POINT('',(-0.0386098069424148,0.065,-0.0614111912265953));
#1230=CARTESIAN_POINT('',(-0.0420478476709443,0.065,-0.0669132065167105));
#1231=CARTESIAN_POINT('',(-0.0428361459740145,0.065,-0.0681747475102983));
#1232=CARTESIAN_POINT('',(-0.0409704401624703,0.065,-0.0693405698916113));
#1233=CARTESIAN_POINT('',(-0.0420895731194784,0.065,-0.0712346505193931));
#1234=CARTESIAN_POINT('',(9.19403442267708E-17,0.065,-6.24500451351651E-17));
#1235=CARTESIAN_POINT('',(-0.0170069335214082,0.065,-0.0809732783836644));
#1236=CARTESIAN_POINT('',(-0.0164455702016935,0.065,-0.0783322716073782));
#1237=CARTESIAN_POINT('',(-0.0158842068819789,0.065,-0.075691264831092));
#1238=CARTESIAN_POINT('',(-2.28983498828938E-16,0.065,-5.48172618408671E-16));
#1239=CARTESIAN_POINT('',(-0.0224206910850832,0.065,-0.0740188368678353));
#1240=CARTESIAN_POINT('',(-0.0217482337735599,0.065,-0.0718193281096204));
#1241=CARTESIAN_POINT('',(-0.0210757764620364,0.065,-0.0696198193514051));
#1242=CARTESIAN_POINT('',(-1.49186218934005E-16,0.065,-4.23272528138341E-16));
#1243=CARTESIAN_POINT('',(0.0210757764620364,0.065,-0.0696198193514051));
#1244=CARTESIAN_POINT('',(0.0217482337735599,0.065,-0.0718193281096204));
#1245=CARTESIAN_POINT('',(0.0224206910850833,0.065,-0.0740188368678357));
#1246=CARTESIAN_POINT('',(-4.85722573273506E-17,0.065,-7.0082828429463E-16));
#1247=CARTESIAN_POINT('',(0.0158842068819789,0.065,-0.075691264831092));
#1248=CARTESIAN_POINT('',(0.0164455702016935,0.065,-0.0783322716073782));
#1249=CARTESIAN_POINT('',(0.0170069335214082,0.065,-0.0809732783836644));
#1250=CARTESIAN_POINT('',(-1.16226472890446E-16,0.065,6.93889390390723E-17));
#1251=CARTESIAN_POINT('',(0.0420895731194784,0.065,-0.0712346505193931));
#1252=CARTESIAN_POINT('',(0.0409704401624703,0.065,-0.0693405698916113));
#1253=CARTESIAN_POINT('',(0.0428361459740144,0.065,-0.0681747475102983));
#1254=CARTESIAN_POINT('',(0.0391326887855885,0.065,-0.0622479770948348));
#1255=CARTESIAN_POINT('',(0.0386098069424148,0.065,-0.0614111912265953));
#1256=CARTESIAN_POINT('',(-9.19403442267708E-16,0.065,1.11369247157711E-15));
#1257=CARTESIAN_POINT('',(0.0466278132066615,0.065,-0.0555688639038507));
#1258=CARTESIAN_POINT('',(0.0533580036204534,0.065,-0.0612859578041267));
#1259=CARTESIAN_POINT('',(0.0507095383578202,0.065,-0.0590361663915294));
#1260=CARTESIAN_POINT('',(0.0442354001307114,0.065,-0.0666575530249636));
#1261=CARTESIAN_POINT('',(0.0497648251470503,0.065,-0.074989747153084));
#1262=CARTESIAN_POINT('',(-1.35308431126191E-16,0.065,1.31838984174237E-16));
#1263=CARTESIAN_POINT('',(0.0294984721786656,0.065,-0.0850284666398522));
#1264=CARTESIAN_POINT('',(0.0294984721786656,0.065,-0.0814));
#1265=CARTESIAN_POINT('',(0.0294984721786656,0.065,-0.102));
#1266=CARTESIAN_POINT('',(0.00168515580815593,0.065,-0.102));
#1267=CARTESIAN_POINT('',(-1.35308431126191E-16,0.065,1.31838984174237E-16));
#1268=CARTESIAN_POINT('',(0.0294984721786656,0.065,-0.0850284666398522));
#1269=CARTESIAN_POINT('',(0.0294984721786656,0.025,-0.0850284666398522));
#1270=CARTESIAN_POINT('',(0.0497648251470503,0.065,-0.074989747153084));
#1271=CARTESIAN_POINT('',(0.0497648251470503,0.025,-0.074989747153084));
#1272=CARTESIAN_POINT('',(-1.35308431126191E-16,0.025,1.31838984174237E-16));
#1273=CARTESIAN_POINT('',(-9.19403442267708E-16,0.065,1.11369247157711E-15));
#1274=CARTESIAN_POINT('',(-9.19403442267708E-16,0.025,1.11369247157711E-15));
#1275=CARTESIAN_POINT('',(0.0386098069424148,0.025,-0.0614111912265953));
#1276=CARTESIAN_POINT('',(0.0466278132066615,0.025,-0.0555688639038507));
#1277=CARTESIAN_POINT('',(0.0466278132066615,0.065,-0.0555688639038507));
#1278=CARTESIAN_POINT('',(0.0386098069424148,0.065,-0.0614111912265953));
#1279=CARTESIAN_POINT('',(0.0391326887855885,0.065,-0.0622479770948348));
#1280=CARTESIAN_POINT('',(0.0391326887855885,0.025,-0.0622479770948348));
#1281=CARTESIAN_POINT('',(0.0428361459740144,0.025,-0.0681747475102983));
#1282=CARTESIAN_POINT('',(0.0428361459740144,0.065,-0.0681747475102983));
#1283=CARTESIAN_POINT('',(0.0409704401624703,0.065,-0.0693405698916113));
#1284=CARTESIAN_POINT('',(0.0409704401624703,0.025,-0.0693405698916113));
#1285=CARTESIAN_POINT('',(0.0420895731194784,0.025,-0.0712346505193931));
#1286=CARTESIAN_POINT('',(0.0420895731194784,0.065,-0.0712346505193931));
#1287=CARTESIAN_POINT('',(-1.16226472890446E-16,0.065,6.93889390390723E-17));
#1288=CARTESIAN_POINT('',(-1.16226472890446E-16,0.025,6.93889390390723E-17));
#1289=CARTESIAN_POINT('',(0.0170069335214082,0.025,-0.0809732783836644));
#1290=CARTESIAN_POINT('',(0.0170069335214082,0.065,-0.0809732783836644));
#1291=CARTESIAN_POINT('',(0.0164455702016935,0.065,-0.0783322716073782));
#1292=CARTESIAN_POINT('',(0.0164455702016935,0.025,-0.0783322716073782));
#1293=CARTESIAN_POINT('',(0.0158842068819789,0.025,-0.075691264831092));
#1294=CARTESIAN_POINT('',(0.0158842068819789,0.065,-0.075691264831092));
#1295=CARTESIAN_POINT('',(-4.85722573273506E-17,0.065,-7.0082828429463E-16));
#1296=CARTESIAN_POINT('',(-4.85722573273506E-17,0.025,-7.0082828429463E-16));
#1297=CARTESIAN_POINT('',(0.0224206910850833,0.025,-0.0740188368678357));
#1298=CARTESIAN_POINT('',(0.0224206910850833,0.065,-0.0740188368678357));
#1299=CARTESIAN_POINT('',(0.0217482337735599,0.065,-0.0718193281096204));
#1300=CARTESIAN_POINT('',(0.0217482337735599,0.025,-0.0718193281096204));
#1301=CARTESIAN_POINT('',(0.0210757764620364,0.025,-0.0696198193514051));
#1302=CARTESIAN_POINT('',(0.0210757764620364,0.065,-0.0696198193514051));
#1303=CARTESIAN_POINT('',(-1.49186218934005E-16,0.065,-4.23272528138341E-16));
#1304=CARTESIAN_POINT('',(-1.49186218934005E-16,0.025,-4.23272528138341E-16));
#1305=CARTESIAN_POINT('',(-0.0210757764620364,0.025,-0.0696198193514051));
#1306=CARTESIAN_POINT('',(-0.0210757764620364,0.065,-0.0696198193514051));
#1307=CARTESIAN_POINT('',(-0.0217482337735599,0.065,-0.0718193281096204));
#1308=CARTESIAN_POINT('',(-0.0217482337735599,0.025,-0.0718193281096204));
#1309=CARTESIAN_POINT('',(-0.0224206910850832,0.025,-0.0740188368678353));
#1310=CARTESIAN_POINT('',(-0.0224206910850832,0.065,-0.0740188368678353));
#1311=CARTESIAN_POINT('',(-2.28983498828938E-16,0.065,-5.48172618408671E-16));
#1312=CARTESIAN_POINT('',(-2.28983498828938E-16,0.025,-5.48172618408671E-16));
#1313=CARTESIAN_POINT('',(-0.0158842068819789,0.025,-0.075691264831092));
#1314=CARTESIAN_POINT('',(-0.0158842068819789,0.065,-0.075691264831092));
#1315=CARTESIAN_POINT('',(-0.0164455702016935,0.065,-0.0783322716073782));
#1316=CARTESIAN_POINT('',(-0.0164455702016935,0.025,-0.0783322716073782));
#1317=CARTESIAN_POINT('',(-0.0170069335214082,0.025,-0.0809732783836644));
#1318=CARTESIAN_POINT('',(-0.0170069335214082,0.065,-0.0809732783836644));
#1319=CARTESIAN_POINT('',(9.19403442267708E-17,0.065,-6.24500451351651E-17));
#1320=CARTESIAN_POINT('',(9.19403442267708E-17,0.025,-6.24500451351651E-17));
#1321=CARTESIAN_POINT('',(-0.0420895731194784,0.025,-0.0712346505193931));
#1322=CARTESIAN_POINT('',(-0.0420895731194784,0.065,-0.0712346505193931));
#1323=CARTESIAN_POINT('',(-0.0409704401624703,0.065,-0.0693405698916113));
#1324=CARTESIAN_POINT('',(-0.0409704401624703,0.025,-0.0693405698916113));
#1325=CARTESIAN_POINT('',(-0.0428361459740145,0.025,-0.0681747475102983));
#1326=CARTESIAN_POINT('',(-0.0428361459740145,0.065,-0.0681747475102983));
#1327=CARTESIAN_POINT('',(-0.0420478476709443,0.065,-0.0669132065167105));
#1328=CARTESIAN_POINT('',(-0.0420478476709443,0.025,-0.0669132065167105));
#1329=CARTESIAN_POINT('',(-0.0386098069424148,0.025,-0.0614111912265953));
#1330=CARTESIAN_POINT('',(-0.0386098069424148,0.065,-0.0614111912265953));
#1331=CARTESIAN_POINT('',(8.18789480661053E-16,0.065,1.11369247157711E-15));
#1332=CARTESIAN_POINT('',(8.18789480661053E-16,0.025,1.11369247157711E-15));
#1333=CARTESIAN_POINT('',(-0.0466278132066615,0.025,-0.0555688639038507));
#1334=CARTESIAN_POINT('',(-0.0466278132066615,0.065,-0.0555688639038507));
#1335=CARTESIAN_POINT('',(-0.052239349039225,0.065,-0.0622564318922794));
#1336=CARTESIAN_POINT('',(-0.052239349039225,0.025,-0.0622564318922794));
#1337=CARTESIAN_POINT('',(-0.051019684831927,0.025,-0.0608028926914734));
#1338=CARTESIAN_POINT('',(-0.051019684831927,0.065,-0.0608028926914734));
#1339=CARTESIAN_POINT('',(-1.35308431126191E-16,0.065,1.31838984174237E-16));
#1340=CARTESIAN_POINT('',(-0.0279349145595942,0.065,-0.0855548978641676));
#1341=CARTESIAN_POINT('',(-0.0279349145595942,0.025,-0.0855548978641676));
#1342=CARTESIAN_POINT('',(-1.35308431126191E-16,0.025,1.31838984174237E-16));
#1343=CARTESIAN_POINT('',(-0.0487791454508294,0.025,-0.0756346148868812));
#1344=CARTESIAN_POINT('',(-0.0487791454508293,0.065,-0.0756346148868812));
#1345=CARTESIAN_POINT('',(0.0533580036204534,0.065,-0.0612859578041267));
#1346=CARTESIAN_POINT('',(0.0533580036204534,0.025,-0.0612859578041267));
#1347=CARTESIAN_POINT('',(0.0507095383578202,0.025,-0.0590361663915294));
#1348=CARTESIAN_POINT('',(0.0507095383578202,0.065,-0.0590361663915294));
#1349=CARTESIAN_POINT('',(0.00168515580815593,0.025,-0.0772891086336667));
#1350=CARTESIAN_POINT('',(0.0184984721786656,0.025,-0.0888245140965288));
#1351=CARTESIAN_POINT('',(0.0184984721786656,0.025,-0.0888245140965288));
#1352=CARTESIAN_POINT('',(0.0144984721786656,0.025,-0.0888245140965288));
#1353=CARTESIAN_POINT('',(0.0184984721786656,0.025,-0.0814));
#1354=CARTESIAN_POINT('',(0.0184984721786656,0.025,-0.102));
#1355=CARTESIAN_POINT('',(0.0294984721786656,0.025,-0.102));
#1356=CARTESIAN_POINT('',(0.0294984721786656,0.025,-0.102));
#1357=CARTESIAN_POINT('',(0.0294984721786656,0.025,-0.0814));
#1358=CARTESIAN_POINT('',(0.0442354001307114,0.025,-0.0666575530249636));
#1359=CARTESIAN_POINT('',(-0.0433592404007372,0.025,-0.0672307687883388));
#1360=CARTESIAN_POINT('',(-0.0279349145595942,0.025,-0.0814));
#1361=CARTESIAN_POINT('',(-0.0279349145595942,0.025,-0.102));
#1362=CARTESIAN_POINT('',(-0.0129349145595942,0.025,-0.102));
#1363=CARTESIAN_POINT('',(-0.0169349145595942,0.025,-0.102));
#1364=CARTESIAN_POINT('',(-0.0169349145595942,0.025,-0.0814));
#1365=CARTESIAN_POINT('',(-0.0169349145595942,0.025,-0.0890656386343015));
#1366=CARTESIAN_POINT('',(-0.0169349145595942,0.025,-0.0890656386343015));
#1367=CARTESIAN_POINT('',(-0.0129349145595942,0.025,-0.0890656386343015));
#1368=CARTESIAN_POINT('',(-0.01364302603518,0.025,-0.0939414652589584));
#1369=CARTESIAN_POINT('',(-0.00913984498810098,0.025,-0.0959405819621045));
#1370=CARTESIAN_POINT('',(-1.7726705520138E-17,0.025,-0.0999980730087348));
#1371=CARTESIAN_POINT('',(0.0095234415438121,0.025,-0.0969478170913414));
#1372=CARTESIAN_POINT('',(0.0155113609483293,0.025,-0.0950299508963868));
#1373=CARTESIAN_POINT('',(0.,0.025,-0.0999980730087348));
#1374=CARTESIAN_POINT('',(0.,0.025,-0.105998073008735));
#1375=CARTESIAN_POINT('',(-0.0433592404007372,0.065,-0.0672307687883388));
#1376=CARTESIAN_POINT('',(0.0442354001307114,0.065,-0.0666575530249636));
#1377=CARTESIAN_POINT('',(-0.01364302603518,0.024998,-0.0939414652589584));
#1378=CARTESIAN_POINT('',(-0.00913984498810098,0.024998,-0.0959405819621045));
#1379=CARTESIAN_POINT('',(-0.00913984498810098,0.0488571535386839,-0.0959405819621045));
#1380=CARTESIAN_POINT('',(-0.00913984498810097,0.0488571535386839,-0.0959405819621045));
#1381=CARTESIAN_POINT('',(-0.0087908002237619,0.048641198757231,-0.095154328830969));
#1382=CARTESIAN_POINT('',(-0.00863564402703622,0.047630443394335,-0.0935903733212726));
#1383=CARTESIAN_POINT('',(-0.00889241629013518,0.0449969471001792,-0.0927040670499284));
#1384=CARTESIAN_POINT('',(-0.00863569593091717,0.0423676871983136,-0.0935933626097382));
#1385=CARTESIAN_POINT('',(-0.00879054029173514,0.0413589620632991,-0.0951537433118872));
#1386=CARTESIAN_POINT('',(-0.00913984498810098,0.0411428464613161,-0.0959405819621045));
#1387=CARTESIAN_POINT('',(-0.00913984498810099,0.0411428464613161,-0.0959405819621045));
#1388=CARTESIAN_POINT('',(-0.00913984498810098,0.024998,-0.0959405819621045));
#1389=CARTESIAN_POINT('',(-0.0129349145595942,0.024998,-0.0890656386343015));
#1390=CARTESIAN_POINT('',(-1.7726705520138E-17,0.024998,-0.0999980730087348));
#1391=CARTESIAN_POINT('',(-0.00913984498810099,0.0488571535386839,-0.0959405819621045));
#1392=CARTESIAN_POINT('',(-0.0093869628699876,0.0490100459285095,-0.0964972360885769));
#1393=CARTESIAN_POINT('',(-0.00979413467277311,0.0490800143917482,-0.0977020453975127));
#1394=CARTESIAN_POINT('',(-0.0100258804592375,0.0483407898820122,-0.0994615756526461));
#1395=CARTESIAN_POINT('',(-0.0099859647408517,0.0468660445555694,-0.100704865028639));
#1396=CARTESIAN_POINT('',(-0.00993156869834907,0.045003547167888,-0.101147356557261));
#1397=CARTESIAN_POINT('',(-0.00998584404112494,0.043135194963928,-0.100705703783377));
#1398=CARTESIAN_POINT('',(-0.0100258726292369,0.0416640912157969,-0.0994667535342772));
#1399=CARTESIAN_POINT('',(-0.00979604018967332,0.0409200838353626,-0.0977087144235328));
#1400=CARTESIAN_POINT('',(-0.00938708206592142,0.0409898803246979,-0.0964975045875941));
#1401=CARTESIAN_POINT('',(-0.00913984498810099,0.0411428464613161,-0.0959405819621045));
#1402=CARTESIAN_POINT('',(0.0095234415438121,0.024998,-0.0969478170913414));
#1403=CARTESIAN_POINT('',(0.0095234415438121,0.0489996596035218,-0.0969478170913414));
#1404=CARTESIAN_POINT('',(0.00952344154381208,0.0410003403964782,-0.0969478170913414));
#1405=CARTESIAN_POINT('',(0.00968715171363492,0.0409936717368361,-0.0974589493617667));
#1406=CARTESIAN_POINT('',(0.00992639639352655,0.0411783073138682,-0.0984979078905292));
#1407=CARTESIAN_POINT('',(0.0100504165582875,0.0423507328743395,-0.100328150984547));
#1408=CARTESIAN_POINT('',(0.00988263684896858,0.0449964638396615,-0.101447832058258));
#1409=CARTESIAN_POINT('',(0.010050075786617,0.047648453053997,-0.100328349578811));
#1410=CARTESIAN_POINT('',(0.00992710199380036,0.0488201760379245,-0.0985020562347478));
#1411=CARTESIAN_POINT('',(0.00968720432345608,0.0490063304062011,-0.0974591136189864));
#1412=CARTESIAN_POINT('',(0.00952344154381208,0.0489996596035218,-0.0969478170913414));
#1413=CARTESIAN_POINT('',(0.0095234415438121,0.0410003403964782,-0.0969478170913414));
#1414=CARTESIAN_POINT('',(0.0095234415438121,0.024998,-0.0969478170913414));
#1415=CARTESIAN_POINT('',(0.0155113609483293,0.024998,-0.0950299508963868));
#1416=CARTESIAN_POINT('',(0.0095234415438121,0.0410003403964782,-0.0969478170913414));
#1417=CARTESIAN_POINT('',(0.00936232071189119,0.0410069035806133,-0.0964447691944291));
#1418=CARTESIAN_POINT('',(0.00917769875669137,0.0412151121378483,-0.0954126300075248));
#1419=CARTESIAN_POINT('',(0.00926129113066662,0.0421142558775217,-0.0940829891992657));
#1420=CARTESIAN_POINT('',(0.00948378040711885,0.0434341086174886,-0.093208389490951));
#1421=CARTESIAN_POINT('',(0.00959896922029257,0.0450006915281595,-0.0928955555410044));
#1422=CARTESIAN_POINT('',(0.00948337127579349,0.046568906024673,-0.0932093890412214));
#1423=CARTESIAN_POINT('',(0.00926121232812905,0.0478868484603195,-0.0940849942381106));
#1424=CARTESIAN_POINT('',(0.00917758838774068,0.0487834780282387,-0.0954095804260248));
#1425=CARTESIAN_POINT('',(0.00936222561046373,0.0489930925454732,-0.0964444722708562));
#1426=CARTESIAN_POINT('',(0.0095234415438121,0.0489996596035218,-0.0969478170913414));
#1427=CARTESIAN_POINT('',(0.0144984721786656,0.024998,-0.0888245140965288));
#1428=CARTESIAN_POINT('',(0.,0.024998,-0.0999980730087348));
#1429=CARTESIAN_POINT('',(-0.00160111652143311,0.0421789100445313,-0.0941450679482036));
#1430=CARTESIAN_POINT('',(3.35368347608589E-7,0.0424451876682368,-0.0939245402742526));
#1431=CARTESIAN_POINT('',(0.00159977504804268,0.0421789510643332,-0.0941452090071946));
#1432=CARTESIAN_POINT('',(0.00300846509185067,0.041660989188339,-0.0947340847095404));
#1433=CARTESIAN_POINT('',(0.00423935959692682,0.0411737496568047,-0.0956569934186198));
#1434=CARTESIAN_POINT('',(0.00523692577147948,0.0409188379339165,-0.096920010851634));
#1435=CARTESIAN_POINT('',(0.00586187958097188,0.0411520143557211,-0.0984315443590396));
#1436=CARTESIAN_POINT('',(0.00603732012351284,0.0420213893995311,-0.0998344061853123));
#1437=CARTESIAN_POINT('',(0.00595984819482652,0.0433757110419942,-0.100774774559469));
#1438=CARTESIAN_POINT('',(0.00589423710089559,0.0449832440170436,-0.101109454048673));
#1439=CARTESIAN_POINT('',(0.00595775876377042,0.0465947118275181,-0.100787214833277));
#1440=CARTESIAN_POINT('',(0.00603702398358725,0.0479528359847602,-0.0998602790050431));
#1441=CARTESIAN_POINT('',(0.00587092575777602,0.048835024417975,-0.0984673318788435));
#1442=CARTESIAN_POINT('',(0.00525473330350596,0.0490828694601076,-0.0969493009499761));
#1443=CARTESIAN_POINT('',(0.00425869350129021,0.0488334212406726,-0.0956748669747498));
#1444=CARTESIAN_POINT('',(0.00302432192461806,0.0483454468722112,-0.094742598090744));
#1445=CARTESIAN_POINT('',(0.00161262888473737,0.0478244092033359,-0.094148162259627));
#1446=CARTESIAN_POINT('',(7.14487686138205E-6,0.0475545642746961,-0.0939243554849248));
#1447=CARTESIAN_POINT('',(-0.00159264413934863,0.047818759113281,-0.0941428866098566));
#1448=CARTESIAN_POINT('',(-0.00300891638452834,0.0483390404135077,-0.0947339531341074));
#1449=CARTESIAN_POINT('',(-0.00423996000089967,0.0488266300903939,-0.0956571399949708));
#1450=CARTESIAN_POINT('',(-0.00524256129069189,0.0490824390817317,-0.0969278810265237));
#1451=CARTESIAN_POINT('',(-0.00586514388647308,0.0488428901578479,-0.0984449924832778));
#1452=CARTESIAN_POINT('',(-0.00603701300620445,0.0479721413525571,-0.0998401427758686));
#1453=CARTESIAN_POINT('',(-0.00595938889603976,0.0466172954592131,-0.100778188636226));
#1454=CARTESIAN_POINT('',(-0.00589414429180439,0.0450053485126494,-0.101109749704314));
#1455=CARTESIAN_POINT('',(-0.00595856041885812,0.0433951741759561,-0.100782788655897));
#1456=CARTESIAN_POINT('',(-0.0060367172470761,0.0420413495116529,-0.0998533091773965));
#1457=CARTESIAN_POINT('',(-0.00587004683207928,0.041163753091535,-0.0984638385039205));
#1458=CARTESIAN_POINT('',(-0.00525085964447671,0.0409167238654572,-0.0969415431663631));
#1459=CARTESIAN_POINT('',(-0.00425042377422733,0.0411695727231345,-0.0956669295129221));
#1460=CARTESIAN_POINT('',(-0.00301677153179373,0.0416577169346934,-0.0947381715947108));
#1461=CARTESIAN_POINT('',(-0.00160111652143311,0.0421789100445313,-0.0941450679482036));
#1462=CARTESIAN_POINT('',(3.35368347608589E-7,0.0424451876682368,-0.0939245402742526));
#1463=CARTESIAN_POINT('',(0.00159977504804268,0.0421789510643332,-0.0941452090071946));
#1464=CARTESIAN_POINT('',(-1.25536565578677E-18,0.0423564352969686,-0.0939980730087348));
#1465=CARTESIAN_POINT('',(0.0294984721786656,0.045,-0.0814));
#1466=CARTESIAN_POINT('',(0.0294984721786656,0.045,-0.097));
#1467=CARTESIAN_POINT('',(0.0294984721786656,0.045,-0.093));
#1468=CARTESIAN_POINT('',(0.0294984721786656,0.035,-0.102));
#1469=CARTESIAN_POINT('',(0.0294984721786656,0.055,-0.102));
#1470=CARTESIAN_POINT('',(-0.0279349145595942,0.045,-0.0814));
#1471=CARTESIAN_POINT('',(-0.0279349145595942,0.045,-0.097));
#1472=CARTESIAN_POINT('',(-0.0279349145595942,0.045,-0.093));
#1473=CARTESIAN_POINT('',(-0.0279349145595942,0.045,-0.112));
#1474=CARTESIAN_POINT('',(-0.0279349145595942,0.035,-0.112));
#1475=CARTESIAN_POINT('',(-0.0279349145595942,0.055,-0.112));
#1476=CARTESIAN_POINT('',(-0.0279349145595942,0.035,-0.102));
#1477=CARTESIAN_POINT('',(-0.0279349145595942,0.055,-0.102));
#1478=CARTESIAN_POINT('',(0.000781778809535692,0.125,-0.112));
#1479=CARTESIAN_POINT('',(-0.0169349145595942,0.045,-0.112));
#1480=CARTESIAN_POINT('',(-0.0169349145595942,0.035,-0.112));
#1481=CARTESIAN_POINT('',(-0.0169349145595942,0.055,-0.112));
#1482=CARTESIAN_POINT('',(-0.0279349145595942,0.035,-0.112));
#1483=CARTESIAN_POINT('',(0.000781778809535692,0.055,-0.112));
#1484=CARTESIAN_POINT('',(0.00168515580815593,0.035,-0.102));
#1485=CARTESIAN_POINT('',(0.0184984721786656,0.035,-0.102));
#1486=CARTESIAN_POINT('',(0.000781778809535692,0.055,-0.102));
#1487=CARTESIAN_POINT('',(0.0184984721786656,0.055,-0.102));
#1488=CARTESIAN_POINT('',(0.00168515580815593,0.035,-0.102));
#1489=CARTESIAN_POINT('',(-0.0169349145595942,0.035,-0.102));
#1490=CARTESIAN_POINT('',(0.000781778809535692,0.055,-0.102));
#1491=CARTESIAN_POINT('',(-0.0169349145595942,0.055,-0.102));
#1492=CARTESIAN_POINT('',(-0.0169349145595942,0.024998,-0.0890656386343015));
#1493=CARTESIAN_POINT('',(-0.0169349145595942,0.024998,-0.0890656386343015));
#1494=CARTESIAN_POINT('',(-0.0169349145595942,0.045,-0.0814));
#1495=CARTESIAN_POINT('',(-0.0169349145595942,0.045,-0.097));
#1496=CARTESIAN_POINT('',(-0.0169349145595942,0.045,-0.093));
#1497=CARTESIAN_POINT('',(0.0184984721786656,0.024998,-0.0888245140965288));
#1498=CARTESIAN_POINT('',(0.0184984721786656,0.024998,-0.0888245140965288));
#1499=CARTESIAN_POINT('',(0.0184984721786656,0.045,-0.0814));
#1500=CARTESIAN_POINT('',(0.0184984721786656,0.045,-0.097));
#1501=CARTESIAN_POINT('',(0.0184984721786656,0.045,-0.093));
#1502=CARTESIAN_POINT('',(0.0455650854404058,0.045,-0.097));
#1503=CARTESIAN_POINT('',(0.0455650854404058,0.045,-0.097));
#1504=CARTESIAN_POINT('',(0.0455650854404058,0.045,-0.097));
#1505=MECHANICAL_DESIGN_GEOMETRIC_PRESENTATION_REPRESENTATION('',(#842),
#1506);
#1506=(
GEOMETRIC_REPRESENTATION_CONTEXT(3)
GLOBAL_UNCERTAINTY_ASSIGNED_CONTEXT((#1507))
GLOBAL_UNIT_ASSIGNED_CONTEXT((#1510,#1509,#1508))
REPRESENTATION_CONTEXT('base_hinge_2','TOP_LEVEL_ASSEMBLY_PART')
);
#1507=UNCERTAINTY_MEASURE_WITH_UNIT(LENGTH_MEASURE(2.E-5),#1510,
'DISTANCE_ACCURACY_VALUE','Maximum Tolerance applied to model');
#1508=(
NAMED_UNIT(*)
SI_UNIT($,.STERADIAN.)
SOLID_ANGLE_UNIT()
);
#1509=(
NAMED_UNIT(*)
PLANE_ANGLE_UNIT()
SI_UNIT($,.RADIAN.)
);
#1510=(
LENGTH_UNIT()
NAMED_UNIT(*)
SI_UNIT($,.METRE.)
);
#1511=PRODUCT_DEFINITION_SHAPE('','',#1512);
#1512=PRODUCT_DEFINITION('','',#1514,#1513);
#1513=PRODUCT_DEFINITION_CONTEXT('',#1520,'design');
#1514=PRODUCT_DEFINITION_FORMATION_WITH_SPECIFIED_SOURCE('','',#1516,
 .NOT_KNOWN.);
#1515=PRODUCT_RELATED_PRODUCT_CATEGORY('','',(#1516));
#1516=PRODUCT('base_hinge_2','base_hinge_2','base_hinge_2',(#1518));
#1517=PRODUCT_CATEGORY('','');
#1518=PRODUCT_CONTEXT('',#1520,'mechanical');
#1519=APPLICATION_PROTOCOL_DEFINITION('international standard',
'ap242_managed_model_based_3d_engineering',2020,#1520);
#1520=APPLICATION_CONTEXT('managed model based 3d engineering');
ENDSEC;
END-ISO-10303-21;
