ISO-10303-21;
HEADER;
/* Generated by software containing ST-Developer
 * from STEP Tools, Inc. (www.steptools.com) 
 */
/* OPTION: using custom renumber hook */

FILE_DESCRIPTION(
/* description */ ('STEP AP242 Edition 2',
'CAx-IF Rec.Pracs.---Representation and Presentation of Product Manufa
cturing Information (PMI)---4.0---2014-10-13',
'CAx-IF Rec.Pracs.---3D Tessellated Geometry---0.4---2014-09-14','2;1',
'CAx-IF Rec.Pracs.---User Defined Attributes---1.5---2016-08-15'),
/* implementation_level */ '2;1');

FILE_NAME(
/* name */ 'landedConcept v4 parts - clip4',
/* time_stamp */ '2026-01-03T01:02:39Z',
/* author */ (''),
/* organization */ (''),
/* preprocessor_version */ 'ST-DEVELOPER v20',
/* originating_system */ 'ONSHAPE BY PTC INC, 1.208',
/* authorisation */ '  ');

FILE_SCHEMA (('AP242_MANAGED_MODEL_BASED_3D_ENGINEERING_MIM_LF { 1 0 10303 442 3 1 4 }'));
ENDSEC;

DATA;
#10=SHAPE_REPRESENTATION_RELATIONSHIP('','',#852,#11);
#11=ADVANCED_BREP_SHAPE_REPRESENTATION('',(#850),#1478);
#12=CIRCLE('',#856,0.0767400000000045);
#13=CIRCLE('',#857,0.0767400000000045);
#14=CIRCLE('',#859,0.000999999999999911);
#15=CIRCLE('',#860,0.000999999999999911);
#16=CIRCLE('',#863,0.000999999999999895);
#17=CIRCLE('',#864,0.000999999999999895);
#18=CIRCLE('',#866,0.00761081664918907);
#19=CIRCLE('',#867,0.00761081664918907);
#20=CIRCLE('',#869,0.012066328114259);
#21=CIRCLE('',#870,0.012066328114259);
#22=CIRCLE('',#872,0.012);
#23=CIRCLE('',#873,0.012);
#24=CIRCLE('',#876,0.102739999999992);
#25=CIRCLE('',#877,0.102739999999992);
#26=CIRCLE('',#880,0.102739999999998);
#27=CIRCLE('',#881,0.102739999999998);
#28=CIRCLE('',#884,0.0119999999999997);
#29=CIRCLE('',#885,0.0119999999999997);
#30=CIRCLE('',#887,0.0151220731278394);
#31=CIRCLE('',#888,0.0151220731278394);
#32=CIRCLE('',#890,0.005);
#33=CIRCLE('',#891,0.005);
#34=CIRCLE('',#894,0.005);
#35=CIRCLE('',#895,0.005);
#36=CIRCLE('',#897,0.0727400000000009);
#37=CIRCLE('',#898,0.0727400000000009);
#38=CIRCLE('',#901,0.077340000000005);
#39=CIRCLE('',#902,0.077340000000005);
#40=CIRCLE('',#905,0.0827399999999939);
#41=CIRCLE('',#906,0.0827399999999939);
#42=CIRCLE('',#908,0.0022);
#43=CIRCLE('',#909,0.0022);
#44=CIRCLE('',#912,0.0773399999999958);
#45=CIRCLE('',#913,0.0773399999999958);
#46=CIRCLE('',#915,0.0008);
#47=CIRCLE('',#916,0.0008);
#48=CIRCLE('',#919,0.07274);
#49=CIRCLE('',#920,0.07274);
#50=CIRCLE('',#922,0.00388562516247647);
#51=CIRCLE('',#923,0.00388562516247647);
#52=CIRCLE('',#926,0.00620000000000011);
#53=CIRCLE('',#927,0.00620000000000011);
#54=CIRCLE('',#929,0.0859999999999939);
#55=CIRCLE('',#930,0.0859999999999939);
#56=CIRCLE('',#932,0.002);
#57=CIRCLE('',#933,0.002);
#58=CIRCLE('',#935,0.0019);
#59=CIRCLE('',#936,0.0019);
#60=CIRCLE('',#937,0.0877999999999983);
#61=CIRCLE('',#938,0.0849400000000018);
#62=CIRCLE('',#939,0.002);
#63=CIRCLE('',#940,0.002);
#64=CIRCLE('',#942,0.0877999999999983);
#65=CIRCLE('',#945,0.0849400000000018);
#66=CIRCLE('',#949,0.0019);
#67=CIRCLE('',#952,0.0019);
#68=CYLINDRICAL_SURFACE('',#855,0.0767400000000045);
#69=CYLINDRICAL_SURFACE('',#858,0.000999999999999911);
#70=CYLINDRICAL_SURFACE('',#862,0.000999999999999895);
#71=CYLINDRICAL_SURFACE('',#865,0.00761081664918907);
#72=CYLINDRICAL_SURFACE('',#868,0.012066328114259);
#73=CYLINDRICAL_SURFACE('',#871,0.012);
#74=CYLINDRICAL_SURFACE('',#875,0.102739999999992);
#75=CYLINDRICAL_SURFACE('',#879,0.102739999999998);
#76=CYLINDRICAL_SURFACE('',#883,0.0119999999999997);
#77=CYLINDRICAL_SURFACE('',#886,0.0151220731278394);
#78=CYLINDRICAL_SURFACE('',#889,0.005);
#79=CYLINDRICAL_SURFACE('',#893,0.005);
#80=CYLINDRICAL_SURFACE('',#896,0.0727400000000009);
#81=CYLINDRICAL_SURFACE('',#900,0.077340000000005);
#82=CYLINDRICAL_SURFACE('',#904,0.0827399999999939);
#83=CYLINDRICAL_SURFACE('',#907,0.0022);
#84=CYLINDRICAL_SURFACE('',#911,0.0773399999999958);
#85=CYLINDRICAL_SURFACE('',#914,0.0008);
#86=CYLINDRICAL_SURFACE('',#918,0.07274);
#87=CYLINDRICAL_SURFACE('',#921,0.00388562516247647);
#88=CYLINDRICAL_SURFACE('',#925,0.00620000000000011);
#89=CYLINDRICAL_SURFACE('',#928,0.0859999999999939);
#90=CYLINDRICAL_SURFACE('',#941,0.0877999999999983);
#91=CYLINDRICAL_SURFACE('',#944,0.0849400000000018);
#92=CYLINDRICAL_SURFACE('',#948,0.0019);
#93=CYLINDRICAL_SURFACE('',#951,0.0019);
#94=CYLINDRICAL_SURFACE('',#954,0.002);
#95=CYLINDRICAL_SURFACE('',#955,0.002);
#96=ORIENTED_EDGE('',*,*,#338,.F.);
#97=ORIENTED_EDGE('',*,*,#339,.F.);
#98=ORIENTED_EDGE('',*,*,#340,.T.);
#99=ORIENTED_EDGE('',*,*,#341,.T.);
#100=ORIENTED_EDGE('',*,*,#342,.F.);
#101=ORIENTED_EDGE('',*,*,#343,.F.);
#102=ORIENTED_EDGE('',*,*,#344,.T.);
#103=ORIENTED_EDGE('',*,*,#339,.T.);
#104=ORIENTED_EDGE('',*,*,#345,.F.);
#105=ORIENTED_EDGE('',*,*,#346,.F.);
#106=ORIENTED_EDGE('',*,*,#347,.T.);
#107=ORIENTED_EDGE('',*,*,#343,.T.);
#108=ORIENTED_EDGE('',*,*,#348,.F.);
#109=ORIENTED_EDGE('',*,*,#349,.F.);
#110=ORIENTED_EDGE('',*,*,#350,.T.);
#111=ORIENTED_EDGE('',*,*,#346,.T.);
#112=ORIENTED_EDGE('',*,*,#351,.F.);
#113=ORIENTED_EDGE('',*,*,#352,.F.);
#114=ORIENTED_EDGE('',*,*,#353,.T.);
#115=ORIENTED_EDGE('',*,*,#349,.T.);
#116=ORIENTED_EDGE('',*,*,#354,.F.);
#117=ORIENTED_EDGE('',*,*,#355,.F.);
#118=ORIENTED_EDGE('',*,*,#356,.T.);
#119=ORIENTED_EDGE('',*,*,#357,.T.);
#120=ORIENTED_EDGE('',*,*,#358,.F.);
#121=ORIENTED_EDGE('',*,*,#359,.F.);
#122=ORIENTED_EDGE('',*,*,#360,.T.);
#123=ORIENTED_EDGE('',*,*,#355,.T.);
#124=ORIENTED_EDGE('',*,*,#361,.F.);
#125=ORIENTED_EDGE('',*,*,#362,.F.);
#126=ORIENTED_EDGE('',*,*,#363,.T.);
#127=ORIENTED_EDGE('',*,*,#359,.T.);
#128=ORIENTED_EDGE('',*,*,#364,.T.);
#129=ORIENTED_EDGE('',*,*,#365,.T.);
#130=ORIENTED_EDGE('',*,*,#366,.F.);
#131=ORIENTED_EDGE('',*,*,#362,.T.);
#132=ORIENTED_EDGE('',*,*,#367,.F.);
#133=ORIENTED_EDGE('',*,*,#368,.T.);
#134=ORIENTED_EDGE('',*,*,#369,.T.);
#135=ORIENTED_EDGE('',*,*,#370,.F.);
#136=ORIENTED_EDGE('',*,*,#371,.F.);
#137=ORIENTED_EDGE('',*,*,#372,.F.);
#138=ORIENTED_EDGE('',*,*,#373,.T.);
#139=ORIENTED_EDGE('',*,*,#370,.T.);
#140=ORIENTED_EDGE('',*,*,#374,.T.);
#141=ORIENTED_EDGE('',*,*,#375,.T.);
#142=ORIENTED_EDGE('',*,*,#376,.F.);
#143=ORIENTED_EDGE('',*,*,#372,.T.);
#144=ORIENTED_EDGE('',*,*,#377,.F.);
#145=ORIENTED_EDGE('',*,*,#378,.T.);
#146=ORIENTED_EDGE('',*,*,#379,.T.);
#147=ORIENTED_EDGE('',*,*,#380,.F.);
#148=ORIENTED_EDGE('',*,*,#381,.F.);
#149=ORIENTED_EDGE('',*,*,#382,.F.);
#150=ORIENTED_EDGE('',*,*,#383,.T.);
#151=ORIENTED_EDGE('',*,*,#380,.T.);
#152=ORIENTED_EDGE('',*,*,#384,.F.);
#153=ORIENTED_EDGE('',*,*,#385,.F.);
#154=ORIENTED_EDGE('',*,*,#386,.T.);
#155=ORIENTED_EDGE('',*,*,#382,.T.);
#156=ORIENTED_EDGE('',*,*,#387,.T.);
#157=ORIENTED_EDGE('',*,*,#388,.F.);
#158=ORIENTED_EDGE('',*,*,#389,.F.);
#159=ORIENTED_EDGE('',*,*,#385,.T.);
#160=ORIENTED_EDGE('',*,*,#390,.F.);
#161=ORIENTED_EDGE('',*,*,#391,.F.);
#162=ORIENTED_EDGE('',*,*,#392,.T.);
#163=ORIENTED_EDGE('',*,*,#388,.T.);
#164=ORIENTED_EDGE('',*,*,#393,.T.);
#165=ORIENTED_EDGE('',*,*,#394,.F.);
#166=ORIENTED_EDGE('',*,*,#395,.F.);
#167=ORIENTED_EDGE('',*,*,#391,.T.);
#168=ORIENTED_EDGE('',*,*,#396,.F.);
#169=ORIENTED_EDGE('',*,*,#397,.F.);
#170=ORIENTED_EDGE('',*,*,#398,.T.);
#171=ORIENTED_EDGE('',*,*,#394,.T.);
#172=ORIENTED_EDGE('',*,*,#399,.F.);
#173=ORIENTED_EDGE('',*,*,#400,.F.);
#174=ORIENTED_EDGE('',*,*,#401,.T.);
#175=ORIENTED_EDGE('',*,*,#397,.T.);
#176=ORIENTED_EDGE('',*,*,#402,.T.);
#177=ORIENTED_EDGE('',*,*,#403,.F.);
#178=ORIENTED_EDGE('',*,*,#404,.F.);
#179=ORIENTED_EDGE('',*,*,#400,.T.);
#180=ORIENTED_EDGE('',*,*,#405,.F.);
#181=ORIENTED_EDGE('',*,*,#406,.F.);
#182=ORIENTED_EDGE('',*,*,#407,.T.);
#183=ORIENTED_EDGE('',*,*,#403,.T.);
#184=ORIENTED_EDGE('',*,*,#408,.F.);
#185=ORIENTED_EDGE('',*,*,#409,.F.);
#186=ORIENTED_EDGE('',*,*,#410,.T.);
#187=ORIENTED_EDGE('',*,*,#406,.T.);
#188=ORIENTED_EDGE('',*,*,#411,.F.);
#189=ORIENTED_EDGE('',*,*,#412,.F.);
#190=ORIENTED_EDGE('',*,*,#413,.T.);
#191=ORIENTED_EDGE('',*,*,#409,.T.);
#192=ORIENTED_EDGE('',*,*,#414,.F.);
#193=ORIENTED_EDGE('',*,*,#415,.F.);
#194=ORIENTED_EDGE('',*,*,#416,.T.);
#195=ORIENTED_EDGE('',*,*,#412,.T.);
#196=ORIENTED_EDGE('',*,*,#417,.T.);
#197=ORIENTED_EDGE('',*,*,#418,.F.);
#198=ORIENTED_EDGE('',*,*,#419,.F.);
#199=ORIENTED_EDGE('',*,*,#415,.T.);
#200=ORIENTED_EDGE('',*,*,#420,.T.);
#201=ORIENTED_EDGE('',*,*,#421,.F.);
#202=ORIENTED_EDGE('',*,*,#422,.F.);
#203=ORIENTED_EDGE('',*,*,#418,.T.);
#204=ORIENTED_EDGE('',*,*,#423,.F.);
#205=ORIENTED_EDGE('',*,*,#424,.F.);
#206=ORIENTED_EDGE('',*,*,#425,.T.);
#207=ORIENTED_EDGE('',*,*,#421,.T.);
#208=ORIENTED_EDGE('',*,*,#426,.F.);
#209=ORIENTED_EDGE('',*,*,#427,.F.);
#210=ORIENTED_EDGE('',*,*,#428,.T.);
#211=ORIENTED_EDGE('',*,*,#424,.T.);
#212=ORIENTED_EDGE('',*,*,#429,.T.);
#213=ORIENTED_EDGE('',*,*,#430,.F.);
#214=ORIENTED_EDGE('',*,*,#431,.F.);
#215=ORIENTED_EDGE('',*,*,#427,.T.);
#216=ORIENTED_EDGE('',*,*,#432,.F.);
#217=ORIENTED_EDGE('',*,*,#433,.F.);
#218=ORIENTED_EDGE('',*,*,#434,.T.);
#219=ORIENTED_EDGE('',*,*,#430,.T.);
#220=ORIENTED_EDGE('',*,*,#435,.F.);
#221=ORIENTED_EDGE('',*,*,#357,.F.);
#222=ORIENTED_EDGE('',*,*,#436,.T.);
#223=ORIENTED_EDGE('',*,*,#433,.T.);
#224=ORIENTED_EDGE('',*,*,#437,.F.);
#225=ORIENTED_EDGE('',*,*,#341,.F.);
#226=ORIENTED_EDGE('',*,*,#438,.T.);
#227=ORIENTED_EDGE('',*,*,#352,.T.);
#228=ORIENTED_EDGE('',*,*,#366,.T.);
#229=ORIENTED_EDGE('',*,*,#439,.T.);
#230=ORIENTED_EDGE('',*,*,#367,.T.);
#231=ORIENTED_EDGE('',*,*,#373,.F.);
#232=ORIENTED_EDGE('',*,*,#376,.T.);
#233=ORIENTED_EDGE('',*,*,#440,.T.);
#234=ORIENTED_EDGE('',*,*,#377,.T.);
#235=ORIENTED_EDGE('',*,*,#383,.F.);
#236=ORIENTED_EDGE('',*,*,#386,.F.);
#237=ORIENTED_EDGE('',*,*,#389,.T.);
#238=ORIENTED_EDGE('',*,*,#392,.F.);
#239=ORIENTED_EDGE('',*,*,#395,.T.);
#240=ORIENTED_EDGE('',*,*,#398,.F.);
#241=ORIENTED_EDGE('',*,*,#401,.F.);
#242=ORIENTED_EDGE('',*,*,#404,.T.);
#243=ORIENTED_EDGE('',*,*,#407,.F.);
#244=ORIENTED_EDGE('',*,*,#410,.F.);
#245=ORIENTED_EDGE('',*,*,#413,.F.);
#246=ORIENTED_EDGE('',*,*,#416,.F.);
#247=ORIENTED_EDGE('',*,*,#419,.T.);
#248=ORIENTED_EDGE('',*,*,#422,.T.);
#249=ORIENTED_EDGE('',*,*,#425,.F.);
#250=ORIENTED_EDGE('',*,*,#428,.F.);
#251=ORIENTED_EDGE('',*,*,#431,.T.);
#252=ORIENTED_EDGE('',*,*,#434,.F.);
#253=ORIENTED_EDGE('',*,*,#436,.F.);
#254=ORIENTED_EDGE('',*,*,#356,.F.);
#255=ORIENTED_EDGE('',*,*,#360,.F.);
#256=ORIENTED_EDGE('',*,*,#363,.F.);
#257=ORIENTED_EDGE('',*,*,#340,.F.);
#258=ORIENTED_EDGE('',*,*,#344,.F.);
#259=ORIENTED_EDGE('',*,*,#347,.F.);
#260=ORIENTED_EDGE('',*,*,#350,.F.);
#261=ORIENTED_EDGE('',*,*,#353,.F.);
#262=ORIENTED_EDGE('',*,*,#438,.F.);
#263=ORIENTED_EDGE('',*,*,#441,.T.);
#264=ORIENTED_EDGE('',*,*,#442,.T.);
#265=ORIENTED_EDGE('',*,*,#443,.T.);
#266=ORIENTED_EDGE('',*,*,#444,.T.);
#267=ORIENTED_EDGE('',*,*,#445,.T.);
#268=ORIENTED_EDGE('',*,*,#446,.F.);
#269=ORIENTED_EDGE('',*,*,#369,.F.);
#270=ORIENTED_EDGE('',*,*,#447,.T.);
#271=ORIENTED_EDGE('',*,*,#364,.F.);
#272=ORIENTED_EDGE('',*,*,#361,.T.);
#273=ORIENTED_EDGE('',*,*,#358,.T.);
#274=ORIENTED_EDGE('',*,*,#354,.T.);
#275=ORIENTED_EDGE('',*,*,#435,.T.);
#276=ORIENTED_EDGE('',*,*,#432,.T.);
#277=ORIENTED_EDGE('',*,*,#429,.F.);
#278=ORIENTED_EDGE('',*,*,#426,.T.);
#279=ORIENTED_EDGE('',*,*,#423,.T.);
#280=ORIENTED_EDGE('',*,*,#420,.F.);
#281=ORIENTED_EDGE('',*,*,#417,.F.);
#282=ORIENTED_EDGE('',*,*,#414,.T.);
#283=ORIENTED_EDGE('',*,*,#411,.T.);
#284=ORIENTED_EDGE('',*,*,#408,.T.);
#285=ORIENTED_EDGE('',*,*,#405,.T.);
#286=ORIENTED_EDGE('',*,*,#402,.F.);
#287=ORIENTED_EDGE('',*,*,#399,.T.);
#288=ORIENTED_EDGE('',*,*,#396,.T.);
#289=ORIENTED_EDGE('',*,*,#393,.F.);
#290=ORIENTED_EDGE('',*,*,#390,.T.);
#291=ORIENTED_EDGE('',*,*,#387,.F.);
#292=ORIENTED_EDGE('',*,*,#384,.T.);
#293=ORIENTED_EDGE('',*,*,#381,.T.);
#294=ORIENTED_EDGE('',*,*,#379,.F.);
#295=ORIENTED_EDGE('',*,*,#448,.T.);
#296=ORIENTED_EDGE('',*,*,#374,.F.);
#297=ORIENTED_EDGE('',*,*,#371,.T.);
#298=ORIENTED_EDGE('',*,*,#338,.T.);
#299=ORIENTED_EDGE('',*,*,#437,.T.);
#300=ORIENTED_EDGE('',*,*,#351,.T.);
#301=ORIENTED_EDGE('',*,*,#348,.T.);
#302=ORIENTED_EDGE('',*,*,#345,.T.);
#303=ORIENTED_EDGE('',*,*,#342,.T.);
#304=ORIENTED_EDGE('',*,*,#444,.F.);
#305=ORIENTED_EDGE('',*,*,#449,.F.);
#306=ORIENTED_EDGE('',*,*,#450,.T.);
#307=ORIENTED_EDGE('',*,*,#451,.T.);
#308=ORIENTED_EDGE('',*,*,#445,.F.);
#309=ORIENTED_EDGE('',*,*,#451,.F.);
#310=ORIENTED_EDGE('',*,*,#452,.T.);
#311=ORIENTED_EDGE('',*,*,#453,.T.);
#312=ORIENTED_EDGE('',*,*,#446,.T.);
#313=ORIENTED_EDGE('',*,*,#453,.F.);
#314=ORIENTED_EDGE('',*,*,#454,.F.);
#315=ORIENTED_EDGE('',*,*,#455,.T.);
#316=ORIENTED_EDGE('',*,*,#443,.F.);
#317=ORIENTED_EDGE('',*,*,#455,.F.);
#318=ORIENTED_EDGE('',*,*,#456,.T.);
#319=ORIENTED_EDGE('',*,*,#449,.T.);
#320=ORIENTED_EDGE('',*,*,#450,.F.);
#321=ORIENTED_EDGE('',*,*,#456,.F.);
#322=ORIENTED_EDGE('',*,*,#454,.T.);
#323=ORIENTED_EDGE('',*,*,#452,.F.);
#324=ORIENTED_EDGE('',*,*,#457,.T.);
#325=ORIENTED_EDGE('',*,*,#442,.F.);
#326=ORIENTED_EDGE('',*,*,#457,.F.);
#327=ORIENTED_EDGE('',*,*,#458,.T.);
#328=ORIENTED_EDGE('',*,*,#441,.F.);
#329=ORIENTED_EDGE('',*,*,#458,.F.);
#330=ORIENTED_EDGE('',*,*,#439,.F.);
#331=ORIENTED_EDGE('',*,*,#365,.F.);
#332=ORIENTED_EDGE('',*,*,#447,.F.);
#333=ORIENTED_EDGE('',*,*,#368,.F.);
#334=ORIENTED_EDGE('',*,*,#440,.F.);
#335=ORIENTED_EDGE('',*,*,#375,.F.);
#336=ORIENTED_EDGE('',*,*,#448,.F.);
#337=ORIENTED_EDGE('',*,*,#378,.F.);
#338=EDGE_CURVE('',#459,#460,#541,.T.);
#339=EDGE_CURVE('',#461,#459,#542,.T.);
#340=EDGE_CURVE('',#461,#462,#543,.T.);
#341=EDGE_CURVE('',#462,#460,#544,.T.);
#342=EDGE_CURVE('',#463,#459,#12,.T.);
#343=EDGE_CURVE('',#464,#463,#545,.T.);
#344=EDGE_CURVE('',#464,#461,#13,.T.);
#345=EDGE_CURVE('',#465,#463,#14,.T.);
#346=EDGE_CURVE('',#466,#465,#546,.T.);
#347=EDGE_CURVE('',#466,#464,#15,.T.);
#348=EDGE_CURVE('',#467,#465,#547,.T.);
#349=EDGE_CURVE('',#468,#467,#548,.T.);
#350=EDGE_CURVE('',#468,#466,#549,.T.);
#351=EDGE_CURVE('',#469,#467,#16,.T.);
#352=EDGE_CURVE('',#470,#469,#550,.T.);
#353=EDGE_CURVE('',#470,#468,#17,.T.);
#354=EDGE_CURVE('',#471,#472,#18,.T.);
#355=EDGE_CURVE('',#473,#471,#551,.T.);
#356=EDGE_CURVE('',#473,#474,#19,.T.);
#357=EDGE_CURVE('',#474,#472,#552,.T.);
#358=EDGE_CURVE('',#475,#471,#20,.T.);
#359=EDGE_CURVE('',#476,#475,#553,.T.);
#360=EDGE_CURVE('',#476,#473,#21,.T.);
#361=EDGE_CURVE('',#477,#475,#22,.T.);
#362=EDGE_CURVE('',#478,#477,#554,.T.);
#363=EDGE_CURVE('',#478,#476,#23,.T.);
#364=EDGE_CURVE('',#477,#479,#555,.T.);
#365=EDGE_CURVE('',#479,#480,#556,.F.);
#366=EDGE_CURVE('',#478,#480,#557,.T.);
#367=EDGE_CURVE('',#481,#482,#24,.T.);
#368=EDGE_CURVE('',#481,#483,#558,.T.);
#369=EDGE_CURVE('',#483,#484,#25,.T.);
#370=EDGE_CURVE('',#482,#484,#559,.T.);
#371=EDGE_CURVE('',#485,#484,#560,.T.);
#372=EDGE_CURVE('',#486,#485,#561,.T.);
#373=EDGE_CURVE('',#486,#482,#562,.T.);
#374=EDGE_CURVE('',#485,#487,#26,.T.);
#375=EDGE_CURVE('',#487,#488,#563,.F.);
#376=EDGE_CURVE('',#486,#488,#27,.T.);
#377=EDGE_CURVE('',#489,#490,#564,.T.);
#378=EDGE_CURVE('',#489,#491,#565,.T.);
#379=EDGE_CURVE('',#491,#492,#566,.T.);
#380=EDGE_CURVE('',#490,#492,#567,.T.);
#381=EDGE_CURVE('',#493,#492,#28,.T.);
#382=EDGE_CURVE('',#494,#493,#568,.T.);
#383=EDGE_CURVE('',#494,#490,#29,.T.);
#384=EDGE_CURVE('',#495,#493,#30,.T.);
#385=EDGE_CURVE('',#496,#495,#569,.T.);
#386=EDGE_CURVE('',#496,#494,#31,.T.);
#387=EDGE_CURVE('',#495,#497,#32,.T.);
#388=EDGE_CURVE('',#498,#497,#570,.T.);
#389=EDGE_CURVE('',#496,#498,#33,.T.);
#390=EDGE_CURVE('',#499,#497,#571,.T.);
#391=EDGE_CURVE('',#500,#499,#572,.T.);
#392=EDGE_CURVE('',#500,#498,#573,.T.);
#393=EDGE_CURVE('',#499,#501,#34,.T.);
#394=EDGE_CURVE('',#502,#501,#574,.T.);
#395=EDGE_CURVE('',#500,#502,#35,.T.);
#396=EDGE_CURVE('',#503,#501,#36,.T.);
#397=EDGE_CURVE('',#504,#503,#575,.T.);
#398=EDGE_CURVE('',#504,#502,#37,.T.);
#399=EDGE_CURVE('',#505,#503,#576,.T.);
#400=EDGE_CURVE('',#506,#505,#577,.T.);
#401=EDGE_CURVE('',#506,#504,#578,.T.);
#402=EDGE_CURVE('',#505,#507,#38,.T.);
#403=EDGE_CURVE('',#508,#507,#579,.T.);
#404=EDGE_CURVE('',#506,#508,#39,.T.);
#405=EDGE_CURVE('',#509,#507,#580,.T.);
#406=EDGE_CURVE('',#510,#509,#581,.T.);
#407=EDGE_CURVE('',#510,#508,#582,.T.);
#408=EDGE_CURVE('',#511,#509,#40,.T.);
#409=EDGE_CURVE('',#512,#511,#583,.T.);
#410=EDGE_CURVE('',#512,#510,#41,.T.);
#411=EDGE_CURVE('',#513,#511,#42,.T.);
#412=EDGE_CURVE('',#514,#513,#584,.T.);
#413=EDGE_CURVE('',#514,#512,#43,.T.);
#414=EDGE_CURVE('',#515,#513,#585,.T.);
#415=EDGE_CURVE('',#516,#515,#586,.T.);
#416=EDGE_CURVE('',#516,#514,#587,.T.);
#417=EDGE_CURVE('',#515,#517,#44,.T.);
#418=EDGE_CURVE('',#518,#517,#588,.T.);
#419=EDGE_CURVE('',#516,#518,#45,.T.);
#420=EDGE_CURVE('',#517,#519,#46,.T.);
#421=EDGE_CURVE('',#520,#519,#589,.T.);
#422=EDGE_CURVE('',#518,#520,#47,.T.);
#423=EDGE_CURVE('',#521,#519,#590,.T.);
#424=EDGE_CURVE('',#522,#521,#591,.T.);
#425=EDGE_CURVE('',#522,#520,#592,.T.);
#426=EDGE_CURVE('',#523,#521,#48,.T.);
#427=EDGE_CURVE('',#524,#523,#593,.T.);
#428=EDGE_CURVE('',#524,#522,#49,.T.);
#429=EDGE_CURVE('',#523,#525,#50,.T.);
#430=EDGE_CURVE('',#526,#525,#594,.T.);
#431=EDGE_CURVE('',#524,#526,#51,.T.);
#432=EDGE_CURVE('',#527,#525,#595,.T.);
#433=EDGE_CURVE('',#528,#527,#596,.T.);
#434=EDGE_CURVE('',#528,#526,#597,.T.);
#435=EDGE_CURVE('',#472,#527,#52,.T.);
#436=EDGE_CURVE('',#474,#528,#53,.T.);
#437=EDGE_CURVE('',#460,#469,#54,.T.);
#438=EDGE_CURVE('',#462,#470,#55,.T.);
#439=EDGE_CURVE('',#480,#481,#56,.T.);
#440=EDGE_CURVE('',#488,#489,#57,.T.);
#441=EDGE_CURVE('',#529,#529,#58,.T.);
#442=EDGE_CURVE('',#530,#530,#59,.T.);
#443=EDGE_CURVE('',#531,#532,#598,.T.);
#444=EDGE_CURVE('',#532,#533,#60,.T.);
#445=EDGE_CURVE('',#533,#534,#599,.T.);
#446=EDGE_CURVE('',#531,#534,#61,.T.);
#447=EDGE_CURVE('',#483,#479,#62,.F.);
#448=EDGE_CURVE('',#491,#487,#63,.F.);
#449=EDGE_CURVE('',#535,#532,#600,.T.);
#450=EDGE_CURVE('',#535,#536,#64,.T.);
#451=EDGE_CURVE('',#536,#533,#601,.T.);
#452=EDGE_CURVE('',#536,#537,#602,.T.);
#453=EDGE_CURVE('',#537,#534,#603,.T.);
#454=EDGE_CURVE('',#538,#537,#65,.T.);
#455=EDGE_CURVE('',#538,#531,#604,.T.);
#456=EDGE_CURVE('',#538,#535,#605,.T.);
#457=EDGE_CURVE('',#539,#539,#66,.T.);
#458=EDGE_CURVE('',#540,#540,#67,.T.);
#459=VERTEX_POINT('',#1230);
#460=VERTEX_POINT('',#1231);
#461=VERTEX_POINT('',#1233);
#462=VERTEX_POINT('',#1235);
#463=VERTEX_POINT('',#1239);
#464=VERTEX_POINT('',#1241);
#465=VERTEX_POINT('',#1245);
#466=VERTEX_POINT('',#1247);
#467=VERTEX_POINT('',#1251);
#468=VERTEX_POINT('',#1253);
#469=VERTEX_POINT('',#1257);
#470=VERTEX_POINT('',#1259);
#471=VERTEX_POINT('',#1263);
#472=VERTEX_POINT('',#1264);
#473=VERTEX_POINT('',#1266);
#474=VERTEX_POINT('',#1268);
#475=VERTEX_POINT('',#1272);
#476=VERTEX_POINT('',#1274);
#477=VERTEX_POINT('',#1278);
#478=VERTEX_POINT('',#1280);
#479=VERTEX_POINT('',#1284);
#480=VERTEX_POINT('',#1286);
#481=VERTEX_POINT('',#1290);
#482=VERTEX_POINT('',#1291);
#483=VERTEX_POINT('',#1293);
#484=VERTEX_POINT('',#1295);
#485=VERTEX_POINT('',#1299);
#486=VERTEX_POINT('',#1301);
#487=VERTEX_POINT('',#1305);
#488=VERTEX_POINT('',#1307);
#489=VERTEX_POINT('',#1311);
#490=VERTEX_POINT('',#1312);
#491=VERTEX_POINT('',#1314);
#492=VERTEX_POINT('',#1316);
#493=VERTEX_POINT('',#1320);
#494=VERTEX_POINT('',#1322);
#495=VERTEX_POINT('',#1326);
#496=VERTEX_POINT('',#1328);
#497=VERTEX_POINT('',#1332);
#498=VERTEX_POINT('',#1334);
#499=VERTEX_POINT('',#1338);
#500=VERTEX_POINT('',#1340);
#501=VERTEX_POINT('',#1344);
#502=VERTEX_POINT('',#1346);
#503=VERTEX_POINT('',#1350);
#504=VERTEX_POINT('',#1352);
#505=VERTEX_POINT('',#1356);
#506=VERTEX_POINT('',#1358);
#507=VERTEX_POINT('',#1362);
#508=VERTEX_POINT('',#1364);
#509=VERTEX_POINT('',#1368);
#510=VERTEX_POINT('',#1370);
#511=VERTEX_POINT('',#1374);
#512=VERTEX_POINT('',#1376);
#513=VERTEX_POINT('',#1380);
#514=VERTEX_POINT('',#1382);
#515=VERTEX_POINT('',#1386);
#516=VERTEX_POINT('',#1388);
#517=VERTEX_POINT('',#1392);
#518=VERTEX_POINT('',#1394);
#519=VERTEX_POINT('',#1398);
#520=VERTEX_POINT('',#1400);
#521=VERTEX_POINT('',#1404);
#522=VERTEX_POINT('',#1406);
#523=VERTEX_POINT('',#1410);
#524=VERTEX_POINT('',#1412);
#525=VERTEX_POINT('',#1416);
#526=VERTEX_POINT('',#1418);
#527=VERTEX_POINT('',#1422);
#528=VERTEX_POINT('',#1424);
#529=VERTEX_POINT('',#1437);
#530=VERTEX_POINT('',#1439);
#531=VERTEX_POINT('',#1441);
#532=VERTEX_POINT('',#1442);
#533=VERTEX_POINT('',#1444);
#534=VERTEX_POINT('',#1446);
#535=VERTEX_POINT('',#1452);
#536=VERTEX_POINT('',#1454);
#537=VERTEX_POINT('',#1458);
#538=VERTEX_POINT('',#1462);
#539=VERTEX_POINT('',#1469);
#540=VERTEX_POINT('',#1473);
#541=LINE('',#1229,#606);
#542=LINE('',#1232,#607);
#543=LINE('',#1234,#608);
#544=LINE('',#1236,#609);
#545=LINE('',#1240,#610);
#546=LINE('',#1246,#611);
#547=LINE('',#1250,#612);
#548=LINE('',#1252,#613);
#549=LINE('',#1254,#614);
#550=LINE('',#1258,#615);
#551=LINE('',#1265,#616);
#552=LINE('',#1269,#617);
#553=LINE('',#1273,#618);
#554=LINE('',#1279,#619);
#555=LINE('',#1283,#620);
#556=LINE('',#1285,#621);
#557=LINE('',#1287,#622);
#558=LINE('',#1292,#623);
#559=LINE('',#1296,#624);
#560=LINE('',#1298,#625);
#561=LINE('',#1300,#626);
#562=LINE('',#1302,#627);
#563=LINE('',#1306,#628);
#564=LINE('',#1310,#629);
#565=LINE('',#1313,#630);
#566=LINE('',#1315,#631);
#567=LINE('',#1317,#632);
#568=LINE('',#1321,#633);
#569=LINE('',#1327,#634);
#570=LINE('',#1333,#635);
#571=LINE('',#1337,#636);
#572=LINE('',#1339,#637);
#573=LINE('',#1341,#638);
#574=LINE('',#1345,#639);
#575=LINE('',#1351,#640);
#576=LINE('',#1355,#641);
#577=LINE('',#1357,#642);
#578=LINE('',#1359,#643);
#579=LINE('',#1363,#644);
#580=LINE('',#1367,#645);
#581=LINE('',#1369,#646);
#582=LINE('',#1371,#647);
#583=LINE('',#1375,#648);
#584=LINE('',#1381,#649);
#585=LINE('',#1385,#650);
#586=LINE('',#1387,#651);
#587=LINE('',#1389,#652);
#588=LINE('',#1393,#653);
#589=LINE('',#1399,#654);
#590=LINE('',#1403,#655);
#591=LINE('',#1405,#656);
#592=LINE('',#1407,#657);
#593=LINE('',#1411,#658);
#594=LINE('',#1417,#659);
#595=LINE('',#1421,#660);
#596=LINE('',#1423,#661);
#597=LINE('',#1425,#662);
#598=LINE('',#1440,#663);
#599=LINE('',#1445,#664);
#600=LINE('',#1451,#665);
#601=LINE('',#1455,#666);
#602=LINE('',#1457,#667);
#603=LINE('',#1459,#668);
#604=LINE('',#1463,#669);
#605=LINE('',#1465,#670);
#606=VECTOR('',#960,1.);
#607=VECTOR('',#961,1.);
#608=VECTOR('',#962,1.);
#609=VECTOR('',#963,1.);
#610=VECTOR('',#968,1.);
#611=VECTOR('',#975,1.);
#612=VECTOR('',#980,1.);
#613=VECTOR('',#981,1.);
#614=VECTOR('',#982,1.);
#615=VECTOR('',#987,1.);
#616=VECTOR('',#994,1.);
#617=VECTOR('',#997,1.);
#618=VECTOR('',#1002,1.);
#619=VECTOR('',#1009,1.);
#620=VECTOR('',#1014,1.);
#621=VECTOR('',#1015,1.);
#622=VECTOR('',#1016,1.);
#623=VECTOR('',#1021,1.);
#624=VECTOR('',#1024,1.);
#625=VECTOR('',#1027,1.);
#626=VECTOR('',#1028,1.);
#627=VECTOR('',#1029,1.);
#628=VECTOR('',#1034,1.);
#629=VECTOR('',#1039,1.);
#630=VECTOR('',#1040,1.);
#631=VECTOR('',#1041,1.);
#632=VECTOR('',#1042,1.);
#633=VECTOR('',#1047,1.);
#634=VECTOR('',#1054,1.);
#635=VECTOR('',#1061,1.);
#636=VECTOR('',#1066,1.);
#637=VECTOR('',#1067,1.);
#638=VECTOR('',#1068,1.);
#639=VECTOR('',#1073,1.);
#640=VECTOR('',#1080,1.);
#641=VECTOR('',#1085,1.);
#642=VECTOR('',#1086,1.);
#643=VECTOR('',#1087,1.);
#644=VECTOR('',#1092,1.);
#645=VECTOR('',#1097,1.);
#646=VECTOR('',#1098,1.);
#647=VECTOR('',#1099,1.);
#648=VECTOR('',#1104,1.);
#649=VECTOR('',#1111,1.);
#650=VECTOR('',#1116,1.);
#651=VECTOR('',#1117,1.);
#652=VECTOR('',#1118,1.);
#653=VECTOR('',#1123,1.);
#654=VECTOR('',#1130,1.);
#655=VECTOR('',#1135,1.);
#656=VECTOR('',#1136,1.);
#657=VECTOR('',#1137,1.);
#658=VECTOR('',#1142,1.);
#659=VECTOR('',#1149,1.);
#660=VECTOR('',#1154,1.);
#661=VECTOR('',#1155,1.);
#662=VECTOR('',#1156,1.);
#663=VECTOR('',#1181,1.);
#664=VECTOR('',#1184,1.);
#665=VECTOR('',#1193,1.);
#666=VECTOR('',#1196,1.);
#667=VECTOR('',#1199,1.);
#668=VECTOR('',#1200,1.);
#669=VECTOR('',#1205,1.);
#670=VECTOR('',#1208,1.);
#671=EDGE_LOOP('',(#96,#97,#98,#99));
#672=EDGE_LOOP('',(#100,#101,#102,#103));
#673=EDGE_LOOP('',(#104,#105,#106,#107));
#674=EDGE_LOOP('',(#108,#109,#110,#111));
#675=EDGE_LOOP('',(#112,#113,#114,#115));
#676=EDGE_LOOP('',(#116,#117,#118,#119));
#677=EDGE_LOOP('',(#120,#121,#122,#123));
#678=EDGE_LOOP('',(#124,#125,#126,#127));
#679=EDGE_LOOP('',(#128,#129,#130,#131));
#680=EDGE_LOOP('',(#132,#133,#134,#135));
#681=EDGE_LOOP('',(#136,#137,#138,#139));
#682=EDGE_LOOP('',(#140,#141,#142,#143));
#683=EDGE_LOOP('',(#144,#145,#146,#147));
#684=EDGE_LOOP('',(#148,#149,#150,#151));
#685=EDGE_LOOP('',(#152,#153,#154,#155));
#686=EDGE_LOOP('',(#156,#157,#158,#159));
#687=EDGE_LOOP('',(#160,#161,#162,#163));
#688=EDGE_LOOP('',(#164,#165,#166,#167));
#689=EDGE_LOOP('',(#168,#169,#170,#171));
#690=EDGE_LOOP('',(#172,#173,#174,#175));
#691=EDGE_LOOP('',(#176,#177,#178,#179));
#692=EDGE_LOOP('',(#180,#181,#182,#183));
#693=EDGE_LOOP('',(#184,#185,#186,#187));
#694=EDGE_LOOP('',(#188,#189,#190,#191));
#695=EDGE_LOOP('',(#192,#193,#194,#195));
#696=EDGE_LOOP('',(#196,#197,#198,#199));
#697=EDGE_LOOP('',(#200,#201,#202,#203));
#698=EDGE_LOOP('',(#204,#205,#206,#207));
#699=EDGE_LOOP('',(#208,#209,#210,#211));
#700=EDGE_LOOP('',(#212,#213,#214,#215));
#701=EDGE_LOOP('',(#216,#217,#218,#219));
#702=EDGE_LOOP('',(#220,#221,#222,#223));
#703=EDGE_LOOP('',(#224,#225,#226,#227));
#704=EDGE_LOOP('',(#228,#229,#230,#231,#232,#233,#234,#235,#236,#237,#238,
#239,#240,#241,#242,#243,#244,#245,#246,#247,#248,#249,#250,#251,#252,#253,
#254,#255,#256));
#705=EDGE_LOOP('',(#257,#258,#259,#260,#261,#262));
#706=EDGE_LOOP('',(#263));
#707=EDGE_LOOP('',(#264));
#708=EDGE_LOOP('',(#265,#266,#267,#268));
#709=EDGE_LOOP('',(#269,#270,#271,#272,#273,#274,#275,#276,#277,#278,#279,
#280,#281,#282,#283,#284,#285,#286,#287,#288,#289,#290,#291,#292,#293,#294,
#295,#296,#297));
#710=EDGE_LOOP('',(#298,#299,#300,#301,#302,#303));
#711=EDGE_LOOP('',(#304,#305,#306,#307));
#712=EDGE_LOOP('',(#308,#309,#310,#311));
#713=EDGE_LOOP('',(#312,#313,#314,#315));
#714=EDGE_LOOP('',(#316,#317,#318,#319));
#715=EDGE_LOOP('',(#320,#321,#322,#323));
#716=EDGE_LOOP('',(#324));
#717=EDGE_LOOP('',(#325));
#718=EDGE_LOOP('',(#326));
#719=EDGE_LOOP('',(#327));
#720=EDGE_LOOP('',(#328));
#721=EDGE_LOOP('',(#329));
#722=EDGE_LOOP('',(#330,#331,#332,#333));
#723=EDGE_LOOP('',(#334,#335,#336,#337));
#724=FACE_BOUND('',#671,.T.);
#725=FACE_BOUND('',#672,.T.);
#726=FACE_BOUND('',#673,.T.);
#727=FACE_BOUND('',#674,.T.);
#728=FACE_BOUND('',#675,.T.);
#729=FACE_BOUND('',#676,.T.);
#730=FACE_BOUND('',#677,.T.);
#731=FACE_BOUND('',#678,.T.);
#732=FACE_BOUND('',#679,.T.);
#733=FACE_BOUND('',#680,.T.);
#734=FACE_BOUND('',#681,.T.);
#735=FACE_BOUND('',#682,.T.);
#736=FACE_BOUND('',#683,.T.);
#737=FACE_BOUND('',#684,.T.);
#738=FACE_BOUND('',#685,.T.);
#739=FACE_BOUND('',#686,.T.);
#740=FACE_BOUND('',#687,.T.);
#741=FACE_BOUND('',#688,.T.);
#742=FACE_BOUND('',#689,.T.);
#743=FACE_BOUND('',#690,.T.);
#744=FACE_BOUND('',#691,.T.);
#745=FACE_BOUND('',#692,.T.);
#746=FACE_BOUND('',#693,.T.);
#747=FACE_BOUND('',#694,.T.);
#748=FACE_BOUND('',#695,.T.);
#749=FACE_BOUND('',#696,.T.);
#750=FACE_BOUND('',#697,.T.);
#751=FACE_BOUND('',#698,.T.);
#752=FACE_BOUND('',#699,.T.);
#753=FACE_BOUND('',#700,.T.);
#754=FACE_BOUND('',#701,.T.);
#755=FACE_BOUND('',#702,.T.);
#756=FACE_BOUND('',#703,.T.);
#757=FACE_BOUND('',#704,.T.);
#758=FACE_BOUND('',#705,.T.);
#759=FACE_BOUND('',#706,.T.);
#760=FACE_BOUND('',#707,.T.);
#761=FACE_BOUND('',#708,.T.);
#762=FACE_BOUND('',#709,.T.);
#763=FACE_BOUND('',#710,.T.);
#764=FACE_BOUND('',#711,.T.);
#765=FACE_BOUND('',#712,.T.);
#766=FACE_BOUND('',#713,.T.);
#767=FACE_BOUND('',#714,.T.);
#768=FACE_BOUND('',#715,.T.);
#769=FACE_BOUND('',#716,.T.);
#770=FACE_BOUND('',#717,.T.);
#771=FACE_BOUND('',#718,.T.);
#772=FACE_BOUND('',#719,.T.);
#773=FACE_BOUND('',#720,.T.);
#774=FACE_BOUND('',#721,.T.);
#775=FACE_BOUND('',#722,.T.);
#776=FACE_BOUND('',#723,.T.);
#777=PLANE('',#854);
#778=PLANE('',#861);
#779=PLANE('',#874);
#780=PLANE('',#878);
#781=PLANE('',#882);
#782=PLANE('',#892);
#783=PLANE('',#899);
#784=PLANE('',#903);
#785=PLANE('',#910);
#786=PLANE('',#917);
#787=PLANE('',#924);
#788=PLANE('',#931);
#789=PLANE('',#934);
#790=PLANE('',#943);
#791=PLANE('',#946);
#792=PLANE('',#947);
#793=PLANE('',#950);
#794=PLANE('',#953);
#795=ADVANCED_FACE('',(#724),#777,.T.);
#796=ADVANCED_FACE('',(#725),#68,.T.);
#797=ADVANCED_FACE('',(#726),#69,.F.);
#798=ADVANCED_FACE('',(#727),#778,.T.);
#799=ADVANCED_FACE('',(#728),#70,.F.);
#800=ADVANCED_FACE('',(#729),#71,.F.);
#801=ADVANCED_FACE('',(#730),#72,.F.);
#802=ADVANCED_FACE('',(#731),#73,.F.);
#803=ADVANCED_FACE('',(#732),#779,.F.);
#804=ADVANCED_FACE('',(#733),#74,.T.);
#805=ADVANCED_FACE('',(#734),#780,.T.);
#806=ADVANCED_FACE('',(#735),#75,.T.);
#807=ADVANCED_FACE('',(#736),#781,.F.);
#808=ADVANCED_FACE('',(#737),#76,.F.);
#809=ADVANCED_FACE('',(#738),#77,.F.);
#810=ADVANCED_FACE('',(#739),#78,.T.);
#811=ADVANCED_FACE('',(#740),#782,.T.);
#812=ADVANCED_FACE('',(#741),#79,.T.);
#813=ADVANCED_FACE('',(#742),#80,.F.);
#814=ADVANCED_FACE('',(#743),#783,.T.);
#815=ADVANCED_FACE('',(#744),#81,.T.);
#816=ADVANCED_FACE('',(#745),#784,.T.);
#817=ADVANCED_FACE('',(#746),#82,.F.);
#818=ADVANCED_FACE('',(#747),#83,.F.);
#819=ADVANCED_FACE('',(#748),#785,.T.);
#820=ADVANCED_FACE('',(#749),#84,.T.);
#821=ADVANCED_FACE('',(#750),#85,.T.);
#822=ADVANCED_FACE('',(#751),#786,.T.);
#823=ADVANCED_FACE('',(#752),#86,.F.);
#824=ADVANCED_FACE('',(#753),#87,.T.);
#825=ADVANCED_FACE('',(#754),#787,.T.);
#826=ADVANCED_FACE('',(#755),#88,.T.);
#827=ADVANCED_FACE('',(#756),#89,.F.);
#828=ADVANCED_FACE('',(#757,#758),#788,.T.);
#829=ADVANCED_FACE('',(#759,#760,#761,#762,#763),#789,.F.);
#830=ADVANCED_FACE('',(#764),#90,.T.);
#831=ADVANCED_FACE('',(#765),#790,.T.);
#832=ADVANCED_FACE('',(#766),#91,.F.);
#833=ADVANCED_FACE('',(#767),#791,.T.);
#834=ADVANCED_FACE('',(#768),#792,.F.);
#835=ADVANCED_FACE('',(#769,#770),#92,.T.);
#836=ADVANCED_FACE('',(#771),#793,.F.);
#837=ADVANCED_FACE('',(#772,#773),#93,.T.);
#838=ADVANCED_FACE('',(#774),#794,.F.);
#839=ADVANCED_FACE('',(#775),#94,.T.);
#840=ADVANCED_FACE('',(#776),#95,.T.);
#841=CLOSED_SHELL('',(#795,#796,#797,#798,#799,#800,#801,#802,#803,#804,
#805,#806,#807,#808,#809,#810,#811,#812,#813,#814,#815,#816,#817,#818,#819,
#820,#821,#822,#823,#824,#825,#826,#827,#828,#829,#830,#831,#832,#833,#834,
#835,#836,#837,#838,#839,#840));
#842=STYLED_ITEM('',(#843),#850);
#843=PRESENTATION_STYLE_ASSIGNMENT((#844));
#844=SURFACE_STYLE_USAGE(.BOTH.,#845);
#845=SURFACE_SIDE_STYLE('',(#846));
#846=SURFACE_STYLE_FILL_AREA(#847);
#847=FILL_AREA_STYLE('',(#848));
#848=FILL_AREA_STYLE_COLOUR('',#849);
#849=COLOUR_RGB('',0.498039215686275,0.498039215686275,0.498039215686275);
#850=MANIFOLD_SOLID_BREP('clip4',#841);
#851=SHAPE_DEFINITION_REPRESENTATION(#1483,#852);
#852=SHAPE_REPRESENTATION('clip4',(#853),#1478);
#853=AXIS2_PLACEMENT_3D('',#1227,#956,#957);
#854=AXIS2_PLACEMENT_3D('',#1228,#958,#959);
#855=AXIS2_PLACEMENT_3D('',#1237,#964,#965);
#856=AXIS2_PLACEMENT_3D('',#1238,#966,#967);
#857=AXIS2_PLACEMENT_3D('',#1242,#969,#970);
#858=AXIS2_PLACEMENT_3D('',#1243,#971,#972);
#859=AXIS2_PLACEMENT_3D('',#1244,#973,#974);
#860=AXIS2_PLACEMENT_3D('',#1248,#976,#977);
#861=AXIS2_PLACEMENT_3D('',#1249,#978,#979);
#862=AXIS2_PLACEMENT_3D('',#1255,#983,#984);
#863=AXIS2_PLACEMENT_3D('',#1256,#985,#986);
#864=AXIS2_PLACEMENT_3D('',#1260,#988,#989);
#865=AXIS2_PLACEMENT_3D('',#1261,#990,#991);
#866=AXIS2_PLACEMENT_3D('',#1262,#992,#993);
#867=AXIS2_PLACEMENT_3D('',#1267,#995,#996);
#868=AXIS2_PLACEMENT_3D('',#1270,#998,#999);
#869=AXIS2_PLACEMENT_3D('',#1271,#1000,#1001);
#870=AXIS2_PLACEMENT_3D('',#1275,#1003,#1004);
#871=AXIS2_PLACEMENT_3D('',#1276,#1005,#1006);
#872=AXIS2_PLACEMENT_3D('',#1277,#1007,#1008);
#873=AXIS2_PLACEMENT_3D('',#1281,#1010,#1011);
#874=AXIS2_PLACEMENT_3D('',#1282,#1012,#1013);
#875=AXIS2_PLACEMENT_3D('',#1288,#1017,#1018);
#876=AXIS2_PLACEMENT_3D('',#1289,#1019,#1020);
#877=AXIS2_PLACEMENT_3D('',#1294,#1022,#1023);
#878=AXIS2_PLACEMENT_3D('',#1297,#1025,#1026);
#879=AXIS2_PLACEMENT_3D('',#1303,#1030,#1031);
#880=AXIS2_PLACEMENT_3D('',#1304,#1032,#1033);
#881=AXIS2_PLACEMENT_3D('',#1308,#1035,#1036);
#882=AXIS2_PLACEMENT_3D('',#1309,#1037,#1038);
#883=AXIS2_PLACEMENT_3D('',#1318,#1043,#1044);
#884=AXIS2_PLACEMENT_3D('',#1319,#1045,#1046);
#885=AXIS2_PLACEMENT_3D('',#1323,#1048,#1049);
#886=AXIS2_PLACEMENT_3D('',#1324,#1050,#1051);
#887=AXIS2_PLACEMENT_3D('',#1325,#1052,#1053);
#888=AXIS2_PLACEMENT_3D('',#1329,#1055,#1056);
#889=AXIS2_PLACEMENT_3D('',#1330,#1057,#1058);
#890=AXIS2_PLACEMENT_3D('',#1331,#1059,#1060);
#891=AXIS2_PLACEMENT_3D('',#1335,#1062,#1063);
#892=AXIS2_PLACEMENT_3D('',#1336,#1064,#1065);
#893=AXIS2_PLACEMENT_3D('',#1342,#1069,#1070);
#894=AXIS2_PLACEMENT_3D('',#1343,#1071,#1072);
#895=AXIS2_PLACEMENT_3D('',#1347,#1074,#1075);
#896=AXIS2_PLACEMENT_3D('',#1348,#1076,#1077);
#897=AXIS2_PLACEMENT_3D('',#1349,#1078,#1079);
#898=AXIS2_PLACEMENT_3D('',#1353,#1081,#1082);
#899=AXIS2_PLACEMENT_3D('',#1354,#1083,#1084);
#900=AXIS2_PLACEMENT_3D('',#1360,#1088,#1089);
#901=AXIS2_PLACEMENT_3D('',#1361,#1090,#1091);
#902=AXIS2_PLACEMENT_3D('',#1365,#1093,#1094);
#903=AXIS2_PLACEMENT_3D('',#1366,#1095,#1096);
#904=AXIS2_PLACEMENT_3D('',#1372,#1100,#1101);
#905=AXIS2_PLACEMENT_3D('',#1373,#1102,#1103);
#906=AXIS2_PLACEMENT_3D('',#1377,#1105,#1106);
#907=AXIS2_PLACEMENT_3D('',#1378,#1107,#1108);
#908=AXIS2_PLACEMENT_3D('',#1379,#1109,#1110);
#909=AXIS2_PLACEMENT_3D('',#1383,#1112,#1113);
#910=AXIS2_PLACEMENT_3D('',#1384,#1114,#1115);
#911=AXIS2_PLACEMENT_3D('',#1390,#1119,#1120);
#912=AXIS2_PLACEMENT_3D('',#1391,#1121,#1122);
#913=AXIS2_PLACEMENT_3D('',#1395,#1124,#1125);
#914=AXIS2_PLACEMENT_3D('',#1396,#1126,#1127);
#915=AXIS2_PLACEMENT_3D('',#1397,#1128,#1129);
#916=AXIS2_PLACEMENT_3D('',#1401,#1131,#1132);
#917=AXIS2_PLACEMENT_3D('',#1402,#1133,#1134);
#918=AXIS2_PLACEMENT_3D('',#1408,#1138,#1139);
#919=AXIS2_PLACEMENT_3D('',#1409,#1140,#1141);
#920=AXIS2_PLACEMENT_3D('',#1413,#1143,#1144);
#921=AXIS2_PLACEMENT_3D('',#1414,#1145,#1146);
#922=AXIS2_PLACEMENT_3D('',#1415,#1147,#1148);
#923=AXIS2_PLACEMENT_3D('',#1419,#1150,#1151);
#924=AXIS2_PLACEMENT_3D('',#1420,#1152,#1153);
#925=AXIS2_PLACEMENT_3D('',#1426,#1157,#1158);
#926=AXIS2_PLACEMENT_3D('',#1427,#1159,#1160);
#927=AXIS2_PLACEMENT_3D('',#1428,#1161,#1162);
#928=AXIS2_PLACEMENT_3D('',#1429,#1163,#1164);
#929=AXIS2_PLACEMENT_3D('',#1430,#1165,#1166);
#930=AXIS2_PLACEMENT_3D('',#1431,#1167,#1168);
#931=AXIS2_PLACEMENT_3D('',#1432,#1169,#1170);
#932=AXIS2_PLACEMENT_3D('',#1433,#1171,#1172);
#933=AXIS2_PLACEMENT_3D('',#1434,#1173,#1174);
#934=AXIS2_PLACEMENT_3D('',#1435,#1175,#1176);
#935=AXIS2_PLACEMENT_3D('',#1436,#1177,#1178);
#936=AXIS2_PLACEMENT_3D('',#1438,#1179,#1180);
#937=AXIS2_PLACEMENT_3D('',#1443,#1182,#1183);
#938=AXIS2_PLACEMENT_3D('',#1447,#1185,#1186);
#939=AXIS2_PLACEMENT_3D('',#1448,#1187,#1188);
#940=AXIS2_PLACEMENT_3D('',#1449,#1189,#1190);
#941=AXIS2_PLACEMENT_3D('',#1450,#1191,#1192);
#942=AXIS2_PLACEMENT_3D('',#1453,#1194,#1195);
#943=AXIS2_PLACEMENT_3D('',#1456,#1197,#1198);
#944=AXIS2_PLACEMENT_3D('',#1460,#1201,#1202);
#945=AXIS2_PLACEMENT_3D('',#1461,#1203,#1204);
#946=AXIS2_PLACEMENT_3D('',#1464,#1206,#1207);
#947=AXIS2_PLACEMENT_3D('',#1466,#1209,#1210);
#948=AXIS2_PLACEMENT_3D('',#1467,#1211,#1212);
#949=AXIS2_PLACEMENT_3D('',#1468,#1213,#1214);
#950=AXIS2_PLACEMENT_3D('',#1470,#1215,#1216);
#951=AXIS2_PLACEMENT_3D('',#1471,#1217,#1218);
#952=AXIS2_PLACEMENT_3D('',#1472,#1219,#1220);
#953=AXIS2_PLACEMENT_3D('',#1474,#1221,#1222);
#954=AXIS2_PLACEMENT_3D('',#1475,#1223,#1224);
#955=AXIS2_PLACEMENT_3D('',#1476,#1225,#1226);
#956=DIRECTION('',(0.,0.,1.));
#957=DIRECTION('',(1.,0.,0.));
#958=DIRECTION('',(-0.469471562785891,0.,-0.882947592858927));
#959=DIRECTION('',(-0.882947592858927,0.,0.469471562785891));
#960=DIRECTION('',(0.882947592858927,0.,-0.469471562785891));
#961=DIRECTION('',(0.,-1.,0.));
#962=DIRECTION('',(0.882947592858927,0.,-0.469471562785891));
#963=DIRECTION('',(0.,-1.,0.));
#964=DIRECTION('',(0.,-1.,0.));
#965=DIRECTION('',(0.,0.,-1.));
#966=DIRECTION('',(0.,-1.,0.));
#967=DIRECTION('',(0.,0.,1.));
#968=DIRECTION('',(0.,-1.,0.));
#969=DIRECTION('',(0.,-1.,0.));
#970=DIRECTION('',(0.,0.,1.));
#971=DIRECTION('',(0.,-1.,0.));
#972=DIRECTION('',(0.,0.,-1.));
#973=DIRECTION('',(0.,1.,0.));
#974=DIRECTION('',(0.,0.,1.));
#975=DIRECTION('',(0.,-1.,0.));
#976=DIRECTION('',(0.,1.,0.));
#977=DIRECTION('',(0.,0.,1.));
#978=DIRECTION('',(0.649448048330185,0.,0.76040596560003));
#979=DIRECTION('',(0.76040596560003,0.,-0.649448048330185));
#980=DIRECTION('',(-0.76040596560003,0.,0.649448048330185));
#981=DIRECTION('',(0.,-1.,0.));
#982=DIRECTION('',(-0.76040596560003,0.,0.649448048330185));
#983=DIRECTION('',(0.,-1.,0.));
#984=DIRECTION('',(0.,0.,-1.));
#985=DIRECTION('',(0.,1.,0.));
#986=DIRECTION('',(0.,0.,1.));
#987=DIRECTION('',(0.,-1.,0.));
#988=DIRECTION('',(0.,1.,0.));
#989=DIRECTION('',(0.,0.,1.));
#990=DIRECTION('',(0.,-1.,0.));
#991=DIRECTION('',(0.,0.,-1.));
#992=DIRECTION('',(0.,1.,0.));
#993=DIRECTION('',(0.,0.,1.));
#994=DIRECTION('',(0.,-1.,0.));
#995=DIRECTION('',(0.,1.,0.));
#996=DIRECTION('',(0.,0.,1.));
#997=DIRECTION('',(0.,-1.,0.));
#998=DIRECTION('',(0.,-1.,0.));
#999=DIRECTION('',(0.,0.,-1.));
#1000=DIRECTION('',(0.,1.,0.));
#1001=DIRECTION('',(0.,0.,1.));
#1002=DIRECTION('',(0.,-1.,0.));
#1003=DIRECTION('',(0.,1.,0.));
#1004=DIRECTION('',(0.,0.,1.));
#1005=DIRECTION('',(0.,-1.,0.));
#1006=DIRECTION('',(0.,0.,-1.));
#1007=DIRECTION('',(0.,1.,0.));
#1008=DIRECTION('',(0.,0.,1.));
#1009=DIRECTION('',(0.,-1.,0.));
#1010=DIRECTION('',(0.,1.,0.));
#1011=DIRECTION('',(0.,0.,1.));
#1012=DIRECTION('',(-0.258227860324319,0.,-0.966084039901459));
#1013=DIRECTION('',(-0.966084039901459,0.,0.258227860324319));
#1014=DIRECTION('',(0.966084039901459,0.,-0.258227860324319));
#1015=DIRECTION('',(0.,-1.,0.));
#1016=DIRECTION('',(0.966084039901459,0.,-0.258227860324319));
#1017=DIRECTION('',(0.,-1.,0.));
#1018=DIRECTION('',(0.,0.,-1.));
#1019=DIRECTION('',(0.,1.,0.));
#1020=DIRECTION('',(0.,0.,1.));
#1021=DIRECTION('',(0.,-1.,0.));
#1022=DIRECTION('',(0.,1.,0.));
#1023=DIRECTION('',(0.,0.,1.));
#1024=DIRECTION('',(0.,-1.,0.));
#1025=DIRECTION('',(0.93008638069971,0.,-0.367340883154753));
#1026=DIRECTION('',(-0.367340883154753,0.,-0.93008638069971));
#1027=DIRECTION('',(0.367340883154753,0.,0.93008638069971));
#1028=DIRECTION('',(0.,-1.,0.));
#1029=DIRECTION('',(0.367340883154753,0.,0.93008638069971));
#1030=DIRECTION('',(0.,-1.,0.));
#1031=DIRECTION('',(0.,0.,-1.));
#1032=DIRECTION('',(0.,1.,0.));
#1033=DIRECTION('',(0.,0.,1.));
#1034=DIRECTION('',(0.,-1.,0.));
#1035=DIRECTION('',(0.,1.,0.));
#1036=DIRECTION('',(0.,0.,1.));
#1037=DIRECTION('',(0.471604461471475,0.,0.881810201755571));
#1038=DIRECTION('',(0.881810201755571,0.,-0.471604461471475));
#1039=DIRECTION('',(-0.881810201755571,0.,0.471604461471475));
#1040=DIRECTION('',(0.,-1.,0.));
#1041=DIRECTION('',(-0.881810201755571,0.,0.471604461471475));
#1042=DIRECTION('',(0.,-1.,0.));
#1043=DIRECTION('',(0.,-1.,0.));
#1044=DIRECTION('',(0.,0.,-1.));
#1045=DIRECTION('',(0.,1.,0.));
#1046=DIRECTION('',(0.,0.,1.));
#1047=DIRECTION('',(0.,-1.,0.));
#1048=DIRECTION('',(0.,1.,0.));
#1049=DIRECTION('',(0.,0.,1.));
#1050=DIRECTION('',(0.,-1.,0.));
#1051=DIRECTION('',(0.,0.,-1.));
#1052=DIRECTION('',(0.,1.,0.));
#1053=DIRECTION('',(0.,0.,1.));
#1054=DIRECTION('',(0.,-1.,0.));
#1055=DIRECTION('',(0.,1.,0.));
#1056=DIRECTION('',(0.,0.,1.));
#1057=DIRECTION('',(0.,-1.,0.));
#1058=DIRECTION('',(0.,0.,-1.));
#1059=DIRECTION('',(0.,1.,0.));
#1060=DIRECTION('',(0.,0.,1.));
#1061=DIRECTION('',(0.,-1.,0.));
#1062=DIRECTION('',(0.,1.,0.));
#1063=DIRECTION('',(0.,0.,1.));
#1064=DIRECTION('',(-0.649448048330184,0.,-0.76040596560003));
#1065=DIRECTION('',(-0.76040596560003,0.,0.649448048330184));
#1066=DIRECTION('',(0.76040596560003,0.,-0.649448048330184));
#1067=DIRECTION('',(0.,-1.,0.));
#1068=DIRECTION('',(0.76040596560003,0.,-0.649448048330184));
#1069=DIRECTION('',(0.,-1.,0.));
#1070=DIRECTION('',(0.,0.,-1.));
#1071=DIRECTION('',(0.,1.,0.));
#1072=DIRECTION('',(0.,0.,1.));
#1073=DIRECTION('',(0.,-1.,0.));
#1074=DIRECTION('',(0.,1.,0.));
#1075=DIRECTION('',(0.,0.,1.));
#1076=DIRECTION('',(0.,-1.,0.));
#1077=DIRECTION('',(0.,0.,-1.));
#1078=DIRECTION('',(0.,1.,0.));
#1079=DIRECTION('',(0.,0.,1.));
#1080=DIRECTION('',(0.,-1.,0.));
#1081=DIRECTION('',(0.,1.,0.));
#1082=DIRECTION('',(0.,0.,1.));
#1083=DIRECTION('',(0.390731128489274,0.,0.92050485345244));
#1084=DIRECTION('',(0.92050485345244,0.,-0.390731128489274));
#1085=DIRECTION('',(-0.92050485345244,0.,0.390731128489274));
#1086=DIRECTION('',(0.,-1.,0.));
#1087=DIRECTION('',(-0.92050485345244,0.,0.390731128489274));
#1088=DIRECTION('',(0.,-1.,0.));
#1089=DIRECTION('',(0.,0.,-1.));
#1090=DIRECTION('',(0.,1.,0.));
#1091=DIRECTION('',(0.,0.,1.));
#1092=DIRECTION('',(0.,-1.,0.));
#1093=DIRECTION('',(0.,1.,0.));
#1094=DIRECTION('',(0.,0.,1.));
#1095=DIRECTION('',(0.469471562785891,0.,0.882947592858927));
#1096=DIRECTION('',(0.882947592858927,0.,-0.469471562785891));
#1097=DIRECTION('',(-0.882947592858927,0.,0.469471562785891));
#1098=DIRECTION('',(0.,-1.,0.));
#1099=DIRECTION('',(-0.882947592858927,0.,0.469471562785891));
#1100=DIRECTION('',(0.,-1.,0.));
#1101=DIRECTION('',(0.,0.,-1.));
#1102=DIRECTION('',(0.,1.,0.));
#1103=DIRECTION('',(0.,0.,1.));
#1104=DIRECTION('',(0.,-1.,0.));
#1105=DIRECTION('',(0.,1.,0.));
#1106=DIRECTION('',(0.,0.,1.));
#1107=DIRECTION('',(0.,-1.,0.));
#1108=DIRECTION('',(0.,0.,-1.));
#1109=DIRECTION('',(0.,1.,0.));
#1110=DIRECTION('',(0.,0.,1.));
#1111=DIRECTION('',(0.,-1.,0.));
#1112=DIRECTION('',(0.,1.,0.));
#1113=DIRECTION('',(0.,0.,1.));
#1114=DIRECTION('',(-0.139173100960065,0.,-0.99026806874157));
#1115=DIRECTION('',(-0.99026806874157,0.,0.139173100960065));
#1116=DIRECTION('',(0.99026806874157,0.,-0.139173100960065));
#1117=DIRECTION('',(0.,-1.,0.));
#1118=DIRECTION('',(0.99026806874157,0.,-0.139173100960065));
#1119=DIRECTION('',(0.,-1.,0.));
#1120=DIRECTION('',(0.,0.,-1.));
#1121=DIRECTION('',(0.,1.,0.));
#1122=DIRECTION('',(0.,0.,1.));
#1123=DIRECTION('',(0.,-1.,0.));
#1124=DIRECTION('',(0.,1.,0.));
#1125=DIRECTION('',(0.,0.,1.));
#1126=DIRECTION('',(0.,-1.,0.));
#1127=DIRECTION('',(0.,0.,-1.));
#1128=DIRECTION('',(0.,1.,0.));
#1129=DIRECTION('',(0.,0.,1.));
#1130=DIRECTION('',(0.,-1.,0.));
#1131=DIRECTION('',(0.,1.,0.));
#1132=DIRECTION('',(0.,0.,1.));
#1133=DIRECTION('',(-0.224951054343865,0.,-0.974370064785235));
#1134=DIRECTION('',(-0.974370064785235,0.,0.224951054343865));
#1135=DIRECTION('',(0.974370064785235,0.,-0.224951054343865));
#1136=DIRECTION('',(0.,-1.,0.));
#1137=DIRECTION('',(0.974370064785235,0.,-0.224951054343865));
#1138=DIRECTION('',(0.,-1.,0.));
#1139=DIRECTION('',(0.,0.,-1.));
#1140=DIRECTION('',(0.,1.,0.));
#1141=DIRECTION('',(0.,0.,1.));
#1142=DIRECTION('',(0.,-1.,0.));
#1143=DIRECTION('',(0.,1.,0.));
#1144=DIRECTION('',(0.,0.,1.));
#1145=DIRECTION('',(0.,-1.,0.));
#1146=DIRECTION('',(0.,0.,-1.));
#1147=DIRECTION('',(0.,1.,0.));
#1148=DIRECTION('',(0.,0.,1.));
#1149=DIRECTION('',(0.,-1.,0.));
#1150=DIRECTION('',(0.,1.,0.));
#1151=DIRECTION('',(0.,0.,1.));
#1152=DIRECTION('',(0.139173100960065,0.,0.99026806874157));
#1153=DIRECTION('',(0.99026806874157,0.,-0.139173100960065));
#1154=DIRECTION('',(-0.99026806874157,0.,0.139173100960065));
#1155=DIRECTION('',(0.,-1.,0.));
#1156=DIRECTION('',(-0.99026806874157,0.,0.139173100960065));
#1157=DIRECTION('',(0.,-1.,0.));
#1158=DIRECTION('',(0.,0.,-1.));
#1159=DIRECTION('',(0.,-1.,0.));
#1160=DIRECTION('',(0.,0.,1.));
#1161=DIRECTION('',(0.,-1.,0.));
#1162=DIRECTION('',(0.,0.,1.));
#1163=DIRECTION('',(0.,-1.,0.));
#1164=DIRECTION('',(0.,0.,-1.));
#1165=DIRECTION('',(0.,1.,0.));
#1166=DIRECTION('',(0.,0.,1.));
#1167=DIRECTION('',(0.,1.,0.));
#1168=DIRECTION('',(0.,0.,1.));
#1169=DIRECTION('',(0.,1.,0.));
#1170=DIRECTION('',(-1.,0.,0.));
#1171=DIRECTION('',(0.,1.,0.));
#1172=DIRECTION('',(0.,0.,1.));
#1173=DIRECTION('',(0.,1.,0.));
#1174=DIRECTION('',(0.,0.,1.));
#1175=DIRECTION('',(0.,1.,0.));
#1176=DIRECTION('',(-1.,0.,0.));
#1177=DIRECTION('',(0.,1.,0.));
#1178=DIRECTION('',(0.,0.,1.));
#1179=DIRECTION('',(0.,1.,0.));
#1180=DIRECTION('',(0.,0.,1.));
#1181=DIRECTION('',(0.974407019210772,0.,-0.224790927114015));
#1182=DIRECTION('',(0.,1.,0.));
#1183=DIRECTION('',(0.,0.,1.));
#1184=DIRECTION('',(-0.881810201755571,0.,0.471604461471475));
#1185=DIRECTION('',(0.,1.,0.));
#1186=DIRECTION('',(0.,0.,1.));
#1187=DIRECTION('',(0.,1.,0.));
#1188=DIRECTION('',(0.,0.,1.));
#1189=DIRECTION('',(0.,1.,0.));
#1190=DIRECTION('',(0.,0.,1.));
#1191=DIRECTION('',(0.,1.,0.));
#1192=DIRECTION('',(0.,0.,1.));
#1193=DIRECTION('',(0.,1.,0.));
#1194=DIRECTION('',(0.,1.,0.));
#1195=DIRECTION('',(0.,0.,1.));
#1196=DIRECTION('',(0.,1.,0.));
#1197=DIRECTION('',(-0.471604461471475,0.,-0.881810201755571));
#1198=DIRECTION('',(-0.881810201755571,0.,0.471604461471475));
#1199=DIRECTION('',(-0.881810201755571,0.,0.471604461471475));
#1200=DIRECTION('',(0.,1.,0.));
#1201=DIRECTION('',(0.,1.,0.));
#1202=DIRECTION('',(0.,0.,1.));
#1203=DIRECTION('',(0.,1.,0.));
#1204=DIRECTION('',(0.,0.,1.));
#1205=DIRECTION('',(0.,1.,0.));
#1206=DIRECTION('',(0.224790927114015,0.,0.974407019210772));
#1207=DIRECTION('',(0.974407019210772,0.,-0.224790927114015));
#1208=DIRECTION('',(0.974407019210772,0.,-0.224790927114015));
#1209=DIRECTION('',(0.,1.,0.));
#1210=DIRECTION('',(-1.,0.,0.));
#1211=DIRECTION('',(0.,1.,0.));
#1212=DIRECTION('',(0.,0.,1.));
#1213=DIRECTION('',(0.,1.,0.));
#1214=DIRECTION('',(0.,0.,1.));
#1215=DIRECTION('',(0.,1.,0.));
#1216=DIRECTION('',(-1.,0.,0.));
#1217=DIRECTION('',(0.,1.,0.));
#1218=DIRECTION('',(0.,0.,1.));
#1219=DIRECTION('',(0.,1.,0.));
#1220=DIRECTION('',(0.,0.,1.));
#1221=DIRECTION('',(0.,1.,0.));
#1222=DIRECTION('',(-1.,0.,0.));
#1223=DIRECTION('',(0.,-1.,0.));
#1224=DIRECTION('',(0.,0.,-1.));
#1225=DIRECTION('',(0.,-1.,0.));
#1226=DIRECTION('',(0.,0.,-1.));
#1227=CARTESIAN_POINT('',(0.,0.,0.));
#1228=CARTESIAN_POINT('',(0.0697775831058635,0.077,-0.0418581932688243));
#1229=CARTESIAN_POINT('',(0.0697775831058635,0.067,-0.0418581932688243));
#1230=CARTESIAN_POINT('',(0.0656840613106319,0.067,-0.0396816291215879));
#1231=CARTESIAN_POINT('',(0.0738711049010951,0.067,-0.0440347574160608));
#1232=CARTESIAN_POINT('',(0.0656840613106319,0.077,-0.0396816291215879));
#1233=CARTESIAN_POINT('',(0.0656840613106319,0.077,-0.0396816291215879));
#1234=CARTESIAN_POINT('',(0.0697775831058635,0.077,-0.0418581932688243));
#1235=CARTESIAN_POINT('',(0.0738711049010951,0.077,-0.0440347574160608));
#1236=CARTESIAN_POINT('',(0.0738711049010951,0.077,-0.0440347574160608));
#1237=CARTESIAN_POINT('',(9.0275009689833E-15,0.077,-2.91086599268909E-15));
#1238=CARTESIAN_POINT('',(9.0275009689833E-15,0.067,-2.91086599268909E-15));
#1239=CARTESIAN_POINT('',(0.0638287826725896,0.067,-0.0426018086768322));
#1240=CARTESIAN_POINT('',(0.0638287826725896,0.077,-0.0426018086768322));
#1241=CARTESIAN_POINT('',(0.0638287826725896,0.077,-0.0426018086768322));
#1242=CARTESIAN_POINT('',(9.0275009689833E-15,0.077,-2.91086599268909E-15));
#1243=CARTESIAN_POINT('',(0.0646605364212436,0.077,-0.0431569534341458));
#1244=CARTESIAN_POINT('',(0.0646605364212436,0.067,-0.0431569534341458));
#1245=CARTESIAN_POINT('',(0.0640110883729135,0.067,-0.0439173593997458));
#1246=CARTESIAN_POINT('',(0.0640110883729135,0.077,-0.0439173593997458));
#1247=CARTESIAN_POINT('',(0.0640110883729135,0.077,-0.0439173593997458));
#1248=CARTESIAN_POINT('',(0.0646605364212436,0.077,-0.0431569534341458));
#1249=CARTESIAN_POINT('',(0.0667891216311819,0.077,-0.046290023949208));
#1250=CARTESIAN_POINT('',(0.0667891216311819,0.067,-0.046290023949208));
#1251=CARTESIAN_POINT('',(0.0695671548894503,0.067,-0.0486626884986702));
#1252=CARTESIAN_POINT('',(0.0695671548894503,0.077,-0.0486626884986702));
#1253=CARTESIAN_POINT('',(0.0695671548894503,0.077,-0.0486626884986702));
#1254=CARTESIAN_POINT('',(0.0667891216311819,0.077,-0.046290023949208));
#1255=CARTESIAN_POINT('',(0.0702166029377805,0.077,-0.0479022825330702));
#1256=CARTESIAN_POINT('',(0.0702166029377805,0.067,-0.0479022825330702));
#1257=CARTESIAN_POINT('',(0.0710426806194013,0.067,-0.0484658387981651));
#1258=CARTESIAN_POINT('',(0.0710426806194013,0.077,-0.0484658387981651));
#1259=CARTESIAN_POINT('',(0.0710426806194013,0.077,-0.0484658387981651));
#1260=CARTESIAN_POINT('',(0.0702166029377805,0.077,-0.0479022825330702));
#1261=CARTESIAN_POINT('',(0.0892650116541097,0.077,-0.00759058092825833));
#1262=CARTESIAN_POINT('',(0.0892650116541097,0.067,-0.00759058092825833));
#1263=CARTESIAN_POINT('',(0.0887103845369089,0.067,-0.0151811618565167));
#1264=CARTESIAN_POINT('',(0.0816568153091862,0.067,-0.00739088504781433));
#1265=CARTESIAN_POINT('',(0.0887103845369089,0.077,-0.0151811618565167));
#1266=CARTESIAN_POINT('',(0.0887103845369089,0.077,-0.0151811618565167));
#1267=CARTESIAN_POINT('',(0.0892650116541097,0.077,-0.00759058092825833));
#1268=CARTESIAN_POINT('',(0.0816568153091862,0.077,-0.00739088504781433));
#1269=CARTESIAN_POINT('',(0.0816568153091862,0.077,-0.00739088504781433));
#1270=CARTESIAN_POINT('',(0.10060381350318,0.077,-0.0172165049689212));
#1271=CARTESIAN_POINT('',(0.10060381350318,0.067,-0.0172165049689212));
#1272=CARTESIAN_POINT('',(0.0930123874090298,0.067,-0.0265955520430119));
#1273=CARTESIAN_POINT('',(0.0930123874090298,0.077,-0.0265955520430119));
#1274=CARTESIAN_POINT('',(0.0930123874090298,0.077,-0.0265955520430119));
#1275=CARTESIAN_POINT('',(0.10060381350318,0.077,-0.0172165049689212));
#1276=CARTESIAN_POINT('',(0.0987064268923593,0.077,-0.0160325072943476));
#1277=CARTESIAN_POINT('',(0.0987064268923593,0.067,-0.0160325072943476));
#1278=CARTESIAN_POINT('',(0.0956076925684675,0.067,-0.027625515773165));
#1279=CARTESIAN_POINT('',(0.0956076925684675,0.077,-0.027625515773165));
#1280=CARTESIAN_POINT('',(0.0956076925684675,0.077,-0.027625515773165));
#1281=CARTESIAN_POINT('',(0.0987064268923593,0.077,-0.0160325072943476));
#1282=CARTESIAN_POINT('',(0.0971639514697325,0.077,-0.0280414934620474));
#1283=CARTESIAN_POINT('',(0.0971639514697325,0.067,-0.0280414934620474));
#1284=CARTESIAN_POINT('',(0.0967301011941744,0.067,-0.0279255281591014));
#1285=CARTESIAN_POINT('',(0.0967301011941744,0.077,-0.0279255281591014));
#1286=CARTESIAN_POINT('',(0.0967301011941744,0.077,-0.0279255281591014));
#1287=CARTESIAN_POINT('',(0.0971639514697325,0.077,-0.0280414934620474));
#1288=CARTESIAN_POINT('',(7.8756445809347E-15,0.077,-2.62637134262889E-15));
#1289=CARTESIAN_POINT('',(7.8756445809347E-15,0.077,-2.62637134262889E-15));
#1290=CARTESIAN_POINT('',(0.0981237833626171,0.077,-0.0304504636845844));
#1291=CARTESIAN_POINT('',(0.0966182906072145,0.077,-0.034934417415206));
#1292=CARTESIAN_POINT('',(0.0981237833626171,0.077,-0.0304504636845844));
#1293=CARTESIAN_POINT('',(0.0981237833626171,0.067,-0.0304504636845844));
#1294=CARTESIAN_POINT('',(7.8756445809347E-15,0.067,-2.62637134262889E-15));
#1295=CARTESIAN_POINT('',(0.0966182906072145,0.067,-0.034934417415206));
#1296=CARTESIAN_POINT('',(0.0966182906072145,0.077,-0.034934417415206));
#1297=CARTESIAN_POINT('',(0.0955163332176967,0.077,-0.0377245113228045));
#1298=CARTESIAN_POINT('',(0.0955163332176967,0.067,-0.0377245113228045));
#1299=CARTESIAN_POINT('',(0.0944143758281789,0.067,-0.040514605230403));
#1300=CARTESIAN_POINT('',(0.0944143758281789,0.077,-0.040514605230403));
#1301=CARTESIAN_POINT('',(0.0944143758281789,0.077,-0.040514605230403));
#1302=CARTESIAN_POINT('',(0.0955163332176967,0.077,-0.0377245113228045));
#1303=CARTESIAN_POINT('',(1.79023462720806E-15,0.077,-1.25940924355916E-15));
#1304=CARTESIAN_POINT('',(1.79023462720806E-15,0.067,-1.25940924355916E-15));
#1305=CARTESIAN_POINT('',(0.0924496041576107,0.067,-0.0448171651390525));
#1306=CARTESIAN_POINT('',(0.0924496041576107,0.077,-0.0448171651390525));
#1307=CARTESIAN_POINT('',(0.0924496041576107,0.077,-0.0448171651390525));
#1308=CARTESIAN_POINT('',(1.79023462720806E-15,0.077,-1.25940924355916E-15));
#1309=CARTESIAN_POINT('',(0.090102718877069,0.077,-0.0459201357985194));
#1310=CARTESIAN_POINT('',(0.090102718877069,0.077,-0.0459201357985194));
#1311=CARTESIAN_POINT('',(0.0897067144062151,0.077,-0.0457083470543594));
#1312=CARTESIAN_POINT('',(0.0886822161888677,0.077,-0.0451604310412438));
#1313=CARTESIAN_POINT('',(0.0897067144062151,0.077,-0.0457083470543594));
#1314=CARTESIAN_POINT('',(0.0897067144062151,0.067,-0.0457083470543594));
#1315=CARTESIAN_POINT('',(0.090102718877069,0.067,-0.0459201357985194));
#1316=CARTESIAN_POINT('',(0.0886822161888677,0.067,-0.0451604310412438));
#1317=CARTESIAN_POINT('',(0.0886822161888677,0.077,-0.0451604310412438));
#1318=CARTESIAN_POINT('',(0.0830229626512101,0.077,-0.0557421534623104));
#1319=CARTESIAN_POINT('',(0.0830229626512101,0.067,-0.0557421534623104));
#1320=CARTESIAN_POINT('',(0.0860835362329424,0.067,-0.0441390121052986));
#1321=CARTESIAN_POINT('',(0.0860835362329424,0.077,-0.0441390121052986));
#1322=CARTESIAN_POINT('',(0.0860835362329424,0.077,-0.0441390121052986));
#1323=CARTESIAN_POINT('',(0.0830229626512101,0.077,-0.0557421534623104));
#1324=CARTESIAN_POINT('',(0.0868389984566332,0.077,-0.0592422029109628));
#1325=CARTESIAN_POINT('',(0.0868389984566332,0.067,-0.0592422029109628));
#1326=CARTESIAN_POINT('',(0.0743469913458852,0.067,-0.0507200638585449));
#1327=CARTESIAN_POINT('',(0.0743469913458852,0.077,-0.0507200638585449));
#1328=CARTESIAN_POINT('',(0.0743469913458852,0.077,-0.0507200638585449));
#1329=CARTESIAN_POINT('',(0.0868389984566332,0.077,-0.0592422029109628));
#1330=CARTESIAN_POINT('',(0.0702166029377804,0.077,-0.0479022825330702));
#1331=CARTESIAN_POINT('',(0.0702166029377804,0.067,-0.0479022825330702));
#1332=CARTESIAN_POINT('',(0.0669693626961295,0.067,-0.0517043123610704));
#1333=CARTESIAN_POINT('',(0.0669693626961295,0.077,-0.0517043123610704));
#1334=CARTESIAN_POINT('',(0.0669693626961295,0.077,-0.0517043123610704));
#1335=CARTESIAN_POINT('',(0.0702166029377804,0.077,-0.0479022825330702));
#1336=CARTESIAN_POINT('',(0.0645043811165852,0.077,-0.0495990192039583));
#1337=CARTESIAN_POINT('',(0.0645043811165852,0.067,-0.0495990192039583));
#1338=CARTESIAN_POINT('',(0.0614132961795927,0.067,-0.046958983262146));
#1339=CARTESIAN_POINT('',(0.0614132961795927,0.077,-0.046958983262146));
#1340=CARTESIAN_POINT('',(0.0614132961795927,0.077,-0.046958983262146));
#1341=CARTESIAN_POINT('',(0.0645043811165852,0.077,-0.0495990192039583));
#1342=CARTESIAN_POINT('',(0.0646605364212436,0.077,-0.0431569534341458));
#1343=CARTESIAN_POINT('',(0.0646605364212436,0.067,-0.0431569534341458));
#1344=CARTESIAN_POINT('',(0.0605017676779169,0.067,-0.0403812296475401));
#1345=CARTESIAN_POINT('',(0.0605017676779169,0.077,-0.0403812296475401));
#1346=CARTESIAN_POINT('',(0.0605017676779169,0.077,-0.0403812296475401));
#1347=CARTESIAN_POINT('',(0.0646605364212436,0.077,-0.0431569534341458));
#1348=CARTESIAN_POINT('',(-8.15320033709099E-16,0.077,4.57966997657877E-16));
#1349=CARTESIAN_POINT('',(-8.15320033709099E-16,0.067,4.57966997657877E-16));
#1350=CARTESIAN_POINT('',(0.0668791237194112,0.067,-0.0286057758245375));
#1351=CARTESIAN_POINT('',(0.0668791237194112,0.077,-0.0286057758245375));
#1352=CARTESIAN_POINT('',(0.0668791237194112,0.077,-0.0286057758245375));
#1353=CARTESIAN_POINT('',(-8.15320033709099E-16,0.077,4.57966997657877E-16));
#1354=CARTESIAN_POINT('',(0.0689962924091239,0.077,-0.0295044606149881));
#1355=CARTESIAN_POINT('',(0.0689962924091239,0.067,-0.0295044606149881));
#1356=CARTESIAN_POINT('',(0.0711134610988367,0.067,-0.0304031454054387));
#1357=CARTESIAN_POINT('',(0.0711134610988367,0.077,-0.0304031454054387));
#1358=CARTESIAN_POINT('',(0.0711134610988367,0.077,-0.0304031454054387));
#1359=CARTESIAN_POINT('',(0.0689962924091239,0.077,-0.0295044606149881));
#1360=CARTESIAN_POINT('',(-4.48252546192407E-15,0.077,2.08860706507607E-15));
#1361=CARTESIAN_POINT('',(-4.48252546192407E-15,0.067,2.08860706507607E-15));
#1362=CARTESIAN_POINT('',(0.0681930441899387,0.067,-0.0364853987796362));
#1363=CARTESIAN_POINT('',(0.0681930441899387,0.077,-0.0364853987796362));
#1364=CARTESIAN_POINT('',(0.0681930441899387,0.077,-0.0364853987796362));
#1365=CARTESIAN_POINT('',(-4.48252546192407E-15,0.077,2.08860706507607E-15));
#1366=CARTESIAN_POINT('',(0.0705770101415973,0.077,-0.0377529759608929));
#1367=CARTESIAN_POINT('',(0.0705770101415973,0.067,-0.0377529759608929));
#1368=CARTESIAN_POINT('',(0.072960976093256,0.067,-0.0390205531421497));
#1369=CARTESIAN_POINT('',(0.072960976093256,0.077,-0.0390205531421497));
#1370=CARTESIAN_POINT('',(0.072960976093256,0.077,-0.0390205531421497));
#1371=CARTESIAN_POINT('',(0.0705770101415973,0.077,-0.0377529759608929));
#1372=CARTESIAN_POINT('',(5.99520433297585E-15,0.077,-1.14925430283463E-15));
#1373=CARTESIAN_POINT('',(5.99520433297585E-15,0.067,-1.14925430283463E-15));
#1374=CARTESIAN_POINT('',(0.0816235642860999,0.067,-0.0135462671327902));
#1375=CARTESIAN_POINT('',(0.0816235642860999,0.077,-0.0135462671327902));
#1376=CARTESIAN_POINT('',(0.0816235642860999,0.077,-0.0135462671327902));
#1377=CARTESIAN_POINT('',(5.99520433297585E-15,0.077,-1.14925430283463E-15));
#1378=CARTESIAN_POINT('',(0.0794532495480117,0.077,-0.0131860811563322));
#1379=CARTESIAN_POINT('',(0.0794532495480117,0.067,-0.0131860811563322));
#1380=CARTESIAN_POINT('',(0.0797594303701238,0.067,-0.0110074914051007));
#1381=CARTESIAN_POINT('',(0.0797594303701238,0.077,-0.0110074914051007));
#1382=CARTESIAN_POINT('',(0.0797594303701238,0.077,-0.0110074914051007));
#1383=CARTESIAN_POINT('',(0.0794532495480117,0.077,-0.0131860811563322));
#1384=CARTESIAN_POINT('',(0.078187170672313,0.077,-0.0107865247148015));
#1385=CARTESIAN_POINT('',(0.078187170672313,0.067,-0.0107865247148015));
#1386=CARTESIAN_POINT('',(0.0766149109745021,0.067,-0.0105655580245022));
#1387=CARTESIAN_POINT('',(0.0766149109745021,0.077,-0.0105655580245022));
#1388=CARTESIAN_POINT('',(0.0766149109745021,0.077,-0.0105655580245022));
#1389=CARTESIAN_POINT('',(0.078187170672313,0.077,-0.0107865247148015));
#1390=CARTESIAN_POINT('',(2.57432963834958E-15,0.077,-5.1087606367517E-16));
#1391=CARTESIAN_POINT('',(2.57432963834958E-15,0.067,-5.1087606367517E-16));
#1392=CARTESIAN_POINT('',(0.0755786511582601,0.067,-0.0164116753897273));
#1393=CARTESIAN_POINT('',(0.0755786511582601,0.077,-0.0164116753897273));
#1394=CARTESIAN_POINT('',(0.0755786511582601,0.077,-0.0164116753897273));
#1395=CARTESIAN_POINT('',(2.57432963834958E-15,0.077,-5.1087606367517E-16));
#1396=CARTESIAN_POINT('',(0.0747968704377211,0.077,-0.0162419140720164));
#1397=CARTESIAN_POINT('',(0.0747968704377211,0.067,-0.0162419140720164));
#1398=CARTESIAN_POINT('',(0.074616909594246,0.067,-0.0170214101238446));
#1399=CARTESIAN_POINT('',(0.074616909594246,0.077,-0.0170214101238446));
#1400=CARTESIAN_POINT('',(0.074616909594246,0.077,-0.0170214101238446));
#1401=CARTESIAN_POINT('',(0.0747968704377211,0.077,-0.0162419140720164));
#1402=CARTESIAN_POINT('',(0.072768655206101,0.077,-0.0165947069765137));
#1403=CARTESIAN_POINT('',(0.072768655206101,0.067,-0.0165947069765137));
#1404=CARTESIAN_POINT('',(0.070920400817956,0.067,-0.0161680038291827));
#1405=CARTESIAN_POINT('',(0.070920400817956,0.077,-0.0161680038291827));
#1406=CARTESIAN_POINT('',(0.070920400817956,0.077,-0.0161680038291827));
#1407=CARTESIAN_POINT('',(0.072768655206101,0.077,-0.0165947069765137));
#1408=CARTESIAN_POINT('',(-3.46944695195361E-17,0.077,3.46944695195361E-18));
#1409=CARTESIAN_POINT('',(-3.46944695195361E-17,0.067,3.46944695195361E-18));
#1410=CARTESIAN_POINT('',(0.0720730269442173,0.067,-0.00982783735610889));
#1411=CARTESIAN_POINT('',(0.0720730269442173,0.077,-0.00982783735610889));
#1412=CARTESIAN_POINT('',(0.0720730269442173,0.077,-0.00982783735610889));
#1413=CARTESIAN_POINT('',(-3.46944695195361E-17,0.077,3.46944695195361E-18));
#1414=CARTESIAN_POINT('',(0.0759230237414443,0.077,-0.0103528207507146));
#1415=CARTESIAN_POINT('',(0.0759230237414443,0.067,-0.0103528207507146));
#1416=CARTESIAN_POINT('',(0.0764637982444747,0.067,-0.00650501022521542));
#1417=CARTESIAN_POINT('',(0.0764637982444747,0.077,-0.00650501022521542));
#1418=CARTESIAN_POINT('',(0.0764637982444747,0.077,-0.00650501022521542));
#1419=CARTESIAN_POINT('',(0.0759230237414443,0.077,-0.0103528207507146));
#1420=CARTESIAN_POINT('',(0.0783899605092194,0.077,-0.00677571467767489));
#1421=CARTESIAN_POINT('',(0.0783899605092194,0.067,-0.00677571467767489));
#1422=CARTESIAN_POINT('',(0.0803161227739641,0.067,-0.00704641913013437));
#1423=CARTESIAN_POINT('',(0.0803161227739641,0.077,-0.00704641913013437));
#1424=CARTESIAN_POINT('',(0.0803161227739641,0.077,-0.00704641913013437));
#1425=CARTESIAN_POINT('',(0.0783899605092194,0.077,-0.00677571467767489));
#1426=CARTESIAN_POINT('',(0.0794532495480117,0.077,-0.0131860811563322));
#1427=CARTESIAN_POINT('',(0.0794532495480117,0.067,-0.0131860811563322));
#1428=CARTESIAN_POINT('',(0.0794532495480117,0.077,-0.0131860811563322));
#1429=CARTESIAN_POINT('',(5.97438765126412E-15,0.077,-8.6389229103645E-16));
#1430=CARTESIAN_POINT('',(5.97438765126412E-15,0.067,-8.6389229103645E-16));
#1431=CARTESIAN_POINT('',(5.97438765126412E-15,0.077,-8.6389229103645E-16));
#1432=CARTESIAN_POINT('',(0.0847755114175733,0.077,-0.00895114126653511));
#1433=CARTESIAN_POINT('',(0.0962136454735258,0.077,-0.0298576962389043));
#1434=CARTESIAN_POINT('',(0.0906499233291581,0.077,-0.0439447266508482));
#1435=CARTESIAN_POINT('',(0.0847755114175733,0.067,-0.00895114126653511));
#1436=CARTESIAN_POINT('',(0.090183714615355,0.067,-0.042355192533738));
#1437=CARTESIAN_POINT('',(0.090183714615355,0.067,-0.040455192533738));
#1438=CARTESIAN_POINT('',(0.0947871000503215,0.067,-0.0306996804615209));
#1439=CARTESIAN_POINT('',(0.0947871000503215,0.067,-0.0287996804615209));
#1440=CARTESIAN_POINT('',(0.0847732930426575,0.067,-0.0165306775383101));
#1441=CARTESIAN_POINT('',(0.0833790780458318,0.067,-0.0162090389667956));
#1442=CARTESIAN_POINT('',(0.0861675080394832,0.067,-0.0168523161098247));
#1443=CARTESIAN_POINT('',(7.84095011141517E-16,0.067,-6.52256026967279E-16));
#1444=CARTESIAN_POINT('',(0.0784361566939689,0.067,-0.0394538885672758));
#1445=CARTESIAN_POINT('',(0.0771747587210677,0.067,-0.0387792752428586));
#1446=CARTESIAN_POINT('',(0.0759133607481672,0.067,-0.0381046619184418));
#1447=CARTESIAN_POINT('',(-1.14491749414469E-15,0.067,2.4459601011273E-16));
#1448=CARTESIAN_POINT('',(0.0962136454735258,0.067,-0.0298576962389043));
#1449=CARTESIAN_POINT('',(0.0906499233291581,0.067,-0.0439447266508482));
#1450=CARTESIAN_POINT('',(7.84095011141517E-16,0.058,-6.52256026967279E-16));
#1451=CARTESIAN_POINT('',(0.0861675080394832,0.058,-0.0168523161098247));
#1452=CARTESIAN_POINT('',(0.0861675080394832,0.058,-0.0168523161098247));
#1453=CARTESIAN_POINT('',(7.84095011141517E-16,0.058,-6.52256026967279E-16));
#1454=CARTESIAN_POINT('',(0.0784361566939689,0.058,-0.0394538885672758));
#1455=CARTESIAN_POINT('',(0.0784361566939689,0.058,-0.0394538885672758));
#1456=CARTESIAN_POINT('',(0.0771747587210677,0.058,-0.0387792752428586));
#1457=CARTESIAN_POINT('',(0.0771747587210677,0.058,-0.0387792752428586));
#1458=CARTESIAN_POINT('',(0.0759133607481672,0.058,-0.0381046619184418));
#1459=CARTESIAN_POINT('',(0.0759133607481672,0.058,-0.0381046619184418));
#1460=CARTESIAN_POINT('',(-1.14491749414469E-15,0.058,2.4459601011273E-16));
#1461=CARTESIAN_POINT('',(-1.14491749414469E-15,0.058,2.4459601011273E-16));
#1462=CARTESIAN_POINT('',(0.0833790780458318,0.058,-0.0162090389667956));
#1463=CARTESIAN_POINT('',(0.0833790780458318,0.058,-0.0162090389667956));
#1464=CARTESIAN_POINT('',(0.0847732930426575,0.058,-0.0165306775383101));
#1465=CARTESIAN_POINT('',(0.0847732930426575,0.058,-0.0165306775383101));
#1466=CARTESIAN_POINT('',(0.0847755114175733,0.058,-0.00895114126653511));
#1467=CARTESIAN_POINT('',(0.0947871000503215,0.058,-0.0306996804615209));
#1468=CARTESIAN_POINT('',(0.0947871000503215,0.058,-0.0306996804615209));
#1469=CARTESIAN_POINT('',(0.0947871000503215,0.058,-0.0287996804615209));
#1470=CARTESIAN_POINT('',(0.0847755114175733,0.058,-0.00895114126653511));
#1471=CARTESIAN_POINT('',(0.090183714615355,0.058,-0.042355192533738));
#1472=CARTESIAN_POINT('',(0.090183714615355,0.058,-0.042355192533738));
#1473=CARTESIAN_POINT('',(0.090183714615355,0.058,-0.040455192533738));
#1474=CARTESIAN_POINT('',(0.0847755114175733,0.058,-0.00895114126653511));
#1475=CARTESIAN_POINT('',(0.0962136454735258,0.077,-0.0298576962389043));
#1476=CARTESIAN_POINT('',(0.0906499233291581,0.077,-0.0439447266508482));
#1477=MECHANICAL_DESIGN_GEOMETRIC_PRESENTATION_REPRESENTATION('',(#842),
#1478);
#1478=(
GEOMETRIC_REPRESENTATION_CONTEXT(3)
GLOBAL_UNCERTAINTY_ASSIGNED_CONTEXT((#1479))
GLOBAL_UNIT_ASSIGNED_CONTEXT((#1482,#1481,#1480))
REPRESENTATION_CONTEXT('clip4','TOP_LEVEL_ASSEMBLY_PART')
);
#1479=UNCERTAINTY_MEASURE_WITH_UNIT(LENGTH_MEASURE(1.E-8),#1482,
'DISTANCE_ACCURACY_VALUE','Maximum Tolerance applied to model');
#1480=(
NAMED_UNIT(*)
SI_UNIT($,.STERADIAN.)
SOLID_ANGLE_UNIT()
);
#1481=(
NAMED_UNIT(*)
PLANE_ANGLE_UNIT()
SI_UNIT($,.RADIAN.)
);
#1482=(
LENGTH_UNIT()
NAMED_UNIT(*)
SI_UNIT($,.METRE.)
);
#1483=PRODUCT_DEFINITION_SHAPE('','',#1484);
#1484=PRODUCT_DEFINITION('','',#1486,#1485);
#1485=PRODUCT_DEFINITION_CONTEXT('',#1492,'design');
#1486=PRODUCT_DEFINITION_FORMATION_WITH_SPECIFIED_SOURCE('','',#1488,
 .NOT_KNOWN.);
#1487=PRODUCT_RELATED_PRODUCT_CATEGORY('','',(#1488));
#1488=PRODUCT('clip4','clip4','clip4',(#1490));
#1489=PRODUCT_CATEGORY('','');
#1490=PRODUCT_CONTEXT('',#1492,'mechanical');
#1491=APPLICATION_PROTOCOL_DEFINITION('international standard',
'ap242_managed_model_based_3d_engineering',2020,#1492);
#1492=APPLICATION_CONTEXT('managed model based 3d engineering');
ENDSEC;
END-ISO-10303-21;
