ISO-10303-21;
HEADER;
/* Generated by software containing ST-Developer
 * from STEP Tools, Inc. (www.steptools.com) 
 */
/* OPTION: using custom renumber hook */

FILE_DESCRIPTION(
/* description */ ('STEP AP242 Edition 2',
'CAx-IF Rec.Pracs.---Representation and Presentation of Product Manufa
cturing Information (PMI)---4.0---2014-10-13',
'CAx-IF Rec.Pracs.---3D Tessellated Geometry---0.4---2014-09-14','2;1',
'CAx-IF Rec.Pracs.---User Defined Attributes---1.5---2016-08-15'),
/* implementation_level */ '2;1');

FILE_NAME(
/* name */ 'landedConcept v4 parts - link_3',
/* time_stamp */ '2026-01-03T01:02:40Z',
/* author */ (''),
/* organization */ (''),
/* preprocessor_version */ 'ST-DEVELOPER v20',
/* originating_system */ 'ONSHAPE BY PTC INC, 1.208',
/* authorisation */ '  ');

FILE_SCHEMA (('AP242_MANAGED_MODEL_BASED_3D_ENGINEERING_MIM_LF { 1 0 10303 442 3 1 4 }'));
ENDSEC;

DATA;
#10=SHAPE_REPRESENTATION_RELATIONSHIP('','',#162,#11);
#11=ADVANCED_BREP_SHAPE_REPRESENTATION('',(#160),#269);
#12=PLANE('',#171);
#13=PLANE('',#172);
#14=PLANE('',#177);
#15=PLANE('',#178);
#16=PLANE('',#181);
#17=LINE('',#238,#25);
#18=LINE('',#242,#26);
#19=LINE('',#249,#27);
#20=LINE('',#253,#28);
#21=LINE('',#255,#29);
#22=LINE('',#259,#30);
#23=LINE('',#261,#31);
#24=LINE('',#263,#32);
#25=VECTOR('',#194,1.);
#26=VECTOR('',#197,1.);
#27=VECTOR('',#206,1.);
#28=VECTOR('',#209,1.);
#29=VECTOR('',#212,1.);
#30=VECTOR('',#215,1.);
#31=VECTOR('',#218,1.);
#32=VECTOR('',#221,1.);
#33=ORIENTED_EDGE('',*,*,#67,.T.);
#34=ORIENTED_EDGE('',*,*,#68,.F.);
#35=ORIENTED_EDGE('',*,*,#69,.T.);
#36=ORIENTED_EDGE('',*,*,#70,.F.);
#37=ORIENTED_EDGE('',*,*,#71,.T.);
#38=ORIENTED_EDGE('',*,*,#72,.T.);
#39=ORIENTED_EDGE('',*,*,#73,.F.);
#40=ORIENTED_EDGE('',*,*,#67,.F.);
#41=ORIENTED_EDGE('',*,*,#73,.T.);
#42=ORIENTED_EDGE('',*,*,#74,.F.);
#43=ORIENTED_EDGE('',*,*,#75,.F.);
#44=ORIENTED_EDGE('',*,*,#76,.T.);
#45=ORIENTED_EDGE('',*,*,#77,.F.);
#46=ORIENTED_EDGE('',*,*,#69,.F.);
#47=ORIENTED_EDGE('',*,*,#76,.F.);
#48=ORIENTED_EDGE('',*,*,#78,.F.);
#49=ORIENTED_EDGE('',*,*,#79,.T.);
#50=ORIENTED_EDGE('',*,*,#80,.T.);
#51=ORIENTED_EDGE('',*,*,#77,.T.);
#52=ORIENTED_EDGE('',*,*,#80,.F.);
#53=ORIENTED_EDGE('',*,*,#81,.F.);
#54=ORIENTED_EDGE('',*,*,#70,.T.);
#55=ORIENTED_EDGE('',*,*,#75,.T.);
#56=ORIENTED_EDGE('',*,*,#72,.F.);
#57=ORIENTED_EDGE('',*,*,#82,.F.);
#58=ORIENTED_EDGE('',*,*,#78,.T.);
#59=ORIENTED_EDGE('',*,*,#83,.F.);
#60=ORIENTED_EDGE('',*,*,#74,.T.);
#61=ORIENTED_EDGE('',*,*,#83,.T.);
#62=ORIENTED_EDGE('',*,*,#79,.F.);
#63=ORIENTED_EDGE('',*,*,#82,.T.);
#64=ORIENTED_EDGE('',*,*,#71,.F.);
#65=ORIENTED_EDGE('',*,*,#81,.T.);
#66=ORIENTED_EDGE('',*,*,#68,.T.);
#67=EDGE_CURVE('',#84,#84,#97,.T.);
#68=EDGE_CURVE('',#85,#85,#98,.T.);
#69=EDGE_CURVE('',#86,#87,#99,.T.);
#70=EDGE_CURVE('',#88,#87,#17,.T.);
#71=EDGE_CURVE('',#88,#89,#100,.T.);
#72=EDGE_CURVE('',#89,#86,#18,.T.);
#73=EDGE_CURVE('',#90,#90,#101,.T.);
#74=EDGE_CURVE('',#91,#91,#102,.T.);
#75=EDGE_CURVE('',#92,#86,#19,.T.);
#76=EDGE_CURVE('',#92,#93,#103,.T.);
#77=EDGE_CURVE('',#87,#93,#20,.T.);
#78=EDGE_CURVE('',#94,#92,#21,.T.);
#79=EDGE_CURVE('',#94,#95,#104,.T.);
#80=EDGE_CURVE('',#95,#93,#22,.T.);
#81=EDGE_CURVE('',#88,#95,#23,.T.);
#82=EDGE_CURVE('',#94,#89,#24,.T.);
#83=EDGE_CURVE('',#96,#96,#105,.T.);
#84=VERTEX_POINT('',#231);
#85=VERTEX_POINT('',#233);
#86=VERTEX_POINT('',#236);
#87=VERTEX_POINT('',#237);
#88=VERTEX_POINT('',#239);
#89=VERTEX_POINT('',#241);
#90=VERTEX_POINT('',#244);
#91=VERTEX_POINT('',#248);
#92=VERTEX_POINT('',#250);
#93=VERTEX_POINT('',#252);
#94=VERTEX_POINT('',#256);
#95=VERTEX_POINT('',#258);
#96=VERTEX_POINT('',#266);
#97=CIRCLE('',#165,0.004);
#98=CIRCLE('',#166,0.004);
#99=CIRCLE('',#168,0.01);
#100=CIRCLE('',#169,0.01);
#101=CIRCLE('',#170,0.01);
#102=CIRCLE('',#173,0.004);
#103=CIRCLE('',#174,0.01);
#104=CIRCLE('',#176,0.01);
#105=CIRCLE('',#180,0.004);
#106=EDGE_LOOP('',(#33));
#107=EDGE_LOOP('',(#34));
#108=EDGE_LOOP('',(#35,#36,#37,#38));
#109=EDGE_LOOP('',(#39));
#110=EDGE_LOOP('',(#40));
#111=EDGE_LOOP('',(#41));
#112=EDGE_LOOP('',(#42));
#113=EDGE_LOOP('',(#43,#44,#45,#46));
#114=EDGE_LOOP('',(#47,#48,#49,#50));
#115=EDGE_LOOP('',(#51,#52,#53,#54));
#116=EDGE_LOOP('',(#55,#56,#57,#58));
#117=EDGE_LOOP('',(#59));
#118=EDGE_LOOP('',(#60));
#119=EDGE_LOOP('',(#61));
#120=EDGE_LOOP('',(#62,#63,#64,#65));
#121=EDGE_LOOP('',(#66));
#122=FACE_BOUND('',#106,.T.);
#123=FACE_BOUND('',#107,.T.);
#124=FACE_BOUND('',#108,.T.);
#125=FACE_BOUND('',#109,.T.);
#126=FACE_BOUND('',#110,.T.);
#127=FACE_BOUND('',#111,.T.);
#128=FACE_BOUND('',#112,.T.);
#129=FACE_BOUND('',#113,.T.);
#130=FACE_BOUND('',#114,.T.);
#131=FACE_BOUND('',#115,.T.);
#132=FACE_BOUND('',#116,.T.);
#133=FACE_BOUND('',#117,.T.);
#134=FACE_BOUND('',#118,.T.);
#135=FACE_BOUND('',#119,.T.);
#136=FACE_BOUND('',#120,.T.);
#137=FACE_BOUND('',#121,.T.);
#138=CYLINDRICAL_SURFACE('',#164,0.004);
#139=CYLINDRICAL_SURFACE('',#167,0.01);
#140=CYLINDRICAL_SURFACE('',#175,0.01);
#141=CYLINDRICAL_SURFACE('',#179,0.004);
#142=ADVANCED_FACE('',(#122,#123),#138,.F.);
#143=ADVANCED_FACE('',(#124,#125),#139,.T.);
#144=ADVANCED_FACE('',(#126,#127),#12,.F.);
#145=ADVANCED_FACE('',(#128,#129),#13,.F.);
#146=ADVANCED_FACE('',(#130),#140,.T.);
#147=ADVANCED_FACE('',(#131),#14,.T.);
#148=ADVANCED_FACE('',(#132),#15,.T.);
#149=ADVANCED_FACE('',(#133,#134),#141,.F.);
#150=ADVANCED_FACE('',(#135,#136,#137),#16,.T.);
#151=CLOSED_SHELL('',(#142,#143,#144,#145,#146,#147,#148,#149,#150));
#152=STYLED_ITEM('',(#153),#160);
#153=PRESENTATION_STYLE_ASSIGNMENT((#154));
#154=SURFACE_STYLE_USAGE(.BOTH.,#155);
#155=SURFACE_SIDE_STYLE('',(#156));
#156=SURFACE_STYLE_FILL_AREA(#157);
#157=FILL_AREA_STYLE('',(#158));
#158=FILL_AREA_STYLE_COLOUR('',#159);
#159=COLOUR_RGB('',0.647058823529412,0.647058823529412,0.647058823529412);
#160=MANIFOLD_SOLID_BREP('link_3',#151);
#161=SHAPE_DEFINITION_REPRESENTATION(#274,#162);
#162=SHAPE_REPRESENTATION('link_3',(#163),#269);
#163=AXIS2_PLACEMENT_3D('',#228,#182,#183);
#164=AXIS2_PLACEMENT_3D('',#229,#184,#185);
#165=AXIS2_PLACEMENT_3D('',#230,#186,#187);
#166=AXIS2_PLACEMENT_3D('',#232,#188,#189);
#167=AXIS2_PLACEMENT_3D('',#234,#190,#191);
#168=AXIS2_PLACEMENT_3D('',#235,#192,#193);
#169=AXIS2_PLACEMENT_3D('',#240,#195,#196);
#170=AXIS2_PLACEMENT_3D('',#243,#198,#199);
#171=AXIS2_PLACEMENT_3D('',#245,#200,#201);
#172=AXIS2_PLACEMENT_3D('',#246,#202,#203);
#173=AXIS2_PLACEMENT_3D('',#247,#204,#205);
#174=AXIS2_PLACEMENT_3D('',#251,#207,#208);
#175=AXIS2_PLACEMENT_3D('',#254,#210,#211);
#176=AXIS2_PLACEMENT_3D('',#257,#213,#214);
#177=AXIS2_PLACEMENT_3D('',#260,#216,#217);
#178=AXIS2_PLACEMENT_3D('',#262,#219,#220);
#179=AXIS2_PLACEMENT_3D('',#264,#222,#223);
#180=AXIS2_PLACEMENT_3D('',#265,#224,#225);
#181=AXIS2_PLACEMENT_3D('',#267,#226,#227);
#182=DIRECTION('',(0.,0.,1.));
#183=DIRECTION('',(1.,0.,0.));
#184=DIRECTION('',(-1.,0.,0.));
#185=DIRECTION('',(0.,0.,-1.));
#186=DIRECTION('',(-1.,0.,0.));
#187=DIRECTION('',(0.,0.,1.));
#188=DIRECTION('',(-1.,0.,0.));
#189=DIRECTION('',(0.,0.,1.));
#190=DIRECTION('',(-1.,0.,0.));
#191=DIRECTION('',(0.,0.,-1.));
#192=DIRECTION('',(-1.,0.,0.));
#193=DIRECTION('',(0.,0.,1.));
#194=DIRECTION('',(-1.,0.,0.));
#195=DIRECTION('',(-1.,0.,0.));
#196=DIRECTION('',(0.,0.,1.));
#197=DIRECTION('',(-1.,0.,0.));
#198=DIRECTION('',(-1.,0.,0.));
#199=DIRECTION('',(0.,0.,1.));
#200=DIRECTION('',(1.,0.,0.));
#201=DIRECTION('',(0.,-1.,0.));
#202=DIRECTION('',(1.,0.,0.));
#203=DIRECTION('',(0.,-1.,0.));
#204=DIRECTION('',(-1.,0.,0.));
#205=DIRECTION('',(0.,0.,1.));
#206=DIRECTION('',(0.,1.,0.));
#207=DIRECTION('',(-1.,0.,0.));
#208=DIRECTION('',(0.,0.,1.));
#209=DIRECTION('',(0.,-1.,0.));
#210=DIRECTION('',(-1.,0.,0.));
#211=DIRECTION('',(0.,0.,-1.));
#212=DIRECTION('',(-1.,0.,0.));
#213=DIRECTION('',(-1.,0.,0.));
#214=DIRECTION('',(0.,0.,1.));
#215=DIRECTION('',(-1.,0.,0.));
#216=DIRECTION('',(0.,0.,1.));
#217=DIRECTION('',(-1.,0.,0.));
#218=DIRECTION('',(0.,-1.,0.));
#219=DIRECTION('',(0.,0.,-1.));
#220=DIRECTION('',(1.,0.,0.));
#221=DIRECTION('',(0.,1.,0.));
#222=DIRECTION('',(-1.,0.,0.));
#223=DIRECTION('',(0.,0.,-1.));
#224=DIRECTION('',(-1.,0.,0.));
#225=DIRECTION('',(0.,0.,1.));
#226=DIRECTION('',(1.,0.,0.));
#227=DIRECTION('',(0.,-1.,0.));
#228=CARTESIAN_POINT('',(0.,0.,0.));
#229=CARTESIAN_POINT('',(0.0329349145595942,0.205,-0.097));
#230=CARTESIAN_POINT('',(0.0279349145595942,0.205,-0.097));
#231=CARTESIAN_POINT('',(0.0279349145595942,0.205,-0.093));
#232=CARTESIAN_POINT('',(0.0379349145595942,0.205,-0.097));
#233=CARTESIAN_POINT('',(0.0379349145595942,0.205,-0.093));
#234=CARTESIAN_POINT('',(0.0329349145595942,0.205,-0.097));
#235=CARTESIAN_POINT('',(0.0329349145595942,0.205,-0.097));
#236=CARTESIAN_POINT('',(0.0329349145595942,0.205,-0.107));
#237=CARTESIAN_POINT('',(0.0329349145595942,0.205,-0.087));
#238=CARTESIAN_POINT('',(0.0379349145595942,0.205,-0.087));
#239=CARTESIAN_POINT('',(0.0379349145595942,0.205,-0.087));
#240=CARTESIAN_POINT('',(0.0379349145595942,0.205,-0.097));
#241=CARTESIAN_POINT('',(0.0379349145595942,0.205,-0.107));
#242=CARTESIAN_POINT('',(0.0379349145595942,0.205,-0.107));
#243=CARTESIAN_POINT('',(0.0279349145595942,0.205,-0.097));
#244=CARTESIAN_POINT('',(0.0279349145595942,0.205,-0.087));
#245=CARTESIAN_POINT('',(0.0279349145595942,0.13,-0.0987774489320838));
#246=CARTESIAN_POINT('',(0.0329349145595942,0.125,-0.097));
#247=CARTESIAN_POINT('',(0.0329349145595942,0.045,-0.097));
#248=CARTESIAN_POINT('',(0.0329349145595942,0.045,-0.093));
#249=CARTESIAN_POINT('',(0.0329349145595942,0.125,-0.107));
#250=CARTESIAN_POINT('',(0.0329349145595942,0.045,-0.107));
#251=CARTESIAN_POINT('',(0.0329349145595942,0.045,-0.097));
#252=CARTESIAN_POINT('',(0.0329349145595942,0.045,-0.087));
#253=CARTESIAN_POINT('',(0.0329349145595942,0.125,-0.087));
#254=CARTESIAN_POINT('',(0.0379349145595942,0.045,-0.097));
#255=CARTESIAN_POINT('',(0.0379349145595942,0.045,-0.107));
#256=CARTESIAN_POINT('',(0.0379349145595942,0.045,-0.107));
#257=CARTESIAN_POINT('',(0.0379349145595942,0.045,-0.097));
#258=CARTESIAN_POINT('',(0.0379349145595942,0.045,-0.087));
#259=CARTESIAN_POINT('',(0.0379349145595942,0.045,-0.087));
#260=CARTESIAN_POINT('',(0.0379349145595942,0.125,-0.087));
#261=CARTESIAN_POINT('',(0.0379349145595942,0.125,-0.087));
#262=CARTESIAN_POINT('',(0.0379349145595942,0.125,-0.107));
#263=CARTESIAN_POINT('',(0.0379349145595942,0.125,-0.107));
#264=CARTESIAN_POINT('',(0.0379349145595942,0.045,-0.097));
#265=CARTESIAN_POINT('',(0.0379349145595942,0.045,-0.097));
#266=CARTESIAN_POINT('',(0.0379349145595942,0.045,-0.093));
#267=CARTESIAN_POINT('',(0.0379349145595942,0.125,-0.097));
#268=MECHANICAL_DESIGN_GEOMETRIC_PRESENTATION_REPRESENTATION('',(#152),
#269);
#269=(
GEOMETRIC_REPRESENTATION_CONTEXT(3)
GLOBAL_UNCERTAINTY_ASSIGNED_CONTEXT((#270))
GLOBAL_UNIT_ASSIGNED_CONTEXT((#273,#272,#271))
REPRESENTATION_CONTEXT('link_3','TOP_LEVEL_ASSEMBLY_PART')
);
#270=UNCERTAINTY_MEASURE_WITH_UNIT(LENGTH_MEASURE(1.E-8),#273,
'DISTANCE_ACCURACY_VALUE','Maximum Tolerance applied to model');
#271=(
NAMED_UNIT(*)
SI_UNIT($,.STERADIAN.)
SOLID_ANGLE_UNIT()
);
#272=(
NAMED_UNIT(*)
PLANE_ANGLE_UNIT()
SI_UNIT($,.RADIAN.)
);
#273=(
LENGTH_UNIT()
NAMED_UNIT(*)
SI_UNIT($,.METRE.)
);
#274=PRODUCT_DEFINITION_SHAPE('','',#275);
#275=PRODUCT_DEFINITION('','',#277,#276);
#276=PRODUCT_DEFINITION_CONTEXT('',#283,'design');
#277=PRODUCT_DEFINITION_FORMATION_WITH_SPECIFIED_SOURCE('','',#279,
 .NOT_KNOWN.);
#278=PRODUCT_RELATED_PRODUCT_CATEGORY('','',(#279));
#279=PRODUCT('link_3','link_3','link_3',(#281));
#280=PRODUCT_CATEGORY('','');
#281=PRODUCT_CONTEXT('',#283,'mechanical');
#282=APPLICATION_PROTOCOL_DEFINITION('international standard',
'ap242_managed_model_based_3d_engineering',2020,#283);
#283=APPLICATION_CONTEXT('managed model based 3d engineering');
ENDSEC;
END-ISO-10303-21;
