ISO-10303-21;
HEADER;
/* Generated by software containing ST-Developer
 * from STEP Tools, Inc. (www.steptools.com) 
 */
/* OPTION: using custom renumber hook */

FILE_DESCRIPTION(
/* description */ ('STEP AP242 Edition 2',
'CAx-IF Rec.Pracs.---Representation and Presentation of Product Manufa
cturing Information (PMI)---4.0---2014-10-13',
'CAx-IF Rec.Pracs.---3D Tessellated Geometry---0.4---2014-09-14','2;1',
'CAx-IF Rec.Pracs.---User Defined Attributes---1.5---2016-08-15'),
/* implementation_level */ '2;1');

FILE_NAME(
/* name */ 'landedConcept v4 parts - thruster_base_2',
/* time_stamp */ '2026-01-03T01:02:41Z',
/* author */ (''),
/* organization */ (''),
/* preprocessor_version */ 'ST-DEVELOPER v20',
/* originating_system */ 'ONSHAPE BY PTC INC, 1.208',
/* authorisation */ '  ');

FILE_SCHEMA (('AP242_MANAGED_MODEL_BASED_3D_ENGINEERING_MIM_LF { 1 0 10303 442 3 1 4 }'));
ENDSEC;

DATA;
#10=SHAPE_REPRESENTATION_RELATIONSHIP('','',#634,#11);
#11=ADVANCED_BREP_SHAPE_REPRESENTATION('',(#632),#1086);
#12=CIRCLE('',#642,0.00990243891224038);
#13=CIRCLE('',#643,0.00990243891224038);
#14=CIRCLE('',#645,0.004);
#15=CIRCLE('',#646,0.004);
#16=CIRCLE('',#649,0.0049999999999999);
#17=CIRCLE('',#650,0.0049999999999999);
#18=CIRCLE('',#652,0.00990243891224038);
#19=CIRCLE('',#653,0.00990243891224038);
#20=CIRCLE('',#657,0.005);
#21=CIRCLE('',#658,0.005);
#22=CIRCLE('',#660,0.089999999999999);
#23=CIRCLE('',#661,0.089999999999999);
#24=CIRCLE('',#663,0.005);
#25=CIRCLE('',#664,0.005);
#26=CIRCLE('',#667,0.005);
#27=CIRCLE('',#668,0.005);
#28=CIRCLE('',#670,0.07274);
#29=CIRCLE('',#671,0.07274);
#30=CIRCLE('',#674,0.0773400000000066);
#31=CIRCLE('',#675,0.0773400000000066);
#32=CIRCLE('',#678,0.0827399999999937);
#33=CIRCLE('',#679,0.0827399999999937);
#34=CIRCLE('',#681,0.0022);
#35=CIRCLE('',#682,0.0022);
#36=CIRCLE('',#685,0.0773399999999951);
#37=CIRCLE('',#686,0.0773399999999951);
#38=CIRCLE('',#688,0.000799999999999991);
#39=CIRCLE('',#689,0.000799999999999991);
#40=CIRCLE('',#692,0.07274);
#41=CIRCLE('',#693,0.07274);
#42=CIRCLE('',#695,0.005);
#43=CIRCLE('',#696,0.005);
#44=CIRCLE('',#698,0.004);
#45=CIRCLE('',#699,0.004);
#46=CYLINDRICAL_SURFACE('',#641,0.00990243891224038);
#47=CYLINDRICAL_SURFACE('',#644,0.004);
#48=CYLINDRICAL_SURFACE('',#648,0.0049999999999999);
#49=CYLINDRICAL_SURFACE('',#651,0.00990243891224038);
#50=CYLINDRICAL_SURFACE('',#656,0.005);
#51=CYLINDRICAL_SURFACE('',#659,0.089999999999999);
#52=CYLINDRICAL_SURFACE('',#662,0.005);
#53=CYLINDRICAL_SURFACE('',#666,0.005);
#54=CYLINDRICAL_SURFACE('',#669,0.07274);
#55=CYLINDRICAL_SURFACE('',#673,0.0773400000000066);
#56=CYLINDRICAL_SURFACE('',#677,0.0827399999999937);
#57=CYLINDRICAL_SURFACE('',#680,0.0022);
#58=CYLINDRICAL_SURFACE('',#684,0.0773399999999951);
#59=CYLINDRICAL_SURFACE('',#687,0.000799999999999991);
#60=CYLINDRICAL_SURFACE('',#691,0.07274);
#61=CYLINDRICAL_SURFACE('',#694,0.005);
#62=CYLINDRICAL_SURFACE('',#697,0.004);
#63=CYLINDRICAL_SURFACE('',#705,0.004);
#64=CYLINDRICAL_SURFACE('',#706,0.004);
#65=ELLIPSE('',#637,0.00401550717726305,0.004);
#66=ELLIPSE('',#639,0.00401550717726305,0.004);
#67=ELLIPSE('',#640,0.00401550717726305,0.004);
#68=ELLIPSE('',#655,0.00401550717726305,0.004);
#69=ORIENTED_EDGE('',*,*,#247,.F.);
#70=ORIENTED_EDGE('',*,*,#248,.T.);
#71=ORIENTED_EDGE('',*,*,#249,.T.);
#72=ORIENTED_EDGE('',*,*,#250,.T.);
#73=ORIENTED_EDGE('',*,*,#251,.F.);
#74=ORIENTED_EDGE('',*,*,#252,.F.);
#75=ORIENTED_EDGE('',*,*,#253,.T.);
#76=ORIENTED_EDGE('',*,*,#254,.F.);
#77=ORIENTED_EDGE('',*,*,#255,.T.);
#78=ORIENTED_EDGE('',*,*,#256,.T.);
#79=ORIENTED_EDGE('',*,*,#257,.F.);
#80=ORIENTED_EDGE('',*,*,#258,.F.);
#81=ORIENTED_EDGE('',*,*,#259,.T.);
#82=ORIENTED_EDGE('',*,*,#260,.T.);
#83=ORIENTED_EDGE('',*,*,#261,.F.);
#84=ORIENTED_EDGE('',*,*,#262,.F.);
#85=ORIENTED_EDGE('',*,*,#261,.T.);
#86=ORIENTED_EDGE('',*,*,#263,.T.);
#87=ORIENTED_EDGE('',*,*,#250,.F.);
#88=ORIENTED_EDGE('',*,*,#264,.F.);
#89=ORIENTED_EDGE('',*,*,#265,.T.);
#90=ORIENTED_EDGE('',*,*,#266,.F.);
#91=ORIENTED_EDGE('',*,*,#267,.F.);
#92=ORIENTED_EDGE('',*,*,#268,.T.);
#93=ORIENTED_EDGE('',*,*,#269,.T.);
#94=ORIENTED_EDGE('',*,*,#270,.T.);
#95=ORIENTED_EDGE('',*,*,#259,.F.);
#96=ORIENTED_EDGE('',*,*,#271,.F.);
#97=ORIENTED_EDGE('',*,*,#267,.T.);
#98=ORIENTED_EDGE('',*,*,#257,.T.);
#99=ORIENTED_EDGE('',*,*,#272,.T.);
#100=ORIENTED_EDGE('',*,*,#273,.F.);
#101=ORIENTED_EDGE('',*,*,#274,.F.);
#102=ORIENTED_EDGE('',*,*,#275,.F.);
#103=ORIENTED_EDGE('',*,*,#276,.T.);
#104=ORIENTED_EDGE('',*,*,#277,.F.);
#105=ORIENTED_EDGE('',*,*,#278,.T.);
#106=ORIENTED_EDGE('',*,*,#273,.T.);
#107=ORIENTED_EDGE('',*,*,#279,.F.);
#108=ORIENTED_EDGE('',*,*,#280,.F.);
#109=ORIENTED_EDGE('',*,*,#281,.T.);
#110=ORIENTED_EDGE('',*,*,#277,.T.);
#111=ORIENTED_EDGE('',*,*,#282,.T.);
#112=ORIENTED_EDGE('',*,*,#247,.T.);
#113=ORIENTED_EDGE('',*,*,#283,.T.);
#114=ORIENTED_EDGE('',*,*,#284,.F.);
#115=ORIENTED_EDGE('',*,*,#285,.F.);
#116=ORIENTED_EDGE('',*,*,#280,.T.);
#117=ORIENTED_EDGE('',*,*,#286,.T.);
#118=ORIENTED_EDGE('',*,*,#287,.F.);
#119=ORIENTED_EDGE('',*,*,#288,.F.);
#120=ORIENTED_EDGE('',*,*,#284,.T.);
#121=ORIENTED_EDGE('',*,*,#289,.F.);
#122=ORIENTED_EDGE('',*,*,#290,.F.);
#123=ORIENTED_EDGE('',*,*,#291,.T.);
#124=ORIENTED_EDGE('',*,*,#287,.T.);
#125=ORIENTED_EDGE('',*,*,#292,.T.);
#126=ORIENTED_EDGE('',*,*,#293,.F.);
#127=ORIENTED_EDGE('',*,*,#294,.F.);
#128=ORIENTED_EDGE('',*,*,#290,.T.);
#129=ORIENTED_EDGE('',*,*,#295,.F.);
#130=ORIENTED_EDGE('',*,*,#296,.F.);
#131=ORIENTED_EDGE('',*,*,#297,.T.);
#132=ORIENTED_EDGE('',*,*,#293,.T.);
#133=ORIENTED_EDGE('',*,*,#298,.F.);
#134=ORIENTED_EDGE('',*,*,#299,.F.);
#135=ORIENTED_EDGE('',*,*,#300,.T.);
#136=ORIENTED_EDGE('',*,*,#296,.T.);
#137=ORIENTED_EDGE('',*,*,#301,.T.);
#138=ORIENTED_EDGE('',*,*,#302,.F.);
#139=ORIENTED_EDGE('',*,*,#303,.F.);
#140=ORIENTED_EDGE('',*,*,#299,.T.);
#141=ORIENTED_EDGE('',*,*,#304,.F.);
#142=ORIENTED_EDGE('',*,*,#305,.F.);
#143=ORIENTED_EDGE('',*,*,#306,.T.);
#144=ORIENTED_EDGE('',*,*,#302,.T.);
#145=ORIENTED_EDGE('',*,*,#307,.F.);
#146=ORIENTED_EDGE('',*,*,#308,.F.);
#147=ORIENTED_EDGE('',*,*,#309,.T.);
#148=ORIENTED_EDGE('',*,*,#305,.T.);
#149=ORIENTED_EDGE('',*,*,#310,.F.);
#150=ORIENTED_EDGE('',*,*,#311,.F.);
#151=ORIENTED_EDGE('',*,*,#312,.T.);
#152=ORIENTED_EDGE('',*,*,#308,.T.);
#153=ORIENTED_EDGE('',*,*,#313,.F.);
#154=ORIENTED_EDGE('',*,*,#314,.F.);
#155=ORIENTED_EDGE('',*,*,#315,.T.);
#156=ORIENTED_EDGE('',*,*,#311,.T.);
#157=ORIENTED_EDGE('',*,*,#316,.T.);
#158=ORIENTED_EDGE('',*,*,#317,.F.);
#159=ORIENTED_EDGE('',*,*,#318,.F.);
#160=ORIENTED_EDGE('',*,*,#314,.T.);
#161=ORIENTED_EDGE('',*,*,#319,.T.);
#162=ORIENTED_EDGE('',*,*,#320,.F.);
#163=ORIENTED_EDGE('',*,*,#321,.F.);
#164=ORIENTED_EDGE('',*,*,#317,.T.);
#165=ORIENTED_EDGE('',*,*,#322,.F.);
#166=ORIENTED_EDGE('',*,*,#323,.F.);
#167=ORIENTED_EDGE('',*,*,#324,.T.);
#168=ORIENTED_EDGE('',*,*,#320,.T.);
#169=ORIENTED_EDGE('',*,*,#325,.F.);
#170=ORIENTED_EDGE('',*,*,#326,.F.);
#171=ORIENTED_EDGE('',*,*,#327,.T.);
#172=ORIENTED_EDGE('',*,*,#323,.T.);
#173=ORIENTED_EDGE('',*,*,#328,.T.);
#174=ORIENTED_EDGE('',*,*,#269,.F.);
#175=ORIENTED_EDGE('',*,*,#329,.F.);
#176=ORIENTED_EDGE('',*,*,#326,.T.);
#177=ORIENTED_EDGE('',*,*,#330,.F.);
#178=ORIENTED_EDGE('',*,*,#331,.T.);
#179=ORIENTED_EDGE('',*,*,#268,.F.);
#180=ORIENTED_EDGE('',*,*,#271,.T.);
#181=ORIENTED_EDGE('',*,*,#258,.T.);
#182=ORIENTED_EDGE('',*,*,#274,.T.);
#183=ORIENTED_EDGE('',*,*,#278,.F.);
#184=ORIENTED_EDGE('',*,*,#281,.F.);
#185=ORIENTED_EDGE('',*,*,#285,.T.);
#186=ORIENTED_EDGE('',*,*,#288,.T.);
#187=ORIENTED_EDGE('',*,*,#291,.F.);
#188=ORIENTED_EDGE('',*,*,#294,.T.);
#189=ORIENTED_EDGE('',*,*,#297,.F.);
#190=ORIENTED_EDGE('',*,*,#300,.F.);
#191=ORIENTED_EDGE('',*,*,#303,.T.);
#192=ORIENTED_EDGE('',*,*,#306,.F.);
#193=ORIENTED_EDGE('',*,*,#309,.F.);
#194=ORIENTED_EDGE('',*,*,#312,.F.);
#195=ORIENTED_EDGE('',*,*,#315,.F.);
#196=ORIENTED_EDGE('',*,*,#318,.T.);
#197=ORIENTED_EDGE('',*,*,#321,.T.);
#198=ORIENTED_EDGE('',*,*,#324,.F.);
#199=ORIENTED_EDGE('',*,*,#327,.F.);
#200=ORIENTED_EDGE('',*,*,#329,.T.);
#201=ORIENTED_EDGE('',*,*,#331,.F.);
#202=ORIENTED_EDGE('',*,*,#266,.T.);
#203=ORIENTED_EDGE('',*,*,#328,.F.);
#204=ORIENTED_EDGE('',*,*,#325,.T.);
#205=ORIENTED_EDGE('',*,*,#322,.T.);
#206=ORIENTED_EDGE('',*,*,#319,.F.);
#207=ORIENTED_EDGE('',*,*,#316,.F.);
#208=ORIENTED_EDGE('',*,*,#313,.T.);
#209=ORIENTED_EDGE('',*,*,#310,.T.);
#210=ORIENTED_EDGE('',*,*,#307,.T.);
#211=ORIENTED_EDGE('',*,*,#304,.T.);
#212=ORIENTED_EDGE('',*,*,#301,.F.);
#213=ORIENTED_EDGE('',*,*,#298,.T.);
#214=ORIENTED_EDGE('',*,*,#295,.T.);
#215=ORIENTED_EDGE('',*,*,#292,.F.);
#216=ORIENTED_EDGE('',*,*,#289,.T.);
#217=ORIENTED_EDGE('',*,*,#286,.F.);
#218=ORIENTED_EDGE('',*,*,#283,.F.);
#219=ORIENTED_EDGE('',*,*,#279,.T.);
#220=ORIENTED_EDGE('',*,*,#251,.T.);
#221=ORIENTED_EDGE('',*,*,#263,.F.);
#222=ORIENTED_EDGE('',*,*,#260,.F.);
#223=ORIENTED_EDGE('',*,*,#270,.F.);
#224=ORIENTED_EDGE('',*,*,#264,.T.);
#225=ORIENTED_EDGE('',*,*,#282,.F.);
#226=ORIENTED_EDGE('',*,*,#332,.T.);
#227=ORIENTED_EDGE('',*,*,#254,.T.);
#228=ORIENTED_EDGE('',*,*,#333,.T.);
#229=ORIENTED_EDGE('',*,*,#330,.T.);
#230=ORIENTED_EDGE('',*,*,#256,.F.);
#231=ORIENTED_EDGE('',*,*,#334,.T.);
#232=ORIENTED_EDGE('',*,*,#275,.T.);
#233=ORIENTED_EDGE('',*,*,#272,.F.);
#234=ORIENTED_EDGE('',*,*,#265,.F.);
#235=ORIENTED_EDGE('',*,*,#249,.F.);
#236=ORIENTED_EDGE('',*,*,#335,.T.);
#237=ORIENTED_EDGE('',*,*,#252,.T.);
#238=ORIENTED_EDGE('',*,*,#262,.T.);
#239=ORIENTED_EDGE('',*,*,#276,.F.);
#240=ORIENTED_EDGE('',*,*,#334,.F.);
#241=ORIENTED_EDGE('',*,*,#255,.F.);
#242=ORIENTED_EDGE('',*,*,#332,.F.);
#243=ORIENTED_EDGE('',*,*,#248,.F.);
#244=ORIENTED_EDGE('',*,*,#333,.F.);
#245=ORIENTED_EDGE('',*,*,#253,.F.);
#246=ORIENTED_EDGE('',*,*,#335,.F.);
#247=EDGE_CURVE('',#336,#337,#396,.T.);
#248=EDGE_CURVE('',#336,#338,#65,.F.);
#249=EDGE_CURVE('',#338,#339,#397,.T.);
#250=EDGE_CURVE('',#339,#340,#398,.T.);
#251=EDGE_CURVE('',#337,#340,#399,.T.);
#252=EDGE_CURVE('',#341,#342,#400,.T.);
#253=EDGE_CURVE('',#341,#343,#66,.T.);
#254=EDGE_CURVE('',#344,#343,#401,.T.);
#255=EDGE_CURVE('',#344,#345,#67,.T.);
#256=EDGE_CURVE('',#345,#346,#402,.T.);
#257=EDGE_CURVE('',#347,#346,#403,.T.);
#258=EDGE_CURVE('',#348,#347,#404,.T.);
#259=EDGE_CURVE('',#348,#349,#405,.T.);
#260=EDGE_CURVE('',#349,#350,#406,.T.);
#261=EDGE_CURVE('',#342,#350,#407,.T.);
#262=EDGE_CURVE('',#342,#339,#12,.T.);
#263=EDGE_CURVE('',#350,#340,#13,.T.);
#264=EDGE_CURVE('',#351,#351,#14,.T.);
#265=EDGE_CURVE('',#352,#352,#15,.T.);
#266=EDGE_CURVE('',#353,#354,#408,.T.);
#267=EDGE_CURVE('',#355,#353,#409,.T.);
#268=EDGE_CURVE('',#355,#356,#410,.T.);
#269=EDGE_CURVE('',#356,#354,#411,.T.);
#270=EDGE_CURVE('',#353,#349,#16,.T.);
#271=EDGE_CURVE('',#355,#348,#17,.T.);
#272=EDGE_CURVE('',#346,#357,#18,.T.);
#273=EDGE_CURVE('',#358,#357,#412,.T.);
#274=EDGE_CURVE('',#347,#358,#19,.T.);
#275=EDGE_CURVE('',#359,#357,#413,.T.);
#276=EDGE_CURVE('',#359,#360,#68,.F.);
#277=EDGE_CURVE('',#361,#360,#414,.T.);
#278=EDGE_CURVE('',#361,#358,#415,.T.);
#279=EDGE_CURVE('',#362,#337,#20,.T.);
#280=EDGE_CURVE('',#363,#362,#416,.T.);
#281=EDGE_CURVE('',#363,#361,#21,.T.);
#282=EDGE_CURVE('',#360,#336,#417,.T.);
#283=EDGE_CURVE('',#362,#364,#22,.T.);
#284=EDGE_CURVE('',#365,#364,#418,.T.);
#285=EDGE_CURVE('',#363,#365,#23,.T.);
#286=EDGE_CURVE('',#364,#366,#24,.T.);
#287=EDGE_CURVE('',#367,#366,#419,.T.);
#288=EDGE_CURVE('',#365,#367,#25,.T.);
#289=EDGE_CURVE('',#368,#366,#420,.T.);
#290=EDGE_CURVE('',#369,#368,#421,.T.);
#291=EDGE_CURVE('',#369,#367,#422,.T.);
#292=EDGE_CURVE('',#368,#370,#26,.T.);
#293=EDGE_CURVE('',#371,#370,#423,.T.);
#294=EDGE_CURVE('',#369,#371,#27,.T.);
#295=EDGE_CURVE('',#372,#370,#28,.T.);
#296=EDGE_CURVE('',#373,#372,#424,.T.);
#297=EDGE_CURVE('',#373,#371,#29,.T.);
#298=EDGE_CURVE('',#374,#372,#425,.T.);
#299=EDGE_CURVE('',#375,#374,#426,.T.);
#300=EDGE_CURVE('',#375,#373,#427,.T.);
#301=EDGE_CURVE('',#374,#376,#30,.T.);
#302=EDGE_CURVE('',#377,#376,#428,.T.);
#303=EDGE_CURVE('',#375,#377,#31,.T.);
#304=EDGE_CURVE('',#378,#376,#429,.T.);
#305=EDGE_CURVE('',#379,#378,#430,.T.);
#306=EDGE_CURVE('',#379,#377,#431,.T.);
#307=EDGE_CURVE('',#380,#378,#32,.T.);
#308=EDGE_CURVE('',#381,#380,#432,.T.);
#309=EDGE_CURVE('',#381,#379,#33,.T.);
#310=EDGE_CURVE('',#382,#380,#34,.T.);
#311=EDGE_CURVE('',#383,#382,#433,.T.);
#312=EDGE_CURVE('',#383,#381,#35,.T.);
#313=EDGE_CURVE('',#384,#382,#434,.T.);
#314=EDGE_CURVE('',#385,#384,#435,.T.);
#315=EDGE_CURVE('',#385,#383,#436,.T.);
#316=EDGE_CURVE('',#384,#386,#36,.T.);
#317=EDGE_CURVE('',#387,#386,#437,.T.);
#318=EDGE_CURVE('',#385,#387,#37,.T.);
#319=EDGE_CURVE('',#386,#388,#38,.T.);
#320=EDGE_CURVE('',#389,#388,#438,.T.);
#321=EDGE_CURVE('',#387,#389,#39,.T.);
#322=EDGE_CURVE('',#390,#388,#439,.T.);
#323=EDGE_CURVE('',#391,#390,#440,.T.);
#324=EDGE_CURVE('',#391,#389,#441,.T.);
#325=EDGE_CURVE('',#392,#390,#40,.T.);
#326=EDGE_CURVE('',#393,#392,#442,.T.);
#327=EDGE_CURVE('',#393,#391,#41,.T.);
#328=EDGE_CURVE('',#392,#354,#42,.T.);
#329=EDGE_CURVE('',#393,#356,#43,.T.);
#330=EDGE_CURVE('',#394,#394,#44,.T.);
#331=EDGE_CURVE('',#395,#395,#45,.T.);
#332=EDGE_CURVE('',#360,#344,#443,.T.);
#333=EDGE_CURVE('',#343,#336,#444,.F.);
#334=EDGE_CURVE('',#345,#359,#445,.F.);
#335=EDGE_CURVE('',#338,#341,#446,.T.);
#336=VERTEX_POINT('',#905);
#337=VERTEX_POINT('',#906);
#338=VERTEX_POINT('',#908);
#339=VERTEX_POINT('',#910);
#340=VERTEX_POINT('',#912);
#341=VERTEX_POINT('',#916);
#342=VERTEX_POINT('',#917);
#343=VERTEX_POINT('',#919);
#344=VERTEX_POINT('',#921);
#345=VERTEX_POINT('',#923);
#346=VERTEX_POINT('',#925);
#347=VERTEX_POINT('',#927);
#348=VERTEX_POINT('',#929);
#349=VERTEX_POINT('',#931);
#350=VERTEX_POINT('',#933);
#351=VERTEX_POINT('',#940);
#352=VERTEX_POINT('',#942);
#353=VERTEX_POINT('',#945);
#354=VERTEX_POINT('',#946);
#355=VERTEX_POINT('',#948);
#356=VERTEX_POINT('',#950);
#357=VERTEX_POINT('',#957);
#358=VERTEX_POINT('',#959);
#359=VERTEX_POINT('',#963);
#360=VERTEX_POINT('',#965);
#361=VERTEX_POINT('',#967);
#362=VERTEX_POINT('',#971);
#363=VERTEX_POINT('',#973);
#364=VERTEX_POINT('',#978);
#365=VERTEX_POINT('',#980);
#366=VERTEX_POINT('',#984);
#367=VERTEX_POINT('',#986);
#368=VERTEX_POINT('',#990);
#369=VERTEX_POINT('',#992);
#370=VERTEX_POINT('',#996);
#371=VERTEX_POINT('',#998);
#372=VERTEX_POINT('',#1002);
#373=VERTEX_POINT('',#1004);
#374=VERTEX_POINT('',#1008);
#375=VERTEX_POINT('',#1010);
#376=VERTEX_POINT('',#1014);
#377=VERTEX_POINT('',#1016);
#378=VERTEX_POINT('',#1020);
#379=VERTEX_POINT('',#1022);
#380=VERTEX_POINT('',#1026);
#381=VERTEX_POINT('',#1028);
#382=VERTEX_POINT('',#1032);
#383=VERTEX_POINT('',#1034);
#384=VERTEX_POINT('',#1038);
#385=VERTEX_POINT('',#1040);
#386=VERTEX_POINT('',#1044);
#387=VERTEX_POINT('',#1046);
#388=VERTEX_POINT('',#1050);
#389=VERTEX_POINT('',#1052);
#390=VERTEX_POINT('',#1056);
#391=VERTEX_POINT('',#1058);
#392=VERTEX_POINT('',#1062);
#393=VERTEX_POINT('',#1064);
#394=VERTEX_POINT('',#1071);
#395=VERTEX_POINT('',#1073);
#396=LINE('',#904,#447);
#397=LINE('',#909,#448);
#398=LINE('',#911,#449);
#399=LINE('',#913,#450);
#400=LINE('',#915,#451);
#401=LINE('',#920,#452);
#402=LINE('',#924,#453);
#403=LINE('',#926,#454);
#404=LINE('',#928,#455);
#405=LINE('',#930,#456);
#406=LINE('',#932,#457);
#407=LINE('',#934,#458);
#408=LINE('',#944,#459);
#409=LINE('',#947,#460);
#410=LINE('',#949,#461);
#411=LINE('',#951,#462);
#412=LINE('',#958,#463);
#413=LINE('',#962,#464);
#414=LINE('',#966,#465);
#415=LINE('',#968,#466);
#416=LINE('',#972,#467);
#417=LINE('',#975,#468);
#418=LINE('',#979,#469);
#419=LINE('',#985,#470);
#420=LINE('',#989,#471);
#421=LINE('',#991,#472);
#422=LINE('',#993,#473);
#423=LINE('',#997,#474);
#424=LINE('',#1003,#475);
#425=LINE('',#1007,#476);
#426=LINE('',#1009,#477);
#427=LINE('',#1011,#478);
#428=LINE('',#1015,#479);
#429=LINE('',#1019,#480);
#430=LINE('',#1021,#481);
#431=LINE('',#1023,#482);
#432=LINE('',#1027,#483);
#433=LINE('',#1033,#484);
#434=LINE('',#1037,#485);
#435=LINE('',#1039,#486);
#436=LINE('',#1041,#487);
#437=LINE('',#1045,#488);
#438=LINE('',#1051,#489);
#439=LINE('',#1055,#490);
#440=LINE('',#1057,#491);
#441=LINE('',#1059,#492);
#442=LINE('',#1063,#493);
#443=LINE('',#1077,#494);
#444=LINE('',#1078,#495);
#445=LINE('',#1080,#496);
#446=LINE('',#1082,#497);
#447=VECTOR('',#711,1.);
#448=VECTOR('',#714,1.);
#449=VECTOR('',#715,1.);
#450=VECTOR('',#716,1.);
#451=VECTOR('',#719,1.);
#452=VECTOR('',#722,1.);
#453=VECTOR('',#725,1.);
#454=VECTOR('',#726,1.);
#455=VECTOR('',#727,1.);
#456=VECTOR('',#728,1.);
#457=VECTOR('',#729,1.);
#458=VECTOR('',#730,1.);
#459=VECTOR('',#745,1.);
#460=VECTOR('',#746,1.);
#461=VECTOR('',#747,1.);
#462=VECTOR('',#748,1.);
#463=VECTOR('',#759,1.);
#464=VECTOR('',#764,1.);
#465=VECTOR('',#767,1.);
#466=VECTOR('',#768,1.);
#467=VECTOR('',#773,1.);
#468=VECTOR('',#776,1.);
#469=VECTOR('',#781,1.);
#470=VECTOR('',#788,1.);
#471=VECTOR('',#793,1.);
#472=VECTOR('',#794,1.);
#473=VECTOR('',#795,1.);
#474=VECTOR('',#800,1.);
#475=VECTOR('',#807,1.);
#476=VECTOR('',#812,1.);
#477=VECTOR('',#813,1.);
#478=VECTOR('',#814,1.);
#479=VECTOR('',#819,1.);
#480=VECTOR('',#824,1.);
#481=VECTOR('',#825,1.);
#482=VECTOR('',#826,1.);
#483=VECTOR('',#831,1.);
#484=VECTOR('',#838,1.);
#485=VECTOR('',#843,1.);
#486=VECTOR('',#844,1.);
#487=VECTOR('',#845,1.);
#488=VECTOR('',#850,1.);
#489=VECTOR('',#857,1.);
#490=VECTOR('',#862,1.);
#491=VECTOR('',#863,1.);
#492=VECTOR('',#864,1.);
#493=VECTOR('',#869,1.);
#494=VECTOR('',#890,1.);
#495=VECTOR('',#891,1.);
#496=VECTOR('',#894,1.);
#497=VECTOR('',#897,1.);
#498=EDGE_LOOP('',(#69,#70,#71,#72,#73));
#499=EDGE_LOOP('',(#74,#75,#76,#77,#78,#79,#80,#81,#82,#83));
#500=EDGE_LOOP('',(#84,#85,#86,#87));
#501=EDGE_LOOP('',(#88));
#502=EDGE_LOOP('',(#89));
#503=EDGE_LOOP('',(#90,#91,#92,#93));
#504=EDGE_LOOP('',(#94,#95,#96,#97));
#505=EDGE_LOOP('',(#98,#99,#100,#101));
#506=EDGE_LOOP('',(#102,#103,#104,#105,#106));
#507=EDGE_LOOP('',(#107,#108,#109,#110,#111,#112));
#508=EDGE_LOOP('',(#113,#114,#115,#116));
#509=EDGE_LOOP('',(#117,#118,#119,#120));
#510=EDGE_LOOP('',(#121,#122,#123,#124));
#511=EDGE_LOOP('',(#125,#126,#127,#128));
#512=EDGE_LOOP('',(#129,#130,#131,#132));
#513=EDGE_LOOP('',(#133,#134,#135,#136));
#514=EDGE_LOOP('',(#137,#138,#139,#140));
#515=EDGE_LOOP('',(#141,#142,#143,#144));
#516=EDGE_LOOP('',(#145,#146,#147,#148));
#517=EDGE_LOOP('',(#149,#150,#151,#152));
#518=EDGE_LOOP('',(#153,#154,#155,#156));
#519=EDGE_LOOP('',(#157,#158,#159,#160));
#520=EDGE_LOOP('',(#161,#162,#163,#164));
#521=EDGE_LOOP('',(#165,#166,#167,#168));
#522=EDGE_LOOP('',(#169,#170,#171,#172));
#523=EDGE_LOOP('',(#173,#174,#175,#176));
#524=EDGE_LOOP('',(#177));
#525=EDGE_LOOP('',(#178));
#526=EDGE_LOOP('',(#179,#180,#181,#182,#183,#184,#185,#186,#187,#188,#189,
#190,#191,#192,#193,#194,#195,#196,#197,#198,#199,#200));
#527=EDGE_LOOP('',(#201));
#528=EDGE_LOOP('',(#202,#203,#204,#205,#206,#207,#208,#209,#210,#211,#212,
#213,#214,#215,#216,#217,#218,#219,#220,#221,#222,#223));
#529=EDGE_LOOP('',(#224));
#530=EDGE_LOOP('',(#225,#226,#227,#228));
#531=EDGE_LOOP('',(#229));
#532=EDGE_LOOP('',(#230,#231,#232,#233));
#533=EDGE_LOOP('',(#234));
#534=EDGE_LOOP('',(#235,#236,#237,#238));
#535=EDGE_LOOP('',(#239,#240,#241,#242));
#536=EDGE_LOOP('',(#243,#244,#245,#246));
#537=FACE_BOUND('',#498,.T.);
#538=FACE_BOUND('',#499,.T.);
#539=FACE_BOUND('',#500,.T.);
#540=FACE_BOUND('',#501,.T.);
#541=FACE_BOUND('',#502,.T.);
#542=FACE_BOUND('',#503,.T.);
#543=FACE_BOUND('',#504,.T.);
#544=FACE_BOUND('',#505,.T.);
#545=FACE_BOUND('',#506,.T.);
#546=FACE_BOUND('',#507,.T.);
#547=FACE_BOUND('',#508,.T.);
#548=FACE_BOUND('',#509,.T.);
#549=FACE_BOUND('',#510,.T.);
#550=FACE_BOUND('',#511,.T.);
#551=FACE_BOUND('',#512,.T.);
#552=FACE_BOUND('',#513,.T.);
#553=FACE_BOUND('',#514,.T.);
#554=FACE_BOUND('',#515,.T.);
#555=FACE_BOUND('',#516,.T.);
#556=FACE_BOUND('',#517,.T.);
#557=FACE_BOUND('',#518,.T.);
#558=FACE_BOUND('',#519,.T.);
#559=FACE_BOUND('',#520,.T.);
#560=FACE_BOUND('',#521,.T.);
#561=FACE_BOUND('',#522,.T.);
#562=FACE_BOUND('',#523,.T.);
#563=FACE_BOUND('',#524,.T.);
#564=FACE_BOUND('',#525,.T.);
#565=FACE_BOUND('',#526,.T.);
#566=FACE_BOUND('',#527,.T.);
#567=FACE_BOUND('',#528,.T.);
#568=FACE_BOUND('',#529,.T.);
#569=FACE_BOUND('',#530,.T.);
#570=FACE_BOUND('',#531,.T.);
#571=FACE_BOUND('',#532,.T.);
#572=FACE_BOUND('',#533,.T.);
#573=FACE_BOUND('',#534,.T.);
#574=FACE_BOUND('',#535,.T.);
#575=FACE_BOUND('',#536,.T.);
#576=PLANE('',#636);
#577=PLANE('',#638);
#578=PLANE('',#647);
#579=PLANE('',#654);
#580=PLANE('',#665);
#581=PLANE('',#672);
#582=PLANE('',#676);
#583=PLANE('',#683);
#584=PLANE('',#690);
#585=PLANE('',#700);
#586=PLANE('',#701);
#587=PLANE('',#702);
#588=PLANE('',#703);
#589=PLANE('',#704);
#590=ADVANCED_FACE('',(#537),#576,.T.);
#591=ADVANCED_FACE('',(#538),#577,.F.);
#592=ADVANCED_FACE('',(#539),#46,.T.);
#593=ADVANCED_FACE('',(#540,#541),#47,.F.);
#594=ADVANCED_FACE('',(#542),#578,.T.);
#595=ADVANCED_FACE('',(#543),#48,.T.);
#596=ADVANCED_FACE('',(#544),#49,.T.);
#597=ADVANCED_FACE('',(#545),#579,.T.);
#598=ADVANCED_FACE('',(#546),#50,.F.);
#599=ADVANCED_FACE('',(#547),#51,.T.);
#600=ADVANCED_FACE('',(#548),#52,.T.);
#601=ADVANCED_FACE('',(#549),#580,.T.);
#602=ADVANCED_FACE('',(#550),#53,.T.);
#603=ADVANCED_FACE('',(#551),#54,.F.);
#604=ADVANCED_FACE('',(#552),#581,.T.);
#605=ADVANCED_FACE('',(#553),#55,.T.);
#606=ADVANCED_FACE('',(#554),#582,.T.);
#607=ADVANCED_FACE('',(#555),#56,.F.);
#608=ADVANCED_FACE('',(#556),#57,.F.);
#609=ADVANCED_FACE('',(#557),#583,.T.);
#610=ADVANCED_FACE('',(#558),#58,.T.);
#611=ADVANCED_FACE('',(#559),#59,.T.);
#612=ADVANCED_FACE('',(#560),#584,.T.);
#613=ADVANCED_FACE('',(#561),#60,.F.);
#614=ADVANCED_FACE('',(#562),#61,.T.);
#615=ADVANCED_FACE('',(#563,#564),#62,.F.);
#616=ADVANCED_FACE('',(#565,#566),#585,.T.);
#617=ADVANCED_FACE('',(#567,#568),#586,.F.);
#618=ADVANCED_FACE('',(#569),#587,.T.);
#619=ADVANCED_FACE('',(#570,#571),#588,.F.);
#620=ADVANCED_FACE('',(#572,#573),#589,.T.);
#621=ADVANCED_FACE('',(#574),#63,.F.);
#622=ADVANCED_FACE('',(#575),#64,.F.);
#623=CLOSED_SHELL('',(#590,#591,#592,#593,#594,#595,#596,#597,#598,#599,
#600,#601,#602,#603,#604,#605,#606,#607,#608,#609,#610,#611,#612,#613,#614,
#615,#616,#617,#618,#619,#620,#621,#622));
#624=STYLED_ITEM('',(#625),#632);
#625=PRESENTATION_STYLE_ASSIGNMENT((#626));
#626=SURFACE_STYLE_USAGE(.BOTH.,#627);
#627=SURFACE_SIDE_STYLE('',(#628));
#628=SURFACE_STYLE_FILL_AREA(#629);
#629=FILL_AREA_STYLE('',(#630));
#630=FILL_AREA_STYLE_COLOUR('',#631);
#631=COLOUR_RGB('',0.498039215686275,0.498039215686275,0.498039215686275);
#632=MANIFOLD_SOLID_BREP('thruster_base_2',#623);
#633=SHAPE_DEFINITION_REPRESENTATION(#1091,#634);
#634=SHAPE_REPRESENTATION('thruster_base_2',(#635),#1086);
#635=AXIS2_PLACEMENT_3D('',#902,#707,#708);
#636=AXIS2_PLACEMENT_3D('',#903,#709,#710);
#637=AXIS2_PLACEMENT_3D('',#907,#712,#713);
#638=AXIS2_PLACEMENT_3D('',#914,#717,#718);
#639=AXIS2_PLACEMENT_3D('',#918,#720,#721);
#640=AXIS2_PLACEMENT_3D('',#922,#723,#724);
#641=AXIS2_PLACEMENT_3D('',#935,#731,#732);
#642=AXIS2_PLACEMENT_3D('',#936,#733,#734);
#643=AXIS2_PLACEMENT_3D('',#937,#735,#736);
#644=AXIS2_PLACEMENT_3D('',#938,#737,#738);
#645=AXIS2_PLACEMENT_3D('',#939,#739,#740);
#646=AXIS2_PLACEMENT_3D('',#941,#741,#742);
#647=AXIS2_PLACEMENT_3D('',#943,#743,#744);
#648=AXIS2_PLACEMENT_3D('',#952,#749,#750);
#649=AXIS2_PLACEMENT_3D('',#953,#751,#752);
#650=AXIS2_PLACEMENT_3D('',#954,#753,#754);
#651=AXIS2_PLACEMENT_3D('',#955,#755,#756);
#652=AXIS2_PLACEMENT_3D('',#956,#757,#758);
#653=AXIS2_PLACEMENT_3D('',#960,#760,#761);
#654=AXIS2_PLACEMENT_3D('',#961,#762,#763);
#655=AXIS2_PLACEMENT_3D('',#964,#765,#766);
#656=AXIS2_PLACEMENT_3D('',#969,#769,#770);
#657=AXIS2_PLACEMENT_3D('',#970,#771,#772);
#658=AXIS2_PLACEMENT_3D('',#974,#774,#775);
#659=AXIS2_PLACEMENT_3D('',#976,#777,#778);
#660=AXIS2_PLACEMENT_3D('',#977,#779,#780);
#661=AXIS2_PLACEMENT_3D('',#981,#782,#783);
#662=AXIS2_PLACEMENT_3D('',#982,#784,#785);
#663=AXIS2_PLACEMENT_3D('',#983,#786,#787);
#664=AXIS2_PLACEMENT_3D('',#987,#789,#790);
#665=AXIS2_PLACEMENT_3D('',#988,#791,#792);
#666=AXIS2_PLACEMENT_3D('',#994,#796,#797);
#667=AXIS2_PLACEMENT_3D('',#995,#798,#799);
#668=AXIS2_PLACEMENT_3D('',#999,#801,#802);
#669=AXIS2_PLACEMENT_3D('',#1000,#803,#804);
#670=AXIS2_PLACEMENT_3D('',#1001,#805,#806);
#671=AXIS2_PLACEMENT_3D('',#1005,#808,#809);
#672=AXIS2_PLACEMENT_3D('',#1006,#810,#811);
#673=AXIS2_PLACEMENT_3D('',#1012,#815,#816);
#674=AXIS2_PLACEMENT_3D('',#1013,#817,#818);
#675=AXIS2_PLACEMENT_3D('',#1017,#820,#821);
#676=AXIS2_PLACEMENT_3D('',#1018,#822,#823);
#677=AXIS2_PLACEMENT_3D('',#1024,#827,#828);
#678=AXIS2_PLACEMENT_3D('',#1025,#829,#830);
#679=AXIS2_PLACEMENT_3D('',#1029,#832,#833);
#680=AXIS2_PLACEMENT_3D('',#1030,#834,#835);
#681=AXIS2_PLACEMENT_3D('',#1031,#836,#837);
#682=AXIS2_PLACEMENT_3D('',#1035,#839,#840);
#683=AXIS2_PLACEMENT_3D('',#1036,#841,#842);
#684=AXIS2_PLACEMENT_3D('',#1042,#846,#847);
#685=AXIS2_PLACEMENT_3D('',#1043,#848,#849);
#686=AXIS2_PLACEMENT_3D('',#1047,#851,#852);
#687=AXIS2_PLACEMENT_3D('',#1048,#853,#854);
#688=AXIS2_PLACEMENT_3D('',#1049,#855,#856);
#689=AXIS2_PLACEMENT_3D('',#1053,#858,#859);
#690=AXIS2_PLACEMENT_3D('',#1054,#860,#861);
#691=AXIS2_PLACEMENT_3D('',#1060,#865,#866);
#692=AXIS2_PLACEMENT_3D('',#1061,#867,#868);
#693=AXIS2_PLACEMENT_3D('',#1065,#870,#871);
#694=AXIS2_PLACEMENT_3D('',#1066,#872,#873);
#695=AXIS2_PLACEMENT_3D('',#1067,#874,#875);
#696=AXIS2_PLACEMENT_3D('',#1068,#876,#877);
#697=AXIS2_PLACEMENT_3D('',#1069,#878,#879);
#698=AXIS2_PLACEMENT_3D('',#1070,#880,#881);
#699=AXIS2_PLACEMENT_3D('',#1072,#882,#883);
#700=AXIS2_PLACEMENT_3D('',#1074,#884,#885);
#701=AXIS2_PLACEMENT_3D('',#1075,#886,#887);
#702=AXIS2_PLACEMENT_3D('',#1076,#888,#889);
#703=AXIS2_PLACEMENT_3D('',#1079,#892,#893);
#704=AXIS2_PLACEMENT_3D('',#1081,#895,#896);
#705=AXIS2_PLACEMENT_3D('',#1083,#898,#899);
#706=AXIS2_PLACEMENT_3D('',#1084,#900,#901);
#707=DIRECTION('',(0.,0.,1.));
#708=DIRECTION('',(1.,0.,0.));
#709=DIRECTION('',(0.,0.,-1.));
#710=DIRECTION('',(-1.,0.,0.));
#711=DIRECTION('',(0.,1.,0.));
#712=DIRECTION('',(0.,0.,-1.));
#713=DIRECTION('',(1.,0.,0.));
#714=DIRECTION('',(-1.,0.,0.));
#715=DIRECTION('',(0.,1.,0.));
#716=DIRECTION('',(-1.,0.,0.));
#717=DIRECTION('',(0.,0.,-1.));
#718=DIRECTION('',(-1.,0.,0.));
#719=DIRECTION('',(-1.,0.,0.));
#720=DIRECTION('',(0.,0.,-1.));
#721=DIRECTION('',(1.,0.,0.));
#722=DIRECTION('',(0.,1.,0.));
#723=DIRECTION('',(0.,0.,-1.));
#724=DIRECTION('',(-1.,0.,0.));
#725=DIRECTION('',(-1.,0.,0.));
#726=DIRECTION('',(0.,1.,0.));
#727=DIRECTION('',(-1.,0.,0.));
#728=DIRECTION('',(0.,1.,0.));
#729=DIRECTION('',(-1.,0.,0.));
#730=DIRECTION('',(0.,1.,0.));
#731=DIRECTION('',(0.,1.,0.));
#732=DIRECTION('',(0.,0.,1.));
#733=DIRECTION('',(0.,-1.,0.));
#734=DIRECTION('',(0.,0.,-1.));
#735=DIRECTION('',(0.,-1.,0.));
#736=DIRECTION('',(0.,0.,-1.));
#737=DIRECTION('',(0.,1.,0.));
#738=DIRECTION('',(0.,0.,1.));
#739=DIRECTION('',(0.,-1.,0.));
#740=DIRECTION('',(0.,0.,-1.));
#741=DIRECTION('',(0.,-1.,0.));
#742=DIRECTION('',(0.,0.,-1.));
#743=DIRECTION('',(0.107983434124815,0.,0.99415269348054));
#744=DIRECTION('',(0.99415269348054,0.,-0.107983434124815));
#745=DIRECTION('',(0.99415269348054,0.,-0.107983434124815));
#746=DIRECTION('',(0.,1.,0.));
#747=DIRECTION('',(0.99415269348054,0.,-0.107983434124815));
#748=DIRECTION('',(0.,1.,0.));
#749=DIRECTION('',(0.,1.,0.));
#750=DIRECTION('',(0.,0.,1.));
#751=DIRECTION('',(0.,-1.,0.));
#752=DIRECTION('',(0.,0.,-1.));
#753=DIRECTION('',(0.,-1.,0.));
#754=DIRECTION('',(0.,0.,-1.));
#755=DIRECTION('',(0.,1.,0.));
#756=DIRECTION('',(0.,0.,1.));
#757=DIRECTION('',(0.,-1.,0.));
#758=DIRECTION('',(0.,0.,-1.));
#759=DIRECTION('',(0.,1.,0.));
#760=DIRECTION('',(0.,-1.,0.));
#761=DIRECTION('',(0.,0.,-1.));
#762=DIRECTION('',(0.,0.,-1.));
#763=DIRECTION('',(-1.,0.,0.));
#764=DIRECTION('',(-1.,0.,0.));
#765=DIRECTION('',(0.,0.,-1.));
#766=DIRECTION('',(-1.,0.,0.));
#767=DIRECTION('',(0.,1.,0.));
#768=DIRECTION('',(-1.,0.,0.));
#769=DIRECTION('',(0.,1.,0.));
#770=DIRECTION('',(0.,0.,1.));
#771=DIRECTION('',(0.,-1.,0.));
#772=DIRECTION('',(0.,0.,-1.));
#773=DIRECTION('',(0.,1.,0.));
#774=DIRECTION('',(0.,-1.,0.));
#775=DIRECTION('',(0.,0.,-1.));
#776=DIRECTION('',(0.,1.,0.));
#777=DIRECTION('',(0.,1.,0.));
#778=DIRECTION('',(0.,0.,1.));
#779=DIRECTION('',(0.,-1.,0.));
#780=DIRECTION('',(0.,0.,-1.));
#781=DIRECTION('',(0.,1.,0.));
#782=DIRECTION('',(0.,-1.,0.));
#783=DIRECTION('',(0.,0.,-1.));
#784=DIRECTION('',(0.,1.,0.));
#785=DIRECTION('',(0.,0.,1.));
#786=DIRECTION('',(0.,-1.,0.));
#787=DIRECTION('',(0.,0.,-1.));
#788=DIRECTION('',(0.,1.,0.));
#789=DIRECTION('',(0.,-1.,0.));
#790=DIRECTION('',(0.,0.,-1.));
#791=DIRECTION('',(0.649448048330185,0.,-0.76040596560003));
#792=DIRECTION('',(-0.76040596560003,0.,-0.649448048330184));
#793=DIRECTION('',(-0.76040596560003,0.,-0.649448048330185));
#794=DIRECTION('',(0.,1.,0.));
#795=DIRECTION('',(-0.76040596560003,0.,-0.649448048330185));
#796=DIRECTION('',(0.,1.,0.));
#797=DIRECTION('',(0.,0.,1.));
#798=DIRECTION('',(0.,-1.,0.));
#799=DIRECTION('',(0.,0.,-1.));
#800=DIRECTION('',(0.,1.,0.));
#801=DIRECTION('',(0.,-1.,0.));
#802=DIRECTION('',(0.,0.,-1.));
#803=DIRECTION('',(0.,1.,0.));
#804=DIRECTION('',(0.,0.,1.));
#805=DIRECTION('',(0.,-1.,0.));
#806=DIRECTION('',(0.,0.,-1.));
#807=DIRECTION('',(0.,1.,0.));
#808=DIRECTION('',(0.,-1.,0.));
#809=DIRECTION('',(0.,0.,-1.));
#810=DIRECTION('',(-0.390731128489273,0.,0.92050485345244));
#811=DIRECTION('',(0.92050485345244,0.,0.390731128489273));
#812=DIRECTION('',(0.92050485345244,0.,0.390731128489273));
#813=DIRECTION('',(0.,1.,0.));
#814=DIRECTION('',(0.92050485345244,0.,0.390731128489273));
#815=DIRECTION('',(0.,1.,0.));
#816=DIRECTION('',(0.,0.,1.));
#817=DIRECTION('',(0.,-1.,0.));
#818=DIRECTION('',(0.,0.,-1.));
#819=DIRECTION('',(0.,1.,0.));
#820=DIRECTION('',(0.,-1.,0.));
#821=DIRECTION('',(0.,0.,-1.));
#822=DIRECTION('',(-0.469471562785891,0.,0.882947592858927));
#823=DIRECTION('',(0.882947592858927,0.,0.469471562785891));
#824=DIRECTION('',(0.882947592858927,0.,0.469471562785891));
#825=DIRECTION('',(0.,1.,0.));
#826=DIRECTION('',(0.882947592858927,0.,0.469471562785891));
#827=DIRECTION('',(0.,1.,0.));
#828=DIRECTION('',(0.,0.,1.));
#829=DIRECTION('',(0.,-1.,0.));
#830=DIRECTION('',(0.,0.,-1.));
#831=DIRECTION('',(0.,1.,0.));
#832=DIRECTION('',(0.,-1.,0.));
#833=DIRECTION('',(0.,0.,-1.));
#834=DIRECTION('',(0.,1.,0.));
#835=DIRECTION('',(0.,0.,1.));
#836=DIRECTION('',(0.,-1.,0.));
#837=DIRECTION('',(0.,0.,-1.));
#838=DIRECTION('',(0.,1.,0.));
#839=DIRECTION('',(0.,-1.,0.));
#840=DIRECTION('',(0.,0.,-1.));
#841=DIRECTION('',(0.139173100960065,0.,-0.99026806874157));
#842=DIRECTION('',(-0.99026806874157,0.,-0.139173100960065));
#843=DIRECTION('',(-0.99026806874157,0.,-0.139173100960065));
#844=DIRECTION('',(0.,1.,0.));
#845=DIRECTION('',(-0.99026806874157,0.,-0.139173100960065));
#846=DIRECTION('',(0.,1.,0.));
#847=DIRECTION('',(0.,0.,1.));
#848=DIRECTION('',(0.,-1.,0.));
#849=DIRECTION('',(0.,0.,-1.));
#850=DIRECTION('',(0.,1.,0.));
#851=DIRECTION('',(0.,-1.,0.));
#852=DIRECTION('',(0.,0.,-1.));
#853=DIRECTION('',(0.,1.,0.));
#854=DIRECTION('',(0.,0.,1.));
#855=DIRECTION('',(0.,-1.,0.));
#856=DIRECTION('',(0.,0.,-1.));
#857=DIRECTION('',(0.,1.,0.));
#858=DIRECTION('',(0.,-1.,0.));
#859=DIRECTION('',(0.,0.,-1.));
#860=DIRECTION('',(0.224951054343865,0.,-0.974370064785235));
#861=DIRECTION('',(-0.974370064785235,0.,-0.224951054343865));
#862=DIRECTION('',(-0.974370064785235,0.,-0.224951054343865));
#863=DIRECTION('',(0.,1.,0.));
#864=DIRECTION('',(-0.974370064785235,0.,-0.224951054343865));
#865=DIRECTION('',(0.,1.,0.));
#866=DIRECTION('',(0.,0.,1.));
#867=DIRECTION('',(0.,-1.,0.));
#868=DIRECTION('',(0.,0.,-1.));
#869=DIRECTION('',(0.,1.,0.));
#870=DIRECTION('',(0.,-1.,0.));
#871=DIRECTION('',(0.,0.,-1.));
#872=DIRECTION('',(0.,1.,0.));
#873=DIRECTION('',(0.,0.,1.));
#874=DIRECTION('',(0.,-1.,0.));
#875=DIRECTION('',(0.,0.,-1.));
#876=DIRECTION('',(0.,-1.,0.));
#877=DIRECTION('',(0.,0.,-1.));
#878=DIRECTION('',(0.,1.,0.));
#879=DIRECTION('',(0.,0.,1.));
#880=DIRECTION('',(0.,-1.,0.));
#881=DIRECTION('',(0.,0.,-1.));
#882=DIRECTION('',(0.,-1.,0.));
#883=DIRECTION('',(0.,0.,-1.));
#884=DIRECTION('',(0.,-1.,0.));
#885=DIRECTION('',(1.,0.,0.));
#886=DIRECTION('',(0.,-1.,0.));
#887=DIRECTION('',(1.,0.,0.));
#888=DIRECTION('',(-0.996138177177007,0.,-0.087799384795509));
#889=DIRECTION('',(-0.087799384795509,0.,0.996138177177007));
#890=DIRECTION('',(-0.087799384795509,0.,0.996138177177007));
#891=DIRECTION('',(-0.087799384795509,0.,0.996138177177007));
#892=DIRECTION('',(0.,-1.,0.));
#893=DIRECTION('',(1.,0.,0.));
#894=DIRECTION('',(-0.087799384795509,0.,0.996138177177007));
#895=DIRECTION('',(0.,-1.,0.));
#896=DIRECTION('',(1.,0.,0.));
#897=DIRECTION('',(-0.087799384795509,0.,0.996138177177007));
#898=DIRECTION('',(-0.087799384795509,0.,0.996138177177007));
#899=DIRECTION('',(0.996138177177007,0.,0.087799384795509));
#900=DIRECTION('',(0.087799384795509,0.,-0.996138177177007));
#901=DIRECTION('',(-0.996138177177007,0.,-0.087799384795509));
#902=CARTESIAN_POINT('',(0.,0.,0.));
#903=CARTESIAN_POINT('',(-0.102075947370451,0.0953,-0.0106435263817393));
#904=CARTESIAN_POINT('',(-0.0937031487322802,0.0953,-0.0106435263817393));
#905=CARTESIAN_POINT('',(-0.0937031487322802,0.1338,-0.0106435263817393));
#906=CARTESIAN_POINT('',(-0.0937031487322802,0.1453,-0.0106435263817393));
#907=CARTESIAN_POINT('',(-0.0977186559095432,0.1338,-0.0106435263817393));
#908=CARTESIAN_POINT('',(-0.0977186559095432,0.1378,-0.0106435263817393));
#909=CARTESIAN_POINT('',(-0.102075947370451,0.1378,-0.0106435263817393));
#910=CARTESIAN_POINT('',(-0.110448746008621,0.1378,-0.0106435263817393));
#911=CARTESIAN_POINT('',(-0.110448746008621,0.0953,-0.0106435263817393));
#912=CARTESIAN_POINT('',(-0.110448746008621,0.1453,-0.0106435263817393));
#913=CARTESIAN_POINT('',(-0.102075947370451,0.1453,-0.0106435263817393));
#914=CARTESIAN_POINT('',(-0.0904487460086213,0.0953,0.00916135144274144));
#915=CARTESIAN_POINT('',(-0.102948746008621,0.1378,0.00916135144274144));
#916=CARTESIAN_POINT('',(-0.0994642531858844,0.1378,0.00916135144274144));
#917=CARTESIAN_POINT('',(-0.110448746008621,0.1378,0.00916135144274143));
#918=CARTESIAN_POINT('',(-0.0994642531858844,0.1338,0.00916135144274144));
#919=CARTESIAN_POINT('',(-0.0954487460086213,0.1338,0.00916135144274144));
#920=CARTESIAN_POINT('',(-0.0954487460086213,0.1028,0.00916135144274144));
#921=CARTESIAN_POINT('',(-0.0954487460086213,0.1068,0.00916135144274144));
#922=CARTESIAN_POINT('',(-0.0994642531858844,0.1068,0.00916135144274144));
#923=CARTESIAN_POINT('',(-0.0994642531858844,0.1028,0.00916135144274144));
#924=CARTESIAN_POINT('',(-0.102948746008621,0.1028,0.00916135144274144));
#925=CARTESIAN_POINT('',(-0.110448746008621,0.1028,0.00916135144274143));
#926=CARTESIAN_POINT('',(-0.110448746008621,0.0953,0.00916135144274143));
#927=CARTESIAN_POINT('',(-0.110448746008621,0.0953,0.00916135144274143));
#928=CARTESIAN_POINT('',(-0.0904487460086213,0.0953,0.00916135144274144));
#929=CARTESIAN_POINT('',(-0.0854487460086213,0.0953,0.00916135144274144));
#930=CARTESIAN_POINT('',(-0.0854487460086213,0.0953,0.00916135144274144));
#931=CARTESIAN_POINT('',(-0.0854487460086213,0.1453,0.00916135144274144));
#932=CARTESIAN_POINT('',(-0.0904487460086213,0.1453,0.00916135144274144));
#933=CARTESIAN_POINT('',(-0.110448746008621,0.1453,0.00916135144274143));
#934=CARTESIAN_POINT('',(-0.110448746008621,0.0953,0.00916135144274143));
#935=CARTESIAN_POINT('',(-0.110448746008621,0.0953,-0.000741087469498952));
#936=CARTESIAN_POINT('',(-0.110448746008621,0.1378,-0.000741087469498952));
#937=CARTESIAN_POINT('',(-0.110448746008621,0.1453,-0.000741087469498952));
#938=CARTESIAN_POINT('',(-0.110448746008621,0.0953,-0.000741087469498952));
#939=CARTESIAN_POINT('',(-0.110448746008621,0.1453,-0.000741087469498952));
#940=CARTESIAN_POINT('',(-0.110448746008621,0.1453,-0.00474108746949895));
#941=CARTESIAN_POINT('',(-0.110448746008621,0.1378,-0.000741087469498952));
#942=CARTESIAN_POINT('',(-0.110448746008621,0.1378,-0.00474108746949895));
#943=CARTESIAN_POINT('',(-0.0807410329416472,0.0953,0.0087699747423101));
#944=CARTESIAN_POINT('',(-0.0807410329416472,0.1453,0.0087699747423101));
#945=CARTESIAN_POINT('',(-0.0843566533313953,0.1453,0.00916269822305612));
#946=CARTESIAN_POINT('',(-0.0771254125518991,0.1453,0.00837725126156408));
#947=CARTESIAN_POINT('',(-0.0843566533313953,0.0953,0.00916269822305612));
#948=CARTESIAN_POINT('',(-0.0843566533313953,0.0953,0.00916269822305612));
#949=CARTESIAN_POINT('',(-0.0807410329416472,0.0953,0.0087699747423101));
#950=CARTESIAN_POINT('',(-0.0771254125518991,0.0953,0.00837725126156408));
#951=CARTESIAN_POINT('',(-0.0771254125518991,0.0953,0.00837725126156408));
#952=CARTESIAN_POINT('',(-0.0848965705020194,0.0953,0.00419193475565352));
#953=CARTESIAN_POINT('',(-0.0848965705020194,0.1453,0.00419193475565352));
#954=CARTESIAN_POINT('',(-0.0848965705020194,0.0953,0.00419193475565352));
#955=CARTESIAN_POINT('',(-0.110448746008621,0.0953,-0.000741087469498952));
#956=CARTESIAN_POINT('',(-0.110448746008621,0.1028,-0.000741087469498952));
#957=CARTESIAN_POINT('',(-0.110448746008621,0.1028,-0.0106435263817393));
#958=CARTESIAN_POINT('',(-0.110448746008621,0.0953,-0.0106435263817393));
#959=CARTESIAN_POINT('',(-0.110448746008621,0.0953,-0.0106435263817393));
#960=CARTESIAN_POINT('',(-0.110448746008621,0.0953,-0.000741087469498952));
#961=CARTESIAN_POINT('',(-0.102075947370451,0.0953,-0.0106435263817393));
#962=CARTESIAN_POINT('',(-0.102075947370451,0.1028,-0.0106435263817393));
#963=CARTESIAN_POINT('',(-0.0977186559095432,0.1028,-0.0106435263817393));
#964=CARTESIAN_POINT('',(-0.0977186559095432,0.1068,-0.0106435263817393));
#965=CARTESIAN_POINT('',(-0.0937031487322802,0.1068,-0.0106435263817393));
#966=CARTESIAN_POINT('',(-0.0937031487322802,0.0953,-0.0106435263817393));
#967=CARTESIAN_POINT('',(-0.0937031487322802,0.0953,-0.0106435263817393));
#968=CARTESIAN_POINT('',(-0.102075947370451,0.0953,-0.0106435263817393));
#969=CARTESIAN_POINT('',(-0.0937031487322802,0.0953,-0.0156435263817394));
#970=CARTESIAN_POINT('',(-0.0937031487322802,0.1453,-0.0156435263817394));
#971=CARTESIAN_POINT('',(-0.0887714040621602,0.1453,-0.0148201828879636));
#972=CARTESIAN_POINT('',(-0.0887714040621602,0.0953,-0.0148201828879636));
#973=CARTESIAN_POINT('',(-0.0887714040621602,0.0953,-0.0148201828879636));
#974=CARTESIAN_POINT('',(-0.0937031487322802,0.0953,-0.0156435263817394));
#975=CARTESIAN_POINT('',(-0.0937031487322802,0.1028,-0.0106435263817393));
#976=CARTESIAN_POINT('',(-8.67361737988404E-16,0.0953,-4.64905891561784E-16));
#977=CARTESIAN_POINT('',(-8.67361737988404E-16,0.1453,-4.64905891561784E-16));
#978=CARTESIAN_POINT('',(-0.0743469913458852,0.1453,-0.0507200638585449));
#979=CARTESIAN_POINT('',(-0.0743469913458852,0.0953,-0.0507200638585449));
#980=CARTESIAN_POINT('',(-0.0743469913458852,0.0953,-0.0507200638585449));
#981=CARTESIAN_POINT('',(-8.67361737988404E-16,0.0953,-4.64905891561784E-16));
#982=CARTESIAN_POINT('',(-0.0702166029377804,0.0953,-0.0479022825330702));
#983=CARTESIAN_POINT('',(-0.0702166029377804,0.1453,-0.0479022825330702));
#984=CARTESIAN_POINT('',(-0.0669693626961295,0.1453,-0.0517043123610704));
#985=CARTESIAN_POINT('',(-0.0669693626961295,0.0953,-0.0517043123610704));
#986=CARTESIAN_POINT('',(-0.0669693626961295,0.0953,-0.0517043123610704));
#987=CARTESIAN_POINT('',(-0.0702166029377804,0.0953,-0.0479022825330702));
#988=CARTESIAN_POINT('',(-0.0641913294378611,0.0953,-0.0493316478116082));
#989=CARTESIAN_POINT('',(-0.0641913294378611,0.1453,-0.0493316478116082));
#990=CARTESIAN_POINT('',(-0.0614132961795927,0.1453,-0.046958983262146));
#991=CARTESIAN_POINT('',(-0.0614132961795927,0.0953,-0.046958983262146));
#992=CARTESIAN_POINT('',(-0.0614132961795927,0.0953,-0.046958983262146));
#993=CARTESIAN_POINT('',(-0.0641913294378611,0.0953,-0.0493316478116082));
#994=CARTESIAN_POINT('',(-0.0646605364212436,0.0953,-0.0431569534341459));
#995=CARTESIAN_POINT('',(-0.0646605364212436,0.1453,-0.0431569534341459));
#996=CARTESIAN_POINT('',(-0.0605017676779169,0.1453,-0.0403812296475401));
#997=CARTESIAN_POINT('',(-0.0605017676779169,0.0953,-0.0403812296475401));
#998=CARTESIAN_POINT('',(-0.0605017676779169,0.0953,-0.0403812296475401));
#999=CARTESIAN_POINT('',(-0.0646605364212436,0.0953,-0.0431569534341459));
#1000=CARTESIAN_POINT('',(-2.01227923213309E-16,0.0953,-5.89805981832114E-17));
#1001=CARTESIAN_POINT('',(-2.01227923213309E-16,0.1453,-5.89805981832114E-17));
#1002=CARTESIAN_POINT('',(-0.0668791237194111,0.1453,-0.0286057758245375));
#1003=CARTESIAN_POINT('',(-0.0668791237194111,0.0953,-0.0286057758245375));
#1004=CARTESIAN_POINT('',(-0.0668791237194111,0.0953,-0.0286057758245375));
#1005=CARTESIAN_POINT('',(-2.01227923213309E-16,0.0953,-5.89805981832114E-17));
#1006=CARTESIAN_POINT('',(-0.0689962924091239,0.0953,-0.0295044606149881));
#1007=CARTESIAN_POINT('',(-0.0689962924091239,0.1453,-0.0295044606149881));
#1008=CARTESIAN_POINT('',(-0.0711134610988367,0.1453,-0.0304031454054387));
#1009=CARTESIAN_POINT('',(-0.0711134610988367,0.0953,-0.0304031454054387));
#1010=CARTESIAN_POINT('',(-0.0711134610988367,0.0953,-0.0304031454054387));
#1011=CARTESIAN_POINT('',(-0.0689962924091239,0.0953,-0.0295044606149881));
#1012=CARTESIAN_POINT('',(5.96050986345631E-15,0.0953,2.72351585728359E-15));
#1013=CARTESIAN_POINT('',(5.96050986345631E-15,0.1453,2.72351585728359E-15));
#1014=CARTESIAN_POINT('',(-0.0681930441899386,0.1453,-0.0364853987796362));
#1015=CARTESIAN_POINT('',(-0.0681930441899386,0.0953,-0.0364853987796362));
#1016=CARTESIAN_POINT('',(-0.0681930441899386,0.0953,-0.0364853987796362));
#1017=CARTESIAN_POINT('',(5.96050986345631E-15,0.0953,2.72351585728359E-15));
#1018=CARTESIAN_POINT('',(-0.0705770101415973,0.0953,-0.0377529759608929));
#1019=CARTESIAN_POINT('',(-0.0705770101415973,0.1453,-0.0377529759608929));
#1020=CARTESIAN_POINT('',(-0.072960976093256,0.1453,-0.0390205531421497));
#1021=CARTESIAN_POINT('',(-0.072960976093256,0.0953,-0.0390205531421497));
#1022=CARTESIAN_POINT('',(-0.072960976093256,0.0953,-0.0390205531421497));
#1023=CARTESIAN_POINT('',(-0.0705770101415973,0.0953,-0.0377529759608929));
#1024=CARTESIAN_POINT('',(-6.20337115009306E-15,0.0953,-1.21517379492175E-15));
#1025=CARTESIAN_POINT('',(-6.20337115009306E-15,0.1453,-1.21517379492175E-15));
#1026=CARTESIAN_POINT('',(-0.0816235642860999,0.1453,-0.0135462671327902));
#1027=CARTESIAN_POINT('',(-0.0816235642860999,0.0953,-0.0135462671327902));
#1028=CARTESIAN_POINT('',(-0.0816235642860999,0.0953,-0.0135462671327902));
#1029=CARTESIAN_POINT('',(-6.20337115009306E-15,0.0953,-1.21517379492175E-15));
#1030=CARTESIAN_POINT('',(-0.0794532495480117,0.0953,-0.0131860811563322));
#1031=CARTESIAN_POINT('',(-0.0794532495480117,0.1453,-0.0131860811563322));
#1032=CARTESIAN_POINT('',(-0.0797594303701238,0.1453,-0.0110074914051007));
#1033=CARTESIAN_POINT('',(-0.0797594303701238,0.0953,-0.0110074914051007));
#1034=CARTESIAN_POINT('',(-0.0797594303701238,0.0953,-0.0110074914051007));
#1035=CARTESIAN_POINT('',(-0.0794532495480117,0.0953,-0.0131860811563322));
#1036=CARTESIAN_POINT('',(-0.078187170672313,0.0953,-0.0107865247148015));
#1037=CARTESIAN_POINT('',(-0.078187170672313,0.1453,-0.0107865247148015));
#1038=CARTESIAN_POINT('',(-0.0766149109745021,0.1453,-0.0105655580245022));
#1039=CARTESIAN_POINT('',(-0.0766149109745021,0.0953,-0.0105655580245022));
#1040=CARTESIAN_POINT('',(-0.0766149109745021,0.0953,-0.0105655580245022));
#1041=CARTESIAN_POINT('',(-0.078187170672313,0.0953,-0.0107865247148015));
#1042=CARTESIAN_POINT('',(-3.22658566531686E-15,0.0953,-6.13224748757801E-16));
#1043=CARTESIAN_POINT('',(-3.22658566531686E-15,0.1453,-6.13224748757801E-16));
#1044=CARTESIAN_POINT('',(-0.0755786511582601,0.1453,-0.0164116753897273));
#1045=CARTESIAN_POINT('',(-0.0755786511582601,0.0953,-0.0164116753897273));
#1046=CARTESIAN_POINT('',(-0.0755786511582601,0.0953,-0.0164116753897273));
#1047=CARTESIAN_POINT('',(-3.22658566531686E-15,0.0953,-6.13224748757801E-16));
#1048=CARTESIAN_POINT('',(-0.0747968704377211,0.0953,-0.0162419140720164));
#1049=CARTESIAN_POINT('',(-0.0747968704377211,0.1453,-0.0162419140720164));
#1050=CARTESIAN_POINT('',(-0.074616909594246,0.1453,-0.0170214101238446));
#1051=CARTESIAN_POINT('',(-0.074616909594246,0.0953,-0.0170214101238446));
#1052=CARTESIAN_POINT('',(-0.074616909594246,0.0953,-0.0170214101238446));
#1053=CARTESIAN_POINT('',(-0.0747968704377211,0.0953,-0.0162419140720164));
#1054=CARTESIAN_POINT('',(-0.072768655206101,0.0953,-0.0165947069765137));
#1055=CARTESIAN_POINT('',(-0.072768655206101,0.1453,-0.0165947069765137));
#1056=CARTESIAN_POINT('',(-0.070920400817956,0.1453,-0.0161680038291827));
#1057=CARTESIAN_POINT('',(-0.070920400817956,0.0953,-0.0161680038291827));
#1058=CARTESIAN_POINT('',(-0.070920400817956,0.0953,-0.0161680038291827));
#1059=CARTESIAN_POINT('',(-0.072768655206101,0.0953,-0.0165947069765137));
#1060=CARTESIAN_POINT('',(-6.17561557447743E-16,0.0953,-5.63785129692462E-17));
#1061=CARTESIAN_POINT('',(-6.17561557447743E-16,0.1453,-5.63785129692462E-17));
#1062=CARTESIAN_POINT('',(-0.0726701322873209,0.1453,0.00318739287557625));
#1063=CARTESIAN_POINT('',(-0.0726701322873209,0.0953,0.00318739287557625));
#1064=CARTESIAN_POINT('',(-0.0726701322873209,0.0953,0.00318739287557625));
#1065=CARTESIAN_POINT('',(-6.17561557447743E-16,0.0953,-5.63785129692462E-17));
#1066=CARTESIAN_POINT('',(-0.0776653297225231,0.0953,0.00340648779416139));
#1067=CARTESIAN_POINT('',(-0.0776653297225231,0.1453,0.00340648779416139));
#1068=CARTESIAN_POINT('',(-0.0776653297225231,0.0953,0.00340648779416139));
#1069=CARTESIAN_POINT('',(-0.110448746008621,0.0953,-0.000741087469498952));
#1070=CARTESIAN_POINT('',(-0.110448746008621,0.1028,-0.000741087469498952));
#1071=CARTESIAN_POINT('',(-0.110448746008621,0.1028,-0.00474108746949895));
#1072=CARTESIAN_POINT('',(-0.110448746008621,0.0953,-0.000741087469498952));
#1073=CARTESIAN_POINT('',(-0.110448746008621,0.0953,-0.00474108746949895));
#1074=CARTESIAN_POINT('',(-0.140280234161602,0.0953,-0.0038011412665351));
#1075=CARTESIAN_POINT('',(-0.140280234161602,0.1453,-0.0038011412665351));
#1076=CARTESIAN_POINT('',(-0.0945759473704507,0.1028,-0.000741087469498952));
#1077=CARTESIAN_POINT('',(-0.0945759473704507,0.1068,-0.000741087469498952));
#1078=CARTESIAN_POINT('',(-0.0937031487322802,0.1338,-0.0106435263817393));
#1079=CARTESIAN_POINT('',(-0.140280234161602,0.1028,-0.0038011412665351));
#1080=CARTESIAN_POINT('',(-0.0986451888942973,0.1028,-0.000131438162933471));
#1081=CARTESIAN_POINT('',(-0.140280234161602,0.1378,-0.0038011412665351));
#1082=CARTESIAN_POINT('',(-0.0994332987173294,0.1378,0.0088101539035594));
#1083=CARTESIAN_POINT('',(-0.0985605000791588,0.1068,-0.00109228500868099));
#1084=CARTESIAN_POINT('',(-0.0986451888942973,0.1338,-0.00013143816293347));
#1085=MECHANICAL_DESIGN_GEOMETRIC_PRESENTATION_REPRESENTATION('',(#624),
#1086);
#1086=(
GEOMETRIC_REPRESENTATION_CONTEXT(3)
GLOBAL_UNCERTAINTY_ASSIGNED_CONTEXT((#1087))
GLOBAL_UNIT_ASSIGNED_CONTEXT((#1090,#1089,#1088))
REPRESENTATION_CONTEXT('thruster_base_2','TOP_LEVEL_ASSEMBLY_PART')
);
#1087=UNCERTAINTY_MEASURE_WITH_UNIT(LENGTH_MEASURE(1.E-8),#1090,
'DISTANCE_ACCURACY_VALUE','Maximum Tolerance applied to model');
#1088=(
NAMED_UNIT(*)
SI_UNIT($,.STERADIAN.)
SOLID_ANGLE_UNIT()
);
#1089=(
NAMED_UNIT(*)
PLANE_ANGLE_UNIT()
SI_UNIT($,.RADIAN.)
);
#1090=(
LENGTH_UNIT()
NAMED_UNIT(*)
SI_UNIT($,.METRE.)
);
#1091=PRODUCT_DEFINITION_SHAPE('','',#1092);
#1092=PRODUCT_DEFINITION('','',#1094,#1093);
#1093=PRODUCT_DEFINITION_CONTEXT('',#1100,'design');
#1094=PRODUCT_DEFINITION_FORMATION_WITH_SPECIFIED_SOURCE('','',#1096,
 .NOT_KNOWN.);
#1095=PRODUCT_RELATED_PRODUCT_CATEGORY('','',(#1096));
#1096=PRODUCT('thruster_base_2','thruster_base_2','thruster_base_2',(#1098));
#1097=PRODUCT_CATEGORY('','');
#1098=PRODUCT_CONTEXT('',#1100,'mechanical');
#1099=APPLICATION_PROTOCOL_DEFINITION('international standard',
'ap242_managed_model_based_3d_engineering',2020,#1100);
#1100=APPLICATION_CONTEXT('managed model based 3d engineering');
ENDSEC;
END-ISO-10303-21;
