ISO-10303-21;
HEADER;
/* Generated by software containing ST-Developer
 * from STEP Tools, Inc. (www.steptools.com) 
 */
/* OPTION: using custom renumber hook */

FILE_DESCRIPTION(
/* description */ ('STEP AP242 Edition 2',
'CAx-IF Rec.Pracs.---Representation and Presentation of Product Manufa
cturing Information (PMI)---4.0---2014-10-13',
'CAx-IF Rec.Pracs.---3D Tessellated Geometry---0.4---2014-09-14','2;1',
'CAx-IF Rec.Pracs.---User Defined Attributes---1.5---2016-08-15'),
/* implementation_level */ '2;1');

FILE_NAME(
/* name */ 'landedConcept v4 parts - thruster_holder_2',
/* time_stamp */ '2026-01-03T01:02:41Z',
/* author */ (''),
/* organization */ (''),
/* preprocessor_version */ 'ST-DEVELOPER v20',
/* originating_system */ 'ONSHAPE BY PTC INC, 1.208',
/* authorisation */ '  ');

FILE_SCHEMA (('AP242_MANAGED_MODEL_BASED_3D_ENGINEERING_MIM_LF { 1 0 10303 442 3 1 4 }'));
ENDSEC;

DATA;
#10=SHAPE_REPRESENTATION_RELATIONSHIP('','',#764,#11);
#11=ADVANCED_BREP_SHAPE_REPRESENTATION('',(#762),#1328);
#12=ELLIPSE('',#818,0.00226415657581662,0.001);
#13=ELLIPSE('',#819,0.00226415657581662,0.001);
#14=TOROIDAL_SURFACE('',#814,0.045999961934193,0.005);
#15=TOROIDAL_SURFACE('',#815,0.045999961934193,0.005);
#16=TOROIDAL_SURFACE('',#833,0.002,0.001);
#17=TOROIDAL_SURFACE('',#836,0.002,0.001);
#18=B_SPLINE_CURVE_WITH_KNOTS('',3,(#1167,#1168,#1169,#1170,#1171,#1172,
#1173,#1174,#1175,#1176,#1177,#1178),.UNSPECIFIED.,.F.,.F.,(4,1,1,1,1,1,
1,1,1,4),(0.,0.00408256977280664,0.00612385465920996,0.00816513954561327,
0.0102064244320166,0.0122477093184199,0.0132683517616216,0.0142889942048232,
0.0153096366480249,0.0163302790912265),.UNSPECIFIED.);
#19=B_SPLINE_CURVE_WITH_KNOTS('',3,(#1179,#1180,#1181,#1182,#1183,#1184,
#1185,#1186,#1187,#1188,#1189,#1190),.UNSPECIFIED.,.F.,.F.,(4,1,1,1,1,1,
1,1,1,4),(0.,0.00104056178162766,0.00208112356325532,0.00312168534488297,
0.00416224712651063,0.00624337068976595,0.00832449425302127,0.0104056178162766,
0.0124867413795319,0.0166489885060425),.UNSPECIFIED.);
#20=B_SPLINE_CURVE_WITH_KNOTS('',3,(#1199,#1200,#1201,#1202,#1203,#1204,
#1205),.UNSPECIFIED.,.F.,.F.,(4,1,1,1,4),(0.,0.00232580275233779,0.00465160550467559,
0.00697740825701338,0.00930321100935118),.UNSPECIFIED.);
#21=B_SPLINE_CURVE_WITH_KNOTS('',3,(#1206,#1207,#1208,#1209,#1210,#1211,
#1212),.UNSPECIFIED.,.F.,.F.,(4,1,1,1,4),(0.,0.00232580275233782,0.00465160550467563,
0.00697740825701345,0.00930321100935126),.UNSPECIFIED.);
#22=B_SPLINE_CURVE_WITH_KNOTS('',3,(#1286,#1287,#1288,#1289,#1290),
 .UNSPECIFIED.,.F.,.F.,(4,1,4),(0.,0.00102374211663,0.00204748423325999),
 .UNSPECIFIED.);
#23=B_SPLINE_CURVE_WITH_KNOTS('',3,(#1299,#1300,#1301,#1302,#1303),
 .UNSPECIFIED.,.F.,.F.,(4,1,4),(0.,0.00102374211662998,0.00204748423325997),
 .UNSPECIFIED.);
#24=PLANE('',#771);
#25=PLANE('',#775);
#26=PLANE('',#782);
#27=PLANE('',#783);
#28=PLANE('',#784);
#29=PLANE('',#788);
#30=PLANE('',#795);
#31=PLANE('',#797);
#32=PLANE('',#801);
#33=PLANE('',#808);
#34=PLANE('',#811);
#35=PLANE('',#816);
#36=PLANE('',#817);
#37=PLANE('',#820);
#38=PLANE('',#821);
#39=PLANE('',#822);
#40=PLANE('',#823);
#41=PLANE('',#826);
#42=PLANE('',#845);
#43=CIRCLE('',#767,0.040999961934193);
#44=CIRCLE('',#768,0.040999961934193);
#45=CIRCLE('',#769,0.040999961934193);
#46=CIRCLE('',#770,0.040999961934193);
#47=CIRCLE('',#773,0.0025);
#48=CIRCLE('',#774,0.0025);
#49=CIRCLE('',#776,0.0015);
#50=CIRCLE('',#777,0.0015);
#51=CIRCLE('',#778,0.0015);
#52=CIRCLE('',#780,0.0025);
#53=CIRCLE('',#781,0.0025);
#54=CIRCLE('',#786,0.0065);
#55=CIRCLE('',#787,0.0065);
#56=CIRCLE('',#789,0.0015);
#57=CIRCLE('',#790,0.0015);
#58=CIRCLE('',#791,0.0015);
#59=CIRCLE('',#793,0.0065);
#60=CIRCLE('',#794,0.0065);
#61=CIRCLE('',#796,0.0375);
#62=CIRCLE('',#799,0.005);
#63=CIRCLE('',#800,0.005);
#64=CIRCLE('',#803,0.00990243891224038);
#65=CIRCLE('',#804,0.00990243891224038);
#66=CIRCLE('',#806,0.004);
#67=CIRCLE('',#807,0.004);
#68=CIRCLE('',#809,0.002);
#69=CIRCLE('',#810,0.045999961934193);
#70=CIRCLE('',#812,0.045999961934193);
#71=CIRCLE('',#813,0.002);
#72=CIRCLE('',#824,0.0005);
#73=CIRCLE('',#825,0.001);
#74=CIRCLE('',#827,0.0005);
#75=CIRCLE('',#828,0.001);
#76=CIRCLE('',#830,0.001);
#77=CIRCLE('',#832,0.001);
#78=CIRCLE('',#834,0.001);
#79=CIRCLE('',#837,0.001);
#80=CIRCLE('',#844,0.0375);
#81=ORIENTED_EDGE('',*,*,#291,.T.);
#82=ORIENTED_EDGE('',*,*,#292,.T.);
#83=ORIENTED_EDGE('',*,*,#293,.F.);
#84=ORIENTED_EDGE('',*,*,#294,.F.);
#85=ORIENTED_EDGE('',*,*,#295,.T.);
#86=ORIENTED_EDGE('',*,*,#296,.F.);
#87=ORIENTED_EDGE('',*,*,#297,.T.);
#88=ORIENTED_EDGE('',*,*,#298,.T.);
#89=ORIENTED_EDGE('',*,*,#299,.F.);
#90=ORIENTED_EDGE('',*,*,#300,.F.);
#91=ORIENTED_EDGE('',*,*,#301,.T.);
#92=ORIENTED_EDGE('',*,*,#302,.F.);
#93=ORIENTED_EDGE('',*,*,#302,.T.);
#94=ORIENTED_EDGE('',*,*,#303,.F.);
#95=ORIENTED_EDGE('',*,*,#304,.F.);
#96=ORIENTED_EDGE('',*,*,#305,.T.);
#97=ORIENTED_EDGE('',*,*,#306,.T.);
#98=ORIENTED_EDGE('',*,*,#307,.T.);
#99=ORIENTED_EDGE('',*,*,#308,.T.);
#100=ORIENTED_EDGE('',*,*,#304,.T.);
#101=ORIENTED_EDGE('',*,*,#309,.T.);
#102=ORIENTED_EDGE('',*,*,#310,.F.);
#103=ORIENTED_EDGE('',*,*,#311,.F.);
#104=ORIENTED_EDGE('',*,*,#310,.T.);
#105=ORIENTED_EDGE('',*,*,#312,.F.);
#106=ORIENTED_EDGE('',*,*,#313,.F.);
#107=ORIENTED_EDGE('',*,*,#314,.T.);
#108=ORIENTED_EDGE('',*,*,#315,.T.);
#109=ORIENTED_EDGE('',*,*,#316,.F.);
#110=ORIENTED_EDGE('',*,*,#313,.T.);
#111=ORIENTED_EDGE('',*,*,#317,.T.);
#112=ORIENTED_EDGE('',*,*,#318,.T.);
#113=ORIENTED_EDGE('',*,*,#319,.F.);
#114=ORIENTED_EDGE('',*,*,#291,.F.);
#115=ORIENTED_EDGE('',*,*,#320,.T.);
#116=ORIENTED_EDGE('',*,*,#293,.T.);
#117=ORIENTED_EDGE('',*,*,#321,.F.);
#118=ORIENTED_EDGE('',*,*,#322,.F.);
#119=ORIENTED_EDGE('',*,*,#323,.T.);
#120=ORIENTED_EDGE('',*,*,#322,.T.);
#121=ORIENTED_EDGE('',*,*,#324,.T.);
#122=ORIENTED_EDGE('',*,*,#325,.F.);
#123=ORIENTED_EDGE('',*,*,#326,.F.);
#124=ORIENTED_EDGE('',*,*,#327,.F.);
#125=ORIENTED_EDGE('',*,*,#328,.F.);
#126=ORIENTED_EDGE('',*,*,#329,.F.);
#127=ORIENTED_EDGE('',*,*,#325,.T.);
#128=ORIENTED_EDGE('',*,*,#330,.F.);
#129=ORIENTED_EDGE('',*,*,#331,.F.);
#130=ORIENTED_EDGE('',*,*,#332,.T.);
#131=ORIENTED_EDGE('',*,*,#331,.T.);
#132=ORIENTED_EDGE('',*,*,#333,.T.);
#133=ORIENTED_EDGE('',*,*,#318,.F.);
#134=ORIENTED_EDGE('',*,*,#334,.F.);
#135=ORIENTED_EDGE('',*,*,#335,.F.);
#136=ORIENTED_EDGE('',*,*,#299,.T.);
#137=ORIENTED_EDGE('',*,*,#305,.F.);
#138=ORIENTED_EDGE('',*,*,#311,.T.);
#139=ORIENTED_EDGE('',*,*,#314,.F.);
#140=ORIENTED_EDGE('',*,*,#316,.T.);
#141=ORIENTED_EDGE('',*,*,#320,.F.);
#142=ORIENTED_EDGE('',*,*,#294,.T.);
#143=ORIENTED_EDGE('',*,*,#323,.F.);
#144=ORIENTED_EDGE('',*,*,#326,.T.);
#145=ORIENTED_EDGE('',*,*,#332,.F.);
#146=ORIENTED_EDGE('',*,*,#334,.T.);
#147=ORIENTED_EDGE('',*,*,#336,.F.);
#148=ORIENTED_EDGE('',*,*,#337,.T.);
#149=ORIENTED_EDGE('',*,*,#338,.T.);
#150=ORIENTED_EDGE('',*,*,#339,.T.);
#151=ORIENTED_EDGE('',*,*,#298,.F.);
#152=ORIENTED_EDGE('',*,*,#340,.T.);
#153=ORIENTED_EDGE('',*,*,#341,.F.);
#154=ORIENTED_EDGE('',*,*,#342,.F.);
#155=ORIENTED_EDGE('',*,*,#343,.T.);
#156=ORIENTED_EDGE('',*,*,#344,.T.);
#157=ORIENTED_EDGE('',*,*,#296,.T.);
#158=ORIENTED_EDGE('',*,*,#345,.T.);
#159=ORIENTED_EDGE('',*,*,#346,.F.);
#160=ORIENTED_EDGE('',*,*,#347,.F.);
#161=ORIENTED_EDGE('',*,*,#348,.T.);
#162=ORIENTED_EDGE('',*,*,#342,.T.);
#163=ORIENTED_EDGE('',*,*,#349,.T.);
#164=ORIENTED_EDGE('',*,*,#350,.F.);
#165=ORIENTED_EDGE('',*,*,#351,.F.);
#166=ORIENTED_EDGE('',*,*,#347,.T.);
#167=ORIENTED_EDGE('',*,*,#352,.T.);
#168=ORIENTED_EDGE('',*,*,#353,.F.);
#169=ORIENTED_EDGE('',*,*,#351,.T.);
#170=ORIENTED_EDGE('',*,*,#354,.T.);
#171=ORIENTED_EDGE('',*,*,#355,.T.);
#172=ORIENTED_EDGE('',*,*,#356,.T.);
#173=ORIENTED_EDGE('',*,*,#357,.F.);
#174=ORIENTED_EDGE('',*,*,#336,.T.);
#175=ORIENTED_EDGE('',*,*,#358,.T.);
#176=ORIENTED_EDGE('',*,*,#343,.F.);
#177=ORIENTED_EDGE('',*,*,#348,.F.);
#178=ORIENTED_EDGE('',*,*,#352,.F.);
#179=ORIENTED_EDGE('',*,*,#359,.T.);
#180=ORIENTED_EDGE('',*,*,#360,.T.);
#181=ORIENTED_EDGE('',*,*,#349,.F.);
#182=ORIENTED_EDGE('',*,*,#346,.T.);
#183=ORIENTED_EDGE('',*,*,#341,.T.);
#184=ORIENTED_EDGE('',*,*,#361,.T.);
#185=ORIENTED_EDGE('',*,*,#338,.F.);
#186=ORIENTED_EDGE('',*,*,#362,.F.);
#187=ORIENTED_EDGE('',*,*,#363,.T.);
#188=ORIENTED_EDGE('',*,*,#353,.T.);
#189=ORIENTED_EDGE('',*,*,#339,.F.);
#190=ORIENTED_EDGE('',*,*,#361,.F.);
#191=ORIENTED_EDGE('',*,*,#345,.F.);
#192=ORIENTED_EDGE('',*,*,#295,.F.);
#193=ORIENTED_EDGE('',*,*,#340,.F.);
#194=ORIENTED_EDGE('',*,*,#297,.F.);
#195=ORIENTED_EDGE('',*,*,#344,.F.);
#196=ORIENTED_EDGE('',*,*,#358,.F.);
#197=ORIENTED_EDGE('',*,*,#364,.T.);
#198=ORIENTED_EDGE('',*,*,#365,.T.);
#199=ORIENTED_EDGE('',*,*,#366,.F.);
#200=ORIENTED_EDGE('',*,*,#367,.T.);
#201=ORIENTED_EDGE('',*,*,#368,.F.);
#202=ORIENTED_EDGE('',*,*,#369,.T.);
#203=ORIENTED_EDGE('',*,*,#370,.T.);
#204=ORIENTED_EDGE('',*,*,#366,.T.);
#205=ORIENTED_EDGE('',*,*,#371,.T.);
#206=ORIENTED_EDGE('',*,*,#354,.F.);
#207=ORIENTED_EDGE('',*,*,#350,.T.);
#208=ORIENTED_EDGE('',*,*,#360,.F.);
#209=ORIENTED_EDGE('',*,*,#372,.T.);
#210=ORIENTED_EDGE('',*,*,#373,.T.);
#211=ORIENTED_EDGE('',*,*,#373,.F.);
#212=ORIENTED_EDGE('',*,*,#374,.T.);
#213=ORIENTED_EDGE('',*,*,#375,.T.);
#214=ORIENTED_EDGE('',*,*,#376,.F.);
#215=ORIENTED_EDGE('',*,*,#377,.F.);
#216=ORIENTED_EDGE('',*,*,#378,.T.);
#217=ORIENTED_EDGE('',*,*,#379,.T.);
#218=ORIENTED_EDGE('',*,*,#380,.F.);
#219=ORIENTED_EDGE('',*,*,#337,.F.);
#220=ORIENTED_EDGE('',*,*,#357,.T.);
#221=ORIENTED_EDGE('',*,*,#381,.T.);
#222=ORIENTED_EDGE('',*,*,#382,.T.);
#223=ORIENTED_EDGE('',*,*,#383,.F.);
#224=ORIENTED_EDGE('',*,*,#380,.T.);
#225=ORIENTED_EDGE('',*,*,#384,.T.);
#226=ORIENTED_EDGE('',*,*,#385,.T.);
#227=ORIENTED_EDGE('',*,*,#386,.T.);
#228=ORIENTED_EDGE('',*,*,#362,.T.);
#229=ORIENTED_EDGE('',*,*,#379,.F.);
#230=ORIENTED_EDGE('',*,*,#387,.T.);
#231=ORIENTED_EDGE('',*,*,#368,.T.);
#232=ORIENTED_EDGE('',*,*,#376,.T.);
#233=ORIENTED_EDGE('',*,*,#388,.T.);
#234=ORIENTED_EDGE('',*,*,#384,.F.);
#235=ORIENTED_EDGE('',*,*,#370,.F.);
#236=ORIENTED_EDGE('',*,*,#389,.T.);
#237=ORIENTED_EDGE('',*,*,#377,.T.);
#238=ORIENTED_EDGE('',*,*,#383,.T.);
#239=ORIENTED_EDGE('',*,*,#390,.T.);
#240=ORIENTED_EDGE('',*,*,#367,.F.);
#241=ORIENTED_EDGE('',*,*,#382,.F.);
#242=ORIENTED_EDGE('',*,*,#391,.T.);
#243=ORIENTED_EDGE('',*,*,#364,.F.);
#244=ORIENTED_EDGE('',*,*,#390,.F.);
#245=ORIENTED_EDGE('',*,*,#375,.F.);
#246=ORIENTED_EDGE('',*,*,#392,.T.);
#247=ORIENTED_EDGE('',*,*,#385,.F.);
#248=ORIENTED_EDGE('',*,*,#388,.F.);
#249=ORIENTED_EDGE('',*,*,#386,.F.);
#250=ORIENTED_EDGE('',*,*,#392,.F.);
#251=ORIENTED_EDGE('',*,*,#393,.F.);
#252=ORIENTED_EDGE('',*,*,#363,.F.);
#253=ORIENTED_EDGE('',*,*,#372,.F.);
#254=ORIENTED_EDGE('',*,*,#359,.F.);
#255=ORIENTED_EDGE('',*,*,#393,.T.);
#256=ORIENTED_EDGE('',*,*,#374,.F.);
#257=ORIENTED_EDGE('',*,*,#381,.F.);
#258=ORIENTED_EDGE('',*,*,#356,.F.);
#259=ORIENTED_EDGE('',*,*,#394,.F.);
#260=ORIENTED_EDGE('',*,*,#391,.F.);
#261=ORIENTED_EDGE('',*,*,#371,.F.);
#262=ORIENTED_EDGE('',*,*,#365,.F.);
#263=ORIENTED_EDGE('',*,*,#394,.T.);
#264=ORIENTED_EDGE('',*,*,#355,.F.);
#265=ORIENTED_EDGE('',*,*,#389,.F.);
#266=ORIENTED_EDGE('',*,*,#369,.F.);
#267=ORIENTED_EDGE('',*,*,#387,.F.);
#268=ORIENTED_EDGE('',*,*,#378,.F.);
#269=ORIENTED_EDGE('',*,*,#329,.T.);
#270=ORIENTED_EDGE('',*,*,#308,.F.);
#271=ORIENTED_EDGE('',*,*,#328,.T.);
#272=ORIENTED_EDGE('',*,*,#307,.F.);
#273=ORIENTED_EDGE('',*,*,#327,.T.);
#274=ORIENTED_EDGE('',*,*,#306,.F.);
#275=ORIENTED_EDGE('',*,*,#300,.T.);
#276=ORIENTED_EDGE('',*,*,#335,.T.);
#277=ORIENTED_EDGE('',*,*,#315,.F.);
#278=ORIENTED_EDGE('',*,*,#395,.T.);
#279=ORIENTED_EDGE('',*,*,#395,.F.);
#280=ORIENTED_EDGE('',*,*,#317,.F.);
#281=ORIENTED_EDGE('',*,*,#312,.T.);
#282=ORIENTED_EDGE('',*,*,#309,.F.);
#283=ORIENTED_EDGE('',*,*,#303,.T.);
#284=ORIENTED_EDGE('',*,*,#301,.F.);
#285=ORIENTED_EDGE('',*,*,#292,.F.);
#286=ORIENTED_EDGE('',*,*,#319,.T.);
#287=ORIENTED_EDGE('',*,*,#333,.F.);
#288=ORIENTED_EDGE('',*,*,#330,.T.);
#289=ORIENTED_EDGE('',*,*,#324,.F.);
#290=ORIENTED_EDGE('',*,*,#321,.T.);
#291=EDGE_CURVE('',#396,#397,#468,.T.);
#292=EDGE_CURVE('',#397,#398,#43,.T.);
#293=EDGE_CURVE('',#399,#398,#469,.T.);
#294=EDGE_CURVE('',#396,#399,#44,.T.);
#295=EDGE_CURVE('',#400,#401,#45,.F.);
#296=EDGE_CURVE('',#402,#401,#470,.T.);
#297=EDGE_CURVE('',#402,#403,#46,.T.);
#298=EDGE_CURVE('',#403,#400,#471,.T.);
#299=EDGE_CURVE('',#404,#405,#472,.T.);
#300=EDGE_CURVE('',#406,#404,#473,.T.);
#301=EDGE_CURVE('',#406,#407,#474,.T.);
#302=EDGE_CURVE('',#405,#407,#475,.T.);
#303=EDGE_CURVE('',#408,#407,#47,.T.);
#304=EDGE_CURVE('',#409,#408,#476,.T.);
#305=EDGE_CURVE('',#409,#405,#48,.T.);
#306=EDGE_CURVE('',#410,#410,#49,.T.);
#307=EDGE_CURVE('',#411,#411,#50,.T.);
#308=EDGE_CURVE('',#412,#412,#51,.T.);
#309=EDGE_CURVE('',#408,#413,#477,.T.);
#310=EDGE_CURVE('',#414,#413,#478,.T.);
#311=EDGE_CURVE('',#409,#414,#479,.T.);
#312=EDGE_CURVE('',#415,#413,#52,.T.);
#313=EDGE_CURVE('',#416,#415,#480,.T.);
#314=EDGE_CURVE('',#416,#414,#53,.T.);
#315=EDGE_CURVE('',#417,#418,#481,.T.);
#316=EDGE_CURVE('',#416,#418,#482,.T.);
#317=EDGE_CURVE('',#415,#417,#483,.T.);
#318=EDGE_CURVE('',#419,#420,#484,.T.);
#319=EDGE_CURVE('',#397,#420,#485,.T.);
#320=EDGE_CURVE('',#396,#419,#486,.T.);
#321=EDGE_CURVE('',#421,#398,#487,.T.);
#322=EDGE_CURVE('',#422,#421,#488,.T.);
#323=EDGE_CURVE('',#422,#399,#489,.T.);
#324=EDGE_CURVE('',#421,#423,#54,.T.);
#325=EDGE_CURVE('',#424,#423,#490,.T.);
#326=EDGE_CURVE('',#422,#424,#55,.T.);
#327=EDGE_CURVE('',#425,#425,#56,.T.);
#328=EDGE_CURVE('',#426,#426,#57,.T.);
#329=EDGE_CURVE('',#427,#427,#58,.T.);
#330=EDGE_CURVE('',#428,#423,#491,.T.);
#331=EDGE_CURVE('',#429,#428,#492,.T.);
#332=EDGE_CURVE('',#429,#424,#493,.T.);
#333=EDGE_CURVE('',#428,#420,#59,.T.);
#334=EDGE_CURVE('',#429,#419,#60,.T.);
#335=EDGE_CURVE('',#404,#418,#61,.T.);
#336=EDGE_CURVE('',#430,#431,#494,.T.);
#337=EDGE_CURVE('',#430,#432,#495,.T.);
#338=EDGE_CURVE('',#432,#433,#496,.T.);
#339=EDGE_CURVE('',#433,#400,#18,.T.);
#340=EDGE_CURVE('',#403,#431,#19,.T.);
#341=EDGE_CURVE('',#434,#435,#62,.T.);
#342=EDGE_CURVE('',#436,#434,#497,.T.);
#343=EDGE_CURVE('',#436,#437,#63,.T.);
#344=EDGE_CURVE('',#437,#402,#20,.T.);
#345=EDGE_CURVE('',#401,#435,#21,.F.);
#346=EDGE_CURVE('',#438,#434,#498,.T.);
#347=EDGE_CURVE('',#439,#438,#499,.T.);
#348=EDGE_CURVE('',#439,#436,#500,.T.);
#349=EDGE_CURVE('',#438,#440,#64,.T.);
#350=EDGE_CURVE('',#441,#440,#501,.T.);
#351=EDGE_CURVE('',#439,#441,#65,.T.);
#352=EDGE_CURVE('',#442,#442,#66,.T.);
#353=EDGE_CURVE('',#443,#443,#67,.T.);
#354=EDGE_CURVE('',#441,#444,#502,.T.);
#355=EDGE_CURVE('',#444,#445,#503,.T.);
#356=EDGE_CURVE('',#445,#446,#68,.F.);
#357=EDGE_CURVE('',#430,#446,#504,.T.);
#358=EDGE_CURVE('',#431,#437,#69,.F.);
#359=EDGE_CURVE('',#447,#448,#505,.F.);
#360=EDGE_CURVE('',#448,#440,#506,.T.);
#361=EDGE_CURVE('',#435,#433,#70,.T.);
#362=EDGE_CURVE('',#449,#432,#507,.T.);
#363=EDGE_CURVE('',#449,#447,#71,.T.);
#364=EDGE_CURVE('',#450,#451,#508,.T.);
#365=EDGE_CURVE('',#451,#452,#509,.F.);
#366=EDGE_CURVE('',#453,#452,#510,.T.);
#367=EDGE_CURVE('',#453,#450,#511,.T.);
#368=EDGE_CURVE('',#454,#455,#512,.T.);
#369=EDGE_CURVE('',#454,#456,#513,.F.);
#370=EDGE_CURVE('',#456,#453,#514,.T.);
#371=EDGE_CURVE('',#452,#444,#12,.F.);
#372=EDGE_CURVE('',#448,#457,#13,.F.);
#373=EDGE_CURVE('',#457,#455,#515,.T.);
#374=EDGE_CURVE('',#457,#458,#516,.T.);
#375=EDGE_CURVE('',#458,#459,#517,.T.);
#376=EDGE_CURVE('',#455,#459,#518,.T.);
#377=EDGE_CURVE('',#460,#461,#519,.T.);
#378=EDGE_CURVE('',#460,#462,#520,.T.);
#379=EDGE_CURVE('',#462,#463,#521,.T.);
#380=EDGE_CURVE('',#461,#463,#522,.T.);
#381=EDGE_CURVE('',#446,#464,#22,.T.);
#382=EDGE_CURVE('',#464,#465,#523,.F.);
#383=EDGE_CURVE('',#461,#465,#524,.T.);
#384=EDGE_CURVE('',#463,#466,#525,.T.);
#385=EDGE_CURVE('',#466,#467,#526,.F.);
#386=EDGE_CURVE('',#467,#449,#23,.F.);
#387=EDGE_CURVE('',#462,#454,#72,.F.);
#388=EDGE_CURVE('',#459,#466,#73,.F.);
#389=EDGE_CURVE('',#456,#460,#74,.T.);
#390=EDGE_CURVE('',#465,#450,#75,.T.);
#391=EDGE_CURVE('',#464,#451,#76,.T.);
#392=EDGE_CURVE('',#458,#467,#77,.F.);
#393=EDGE_CURVE('',#447,#458,#78,.T.);
#394=EDGE_CURVE('',#451,#445,#79,.T.);
#395=EDGE_CURVE('',#417,#406,#80,.T.);
#396=VERTEX_POINT('',#1070);
#397=VERTEX_POINT('',#1071);
#398=VERTEX_POINT('',#1073);
#399=VERTEX_POINT('',#1075);
#400=VERTEX_POINT('',#1078);
#401=VERTEX_POINT('',#1079);
#402=VERTEX_POINT('',#1081);
#403=VERTEX_POINT('',#1083);
#404=VERTEX_POINT('',#1087);
#405=VERTEX_POINT('',#1088);
#406=VERTEX_POINT('',#1090);
#407=VERTEX_POINT('',#1092);
#408=VERTEX_POINT('',#1096);
#409=VERTEX_POINT('',#1098);
#410=VERTEX_POINT('',#1102);
#411=VERTEX_POINT('',#1104);
#412=VERTEX_POINT('',#1106);
#413=VERTEX_POINT('',#1108);
#414=VERTEX_POINT('',#1110);
#415=VERTEX_POINT('',#1114);
#416=VERTEX_POINT('',#1116);
#417=VERTEX_POINT('',#1120);
#418=VERTEX_POINT('',#1121);
#419=VERTEX_POINT('',#1126);
#420=VERTEX_POINT('',#1127);
#421=VERTEX_POINT('',#1132);
#422=VERTEX_POINT('',#1134);
#423=VERTEX_POINT('',#1138);
#424=VERTEX_POINT('',#1140);
#425=VERTEX_POINT('',#1144);
#426=VERTEX_POINT('',#1146);
#427=VERTEX_POINT('',#1148);
#428=VERTEX_POINT('',#1150);
#429=VERTEX_POINT('',#1152);
#430=VERTEX_POINT('',#1161);
#431=VERTEX_POINT('',#1162);
#432=VERTEX_POINT('',#1164);
#433=VERTEX_POINT('',#1166);
#434=VERTEX_POINT('',#1193);
#435=VERTEX_POINT('',#1194);
#436=VERTEX_POINT('',#1196);
#437=VERTEX_POINT('',#1198);
#438=VERTEX_POINT('',#1215);
#439=VERTEX_POINT('',#1217);
#440=VERTEX_POINT('',#1221);
#441=VERTEX_POINT('',#1223);
#442=VERTEX_POINT('',#1227);
#443=VERTEX_POINT('',#1229);
#444=VERTEX_POINT('',#1232);
#445=VERTEX_POINT('',#1234);
#446=VERTEX_POINT('',#1236);
#447=VERTEX_POINT('',#1241);
#448=VERTEX_POINT('',#1242);
#449=VERTEX_POINT('',#1246);
#450=VERTEX_POINT('',#1252);
#451=VERTEX_POINT('',#1253);
#452=VERTEX_POINT('',#1255);
#453=VERTEX_POINT('',#1257);
#454=VERTEX_POINT('',#1261);
#455=VERTEX_POINT('',#1262);
#456=VERTEX_POINT('',#1264);
#457=VERTEX_POINT('',#1268);
#458=VERTEX_POINT('',#1272);
#459=VERTEX_POINT('',#1274);
#460=VERTEX_POINT('',#1278);
#461=VERTEX_POINT('',#1279);
#462=VERTEX_POINT('',#1281);
#463=VERTEX_POINT('',#1283);
#464=VERTEX_POINT('',#1291);
#465=VERTEX_POINT('',#1293);
#466=VERTEX_POINT('',#1296);
#467=VERTEX_POINT('',#1298);
#468=LINE('',#1069,#527);
#469=LINE('',#1074,#528);
#470=LINE('',#1080,#529);
#471=LINE('',#1084,#530);
#472=LINE('',#1086,#531);
#473=LINE('',#1089,#532);
#474=LINE('',#1091,#533);
#475=LINE('',#1093,#534);
#476=LINE('',#1097,#535);
#477=LINE('',#1107,#536);
#478=LINE('',#1109,#537);
#479=LINE('',#1111,#538);
#480=LINE('',#1115,#539);
#481=LINE('',#1119,#540);
#482=LINE('',#1122,#541);
#483=LINE('',#1123,#542);
#484=LINE('',#1125,#543);
#485=LINE('',#1128,#544);
#486=LINE('',#1129,#545);
#487=LINE('',#1131,#546);
#488=LINE('',#1133,#547);
#489=LINE('',#1135,#548);
#490=LINE('',#1139,#549);
#491=LINE('',#1149,#550);
#492=LINE('',#1151,#551);
#493=LINE('',#1153,#552);
#494=LINE('',#1160,#553);
#495=LINE('',#1163,#554);
#496=LINE('',#1165,#555);
#497=LINE('',#1195,#556);
#498=LINE('',#1214,#557);
#499=LINE('',#1216,#558);
#500=LINE('',#1218,#559);
#501=LINE('',#1222,#560);
#502=LINE('',#1231,#561);
#503=LINE('',#1233,#562);
#504=LINE('',#1237,#563);
#505=LINE('',#1240,#564);
#506=LINE('',#1243,#565);
#507=LINE('',#1245,#566);
#508=LINE('',#1251,#567);
#509=LINE('',#1254,#568);
#510=LINE('',#1256,#569);
#511=LINE('',#1258,#570);
#512=LINE('',#1260,#571);
#513=LINE('',#1263,#572);
#514=LINE('',#1265,#573);
#515=LINE('',#1269,#574);
#516=LINE('',#1271,#575);
#517=LINE('',#1273,#576);
#518=LINE('',#1275,#577);
#519=LINE('',#1277,#578);
#520=LINE('',#1280,#579);
#521=LINE('',#1282,#580);
#522=LINE('',#1284,#581);
#523=LINE('',#1292,#582);
#524=LINE('',#1294,#583);
#525=LINE('',#1295,#584);
#526=LINE('',#1297,#585);
#527=VECTOR('',#850,1.);
#528=VECTOR('',#853,1.);
#529=VECTOR('',#858,1.);
#530=VECTOR('',#861,1.);
#531=VECTOR('',#864,1.);
#532=VECTOR('',#865,1.);
#533=VECTOR('',#866,1.);
#534=VECTOR('',#867,1.);
#535=VECTOR('',#872,1.);
#536=VECTOR('',#883,1.);
#537=VECTOR('',#884,1.);
#538=VECTOR('',#885,1.);
#539=VECTOR('',#890,1.);
#540=VECTOR('',#895,1.);
#541=VECTOR('',#896,1.);
#542=VECTOR('',#897,1.);
#543=VECTOR('',#900,1.);
#544=VECTOR('',#901,1.);
#545=VECTOR('',#902,1.);
#546=VECTOR('',#905,1.);
#547=VECTOR('',#906,1.);
#548=VECTOR('',#907,1.);
#549=VECTOR('',#912,1.);
#550=VECTOR('',#923,1.);
#551=VECTOR('',#924,1.);
#552=VECTOR('',#925,1.);
#553=VECTOR('',#938,1.);
#554=VECTOR('',#939,1.);
#555=VECTOR('',#940,1.);
#556=VECTOR('',#945,1.);
#557=VECTOR('',#950,1.);
#558=VECTOR('',#951,1.);
#559=VECTOR('',#952,1.);
#560=VECTOR('',#957,1.);
#561=VECTOR('',#968,1.);
#562=VECTOR('',#969,1.);
#563=VECTOR('',#972,1.);
#564=VECTOR('',#977,1.);
#565=VECTOR('',#978,1.);
#566=VECTOR('',#981,1.);
#567=VECTOR('',#990,1.);
#568=VECTOR('',#991,1.);
#569=VECTOR('',#992,1.);
#570=VECTOR('',#993,1.);
#571=VECTOR('',#996,1.);
#572=VECTOR('',#997,1.);
#573=VECTOR('',#998,1.);
#574=VECTOR('',#1003,1.);
#575=VECTOR('',#1006,1.);
#576=VECTOR('',#1007,1.);
#577=VECTOR('',#1008,1.);
#578=VECTOR('',#1011,1.);
#579=VECTOR('',#1012,1.);
#580=VECTOR('',#1013,1.);
#581=VECTOR('',#1014,1.);
#582=VECTOR('',#1017,1.);
#583=VECTOR('',#1018,1.);
#584=VECTOR('',#1019,1.);
#585=VECTOR('',#1020,1.);
#586=EDGE_LOOP('',(#81,#82,#83,#84));
#587=EDGE_LOOP('',(#85,#86,#87,#88));
#588=EDGE_LOOP('',(#89,#90,#91,#92));
#589=EDGE_LOOP('',(#93,#94,#95,#96));
#590=EDGE_LOOP('',(#97));
#591=EDGE_LOOP('',(#98));
#592=EDGE_LOOP('',(#99));
#593=EDGE_LOOP('',(#100,#101,#102,#103));
#594=EDGE_LOOP('',(#104,#105,#106,#107));
#595=EDGE_LOOP('',(#108,#109,#110,#111));
#596=EDGE_LOOP('',(#112,#113,#114,#115));
#597=EDGE_LOOP('',(#116,#117,#118,#119));
#598=EDGE_LOOP('',(#120,#121,#122,#123));
#599=EDGE_LOOP('',(#124));
#600=EDGE_LOOP('',(#125));
#601=EDGE_LOOP('',(#126));
#602=EDGE_LOOP('',(#127,#128,#129,#130));
#603=EDGE_LOOP('',(#131,#132,#133,#134));
#604=EDGE_LOOP('',(#135,#136,#137,#138,#139,#140));
#605=EDGE_LOOP('',(#141,#142,#143,#144,#145,#146));
#606=EDGE_LOOP('',(#147,#148,#149,#150,#151,#152));
#607=EDGE_LOOP('',(#153,#154,#155,#156,#157,#158));
#608=EDGE_LOOP('',(#159,#160,#161,#162));
#609=EDGE_LOOP('',(#163,#164,#165,#166));
#610=EDGE_LOOP('',(#167));
#611=EDGE_LOOP('',(#168));
#612=EDGE_LOOP('',(#169,#170,#171,#172,#173,#174,#175,#176,#177));
#613=EDGE_LOOP('',(#178));
#614=EDGE_LOOP('',(#179,#180,#181,#182,#183,#184,#185,#186,#187));
#615=EDGE_LOOP('',(#188));
#616=EDGE_LOOP('',(#189,#190,#191,#192));
#617=EDGE_LOOP('',(#193,#194,#195,#196));
#618=EDGE_LOOP('',(#197,#198,#199,#200));
#619=EDGE_LOOP('',(#201,#202,#203,#204,#205,#206,#207,#208,#209,#210));
#620=EDGE_LOOP('',(#211,#212,#213,#214));
#621=EDGE_LOOP('',(#215,#216,#217,#218));
#622=EDGE_LOOP('',(#219,#220,#221,#222,#223,#224,#225,#226,#227,#228));
#623=EDGE_LOOP('',(#229,#230,#231,#232,#233,#234));
#624=EDGE_LOOP('',(#235,#236,#237,#238,#239,#240));
#625=EDGE_LOOP('',(#241,#242,#243,#244));
#626=EDGE_LOOP('',(#245,#246,#247,#248));
#627=EDGE_LOOP('',(#249,#250,#251,#252));
#628=EDGE_LOOP('',(#253,#254,#255,#256));
#629=EDGE_LOOP('',(#257,#258,#259,#260));
#630=EDGE_LOOP('',(#261,#262,#263,#264));
#631=EDGE_LOOP('',(#265,#266,#267,#268));
#632=EDGE_LOOP('',(#269));
#633=EDGE_LOOP('',(#270));
#634=EDGE_LOOP('',(#271));
#635=EDGE_LOOP('',(#272));
#636=EDGE_LOOP('',(#273));
#637=EDGE_LOOP('',(#274));
#638=EDGE_LOOP('',(#275,#276,#277,#278));
#639=EDGE_LOOP('',(#279,#280,#281,#282,#283,#284));
#640=EDGE_LOOP('',(#285,#286,#287,#288,#289,#290));
#641=FACE_BOUND('',#586,.T.);
#642=FACE_BOUND('',#587,.T.);
#643=FACE_BOUND('',#588,.T.);
#644=FACE_BOUND('',#589,.T.);
#645=FACE_BOUND('',#590,.T.);
#646=FACE_BOUND('',#591,.T.);
#647=FACE_BOUND('',#592,.T.);
#648=FACE_BOUND('',#593,.T.);
#649=FACE_BOUND('',#594,.T.);
#650=FACE_BOUND('',#595,.T.);
#651=FACE_BOUND('',#596,.T.);
#652=FACE_BOUND('',#597,.T.);
#653=FACE_BOUND('',#598,.T.);
#654=FACE_BOUND('',#599,.T.);
#655=FACE_BOUND('',#600,.T.);
#656=FACE_BOUND('',#601,.T.);
#657=FACE_BOUND('',#602,.T.);
#658=FACE_BOUND('',#603,.T.);
#659=FACE_BOUND('',#604,.T.);
#660=FACE_BOUND('',#605,.T.);
#661=FACE_BOUND('',#606,.T.);
#662=FACE_BOUND('',#607,.T.);
#663=FACE_BOUND('',#608,.T.);
#664=FACE_BOUND('',#609,.T.);
#665=FACE_BOUND('',#610,.T.);
#666=FACE_BOUND('',#611,.T.);
#667=FACE_BOUND('',#612,.T.);
#668=FACE_BOUND('',#613,.T.);
#669=FACE_BOUND('',#614,.T.);
#670=FACE_BOUND('',#615,.T.);
#671=FACE_BOUND('',#616,.T.);
#672=FACE_BOUND('',#617,.T.);
#673=FACE_BOUND('',#618,.T.);
#674=FACE_BOUND('',#619,.T.);
#675=FACE_BOUND('',#620,.T.);
#676=FACE_BOUND('',#621,.T.);
#677=FACE_BOUND('',#622,.T.);
#678=FACE_BOUND('',#623,.T.);
#679=FACE_BOUND('',#624,.T.);
#680=FACE_BOUND('',#625,.T.);
#681=FACE_BOUND('',#626,.T.);
#682=FACE_BOUND('',#627,.T.);
#683=FACE_BOUND('',#628,.T.);
#684=FACE_BOUND('',#629,.T.);
#685=FACE_BOUND('',#630,.T.);
#686=FACE_BOUND('',#631,.T.);
#687=FACE_BOUND('',#632,.T.);
#688=FACE_BOUND('',#633,.T.);
#689=FACE_BOUND('',#634,.T.);
#690=FACE_BOUND('',#635,.T.);
#691=FACE_BOUND('',#636,.T.);
#692=FACE_BOUND('',#637,.T.);
#693=FACE_BOUND('',#638,.T.);
#694=FACE_BOUND('',#639,.T.);
#695=FACE_BOUND('',#640,.T.);
#696=CYLINDRICAL_SURFACE('',#766,0.040999961934193);
#697=CYLINDRICAL_SURFACE('',#772,0.0025);
#698=CYLINDRICAL_SURFACE('',#779,0.0025);
#699=CYLINDRICAL_SURFACE('',#785,0.0065);
#700=CYLINDRICAL_SURFACE('',#792,0.0065);
#701=CYLINDRICAL_SURFACE('',#798,0.005);
#702=CYLINDRICAL_SURFACE('',#802,0.00990243891224038);
#703=CYLINDRICAL_SURFACE('',#805,0.004);
#704=CYLINDRICAL_SURFACE('',#829,0.001);
#705=CYLINDRICAL_SURFACE('',#831,0.001);
#706=CYLINDRICAL_SURFACE('',#835,0.001);
#707=CYLINDRICAL_SURFACE('',#838,0.001);
#708=CYLINDRICAL_SURFACE('',#839,0.0005);
#709=CYLINDRICAL_SURFACE('',#840,0.0015);
#710=CYLINDRICAL_SURFACE('',#841,0.0015);
#711=CYLINDRICAL_SURFACE('',#842,0.0015);
#712=CYLINDRICAL_SURFACE('',#843,0.0375);
#713=ADVANCED_FACE('',(#641,#642),#696,.T.);
#714=ADVANCED_FACE('',(#643),#24,.F.);
#715=ADVANCED_FACE('',(#644),#697,.F.);
#716=ADVANCED_FACE('',(#645,#646,#647,#648),#25,.F.);
#717=ADVANCED_FACE('',(#649),#698,.F.);
#718=ADVANCED_FACE('',(#650),#26,.F.);
#719=ADVANCED_FACE('',(#651),#27,.T.);
#720=ADVANCED_FACE('',(#652),#28,.T.);
#721=ADVANCED_FACE('',(#653),#699,.T.);
#722=ADVANCED_FACE('',(#654,#655,#656,#657),#29,.T.);
#723=ADVANCED_FACE('',(#658),#700,.T.);
#724=ADVANCED_FACE('',(#659,#660),#30,.T.);
#725=ADVANCED_FACE('',(#661),#31,.F.);
#726=ADVANCED_FACE('',(#662),#701,.F.);
#727=ADVANCED_FACE('',(#663),#32,.T.);
#728=ADVANCED_FACE('',(#664),#702,.T.);
#729=ADVANCED_FACE('',(#665,#666),#703,.F.);
#730=ADVANCED_FACE('',(#667,#668),#33,.T.);
#731=ADVANCED_FACE('',(#669,#670),#34,.F.);
#732=ADVANCED_FACE('',(#671),#14,.F.);
#733=ADVANCED_FACE('',(#672),#15,.F.);
#734=ADVANCED_FACE('',(#673),#35,.T.);
#735=ADVANCED_FACE('',(#674),#36,.T.);
#736=ADVANCED_FACE('',(#675),#37,.T.);
#737=ADVANCED_FACE('',(#676),#38,.F.);
#738=ADVANCED_FACE('',(#677),#39,.F.);
#739=ADVANCED_FACE('',(#678),#40,.F.);
#740=ADVANCED_FACE('',(#679),#41,.T.);
#741=ADVANCED_FACE('',(#680),#704,.T.);
#742=ADVANCED_FACE('',(#681),#705,.T.);
#743=ADVANCED_FACE('',(#682),#16,.F.);
#744=ADVANCED_FACE('',(#683),#706,.F.);
#745=ADVANCED_FACE('',(#684),#17,.F.);
#746=ADVANCED_FACE('',(#685),#707,.F.);
#747=ADVANCED_FACE('',(#686),#708,.T.);
#748=ADVANCED_FACE('',(#687,#688),#709,.F.);
#749=ADVANCED_FACE('',(#689,#690),#710,.F.);
#750=ADVANCED_FACE('',(#691,#692),#711,.F.);
#751=ADVANCED_FACE('',(#693),#712,.F.);
#752=ADVANCED_FACE('',(#694,#695),#42,.T.);
#753=CLOSED_SHELL('',(#713,#714,#715,#716,#717,#718,#719,#720,#721,#722,
#723,#724,#725,#726,#727,#728,#729,#730,#731,#732,#733,#734,#735,#736,#737,
#738,#739,#740,#741,#742,#743,#744,#745,#746,#747,#748,#749,#750,#751,#752));
#754=STYLED_ITEM('',(#755),#762);
#755=PRESENTATION_STYLE_ASSIGNMENT((#756));
#756=SURFACE_STYLE_USAGE(.BOTH.,#757);
#757=SURFACE_SIDE_STYLE('',(#758));
#758=SURFACE_STYLE_FILL_AREA(#759);
#759=FILL_AREA_STYLE('',(#760));
#760=FILL_AREA_STYLE_COLOUR('',#761);
#761=COLOUR_RGB('',0.972549019607843,0.529411764705882,0.00392156862745098);
#762=MANIFOLD_SOLID_BREP('thruster_holder_2',#753);
#763=SHAPE_DEFINITION_REPRESENTATION(#1333,#764);
#764=SHAPE_REPRESENTATION('thruster_holder_2',(#765),#1328);
#765=AXIS2_PLACEMENT_3D('',#1067,#846,#847);
#766=AXIS2_PLACEMENT_3D('',#1068,#848,#849);
#767=AXIS2_PLACEMENT_3D('',#1072,#851,#852);
#768=AXIS2_PLACEMENT_3D('',#1076,#854,#855);
#769=AXIS2_PLACEMENT_3D('',#1077,#856,#857);
#770=AXIS2_PLACEMENT_3D('',#1082,#859,#860);
#771=AXIS2_PLACEMENT_3D('',#1085,#862,#863);
#772=AXIS2_PLACEMENT_3D('',#1094,#868,#869);
#773=AXIS2_PLACEMENT_3D('',#1095,#870,#871);
#774=AXIS2_PLACEMENT_3D('',#1099,#873,#874);
#775=AXIS2_PLACEMENT_3D('',#1100,#875,#876);
#776=AXIS2_PLACEMENT_3D('',#1101,#877,#878);
#777=AXIS2_PLACEMENT_3D('',#1103,#879,#880);
#778=AXIS2_PLACEMENT_3D('',#1105,#881,#882);
#779=AXIS2_PLACEMENT_3D('',#1112,#886,#887);
#780=AXIS2_PLACEMENT_3D('',#1113,#888,#889);
#781=AXIS2_PLACEMENT_3D('',#1117,#891,#892);
#782=AXIS2_PLACEMENT_3D('',#1118,#893,#894);
#783=AXIS2_PLACEMENT_3D('',#1124,#898,#899);
#784=AXIS2_PLACEMENT_3D('',#1130,#903,#904);
#785=AXIS2_PLACEMENT_3D('',#1136,#908,#909);
#786=AXIS2_PLACEMENT_3D('',#1137,#910,#911);
#787=AXIS2_PLACEMENT_3D('',#1141,#913,#914);
#788=AXIS2_PLACEMENT_3D('',#1142,#915,#916);
#789=AXIS2_PLACEMENT_3D('',#1143,#917,#918);
#790=AXIS2_PLACEMENT_3D('',#1145,#919,#920);
#791=AXIS2_PLACEMENT_3D('',#1147,#921,#922);
#792=AXIS2_PLACEMENT_3D('',#1154,#926,#927);
#793=AXIS2_PLACEMENT_3D('',#1155,#928,#929);
#794=AXIS2_PLACEMENT_3D('',#1156,#930,#931);
#795=AXIS2_PLACEMENT_3D('',#1157,#932,#933);
#796=AXIS2_PLACEMENT_3D('',#1158,#934,#935);
#797=AXIS2_PLACEMENT_3D('',#1159,#936,#937);
#798=AXIS2_PLACEMENT_3D('',#1191,#941,#942);
#799=AXIS2_PLACEMENT_3D('',#1192,#943,#944);
#800=AXIS2_PLACEMENT_3D('',#1197,#946,#947);
#801=AXIS2_PLACEMENT_3D('',#1213,#948,#949);
#802=AXIS2_PLACEMENT_3D('',#1219,#953,#954);
#803=AXIS2_PLACEMENT_3D('',#1220,#955,#956);
#804=AXIS2_PLACEMENT_3D('',#1224,#958,#959);
#805=AXIS2_PLACEMENT_3D('',#1225,#960,#961);
#806=AXIS2_PLACEMENT_3D('',#1226,#962,#963);
#807=AXIS2_PLACEMENT_3D('',#1228,#964,#965);
#808=AXIS2_PLACEMENT_3D('',#1230,#966,#967);
#809=AXIS2_PLACEMENT_3D('',#1235,#970,#971);
#810=AXIS2_PLACEMENT_3D('',#1238,#973,#974);
#811=AXIS2_PLACEMENT_3D('',#1239,#975,#976);
#812=AXIS2_PLACEMENT_3D('',#1244,#979,#980);
#813=AXIS2_PLACEMENT_3D('',#1247,#982,#983);
#814=AXIS2_PLACEMENT_3D('',#1248,#984,#985);
#815=AXIS2_PLACEMENT_3D('',#1249,#986,#987);
#816=AXIS2_PLACEMENT_3D('',#1250,#988,#989);
#817=AXIS2_PLACEMENT_3D('',#1259,#994,#995);
#818=AXIS2_PLACEMENT_3D('',#1266,#999,#1000);
#819=AXIS2_PLACEMENT_3D('',#1267,#1001,#1002);
#820=AXIS2_PLACEMENT_3D('',#1270,#1004,#1005);
#821=AXIS2_PLACEMENT_3D('',#1276,#1009,#1010);
#822=AXIS2_PLACEMENT_3D('',#1285,#1015,#1016);
#823=AXIS2_PLACEMENT_3D('',#1304,#1021,#1022);
#824=AXIS2_PLACEMENT_3D('',#1305,#1023,#1024);
#825=AXIS2_PLACEMENT_3D('',#1306,#1025,#1026);
#826=AXIS2_PLACEMENT_3D('',#1307,#1027,#1028);
#827=AXIS2_PLACEMENT_3D('',#1308,#1029,#1030);
#828=AXIS2_PLACEMENT_3D('',#1309,#1031,#1032);
#829=AXIS2_PLACEMENT_3D('',#1310,#1033,#1034);
#830=AXIS2_PLACEMENT_3D('',#1311,#1035,#1036);
#831=AXIS2_PLACEMENT_3D('',#1312,#1037,#1038);
#832=AXIS2_PLACEMENT_3D('',#1313,#1039,#1040);
#833=AXIS2_PLACEMENT_3D('',#1314,#1041,#1042);
#834=AXIS2_PLACEMENT_3D('',#1315,#1043,#1044);
#835=AXIS2_PLACEMENT_3D('',#1316,#1045,#1046);
#836=AXIS2_PLACEMENT_3D('',#1317,#1047,#1048);
#837=AXIS2_PLACEMENT_3D('',#1318,#1049,#1050);
#838=AXIS2_PLACEMENT_3D('',#1319,#1051,#1052);
#839=AXIS2_PLACEMENT_3D('',#1320,#1053,#1054);
#840=AXIS2_PLACEMENT_3D('',#1321,#1055,#1056);
#841=AXIS2_PLACEMENT_3D('',#1322,#1057,#1058);
#842=AXIS2_PLACEMENT_3D('',#1323,#1059,#1060);
#843=AXIS2_PLACEMENT_3D('',#1324,#1061,#1062);
#844=AXIS2_PLACEMENT_3D('',#1325,#1063,#1064);
#845=AXIS2_PLACEMENT_3D('',#1326,#1065,#1066);
#846=DIRECTION('',(0.,0.,1.));
#847=DIRECTION('',(1.,0.,0.));
#848=DIRECTION('',(0.,1.,0.));
#849=DIRECTION('',(0.,0.,1.));
#850=DIRECTION('',(0.,1.,0.));
#851=DIRECTION('',(0.,-1.,0.));
#852=DIRECTION('',(0.,0.,-1.));
#853=DIRECTION('',(0.,1.,0.));
#854=DIRECTION('',(0.,-1.,0.));
#855=DIRECTION('',(0.,0.,-1.));
#856=DIRECTION('',(0.,-1.,0.));
#857=DIRECTION('',(0.,0.,-1.));
#858=DIRECTION('',(0.,1.,0.));
#859=DIRECTION('',(0.,-1.,0.));
#860=DIRECTION('',(0.,0.,-1.));
#861=DIRECTION('',(0.,1.,0.));
#862=DIRECTION('',(-1.,0.,0.));
#863=DIRECTION('',(0.,0.,1.));
#864=DIRECTION('',(0.,0.,1.));
#865=DIRECTION('',(0.,-1.,0.));
#866=DIRECTION('',(0.,0.,1.));
#867=DIRECTION('',(0.,1.,0.));
#868=DIRECTION('',(0.,1.,0.));
#869=DIRECTION('',(0.,0.,1.));
#870=DIRECTION('',(0.,-1.,0.));
#871=DIRECTION('',(0.,0.,-1.));
#872=DIRECTION('',(0.,1.,0.));
#873=DIRECTION('',(0.,-1.,0.));
#874=DIRECTION('',(0.,0.,-1.));
#875=DIRECTION('',(0.,0.,1.));
#876=DIRECTION('',(1.,0.,0.));
#877=DIRECTION('',(0.,0.,1.));
#878=DIRECTION('',(1.,0.,0.));
#879=DIRECTION('',(0.,0.,1.));
#880=DIRECTION('',(1.,0.,0.));
#881=DIRECTION('',(0.,0.,1.));
#882=DIRECTION('',(1.,0.,0.));
#883=DIRECTION('',(1.,0.,0.));
#884=DIRECTION('',(0.,1.,0.));
#885=DIRECTION('',(1.,0.,0.));
#886=DIRECTION('',(0.,1.,0.));
#887=DIRECTION('',(0.,0.,1.));
#888=DIRECTION('',(0.,-1.,0.));
#889=DIRECTION('',(0.,0.,-1.));
#890=DIRECTION('',(0.,1.,0.));
#891=DIRECTION('',(0.,-1.,0.));
#892=DIRECTION('',(0.,0.,-1.));
#893=DIRECTION('',(1.,0.,0.));
#894=DIRECTION('',(0.,0.,-1.));
#895=DIRECTION('',(0.,-1.,0.));
#896=DIRECTION('',(0.,0.,-1.));
#897=DIRECTION('',(0.,0.,-1.));
#898=DIRECTION('',(-1.,0.,0.));
#899=DIRECTION('',(0.,0.,1.));
#900=DIRECTION('',(0.,1.,0.));
#901=DIRECTION('',(0.,0.,1.));
#902=DIRECTION('',(0.,0.,1.));
#903=DIRECTION('',(1.,0.,0.));
#904=DIRECTION('',(0.,0.,-1.));
#905=DIRECTION('',(0.,0.,-1.));
#906=DIRECTION('',(0.,1.,0.));
#907=DIRECTION('',(0.,0.,-1.));
#908=DIRECTION('',(0.,1.,0.));
#909=DIRECTION('',(0.,0.,1.));
#910=DIRECTION('',(0.,-1.,0.));
#911=DIRECTION('',(0.,0.,-1.));
#912=DIRECTION('',(0.,1.,0.));
#913=DIRECTION('',(0.,-1.,0.));
#914=DIRECTION('',(0.,0.,-1.));
#915=DIRECTION('',(0.,0.,1.));
#916=DIRECTION('',(1.,0.,0.));
#917=DIRECTION('',(0.,0.,1.));
#918=DIRECTION('',(1.,0.,0.));
#919=DIRECTION('',(0.,0.,1.));
#920=DIRECTION('',(1.,0.,0.));
#921=DIRECTION('',(0.,0.,1.));
#922=DIRECTION('',(1.,0.,0.));
#923=DIRECTION('',(1.,0.,0.));
#924=DIRECTION('',(0.,1.,0.));
#925=DIRECTION('',(1.,0.,0.));
#926=DIRECTION('',(0.,1.,0.));
#927=DIRECTION('',(0.,0.,1.));
#928=DIRECTION('',(0.,-1.,0.));
#929=DIRECTION('',(0.,0.,-1.));
#930=DIRECTION('',(0.,-1.,0.));
#931=DIRECTION('',(0.,0.,-1.));
#932=DIRECTION('',(0.,-1.,0.));
#933=DIRECTION('',(1.,0.,0.));
#934=DIRECTION('',(0.,-1.,0.));
#935=DIRECTION('',(0.,0.,-1.));
#936=DIRECTION('',(-0.441665567956284,0.,-0.897179762412112));
#937=DIRECTION('',(-0.897179762412112,0.,0.441665567956284));
#938=DIRECTION('',(-0.897179762412112,0.,0.441665567956284));
#939=DIRECTION('',(0.,1.,0.));
#940=DIRECTION('',(-0.897179762412112,0.,0.441665567956284));
#941=DIRECTION('',(0.,1.,0.));
#942=DIRECTION('',(0.,0.,1.));
#943=DIRECTION('',(0.,-1.,0.));
#944=DIRECTION('',(0.,0.,-1.));
#945=DIRECTION('',(0.,1.,0.));
#946=DIRECTION('',(0.,-1.,0.));
#947=DIRECTION('',(0.,0.,-1.));
#948=DIRECTION('',(-0.371769107039893,0.,-0.928325229136191));
#949=DIRECTION('',(-0.928325229136191,0.,0.371769107039893));
#950=DIRECTION('',(-0.928325229136191,0.,0.371769107039893));
#951=DIRECTION('',(0.,1.,0.));
#952=DIRECTION('',(-0.928325229136191,0.,0.371769107039893));
#953=DIRECTION('',(0.,1.,0.));
#954=DIRECTION('',(0.,0.,1.));
#955=DIRECTION('',(0.,-1.,0.));
#956=DIRECTION('',(0.,0.,-1.));
#957=DIRECTION('',(0.,1.,0.));
#958=DIRECTION('',(0.,-1.,0.));
#959=DIRECTION('',(0.,0.,-1.));
#960=DIRECTION('',(0.,1.,0.));
#961=DIRECTION('',(0.,0.,1.));
#962=DIRECTION('',(0.,-1.,0.));
#963=DIRECTION('',(0.,0.,-1.));
#964=DIRECTION('',(0.,-1.,0.));
#965=DIRECTION('',(0.,0.,-1.));
#966=DIRECTION('',(0.,-1.,0.));
#967=DIRECTION('',(1.,0.,0.));
#968=DIRECTION('',(-1.,0.,0.));
#969=DIRECTION('',(-0.897179762412112,0.,0.441665567956284));
#970=DIRECTION('',(0.,-1.,0.));
#971=DIRECTION('',(0.,0.,-1.));
#972=DIRECTION('',(1.,0.,1.66721562948568E-16));
#973=DIRECTION('',(0.,-1.,0.));
#974=DIRECTION('',(0.,0.,-1.));
#975=DIRECTION('',(0.,-1.,0.));
#976=DIRECTION('',(1.,0.,0.));
#977=DIRECTION('',(-0.897179762412112,0.,0.441665567956284));
#978=DIRECTION('',(1.,0.,0.));
#979=DIRECTION('',(0.,-1.,0.));
#980=DIRECTION('',(0.,0.,-1.));
#981=DIRECTION('',(-1.,0.,-1.66721562948568E-16));
#982=DIRECTION('',(0.,-1.,0.));
#983=DIRECTION('',(0.,0.,-1.));
#984=DIRECTION('',(0.,-1.,0.));
#985=DIRECTION('',(0.,0.,-1.));
#986=DIRECTION('',(0.,-1.,0.));
#987=DIRECTION('',(0.,0.,-1.));
#988=DIRECTION('',(-0.441665567956283,0.,-0.897179762412112));
#989=DIRECTION('',(-0.897179762412112,0.,0.441665567956284));
#990=DIRECTION('',(0.,1.,0.));
#991=DIRECTION('',(-0.897179762412112,0.,0.441665567956284));
#992=DIRECTION('',(0.,1.,0.));
#993=DIRECTION('',(-0.897179762412112,0.,0.441665567956284));
#994=DIRECTION('',(0.,0.,-1.));
#995=DIRECTION('',(-1.,0.,0.));
#996=DIRECTION('',(-1.,0.,0.));
#997=DIRECTION('',(0.,1.,0.));
#998=DIRECTION('',(-1.,0.,0.));
#999=DIRECTION('',(0.,0.,-1.));
#1000=DIRECTION('',(1.,0.,0.));
#1001=DIRECTION('',(0.,0.,-1.));
#1002=DIRECTION('',(-1.,0.,0.));
#1003=DIRECTION('',(0.,1.,0.));
#1004=DIRECTION('',(-0.441665567956283,0.,-0.897179762412112));
#1005=DIRECTION('',(-0.897179762412112,0.,0.441665567956284));
#1006=DIRECTION('',(-0.897179762412112,0.,0.441665567956284));
#1007=DIRECTION('',(0.,1.,0.));
#1008=DIRECTION('',(-0.897179762412112,0.,0.441665567956284));
#1009=DIRECTION('',(-0.422618261740699,0.,-0.90630778703665));
#1010=DIRECTION('',(-0.90630778703665,0.,0.422618261740699));
#1011=DIRECTION('',(-0.90630778703665,0.,0.422618261740699));
#1012=DIRECTION('',(0.,1.,0.));
#1013=DIRECTION('',(-0.90630778703665,0.,0.422618261740699));
#1014=DIRECTION('',(0.,1.,0.));
#1015=DIRECTION('',(1.66721562948568E-16,0.,-1.));
#1016=DIRECTION('',(-1.,0.,-1.66721562948568E-16));
#1017=DIRECTION('',(0.,1.,0.));
#1018=DIRECTION('',(-1.,0.,-1.66721562948568E-16));
#1019=DIRECTION('',(-1.,0.,-1.66721562948568E-16));
#1020=DIRECTION('',(0.,1.,0.));
#1021=DIRECTION('',(0.,-1.,0.));
#1022=DIRECTION('',(1.,0.,0.));
#1023=DIRECTION('',(0.,-1.,0.));
#1024=DIRECTION('',(0.,0.,-1.));
#1025=DIRECTION('',(0.,-1.,0.));
#1026=DIRECTION('',(0.,0.,-1.));
#1027=DIRECTION('',(0.,-1.,0.));
#1028=DIRECTION('',(1.,0.,0.));
#1029=DIRECTION('',(0.,-1.,0.));
#1030=DIRECTION('',(0.,0.,-1.));
#1031=DIRECTION('',(0.,-1.,0.));
#1032=DIRECTION('',(0.,0.,-1.));
#1033=DIRECTION('',(0.,-1.,0.));
#1034=DIRECTION('',(0.,0.,-1.));
#1035=DIRECTION('',(0.,-1.,0.));
#1036=DIRECTION('',(0.,0.,-1.));
#1037=DIRECTION('',(0.,-1.,0.));
#1038=DIRECTION('',(0.,0.,-1.));
#1039=DIRECTION('',(0.,-1.,0.));
#1040=DIRECTION('',(0.,0.,-1.));
#1041=DIRECTION('',(0.,-1.,0.));
#1042=DIRECTION('',(0.,0.,-1.));
#1043=DIRECTION('',(-0.89717976241211,0.,0.441665567956287));
#1044=DIRECTION('',(0.441665567956287,0.,0.89717976241211));
#1045=DIRECTION('',(-0.897179762412112,0.,0.441665567956284));
#1046=DIRECTION('',(0.441665567956283,0.,0.897179762412112));
#1047=DIRECTION('',(0.,-1.,0.));
#1048=DIRECTION('',(0.,0.,-1.));
#1049=DIRECTION('',(-0.89717976241211,7.661676292644E-16,0.441665567956287));
#1050=DIRECTION('',(0.441665567956287,0.,0.89717976241211));
#1051=DIRECTION('',(0.897179762412112,0.,-0.441665567956284));
#1052=DIRECTION('',(-0.441665567956283,0.,-0.897179762412112));
#1053=DIRECTION('',(0.,-1.,0.));
#1054=DIRECTION('',(0.,0.,-1.));
#1055=DIRECTION('',(0.,0.,1.));
#1056=DIRECTION('',(1.,0.,0.));
#1057=DIRECTION('',(0.,0.,1.));
#1058=DIRECTION('',(1.,0.,0.));
#1059=DIRECTION('',(0.,0.,1.));
#1060=DIRECTION('',(1.,0.,0.));
#1061=DIRECTION('',(0.,-1.,0.));
#1062=DIRECTION('',(0.,0.,-1.));
#1063=DIRECTION('',(0.,1.,0.));
#1064=DIRECTION('',(0.,0.,1.));
#1065=DIRECTION('',(0.,1.,0.));
#1066=DIRECTION('',(-1.,0.,0.));
#1067=CARTESIAN_POINT('',(0.,0.,0.));
#1068=CARTESIAN_POINT('',(-0.179899969967768,0.0953,-0.00170003806581837));
#1069=CARTESIAN_POINT('',(-0.1899,0.0953,0.0380617058340625));
#1070=CARTESIAN_POINT('',(-0.1899,0.0953,0.0380617058340625));
#1071=CARTESIAN_POINT('',(-0.1899,0.1463,0.0380617058340625));
#1072=CARTESIAN_POINT('',(-0.179899969967768,0.1463,-0.00170003806581837));
#1073=CARTESIAN_POINT('',(-0.1699,0.1463,0.0380617209401541));
#1074=CARTESIAN_POINT('',(-0.1699,0.0953,0.0380617209401541));
#1075=CARTESIAN_POINT('',(-0.1699,0.0953,0.0380617209401541));
#1076=CARTESIAN_POINT('',(-0.179899969967768,0.0953,-0.00170003806581837));
#1077=CARTESIAN_POINT('',(-0.179899969967768,0.1428,-0.00170003806581837));
#1078=CARTESIAN_POINT('',(-0.155877043965277,0.1428,0.0315248909015117));
#1079=CARTESIAN_POINT('',(-0.139201373257199,0.1428,-0.00666200384520641));
#1080=CARTESIAN_POINT('',(-0.139201373257199,0.103,-0.00666200384520641));
#1081=CARTESIAN_POINT('',(-0.139201373257199,0.098,-0.00666200384520641));
#1082=CARTESIAN_POINT('',(-0.179899969967768,0.098,-0.00170003806581837));
#1083=CARTESIAN_POINT('',(-0.155877043965277,0.098,0.0315248909015117));
#1084=CARTESIAN_POINT('',(-0.155877043965277,0.103,0.0315248909015117));
#1085=CARTESIAN_POINT('',(-0.1859,0.0953,0.0365826052948633));
#1086=CARTESIAN_POINT('',(-0.1859,0.0953,0.0365826052948633));
#1087=CARTESIAN_POINT('',(-0.1859,0.0953,0.0353168451040584));
#1088=CARTESIAN_POINT('',(-0.1859,0.0953,0.0388));
#1089=CARTESIAN_POINT('',(-0.1859,0.1463,0.0353168451040584));
#1090=CARTESIAN_POINT('',(-0.1859,0.1463,0.0353168451040584));
#1091=CARTESIAN_POINT('',(-0.1859,0.1463,0.0365826052948633));
#1092=CARTESIAN_POINT('',(-0.1859,0.1463,0.0388));
#1093=CARTESIAN_POINT('',(-0.1859,0.0953,0.0388));
#1094=CARTESIAN_POINT('',(-0.1834,0.0953,0.0388));
#1095=CARTESIAN_POINT('',(-0.1834,0.1463,0.0388));
#1096=CARTESIAN_POINT('',(-0.1834,0.1463,0.0413));
#1097=CARTESIAN_POINT('',(-0.1834,0.0953,0.0413));
#1098=CARTESIAN_POINT('',(-0.1834,0.0953,0.0413));
#1099=CARTESIAN_POINT('',(-0.1834,0.0953,0.0388));
#1100=CARTESIAN_POINT('',(-0.1799,0.0953,0.0413));
#1101=CARTESIAN_POINT('',(-0.1799,0.101,0.0413));
#1102=CARTESIAN_POINT('',(-0.1784,0.101,0.0413));
#1103=CARTESIAN_POINT('',(-0.1799,0.121,0.0413));
#1104=CARTESIAN_POINT('',(-0.1784,0.121,0.0413));
#1105=CARTESIAN_POINT('',(-0.1799,0.141,0.0413));
#1106=CARTESIAN_POINT('',(-0.1784,0.141,0.0413));
#1107=CARTESIAN_POINT('',(-0.1799,0.1463,0.0413));
#1108=CARTESIAN_POINT('',(-0.1764,0.1463,0.0413));
#1109=CARTESIAN_POINT('',(-0.1764,0.0953,0.0413));
#1110=CARTESIAN_POINT('',(-0.1764,0.0953,0.0413));
#1111=CARTESIAN_POINT('',(-0.1799,0.0953,0.0413));
#1112=CARTESIAN_POINT('',(-0.1764,0.0953,0.0388));
#1113=CARTESIAN_POINT('',(-0.1764,0.1463,0.0388));
#1114=CARTESIAN_POINT('',(-0.1739,0.1463,0.0388));
#1115=CARTESIAN_POINT('',(-0.1739,0.0953,0.0388));
#1116=CARTESIAN_POINT('',(-0.1739,0.0953,0.0388));
#1117=CARTESIAN_POINT('',(-0.1764,0.0953,0.0388));
#1118=CARTESIAN_POINT('',(-0.1739,0.0953,0.0366513662434194));
#1119=CARTESIAN_POINT('',(-0.1739,0.1463,0.0353168548397982));
#1120=CARTESIAN_POINT('',(-0.1739,0.1463,0.0353168548397982));
#1121=CARTESIAN_POINT('',(-0.1739,0.0953,0.0353168548397982));
#1122=CARTESIAN_POINT('',(-0.1739,0.0953,0.0366513662434194));
#1123=CARTESIAN_POINT('',(-0.1739,0.1463,0.0366513662434194));
#1124=CARTESIAN_POINT('',(-0.1899,0.0953,0.0384308529170313));
#1125=CARTESIAN_POINT('',(-0.1899,0.0953,0.0388));
#1126=CARTESIAN_POINT('',(-0.1899,0.0953,0.0388));
#1127=CARTESIAN_POINT('',(-0.1899,0.1463,0.0388));
#1128=CARTESIAN_POINT('',(-0.1899,0.1463,0.0384308529170313));
#1129=CARTESIAN_POINT('',(-0.1899,0.0953,0.0384308529170313));
#1130=CARTESIAN_POINT('',(-0.1699,0.0953,0.0384308604700771));
#1131=CARTESIAN_POINT('',(-0.1699,0.1463,0.0384308604700771));
#1132=CARTESIAN_POINT('',(-0.1699,0.1463,0.0388));
#1133=CARTESIAN_POINT('',(-0.1699,0.0953,0.0388));
#1134=CARTESIAN_POINT('',(-0.1699,0.0953,0.0388));
#1135=CARTESIAN_POINT('',(-0.1699,0.0953,0.0384308604700771));
#1136=CARTESIAN_POINT('',(-0.1764,0.0953,0.0388));
#1137=CARTESIAN_POINT('',(-0.1764,0.1463,0.0388));
#1138=CARTESIAN_POINT('',(-0.1764,0.1463,0.0453));
#1139=CARTESIAN_POINT('',(-0.1764,0.0953,0.0453));
#1140=CARTESIAN_POINT('',(-0.1764,0.0953,0.0453));
#1141=CARTESIAN_POINT('',(-0.1764,0.0953,0.0388));
#1142=CARTESIAN_POINT('',(-0.1799,0.0953,0.0453));
#1143=CARTESIAN_POINT('',(-0.1799,0.101,0.0453));
#1144=CARTESIAN_POINT('',(-0.1784,0.101,0.0453));
#1145=CARTESIAN_POINT('',(-0.1799,0.121,0.0453));
#1146=CARTESIAN_POINT('',(-0.1784,0.121,0.0453));
#1147=CARTESIAN_POINT('',(-0.1799,0.141,0.0453));
#1148=CARTESIAN_POINT('',(-0.1784,0.141,0.0453));
#1149=CARTESIAN_POINT('',(-0.1799,0.1463,0.0453));
#1150=CARTESIAN_POINT('',(-0.1834,0.1463,0.0453));
#1151=CARTESIAN_POINT('',(-0.1834,0.0953,0.0453));
#1152=CARTESIAN_POINT('',(-0.1834,0.0953,0.0453));
#1153=CARTESIAN_POINT('',(-0.1799,0.0953,0.0453));
#1154=CARTESIAN_POINT('',(-0.1834,0.0953,0.0388));
#1155=CARTESIAN_POINT('',(-0.1834,0.1463,0.0388));
#1156=CARTESIAN_POINT('',(-0.1834,0.0953,0.0388));
#1157=CARTESIAN_POINT('',(-0.140280234161602,0.0953,-0.0038011412665351));
#1158=CARTESIAN_POINT('',(-0.179899969967768,0.0953,-0.00170003806581836));
#1159=CARTESIAN_POINT('',(-0.115651202863323,0.103,0.0117224280048369));
#1160=CARTESIAN_POINT('',(-0.115651202863323,0.103,0.0117224280048369));
#1161=CARTESIAN_POINT('',(-0.120853659718025,0.103,0.0142835045669323));
#1162=CARTESIAN_POINT('',(-0.142344807888655,0.103,0.0248632128489094));
#1163=CARTESIAN_POINT('',(-0.120853659718025,0.095298,0.0142835045669323));
#1164=CARTESIAN_POINT('',(-0.120853659718025,0.1378,0.0142835045669323));
#1165=CARTESIAN_POINT('',(-0.115651202863323,0.1378,0.0117224280048369));
#1166=CARTESIAN_POINT('',(-0.142344807888655,0.1378,0.0248632128489094));
#1167=CARTESIAN_POINT('',(-0.142344807888655,0.1378,0.0248632128489094));
#1168=CARTESIAN_POINT('',(-0.143582354936318,0.1378,0.0254724351503683));
#1169=CARTESIAN_POINT('',(-0.145410646166449,0.137988521081452,0.026372470258577));
#1170=CARTESIAN_POINT('',(-0.147810565498063,0.138495283100743,0.0275539076683962));
#1171=CARTESIAN_POINT('',(-0.14959284798828,0.138992101832413,0.0284312934959411));
#1172=CARTESIAN_POINT('',(-0.151359529284006,0.139602127384466,0.0293009991341697));
#1173=CARTESIAN_POINT('',(-0.152801280566765,0.14020880394525,0.0300107475322381));
#1174=CARTESIAN_POINT('',(-0.153922522438185,0.140777633189924,0.0305627148733493));
#1175=CARTESIAN_POINT('',(-0.154737239062086,0.141272066509576,0.0309637853115089));
#1176=CARTESIAN_POINT('',(-0.155489384296773,0.141855095605431,0.0313340529726632));
#1177=CARTESIAN_POINT('',(-0.155877043965277,0.142452207707233,0.0315248909015118));
#1178=CARTESIAN_POINT('',(-0.155877043965277,0.1428,0.0315248909015118));
#1179=CARTESIAN_POINT('',(-0.155877043965277,0.098,0.0315248909015118));
#1180=CARTESIAN_POINT('',(-0.155877043965277,0.0983527897158416,0.0315248909015118));
#1181=CARTESIAN_POINT('',(-0.155481867598033,0.0989526880241475,0.0313303526361678));
#1182=CARTESIAN_POINT('',(-0.154722508149752,0.0995380739966044,0.0309565335465501));
#1183=CARTESIAN_POINT('',(-0.153907786147981,0.100030274178553,0.0305554604609614));
#1184=CARTESIAN_POINT('',(-0.15279034990141,0.100596090440967,0.0300053665609718));
#1185=CARTESIAN_POINT('',(-0.151345284213598,0.101203284247803,0.0292939865405115));
#1186=CARTESIAN_POINT('',(-0.149585628085798,0.10180995623179,0.0284277392669404));
#1187=CARTESIAN_POINT('',(-0.147808706432614,0.102305093089109,0.0275529924836898));
#1188=CARTESIAN_POINT('',(-0.145413177982823,0.102810920310458,0.0263737166265441));
#1189=CARTESIAN_POINT('',(-0.143584818542993,0.103,0.0254736479399193));
#1190=CARTESIAN_POINT('',(-0.142344807888655,0.103,0.0248632128489094));
#1191=CARTESIAN_POINT('',(-0.134238125147861,0.103,-0.00726712218499322));
#1192=CARTESIAN_POINT('',(-0.134238125147861,0.1378,-0.00726712218499322));
#1193=CARTESIAN_POINT('',(-0.132379279612661,0.1378,-0.00262549603931225));
#1194=CARTESIAN_POINT('',(-0.133903643103567,0.1378,-0.00227832255361442));
#1195=CARTESIAN_POINT('',(-0.132379279612661,0.103,-0.00262549603931225));
#1196=CARTESIAN_POINT('',(-0.132379279612661,0.103,-0.00262549603931225));
#1197=CARTESIAN_POINT('',(-0.134238125147861,0.103,-0.00726712218499322));
#1198=CARTESIAN_POINT('',(-0.133903643103567,0.103,-0.00227832255361442));
#1199=CARTESIAN_POINT('',(-0.133903643103567,0.103,-0.00227832255361442));
#1200=CARTESIAN_POINT('',(-0.134690596170631,0.103,-0.00222556002753914));
#1201=CARTESIAN_POINT('',(-0.136233486328312,0.102607892533252,-0.00251415316857081));
#1202=CARTESIAN_POINT('',(-0.137866026158373,0.10128321413724,-0.00367047791719206));
#1203=CARTESIAN_POINT('',(-0.138836500186289,0.099703531469239,-0.00508614734862801));
#1204=CARTESIAN_POINT('',(-0.139136963101097,0.0985637298045377,-0.00613370456145418));
#1205=CARTESIAN_POINT('',(-0.139201373257199,0.098,-0.00666200384520643));
#1206=CARTESIAN_POINT('',(-0.133903643103567,0.1378,-0.00227832255361442));
#1207=CARTESIAN_POINT('',(-0.134690596170631,0.1378,-0.00222556002753914));
#1208=CARTESIAN_POINT('',(-0.136233486328312,0.138192107466748,-0.00251415316857084));
#1209=CARTESIAN_POINT('',(-0.137866026158373,0.13951678586276,-0.00367047791719192));
#1210=CARTESIAN_POINT('',(-0.13883650018629,0.141096468530761,-0.00508614734862844));
#1211=CARTESIAN_POINT('',(-0.139136963101097,0.142236270195463,-0.00613370456145325));
#1212=CARTESIAN_POINT('',(-0.139201373257199,0.1428,-0.00666200384520643));
#1213=CARTESIAN_POINT('',(-0.123254723246602,0.103,-0.00627963369051194));
#1214=CARTESIAN_POINT('',(-0.123254723246602,0.1378,-0.00627963369051194));
#1215=CARTESIAN_POINT('',(-0.114130166880542,0.1378,-0.00993377134171164));
#1216=CARTESIAN_POINT('',(-0.114130166880542,0.103,-0.00993377134171164));
#1217=CARTESIAN_POINT('',(-0.114130166880542,0.103,-0.00993377134171164));
#1218=CARTESIAN_POINT('',(-0.123254723246602,0.103,-0.00627963369051194));
#1219=CARTESIAN_POINT('',(-0.110448746008621,0.103,-0.000741087469498952));
#1220=CARTESIAN_POINT('',(-0.110448746008621,0.1378,-0.000741087469498952));
#1221=CARTESIAN_POINT('',(-0.110448746008621,0.1378,0.00916135144274143));
#1222=CARTESIAN_POINT('',(-0.110448746008621,0.103,0.00916135144274143));
#1223=CARTESIAN_POINT('',(-0.110448746008621,0.103,0.00916135144274143));
#1224=CARTESIAN_POINT('',(-0.110448746008621,0.103,-0.000741087469498952));
#1225=CARTESIAN_POINT('',(-0.110448746008621,0.103,-0.000741087469498952));
#1226=CARTESIAN_POINT('',(-0.110448746008621,0.103,-0.000741087469498952));
#1227=CARTESIAN_POINT('',(-0.110448746008621,0.103,-0.00474108746949895));
#1228=CARTESIAN_POINT('',(-0.110448746008621,0.1378,-0.000741087469498952));
#1229=CARTESIAN_POINT('',(-0.110448746008621,0.1378,-0.00474108746949895));
#1230=CARTESIAN_POINT('',(-0.159309293905752,0.103,-0.00231914708297441));
#1231=CARTESIAN_POINT('',(-0.102948746008621,0.103,0.00916135144274144));
#1232=CARTESIAN_POINT('',(-0.112712902584438,0.103,0.00916135144274144));
#1233=CARTESIAN_POINT('',(-0.117441478819366,0.103,0.0114891450421081));
#1234=CARTESIAN_POINT('',(-0.117441478819366,0.103,0.0114891450421081));
#1235=CARTESIAN_POINT('',(-0.116558147683454,0.103,0.0132835045669323));
#1236=CARTESIAN_POINT('',(-0.118290198491023,0.103,0.0142835045669323));
#1237=CARTESIAN_POINT('',(-0.159309293905752,0.103,0.0142835045669323));
#1238=CARTESIAN_POINT('',(-0.179899969967768,0.103,-0.00170003806581837));
#1239=CARTESIAN_POINT('',(-0.159309293905752,0.1378,-0.00231914708297441));
#1240=CARTESIAN_POINT('',(-0.145670620279049,0.1378,0.0253858470388056));
#1241=CARTESIAN_POINT('',(-0.117441478819366,0.1378,0.0114891450421081));
#1242=CARTESIAN_POINT('',(-0.112712902584438,0.1378,0.00916135144274144));
#1243=CARTESIAN_POINT('',(-0.159309293905752,0.1378,0.00916135144274144));
#1244=CARTESIAN_POINT('',(-0.179899969967768,0.1378,-0.00170003806581837));
#1245=CARTESIAN_POINT('',(-0.115651202863323,0.1378,0.0142835045669323));
#1246=CARTESIAN_POINT('',(-0.118290198491023,0.1378,0.0142835045669323));
#1247=CARTESIAN_POINT('',(-0.116558147683454,0.1378,0.0132835045669323));
#1248=CARTESIAN_POINT('',(-0.179899969967768,0.1428,-0.00170003806581837));
#1249=CARTESIAN_POINT('',(-0.179899969967768,0.098,-0.00170003806581837));
#1250=CARTESIAN_POINT('',(-0.115651202863323,0.095298,0.0117224280048369));
#1251=CARTESIAN_POINT('',(-0.11699981325141,0.103,0.0123863248045202));
#1252=CARTESIAN_POINT('',(-0.11699981325141,0.0953,0.0123863248045202));
#1253=CARTESIAN_POINT('',(-0.11699981325141,0.102,0.0123863248045202));
#1254=CARTESIAN_POINT('',(-0.110448746008621,0.102,0.00916135144274142));
#1255=CARTESIAN_POINT('',(-0.110448746008621,0.102,0.00916135144274143));
#1256=CARTESIAN_POINT('',(-0.110448746008621,0.095298,0.00916135144274143));
#1257=CARTESIAN_POINT('',(-0.110448746008621,0.0953,0.00916135144274143));
#1258=CARTESIAN_POINT('',(-0.115651202863323,0.0953,0.0117224280048369));
#1259=CARTESIAN_POINT('',(-0.102948746008621,0.095298,0.00916135144274144));
#1260=CARTESIAN_POINT('',(-0.102948746008621,0.1453,0.00916135144274144));
#1261=CARTESIAN_POINT('',(-0.101719607437715,0.1453,0.00916135144274144));
#1262=CARTESIAN_POINT('',(-0.110448746008621,0.1453,0.00916135144274143));
#1263=CARTESIAN_POINT('',(-0.101719607437715,0.0953,0.00916135144274144));
#1264=CARTESIAN_POINT('',(-0.101719607437715,0.0953,0.00916135144274144));
#1265=CARTESIAN_POINT('',(-0.102948746008621,0.0953,0.00916135144274144));
#1266=CARTESIAN_POINT('',(-0.112712902584438,0.102,0.00916135144274144));
#1267=CARTESIAN_POINT('',(-0.112712902584438,0.1388,0.00916135144274144));
#1268=CARTESIAN_POINT('',(-0.110448746008621,0.1388,0.00916135144274143));
#1269=CARTESIAN_POINT('',(-0.110448746008621,0.095298,0.00916135144274143));
#1270=CARTESIAN_POINT('',(-0.115651202863323,0.095298,0.0117224280048369));
#1271=CARTESIAN_POINT('',(-0.115651202863323,0.1388,0.0117224280048369));
#1272=CARTESIAN_POINT('',(-0.11699981325141,0.1388,0.0123863248045202));
#1273=CARTESIAN_POINT('',(-0.11699981325141,0.1453,0.0123863248045202));
#1274=CARTESIAN_POINT('',(-0.11699981325141,0.1453,0.0123863248045202));
#1275=CARTESIAN_POINT('',(-0.115651202863323,0.1453,0.0117224280048369));
#1276=CARTESIAN_POINT('',(-0.104956499597253,0.095298,0.0117224280048369));
#1277=CARTESIAN_POINT('',(-0.104956499597253,0.0953,0.0117224280048369));
#1278=CARTESIAN_POINT('',(-0.101508298306845,0.0953,0.0101145053362598));
#1279=CARTESIAN_POINT('',(-0.110448746008621,0.0953,0.0142835045669323));
#1280=CARTESIAN_POINT('',(-0.101508298306845,0.1453,0.0101145053362598));
#1281=CARTESIAN_POINT('',(-0.101508298306845,0.1453,0.0101145053362598));
#1282=CARTESIAN_POINT('',(-0.104956499597253,0.1453,0.0117224280048369));
#1283=CARTESIAN_POINT('',(-0.110448746008621,0.1453,0.0142835045669323));
#1284=CARTESIAN_POINT('',(-0.110448746008621,0.095298,0.0142835045669323));
#1285=CARTESIAN_POINT('',(-0.115651202863323,0.095298,0.0142835045669323));
#1286=CARTESIAN_POINT('',(-0.118290198491023,0.103,0.0142835045669323));
#1287=CARTESIAN_POINT('',(-0.117943544385072,0.103,0.0142835045669323));
#1288=CARTESIAN_POINT('',(-0.117290311041273,0.102732845429237,0.0142835045669323));
#1289=CARTESIAN_POINT('',(-0.116799446617654,0.102241297727702,0.0142835045669323));
#1290=CARTESIAN_POINT('',(-0.116558147683454,0.102,0.0142835045669323));
#1291=CARTESIAN_POINT('',(-0.116558147683454,0.102,0.0142835045669323));
#1292=CARTESIAN_POINT('',(-0.116558147683454,0.0953,0.0142835045669323));
#1293=CARTESIAN_POINT('',(-0.116558147683454,0.0953,0.0142835045669323));
#1294=CARTESIAN_POINT('',(-0.115651202863323,0.0953,0.0142835045669323));
#1295=CARTESIAN_POINT('',(-0.115651202863323,0.1453,0.0142835045669323));
#1296=CARTESIAN_POINT('',(-0.116558147683454,0.1453,0.0142835045669323));
#1297=CARTESIAN_POINT('',(-0.116558147683454,0.1378,0.0142835045669323));
#1298=CARTESIAN_POINT('',(-0.116558147683454,0.1388,0.0142835045669323));
#1299=CARTESIAN_POINT('',(-0.118290198491023,0.1378,0.0142835045669323));
#1300=CARTESIAN_POINT('',(-0.117943544385072,0.1378,0.0142835045669323));
#1301=CARTESIAN_POINT('',(-0.117290311041276,0.138067154570766,0.0142835045669323));
#1302=CARTESIAN_POINT('',(-0.116799446617648,0.138558702272293,0.0142835045669323));
#1303=CARTESIAN_POINT('',(-0.116558147683454,0.1388,0.0142835045669323));
#1304=CARTESIAN_POINT('',(-0.140280234161602,0.1453,-0.0038011412665351));
#1305=CARTESIAN_POINT('',(-0.101719607437715,0.1453,0.00966135144274144));
#1306=CARTESIAN_POINT('',(-0.116558147683454,0.1453,0.0132835045669323));
#1307=CARTESIAN_POINT('',(-0.140280234161602,0.0953,-0.0038011412665351));
#1308=CARTESIAN_POINT('',(-0.101719607437715,0.0953,0.00966135144274144));
#1309=CARTESIAN_POINT('',(-0.116558147683454,0.0953,0.0132835045669323));
#1310=CARTESIAN_POINT('',(-0.116558147683454,0.095298,0.0132835045669323));
#1311=CARTESIAN_POINT('',(-0.116558147683454,0.102,0.0132835045669323));
#1312=CARTESIAN_POINT('',(-0.116558147683454,0.095298,0.0132835045669323));
#1313=CARTESIAN_POINT('',(-0.116558147683454,0.1388,0.0132835045669323));
#1314=CARTESIAN_POINT('',(-0.116558147683454,0.1388,0.0132835045669323));
#1315=CARTESIAN_POINT('',(-0.117441478819366,0.1388,0.0114891450421081));
#1316=CARTESIAN_POINT('',(-0.11609286843128,0.1388,0.0108252482424247));
#1317=CARTESIAN_POINT('',(-0.116558147683454,0.102,0.0132835045669323));
#1318=CARTESIAN_POINT('',(-0.117441478819366,0.102,0.0114891450421081));
#1319=CARTESIAN_POINT('',(-0.145670620279049,0.102,0.0253858470388056));
#1320=CARTESIAN_POINT('',(-0.101719607437715,0.095298,0.00966135144274144));
#1321=CARTESIAN_POINT('',(-0.1799,0.141,0.0402));
#1322=CARTESIAN_POINT('',(-0.1799,0.121,0.0402));
#1323=CARTESIAN_POINT('',(-0.1799,0.101,0.0402));
#1324=CARTESIAN_POINT('',(-0.179899969967768,0.1463,-0.00170003806581836));
#1325=CARTESIAN_POINT('',(-0.179899969967768,0.1463,-0.00170003806581836));
#1326=CARTESIAN_POINT('',(-0.179899969967768,0.1463,0.00129999999999433));
#1327=MECHANICAL_DESIGN_GEOMETRIC_PRESENTATION_REPRESENTATION('',(#754),
#1328);
#1328=(
GEOMETRIC_REPRESENTATION_CONTEXT(3)
GLOBAL_UNCERTAINTY_ASSIGNED_CONTEXT((#1329))
GLOBAL_UNIT_ASSIGNED_CONTEXT((#1332,#1331,#1330))
REPRESENTATION_CONTEXT('thruster_holder_2','TOP_LEVEL_ASSEMBLY_PART')
);
#1329=UNCERTAINTY_MEASURE_WITH_UNIT(LENGTH_MEASURE(2.E-5),#1332,
'DISTANCE_ACCURACY_VALUE','Maximum Tolerance applied to model');
#1330=(
NAMED_UNIT(*)
SI_UNIT($,.STERADIAN.)
SOLID_ANGLE_UNIT()
);
#1331=(
NAMED_UNIT(*)
PLANE_ANGLE_UNIT()
SI_UNIT($,.RADIAN.)
);
#1332=(
LENGTH_UNIT()
NAMED_UNIT(*)
SI_UNIT($,.METRE.)
);
#1333=PRODUCT_DEFINITION_SHAPE('','',#1334);
#1334=PRODUCT_DEFINITION('','',#1336,#1335);
#1335=PRODUCT_DEFINITION_CONTEXT('',#1342,'design');
#1336=PRODUCT_DEFINITION_FORMATION_WITH_SPECIFIED_SOURCE('','',#1338,
 .NOT_KNOWN.);
#1337=PRODUCT_RELATED_PRODUCT_CATEGORY('','',(#1338));
#1338=PRODUCT('thruster_holder_2','thruster_holder_2',
'thruster_holder_2',(#1340));
#1339=PRODUCT_CATEGORY('','');
#1340=PRODUCT_CONTEXT('',#1342,'mechanical');
#1341=APPLICATION_PROTOCOL_DEFINITION('international standard',
'ap242_managed_model_based_3d_engineering',2020,#1342);
#1342=APPLICATION_CONTEXT('managed model based 3d engineering');
ENDSEC;
END-ISO-10303-21;
