ISO-10303-21;
HEADER;
/* Generated by software containing ST-Developer
 * from STEP Tools, Inc. (www.steptools.com) 
 */
/* OPTION: using custom renumber hook */

FILE_DESCRIPTION(
/* description */ ('STEP AP242 Edition 2',
'CAx-IF Rec.Pracs.---Representation and Presentation of Product Manufa
cturing Information (PMI)---4.0---2014-10-13',
'CAx-IF Rec.Pracs.---3D Tessellated Geometry---0.4---2014-09-14','2;1',
'CAx-IF Rec.Pracs.---User Defined Attributes---1.5---2016-08-15'),
/* implementation_level */ '2;1');

FILE_NAME(
/* name */ 'landedConcept v4 parts - thruster_holder_1',
/* time_stamp */ '2026-01-03T01:02:41Z',
/* author */ (''),
/* organization */ (''),
/* preprocessor_version */ 'ST-DEVELOPER v20',
/* originating_system */ 'ONSHAPE BY PTC INC, 1.208',
/* authorisation */ '  ');

FILE_SCHEMA (('AP242_MANAGED_MODEL_BASED_3D_ENGINEERING_MIM_LF { 1 0 10303 442 3 1 4 }'));
ENDSEC;

DATA;
#10=SHAPE_REPRESENTATION_RELATIONSHIP('','',#764,#11);
#11=ADVANCED_BREP_SHAPE_REPRESENTATION('',(#762),#1328);
#12=ELLIPSE('',#821,0.00226415657581662,0.001);
#13=ELLIPSE('',#822,0.00226415657581662,0.001);
#14=TOROIDAL_SURFACE('',#814,0.045999961934193,0.005);
#15=TOROIDAL_SURFACE('',#815,0.045999961934193,0.005);
#16=TOROIDAL_SURFACE('',#833,0.002,0.001);
#17=TOROIDAL_SURFACE('',#836,0.002,0.001);
#18=B_SPLINE_CURVE_WITH_KNOTS('',3,(#1163,#1164,#1165,#1166,#1167,#1168,
#1169,#1170,#1171,#1172,#1173,#1174),.UNSPECIFIED.,.F.,.F.,(4,1,1,1,1,1,
1,1,1,4),(0.,0.00104056178162766,0.00208112356325532,0.00312168534488297,
0.00416224712651063,0.00624337068976595,0.00832449425302127,0.0104056178162766,
0.0124867413795319,0.0166489885060425),.UNSPECIFIED.);
#19=B_SPLINE_CURVE_WITH_KNOTS('',3,(#1175,#1176,#1177,#1178,#1179,#1180,
#1181,#1182,#1183,#1184,#1185,#1186),.UNSPECIFIED.,.F.,.F.,(4,1,1,1,1,1,
1,1,1,4),(0.,0.00408256977280664,0.00612385465920996,0.00816513954561327,
0.0102064244320166,0.0122477093184199,0.0132683517616216,0.0142889942048232,
0.0153096366480249,0.0163302790912265),.UNSPECIFIED.);
#20=B_SPLINE_CURVE_WITH_KNOTS('',3,(#1195,#1196,#1197,#1198,#1199,#1200,
#1201),.UNSPECIFIED.,.F.,.F.,(4,1,1,1,4),(0.,0.00232580275233782,0.00465160550467563,
0.00697740825701345,0.00930321100935126),.UNSPECIFIED.);
#21=B_SPLINE_CURVE_WITH_KNOTS('',3,(#1202,#1203,#1204,#1205,#1206,#1207,
#1208),.UNSPECIFIED.,.F.,.F.,(4,1,1,1,4),(0.,0.00232580275233779,0.00465160550467559,
0.00697740825701338,0.00930321100935118),.UNSPECIFIED.);
#22=B_SPLINE_CURVE_WITH_KNOTS('',3,(#1291,#1292,#1293,#1294,#1295),
 .UNSPECIFIED.,.F.,.F.,(4,1,4),(0.,0.00102374211662998,0.00204748423325997),
 .UNSPECIFIED.);
#23=B_SPLINE_CURVE_WITH_KNOTS('',3,(#1302,#1303,#1304,#1305,#1306),
 .UNSPECIFIED.,.F.,.F.,(4,1,4),(0.,0.00102374211663,0.00204748423325999),
 .UNSPECIFIED.);
#24=CIRCLE('',#769,0.040999961934193);
#25=CIRCLE('',#770,0.040999961934193);
#26=CIRCLE('',#771,0.040999961934193);
#27=CIRCLE('',#772,0.040999961934193);
#28=CIRCLE('',#774,0.0025);
#29=CIRCLE('',#775,0.0025);
#30=CIRCLE('',#777,0.0015);
#31=CIRCLE('',#778,0.0015);
#32=CIRCLE('',#779,0.0015);
#33=CIRCLE('',#781,0.0025);
#34=CIRCLE('',#782,0.0025);
#35=CIRCLE('',#786,0.0065);
#36=CIRCLE('',#787,0.0065);
#37=CIRCLE('',#789,0.0015);
#38=CIRCLE('',#790,0.0015);
#39=CIRCLE('',#791,0.0015);
#40=CIRCLE('',#793,0.0065);
#41=CIRCLE('',#794,0.0065);
#42=CIRCLE('',#796,0.0375);
#43=CIRCLE('',#799,0.005);
#44=CIRCLE('',#800,0.005);
#45=CIRCLE('',#803,0.00990243891224038);
#46=CIRCLE('',#804,0.00990243891224038);
#47=CIRCLE('',#806,0.004);
#48=CIRCLE('',#807,0.004);
#49=CIRCLE('',#809,0.045999961934193);
#50=CIRCLE('',#810,0.002);
#51=CIRCLE('',#812,0.002);
#52=CIRCLE('',#813,0.045999961934193);
#53=CIRCLE('',#818,0.001);
#54=CIRCLE('',#819,0.0005);
#55=CIRCLE('',#827,0.001);
#56=CIRCLE('',#828,0.0005);
#57=CIRCLE('',#830,0.001);
#58=CIRCLE('',#832,0.001);
#59=CIRCLE('',#834,0.001);
#60=CIRCLE('',#837,0.001);
#61=CIRCLE('',#844,0.0375);
#62=CYLINDRICAL_SURFACE('',#768,0.040999961934193);
#63=CYLINDRICAL_SURFACE('',#773,0.0025);
#64=CYLINDRICAL_SURFACE('',#780,0.0025);
#65=CYLINDRICAL_SURFACE('',#785,0.0065);
#66=CYLINDRICAL_SURFACE('',#792,0.0065);
#67=CYLINDRICAL_SURFACE('',#798,0.005);
#68=CYLINDRICAL_SURFACE('',#802,0.00990243891224038);
#69=CYLINDRICAL_SURFACE('',#805,0.004);
#70=CYLINDRICAL_SURFACE('',#829,0.001);
#71=CYLINDRICAL_SURFACE('',#831,0.001);
#72=CYLINDRICAL_SURFACE('',#835,0.001);
#73=CYLINDRICAL_SURFACE('',#838,0.001);
#74=CYLINDRICAL_SURFACE('',#839,0.0005);
#75=CYLINDRICAL_SURFACE('',#840,0.0015);
#76=CYLINDRICAL_SURFACE('',#841,0.0015);
#77=CYLINDRICAL_SURFACE('',#842,0.0015);
#78=CYLINDRICAL_SURFACE('',#843,0.0375);
#79=ORIENTED_EDGE('',*,*,#289,.T.);
#80=ORIENTED_EDGE('',*,*,#290,.T.);
#81=ORIENTED_EDGE('',*,*,#291,.T.);
#82=ORIENTED_EDGE('',*,*,#292,.F.);
#83=ORIENTED_EDGE('',*,*,#293,.T.);
#84=ORIENTED_EDGE('',*,*,#294,.F.);
#85=ORIENTED_EDGE('',*,*,#295,.F.);
#86=ORIENTED_EDGE('',*,*,#296,.F.);
#87=ORIENTED_EDGE('',*,*,#297,.F.);
#88=ORIENTED_EDGE('',*,*,#298,.T.);
#89=ORIENTED_EDGE('',*,*,#299,.T.);
#90=ORIENTED_EDGE('',*,*,#300,.F.);
#91=ORIENTED_EDGE('',*,*,#301,.F.);
#92=ORIENTED_EDGE('',*,*,#302,.F.);
#93=ORIENTED_EDGE('',*,*,#303,.F.);
#94=ORIENTED_EDGE('',*,*,#304,.T.);
#95=ORIENTED_EDGE('',*,*,#291,.F.);
#96=ORIENTED_EDGE('',*,*,#305,.F.);
#97=ORIENTED_EDGE('',*,*,#306,.T.);
#98=ORIENTED_EDGE('',*,*,#307,.T.);
#99=ORIENTED_EDGE('',*,*,#308,.F.);
#100=ORIENTED_EDGE('',*,*,#309,.F.);
#101=ORIENTED_EDGE('',*,*,#310,.F.);
#102=ORIENTED_EDGE('',*,*,#306,.F.);
#103=ORIENTED_EDGE('',*,*,#311,.T.);
#104=ORIENTED_EDGE('',*,*,#312,.T.);
#105=ORIENTED_EDGE('',*,*,#313,.F.);
#106=ORIENTED_EDGE('',*,*,#312,.F.);
#107=ORIENTED_EDGE('',*,*,#314,.F.);
#108=ORIENTED_EDGE('',*,*,#296,.T.);
#109=ORIENTED_EDGE('',*,*,#315,.T.);
#110=ORIENTED_EDGE('',*,*,#316,.F.);
#111=ORIENTED_EDGE('',*,*,#317,.F.);
#112=ORIENTED_EDGE('',*,*,#297,.T.);
#113=ORIENTED_EDGE('',*,*,#318,.T.);
#114=ORIENTED_EDGE('',*,*,#299,.F.);
#115=ORIENTED_EDGE('',*,*,#319,.F.);
#116=ORIENTED_EDGE('',*,*,#320,.T.);
#117=ORIENTED_EDGE('',*,*,#321,.T.);
#118=ORIENTED_EDGE('',*,*,#320,.F.);
#119=ORIENTED_EDGE('',*,*,#322,.T.);
#120=ORIENTED_EDGE('',*,*,#323,.T.);
#121=ORIENTED_EDGE('',*,*,#324,.F.);
#122=ORIENTED_EDGE('',*,*,#325,.T.);
#123=ORIENTED_EDGE('',*,*,#326,.T.);
#124=ORIENTED_EDGE('',*,*,#327,.T.);
#125=ORIENTED_EDGE('',*,*,#323,.F.);
#126=ORIENTED_EDGE('',*,*,#328,.F.);
#127=ORIENTED_EDGE('',*,*,#329,.T.);
#128=ORIENTED_EDGE('',*,*,#330,.T.);
#129=ORIENTED_EDGE('',*,*,#329,.F.);
#130=ORIENTED_EDGE('',*,*,#331,.T.);
#131=ORIENTED_EDGE('',*,*,#316,.T.);
#132=ORIENTED_EDGE('',*,*,#332,.F.);
#133=ORIENTED_EDGE('',*,*,#317,.T.);
#134=ORIENTED_EDGE('',*,*,#331,.F.);
#135=ORIENTED_EDGE('',*,*,#328,.T.);
#136=ORIENTED_EDGE('',*,*,#322,.F.);
#137=ORIENTED_EDGE('',*,*,#319,.T.);
#138=ORIENTED_EDGE('',*,*,#298,.F.);
#139=ORIENTED_EDGE('',*,*,#290,.F.);
#140=ORIENTED_EDGE('',*,*,#333,.T.);
#141=ORIENTED_EDGE('',*,*,#293,.F.);
#142=ORIENTED_EDGE('',*,*,#314,.T.);
#143=ORIENTED_EDGE('',*,*,#311,.F.);
#144=ORIENTED_EDGE('',*,*,#305,.T.);
#145=ORIENTED_EDGE('',*,*,#334,.T.);
#146=ORIENTED_EDGE('',*,*,#335,.F.);
#147=ORIENTED_EDGE('',*,*,#302,.T.);
#148=ORIENTED_EDGE('',*,*,#336,.F.);
#149=ORIENTED_EDGE('',*,*,#337,.F.);
#150=ORIENTED_EDGE('',*,*,#338,.F.);
#151=ORIENTED_EDGE('',*,*,#339,.T.);
#152=ORIENTED_EDGE('',*,*,#340,.F.);
#153=ORIENTED_EDGE('',*,*,#304,.F.);
#154=ORIENTED_EDGE('',*,*,#341,.F.);
#155=ORIENTED_EDGE('',*,*,#342,.F.);
#156=ORIENTED_EDGE('',*,*,#343,.T.);
#157=ORIENTED_EDGE('',*,*,#344,.T.);
#158=ORIENTED_EDGE('',*,*,#343,.F.);
#159=ORIENTED_EDGE('',*,*,#345,.F.);
#160=ORIENTED_EDGE('',*,*,#346,.T.);
#161=ORIENTED_EDGE('',*,*,#347,.F.);
#162=ORIENTED_EDGE('',*,*,#346,.F.);
#163=ORIENTED_EDGE('',*,*,#348,.T.);
#164=ORIENTED_EDGE('',*,*,#349,.T.);
#165=ORIENTED_EDGE('',*,*,#350,.F.);
#166=ORIENTED_EDGE('',*,*,#351,.T.);
#167=ORIENTED_EDGE('',*,*,#348,.F.);
#168=ORIENTED_EDGE('',*,*,#345,.T.);
#169=ORIENTED_EDGE('',*,*,#342,.T.);
#170=ORIENTED_EDGE('',*,*,#352,.F.);
#171=ORIENTED_EDGE('',*,*,#334,.F.);
#172=ORIENTED_EDGE('',*,*,#353,.T.);
#173=ORIENTED_EDGE('',*,*,#354,.F.);
#174=ORIENTED_EDGE('',*,*,#355,.F.);
#175=ORIENTED_EDGE('',*,*,#356,.F.);
#176=ORIENTED_EDGE('',*,*,#350,.T.);
#177=ORIENTED_EDGE('',*,*,#357,.F.);
#178=ORIENTED_EDGE('',*,*,#358,.F.);
#179=ORIENTED_EDGE('',*,*,#359,.T.);
#180=ORIENTED_EDGE('',*,*,#337,.T.);
#181=ORIENTED_EDGE('',*,*,#360,.F.);
#182=ORIENTED_EDGE('',*,*,#339,.F.);
#183=ORIENTED_EDGE('',*,*,#344,.F.);
#184=ORIENTED_EDGE('',*,*,#347,.T.);
#185=ORIENTED_EDGE('',*,*,#361,.F.);
#186=ORIENTED_EDGE('',*,*,#351,.F.);
#187=ORIENTED_EDGE('',*,*,#336,.T.);
#188=ORIENTED_EDGE('',*,*,#301,.T.);
#189=ORIENTED_EDGE('',*,*,#340,.T.);
#190=ORIENTED_EDGE('',*,*,#360,.T.);
#191=ORIENTED_EDGE('',*,*,#335,.T.);
#192=ORIENTED_EDGE('',*,*,#352,.T.);
#193=ORIENTED_EDGE('',*,*,#341,.T.);
#194=ORIENTED_EDGE('',*,*,#303,.T.);
#195=ORIENTED_EDGE('',*,*,#362,.F.);
#196=ORIENTED_EDGE('',*,*,#363,.F.);
#197=ORIENTED_EDGE('',*,*,#364,.T.);
#198=ORIENTED_EDGE('',*,*,#365,.F.);
#199=ORIENTED_EDGE('',*,*,#366,.T.);
#200=ORIENTED_EDGE('',*,*,#363,.T.);
#201=ORIENTED_EDGE('',*,*,#367,.F.);
#202=ORIENTED_EDGE('',*,*,#368,.F.);
#203=ORIENTED_EDGE('',*,*,#369,.F.);
#204=ORIENTED_EDGE('',*,*,#370,.F.);
#205=ORIENTED_EDGE('',*,*,#371,.T.);
#206=ORIENTED_EDGE('',*,*,#372,.F.);
#207=ORIENTED_EDGE('',*,*,#373,.F.);
#208=ORIENTED_EDGE('',*,*,#361,.T.);
#209=ORIENTED_EDGE('',*,*,#349,.F.);
#210=ORIENTED_EDGE('',*,*,#356,.T.);
#211=ORIENTED_EDGE('',*,*,#374,.F.);
#212=ORIENTED_EDGE('',*,*,#364,.F.);
#213=ORIENTED_EDGE('',*,*,#366,.F.);
#214=ORIENTED_EDGE('',*,*,#375,.F.);
#215=ORIENTED_EDGE('',*,*,#372,.T.);
#216=ORIENTED_EDGE('',*,*,#376,.T.);
#217=ORIENTED_EDGE('',*,*,#377,.F.);
#218=ORIENTED_EDGE('',*,*,#378,.F.);
#219=ORIENTED_EDGE('',*,*,#369,.T.);
#220=ORIENTED_EDGE('',*,*,#379,.T.);
#221=ORIENTED_EDGE('',*,*,#380,.F.);
#222=ORIENTED_EDGE('',*,*,#381,.F.);
#223=ORIENTED_EDGE('',*,*,#338,.T.);
#224=ORIENTED_EDGE('',*,*,#359,.F.);
#225=ORIENTED_EDGE('',*,*,#382,.F.);
#226=ORIENTED_EDGE('',*,*,#383,.F.);
#227=ORIENTED_EDGE('',*,*,#384,.F.);
#228=ORIENTED_EDGE('',*,*,#379,.F.);
#229=ORIENTED_EDGE('',*,*,#368,.T.);
#230=ORIENTED_EDGE('',*,*,#385,.F.);
#231=ORIENTED_EDGE('',*,*,#386,.F.);
#232=ORIENTED_EDGE('',*,*,#353,.F.);
#233=ORIENTED_EDGE('',*,*,#380,.T.);
#234=ORIENTED_EDGE('',*,*,#384,.T.);
#235=ORIENTED_EDGE('',*,*,#387,.F.);
#236=ORIENTED_EDGE('',*,*,#376,.F.);
#237=ORIENTED_EDGE('',*,*,#371,.F.);
#238=ORIENTED_EDGE('',*,*,#388,.F.);
#239=ORIENTED_EDGE('',*,*,#385,.T.);
#240=ORIENTED_EDGE('',*,*,#367,.T.);
#241=ORIENTED_EDGE('',*,*,#362,.T.);
#242=ORIENTED_EDGE('',*,*,#389,.F.);
#243=ORIENTED_EDGE('',*,*,#377,.T.);
#244=ORIENTED_EDGE('',*,*,#387,.T.);
#245=ORIENTED_EDGE('',*,*,#383,.T.);
#246=ORIENTED_EDGE('',*,*,#390,.F.);
#247=ORIENTED_EDGE('',*,*,#382,.T.);
#248=ORIENTED_EDGE('',*,*,#358,.T.);
#249=ORIENTED_EDGE('',*,*,#391,.T.);
#250=ORIENTED_EDGE('',*,*,#390,.T.);
#251=ORIENTED_EDGE('',*,*,#373,.T.);
#252=ORIENTED_EDGE('',*,*,#378,.T.);
#253=ORIENTED_EDGE('',*,*,#391,.F.);
#254=ORIENTED_EDGE('',*,*,#357,.T.);
#255=ORIENTED_EDGE('',*,*,#386,.T.);
#256=ORIENTED_EDGE('',*,*,#389,.T.);
#257=ORIENTED_EDGE('',*,*,#392,.T.);
#258=ORIENTED_EDGE('',*,*,#354,.T.);
#259=ORIENTED_EDGE('',*,*,#374,.T.);
#260=ORIENTED_EDGE('',*,*,#355,.T.);
#261=ORIENTED_EDGE('',*,*,#392,.F.);
#262=ORIENTED_EDGE('',*,*,#365,.T.);
#263=ORIENTED_EDGE('',*,*,#370,.T.);
#264=ORIENTED_EDGE('',*,*,#381,.T.);
#265=ORIENTED_EDGE('',*,*,#388,.T.);
#266=ORIENTED_EDGE('',*,*,#375,.T.);
#267=ORIENTED_EDGE('',*,*,#327,.F.);
#268=ORIENTED_EDGE('',*,*,#310,.T.);
#269=ORIENTED_EDGE('',*,*,#326,.F.);
#270=ORIENTED_EDGE('',*,*,#309,.T.);
#271=ORIENTED_EDGE('',*,*,#325,.F.);
#272=ORIENTED_EDGE('',*,*,#308,.T.);
#273=ORIENTED_EDGE('',*,*,#294,.T.);
#274=ORIENTED_EDGE('',*,*,#333,.F.);
#275=ORIENTED_EDGE('',*,*,#289,.F.);
#276=ORIENTED_EDGE('',*,*,#393,.F.);
#277=ORIENTED_EDGE('',*,*,#393,.T.);
#278=ORIENTED_EDGE('',*,*,#292,.T.);
#279=ORIENTED_EDGE('',*,*,#307,.F.);
#280=ORIENTED_EDGE('',*,*,#313,.T.);
#281=ORIENTED_EDGE('',*,*,#315,.F.);
#282=ORIENTED_EDGE('',*,*,#295,.T.);
#283=ORIENTED_EDGE('',*,*,#300,.T.);
#284=ORIENTED_EDGE('',*,*,#321,.F.);
#285=ORIENTED_EDGE('',*,*,#324,.T.);
#286=ORIENTED_EDGE('',*,*,#330,.F.);
#287=ORIENTED_EDGE('',*,*,#332,.T.);
#288=ORIENTED_EDGE('',*,*,#318,.F.);
#289=EDGE_CURVE('',#394,#395,#466,.T.);
#290=EDGE_CURVE('',#395,#396,#467,.T.);
#291=EDGE_CURVE('',#396,#397,#468,.T.);
#292=EDGE_CURVE('',#394,#397,#469,.T.);
#293=EDGE_CURVE('',#398,#399,#470,.T.);
#294=EDGE_CURVE('',#400,#399,#471,.T.);
#295=EDGE_CURVE('',#401,#400,#472,.T.);
#296=EDGE_CURVE('',#398,#401,#473,.T.);
#297=EDGE_CURVE('',#402,#403,#474,.T.);
#298=EDGE_CURVE('',#402,#404,#24,.T.);
#299=EDGE_CURVE('',#404,#405,#475,.T.);
#300=EDGE_CURVE('',#403,#405,#25,.T.);
#301=EDGE_CURVE('',#406,#407,#26,.F.);
#302=EDGE_CURVE('',#408,#406,#476,.T.);
#303=EDGE_CURVE('',#409,#408,#27,.T.);
#304=EDGE_CURVE('',#409,#407,#477,.T.);
#305=EDGE_CURVE('',#410,#396,#28,.T.);
#306=EDGE_CURVE('',#410,#411,#478,.T.);
#307=EDGE_CURVE('',#411,#397,#29,.T.);
#308=EDGE_CURVE('',#412,#412,#30,.T.);
#309=EDGE_CURVE('',#413,#413,#31,.T.);
#310=EDGE_CURVE('',#414,#414,#32,.T.);
#311=EDGE_CURVE('',#410,#415,#479,.T.);
#312=EDGE_CURVE('',#415,#416,#480,.T.);
#313=EDGE_CURVE('',#411,#416,#481,.T.);
#314=EDGE_CURVE('',#398,#415,#33,.T.);
#315=EDGE_CURVE('',#401,#416,#34,.T.);
#316=EDGE_CURVE('',#417,#418,#482,.T.);
#317=EDGE_CURVE('',#402,#417,#483,.T.);
#318=EDGE_CURVE('',#403,#418,#484,.T.);
#319=EDGE_CURVE('',#419,#404,#485,.T.);
#320=EDGE_CURVE('',#419,#420,#486,.T.);
#321=EDGE_CURVE('',#420,#405,#487,.T.);
#322=EDGE_CURVE('',#419,#421,#35,.T.);
#323=EDGE_CURVE('',#421,#422,#488,.T.);
#324=EDGE_CURVE('',#420,#422,#36,.T.);
#325=EDGE_CURVE('',#423,#423,#37,.T.);
#326=EDGE_CURVE('',#424,#424,#38,.T.);
#327=EDGE_CURVE('',#425,#425,#39,.T.);
#328=EDGE_CURVE('',#426,#421,#489,.T.);
#329=EDGE_CURVE('',#426,#427,#490,.T.);
#330=EDGE_CURVE('',#427,#422,#491,.T.);
#331=EDGE_CURVE('',#426,#417,#40,.T.);
#332=EDGE_CURVE('',#427,#418,#41,.T.);
#333=EDGE_CURVE('',#395,#399,#42,.F.);
#334=EDGE_CURVE('',#428,#429,#492,.T.);
#335=EDGE_CURVE('',#408,#429,#18,.T.);
#336=EDGE_CURVE('',#430,#406,#19,.T.);
#337=EDGE_CURVE('',#431,#430,#493,.T.);
#338=EDGE_CURVE('',#428,#431,#494,.T.);
#339=EDGE_CURVE('',#432,#433,#43,.T.);
#340=EDGE_CURVE('',#407,#433,#20,.F.);
#341=EDGE_CURVE('',#434,#409,#21,.T.);
#342=EDGE_CURVE('',#435,#434,#44,.T.);
#343=EDGE_CURVE('',#435,#432,#495,.T.);
#344=EDGE_CURVE('',#436,#432,#496,.T.);
#345=EDGE_CURVE('',#437,#435,#497,.T.);
#346=EDGE_CURVE('',#437,#436,#498,.T.);
#347=EDGE_CURVE('',#436,#438,#45,.T.);
#348=EDGE_CURVE('',#437,#439,#46,.T.);
#349=EDGE_CURVE('',#439,#438,#499,.T.);
#350=EDGE_CURVE('',#440,#440,#47,.T.);
#351=EDGE_CURVE('',#441,#441,#48,.T.);
#352=EDGE_CURVE('',#429,#434,#49,.F.);
#353=EDGE_CURVE('',#428,#442,#500,.T.);
#354=EDGE_CURVE('',#443,#442,#50,.F.);
#355=EDGE_CURVE('',#444,#443,#501,.T.);
#356=EDGE_CURVE('',#439,#444,#502,.T.);
#357=EDGE_CURVE('',#445,#446,#503,.F.);
#358=EDGE_CURVE('',#447,#445,#51,.T.);
#359=EDGE_CURVE('',#447,#431,#504,.T.);
#360=EDGE_CURVE('',#433,#430,#52,.T.);
#361=EDGE_CURVE('',#446,#438,#505,.T.);
#362=EDGE_CURVE('',#448,#449,#506,.T.);
#363=EDGE_CURVE('',#450,#448,#507,.T.);
#364=EDGE_CURVE('',#450,#451,#508,.T.);
#365=EDGE_CURVE('',#449,#451,#509,.F.);
#366=EDGE_CURVE('',#452,#450,#510,.T.);
#367=EDGE_CURVE('',#453,#448,#53,.T.);
#368=EDGE_CURVE('',#454,#453,#511,.T.);
#369=EDGE_CURVE('',#455,#454,#512,.T.);
#370=EDGE_CURVE('',#452,#455,#54,.T.);
#371=EDGE_CURVE('',#456,#457,#513,.T.);
#372=EDGE_CURVE('',#458,#457,#514,.T.);
#373=EDGE_CURVE('',#446,#458,#12,.F.);
#374=EDGE_CURVE('',#451,#444,#13,.F.);
#375=EDGE_CURVE('',#456,#452,#515,.F.);
#376=EDGE_CURVE('',#457,#459,#516,.T.);
#377=EDGE_CURVE('',#460,#459,#517,.T.);
#378=EDGE_CURVE('',#458,#460,#518,.T.);
#379=EDGE_CURVE('',#454,#461,#519,.T.);
#380=EDGE_CURVE('',#462,#461,#520,.T.);
#381=EDGE_CURVE('',#455,#462,#521,.T.);
#382=EDGE_CURVE('',#463,#447,#22,.F.);
#383=EDGE_CURVE('',#464,#463,#522,.F.);
#384=EDGE_CURVE('',#461,#464,#523,.T.);
#385=EDGE_CURVE('',#465,#453,#524,.F.);
#386=EDGE_CURVE('',#442,#465,#23,.T.);
#387=EDGE_CURVE('',#459,#464,#55,.F.);
#388=EDGE_CURVE('',#462,#456,#56,.F.);
#389=EDGE_CURVE('',#465,#449,#57,.T.);
#390=EDGE_CURVE('',#460,#463,#58,.F.);
#391=EDGE_CURVE('',#445,#460,#59,.T.);
#392=EDGE_CURVE('',#449,#443,#60,.T.);
#393=EDGE_CURVE('',#400,#394,#61,.T.);
#394=VERTEX_POINT('',#1070);
#395=VERTEX_POINT('',#1071);
#396=VERTEX_POINT('',#1073);
#397=VERTEX_POINT('',#1075);
#398=VERTEX_POINT('',#1079);
#399=VERTEX_POINT('',#1080);
#400=VERTEX_POINT('',#1082);
#401=VERTEX_POINT('',#1084);
#402=VERTEX_POINT('',#1088);
#403=VERTEX_POINT('',#1089);
#404=VERTEX_POINT('',#1091);
#405=VERTEX_POINT('',#1093);
#406=VERTEX_POINT('',#1096);
#407=VERTEX_POINT('',#1097);
#408=VERTEX_POINT('',#1099);
#409=VERTEX_POINT('',#1101);
#410=VERTEX_POINT('',#1105);
#411=VERTEX_POINT('',#1107);
#412=VERTEX_POINT('',#1111);
#413=VERTEX_POINT('',#1113);
#414=VERTEX_POINT('',#1115);
#415=VERTEX_POINT('',#1117);
#416=VERTEX_POINT('',#1119);
#417=VERTEX_POINT('',#1126);
#418=VERTEX_POINT('',#1127);
#419=VERTEX_POINT('',#1132);
#420=VERTEX_POINT('',#1134);
#421=VERTEX_POINT('',#1138);
#422=VERTEX_POINT('',#1140);
#423=VERTEX_POINT('',#1144);
#424=VERTEX_POINT('',#1146);
#425=VERTEX_POINT('',#1148);
#426=VERTEX_POINT('',#1150);
#427=VERTEX_POINT('',#1152);
#428=VERTEX_POINT('',#1161);
#429=VERTEX_POINT('',#1162);
#430=VERTEX_POINT('',#1187);
#431=VERTEX_POINT('',#1189);
#432=VERTEX_POINT('',#1193);
#433=VERTEX_POINT('',#1194);
#434=VERTEX_POINT('',#1209);
#435=VERTEX_POINT('',#1211);
#436=VERTEX_POINT('',#1215);
#437=VERTEX_POINT('',#1217);
#438=VERTEX_POINT('',#1221);
#439=VERTEX_POINT('',#1223);
#440=VERTEX_POINT('',#1227);
#441=VERTEX_POINT('',#1229);
#442=VERTEX_POINT('',#1233);
#443=VERTEX_POINT('',#1235);
#444=VERTEX_POINT('',#1237);
#445=VERTEX_POINT('',#1241);
#446=VERTEX_POINT('',#1242);
#447=VERTEX_POINT('',#1244);
#448=VERTEX_POINT('',#1252);
#449=VERTEX_POINT('',#1253);
#450=VERTEX_POINT('',#1255);
#451=VERTEX_POINT('',#1257);
#452=VERTEX_POINT('',#1261);
#453=VERTEX_POINT('',#1263);
#454=VERTEX_POINT('',#1265);
#455=VERTEX_POINT('',#1267);
#456=VERTEX_POINT('',#1271);
#457=VERTEX_POINT('',#1272);
#458=VERTEX_POINT('',#1274);
#459=VERTEX_POINT('',#1280);
#460=VERTEX_POINT('',#1282);
#461=VERTEX_POINT('',#1286);
#462=VERTEX_POINT('',#1288);
#463=VERTEX_POINT('',#1296);
#464=VERTEX_POINT('',#1298);
#465=VERTEX_POINT('',#1301);
#466=LINE('',#1069,#525);
#467=LINE('',#1072,#526);
#468=LINE('',#1074,#527);
#469=LINE('',#1076,#528);
#470=LINE('',#1078,#529);
#471=LINE('',#1081,#530);
#472=LINE('',#1083,#531);
#473=LINE('',#1085,#532);
#474=LINE('',#1087,#533);
#475=LINE('',#1092,#534);
#476=LINE('',#1098,#535);
#477=LINE('',#1102,#536);
#478=LINE('',#1106,#537);
#479=LINE('',#1116,#538);
#480=LINE('',#1118,#539);
#481=LINE('',#1120,#540);
#482=LINE('',#1125,#541);
#483=LINE('',#1128,#542);
#484=LINE('',#1129,#543);
#485=LINE('',#1131,#544);
#486=LINE('',#1133,#545);
#487=LINE('',#1135,#546);
#488=LINE('',#1139,#547);
#489=LINE('',#1149,#548);
#490=LINE('',#1151,#549);
#491=LINE('',#1153,#550);
#492=LINE('',#1160,#551);
#493=LINE('',#1188,#552);
#494=LINE('',#1190,#553);
#495=LINE('',#1212,#554);
#496=LINE('',#1214,#555);
#497=LINE('',#1216,#556);
#498=LINE('',#1218,#557);
#499=LINE('',#1224,#558);
#500=LINE('',#1232,#559);
#501=LINE('',#1236,#560);
#502=LINE('',#1238,#561);
#503=LINE('',#1240,#562);
#504=LINE('',#1245,#563);
#505=LINE('',#1247,#564);
#506=LINE('',#1251,#565);
#507=LINE('',#1254,#566);
#508=LINE('',#1256,#567);
#509=LINE('',#1258,#568);
#510=LINE('',#1260,#569);
#511=LINE('',#1264,#570);
#512=LINE('',#1266,#571);
#513=LINE('',#1270,#572);
#514=LINE('',#1273,#573);
#515=LINE('',#1277,#574);
#516=LINE('',#1279,#575);
#517=LINE('',#1281,#576);
#518=LINE('',#1283,#577);
#519=LINE('',#1285,#578);
#520=LINE('',#1287,#579);
#521=LINE('',#1289,#580);
#522=LINE('',#1297,#581);
#523=LINE('',#1299,#582);
#524=LINE('',#1300,#583);
#525=VECTOR('',#850,1.);
#526=VECTOR('',#851,1.);
#527=VECTOR('',#852,1.);
#528=VECTOR('',#853,1.);
#529=VECTOR('',#856,1.);
#530=VECTOR('',#857,1.);
#531=VECTOR('',#858,1.);
#532=VECTOR('',#859,1.);
#533=VECTOR('',#862,1.);
#534=VECTOR('',#865,1.);
#535=VECTOR('',#870,1.);
#536=VECTOR('',#873,1.);
#537=VECTOR('',#878,1.);
#538=VECTOR('',#889,1.);
#539=VECTOR('',#890,1.);
#540=VECTOR('',#891,1.);
#541=VECTOR('',#900,1.);
#542=VECTOR('',#901,1.);
#543=VECTOR('',#902,1.);
#544=VECTOR('',#905,1.);
#545=VECTOR('',#906,1.);
#546=VECTOR('',#907,1.);
#547=VECTOR('',#912,1.);
#548=VECTOR('',#923,1.);
#549=VECTOR('',#924,1.);
#550=VECTOR('',#925,1.);
#551=VECTOR('',#938,1.);
#552=VECTOR('',#939,1.);
#553=VECTOR('',#940,1.);
#554=VECTOR('',#947,1.);
#555=VECTOR('',#950,1.);
#556=VECTOR('',#951,1.);
#557=VECTOR('',#952,1.);
#558=VECTOR('',#959,1.);
#559=VECTOR('',#970,1.);
#560=VECTOR('',#973,1.);
#561=VECTOR('',#974,1.);
#562=VECTOR('',#977,1.);
#563=VECTOR('',#980,1.);
#564=VECTOR('',#983,1.);
#565=VECTOR('',#990,1.);
#566=VECTOR('',#991,1.);
#567=VECTOR('',#992,1.);
#568=VECTOR('',#993,1.);
#569=VECTOR('',#996,1.);
#570=VECTOR('',#999,1.);
#571=VECTOR('',#1000,1.);
#572=VECTOR('',#1005,1.);
#573=VECTOR('',#1006,1.);
#574=VECTOR('',#1011,1.);
#575=VECTOR('',#1014,1.);
#576=VECTOR('',#1015,1.);
#577=VECTOR('',#1016,1.);
#578=VECTOR('',#1019,1.);
#579=VECTOR('',#1020,1.);
#580=VECTOR('',#1021,1.);
#581=VECTOR('',#1024,1.);
#582=VECTOR('',#1025,1.);
#583=VECTOR('',#1026,1.);
#584=EDGE_LOOP('',(#79,#80,#81,#82));
#585=EDGE_LOOP('',(#83,#84,#85,#86));
#586=EDGE_LOOP('',(#87,#88,#89,#90));
#587=EDGE_LOOP('',(#91,#92,#93,#94));
#588=EDGE_LOOP('',(#95,#96,#97,#98));
#589=EDGE_LOOP('',(#99));
#590=EDGE_LOOP('',(#100));
#591=EDGE_LOOP('',(#101));
#592=EDGE_LOOP('',(#102,#103,#104,#105));
#593=EDGE_LOOP('',(#106,#107,#108,#109));
#594=EDGE_LOOP('',(#110,#111,#112,#113));
#595=EDGE_LOOP('',(#114,#115,#116,#117));
#596=EDGE_LOOP('',(#118,#119,#120,#121));
#597=EDGE_LOOP('',(#122));
#598=EDGE_LOOP('',(#123));
#599=EDGE_LOOP('',(#124));
#600=EDGE_LOOP('',(#125,#126,#127,#128));
#601=EDGE_LOOP('',(#129,#130,#131,#132));
#602=EDGE_LOOP('',(#133,#134,#135,#136,#137,#138));
#603=EDGE_LOOP('',(#139,#140,#141,#142,#143,#144));
#604=EDGE_LOOP('',(#145,#146,#147,#148,#149,#150));
#605=EDGE_LOOP('',(#151,#152,#153,#154,#155,#156));
#606=EDGE_LOOP('',(#157,#158,#159,#160));
#607=EDGE_LOOP('',(#161,#162,#163,#164));
#608=EDGE_LOOP('',(#165));
#609=EDGE_LOOP('',(#166));
#610=EDGE_LOOP('',(#167,#168,#169,#170,#171,#172,#173,#174,#175));
#611=EDGE_LOOP('',(#176));
#612=EDGE_LOOP('',(#177,#178,#179,#180,#181,#182,#183,#184,#185));
#613=EDGE_LOOP('',(#186));
#614=EDGE_LOOP('',(#187,#188,#189,#190));
#615=EDGE_LOOP('',(#191,#192,#193,#194));
#616=EDGE_LOOP('',(#195,#196,#197,#198));
#617=EDGE_LOOP('',(#199,#200,#201,#202,#203,#204));
#618=EDGE_LOOP('',(#205,#206,#207,#208,#209,#210,#211,#212,#213,#214));
#619=EDGE_LOOP('',(#215,#216,#217,#218));
#620=EDGE_LOOP('',(#219,#220,#221,#222));
#621=EDGE_LOOP('',(#223,#224,#225,#226,#227,#228,#229,#230,#231,#232));
#622=EDGE_LOOP('',(#233,#234,#235,#236,#237,#238));
#623=EDGE_LOOP('',(#239,#240,#241,#242));
#624=EDGE_LOOP('',(#243,#244,#245,#246));
#625=EDGE_LOOP('',(#247,#248,#249,#250));
#626=EDGE_LOOP('',(#251,#252,#253,#254));
#627=EDGE_LOOP('',(#255,#256,#257,#258));
#628=EDGE_LOOP('',(#259,#260,#261,#262));
#629=EDGE_LOOP('',(#263,#264,#265,#266));
#630=EDGE_LOOP('',(#267));
#631=EDGE_LOOP('',(#268));
#632=EDGE_LOOP('',(#269));
#633=EDGE_LOOP('',(#270));
#634=EDGE_LOOP('',(#271));
#635=EDGE_LOOP('',(#272));
#636=EDGE_LOOP('',(#273,#274,#275,#276));
#637=EDGE_LOOP('',(#277,#278,#279,#280,#281,#282));
#638=EDGE_LOOP('',(#283,#284,#285,#286,#287,#288));
#639=FACE_BOUND('',#584,.T.);
#640=FACE_BOUND('',#585,.T.);
#641=FACE_BOUND('',#586,.T.);
#642=FACE_BOUND('',#587,.T.);
#643=FACE_BOUND('',#588,.T.);
#644=FACE_BOUND('',#589,.T.);
#645=FACE_BOUND('',#590,.T.);
#646=FACE_BOUND('',#591,.T.);
#647=FACE_BOUND('',#592,.T.);
#648=FACE_BOUND('',#593,.T.);
#649=FACE_BOUND('',#594,.T.);
#650=FACE_BOUND('',#595,.T.);
#651=FACE_BOUND('',#596,.T.);
#652=FACE_BOUND('',#597,.T.);
#653=FACE_BOUND('',#598,.T.);
#654=FACE_BOUND('',#599,.T.);
#655=FACE_BOUND('',#600,.T.);
#656=FACE_BOUND('',#601,.T.);
#657=FACE_BOUND('',#602,.T.);
#658=FACE_BOUND('',#603,.T.);
#659=FACE_BOUND('',#604,.T.);
#660=FACE_BOUND('',#605,.T.);
#661=FACE_BOUND('',#606,.T.);
#662=FACE_BOUND('',#607,.T.);
#663=FACE_BOUND('',#608,.T.);
#664=FACE_BOUND('',#609,.T.);
#665=FACE_BOUND('',#610,.T.);
#666=FACE_BOUND('',#611,.T.);
#667=FACE_BOUND('',#612,.T.);
#668=FACE_BOUND('',#613,.T.);
#669=FACE_BOUND('',#614,.T.);
#670=FACE_BOUND('',#615,.T.);
#671=FACE_BOUND('',#616,.T.);
#672=FACE_BOUND('',#617,.T.);
#673=FACE_BOUND('',#618,.T.);
#674=FACE_BOUND('',#619,.T.);
#675=FACE_BOUND('',#620,.T.);
#676=FACE_BOUND('',#621,.T.);
#677=FACE_BOUND('',#622,.T.);
#678=FACE_BOUND('',#623,.T.);
#679=FACE_BOUND('',#624,.T.);
#680=FACE_BOUND('',#625,.T.);
#681=FACE_BOUND('',#626,.T.);
#682=FACE_BOUND('',#627,.T.);
#683=FACE_BOUND('',#628,.T.);
#684=FACE_BOUND('',#629,.T.);
#685=FACE_BOUND('',#630,.T.);
#686=FACE_BOUND('',#631,.T.);
#687=FACE_BOUND('',#632,.T.);
#688=FACE_BOUND('',#633,.T.);
#689=FACE_BOUND('',#634,.T.);
#690=FACE_BOUND('',#635,.T.);
#691=FACE_BOUND('',#636,.T.);
#692=FACE_BOUND('',#637,.T.);
#693=FACE_BOUND('',#638,.T.);
#694=PLANE('',#766);
#695=PLANE('',#767);
#696=PLANE('',#776);
#697=PLANE('',#783);
#698=PLANE('',#784);
#699=PLANE('',#788);
#700=PLANE('',#795);
#701=PLANE('',#797);
#702=PLANE('',#801);
#703=PLANE('',#808);
#704=PLANE('',#811);
#705=PLANE('',#816);
#706=PLANE('',#817);
#707=PLANE('',#820);
#708=PLANE('',#823);
#709=PLANE('',#824);
#710=PLANE('',#825);
#711=PLANE('',#826);
#712=PLANE('',#845);
#713=ADVANCED_FACE('',(#639),#694,.F.);
#714=ADVANCED_FACE('',(#640),#695,.F.);
#715=ADVANCED_FACE('',(#641,#642),#62,.T.);
#716=ADVANCED_FACE('',(#643),#63,.F.);
#717=ADVANCED_FACE('',(#644,#645,#646,#647),#696,.F.);
#718=ADVANCED_FACE('',(#648),#64,.F.);
#719=ADVANCED_FACE('',(#649),#697,.T.);
#720=ADVANCED_FACE('',(#650),#698,.T.);
#721=ADVANCED_FACE('',(#651),#65,.T.);
#722=ADVANCED_FACE('',(#652,#653,#654,#655),#699,.T.);
#723=ADVANCED_FACE('',(#656),#66,.T.);
#724=ADVANCED_FACE('',(#657,#658),#700,.T.);
#725=ADVANCED_FACE('',(#659),#701,.F.);
#726=ADVANCED_FACE('',(#660),#67,.F.);
#727=ADVANCED_FACE('',(#661),#702,.T.);
#728=ADVANCED_FACE('',(#662),#68,.T.);
#729=ADVANCED_FACE('',(#663,#664),#69,.F.);
#730=ADVANCED_FACE('',(#665,#666),#703,.T.);
#731=ADVANCED_FACE('',(#667,#668),#704,.F.);
#732=ADVANCED_FACE('',(#669),#14,.F.);
#733=ADVANCED_FACE('',(#670),#15,.F.);
#734=ADVANCED_FACE('',(#671),#705,.T.);
#735=ADVANCED_FACE('',(#672),#706,.T.);
#736=ADVANCED_FACE('',(#673),#707,.T.);
#737=ADVANCED_FACE('',(#674),#708,.T.);
#738=ADVANCED_FACE('',(#675),#709,.F.);
#739=ADVANCED_FACE('',(#676),#710,.F.);
#740=ADVANCED_FACE('',(#677),#711,.F.);
#741=ADVANCED_FACE('',(#678),#70,.T.);
#742=ADVANCED_FACE('',(#679),#71,.T.);
#743=ADVANCED_FACE('',(#680),#16,.F.);
#744=ADVANCED_FACE('',(#681),#72,.F.);
#745=ADVANCED_FACE('',(#682),#17,.F.);
#746=ADVANCED_FACE('',(#683),#73,.F.);
#747=ADVANCED_FACE('',(#684),#74,.T.);
#748=ADVANCED_FACE('',(#685,#686),#75,.F.);
#749=ADVANCED_FACE('',(#687,#688),#76,.F.);
#750=ADVANCED_FACE('',(#689,#690),#77,.F.);
#751=ADVANCED_FACE('',(#691),#78,.F.);
#752=ADVANCED_FACE('',(#692,#693),#712,.T.);
#753=CLOSED_SHELL('',(#713,#714,#715,#716,#717,#718,#719,#720,#721,#722,
#723,#724,#725,#726,#727,#728,#729,#730,#731,#732,#733,#734,#735,#736,#737,
#738,#739,#740,#741,#742,#743,#744,#745,#746,#747,#748,#749,#750,#751,#752));
#754=STYLED_ITEM('',(#755),#762);
#755=PRESENTATION_STYLE_ASSIGNMENT((#756));
#756=SURFACE_STYLE_USAGE(.BOTH.,#757);
#757=SURFACE_SIDE_STYLE('',(#758));
#758=SURFACE_STYLE_FILL_AREA(#759);
#759=FILL_AREA_STYLE('',(#760));
#760=FILL_AREA_STYLE_COLOUR('',#761);
#761=COLOUR_RGB('',0.972549019607843,0.529411764705882,0.00392156862745098);
#762=MANIFOLD_SOLID_BREP('thruster_holder_1',#753);
#763=SHAPE_DEFINITION_REPRESENTATION(#1333,#764);
#764=SHAPE_REPRESENTATION('thruster_holder_1',(#765),#1328);
#765=AXIS2_PLACEMENT_3D('',#1067,#846,#847);
#766=AXIS2_PLACEMENT_3D('',#1068,#848,#849);
#767=AXIS2_PLACEMENT_3D('',#1077,#854,#855);
#768=AXIS2_PLACEMENT_3D('',#1086,#860,#861);
#769=AXIS2_PLACEMENT_3D('',#1090,#863,#864);
#770=AXIS2_PLACEMENT_3D('',#1094,#866,#867);
#771=AXIS2_PLACEMENT_3D('',#1095,#868,#869);
#772=AXIS2_PLACEMENT_3D('',#1100,#871,#872);
#773=AXIS2_PLACEMENT_3D('',#1103,#874,#875);
#774=AXIS2_PLACEMENT_3D('',#1104,#876,#877);
#775=AXIS2_PLACEMENT_3D('',#1108,#879,#880);
#776=AXIS2_PLACEMENT_3D('',#1109,#881,#882);
#777=AXIS2_PLACEMENT_3D('',#1110,#883,#884);
#778=AXIS2_PLACEMENT_3D('',#1112,#885,#886);
#779=AXIS2_PLACEMENT_3D('',#1114,#887,#888);
#780=AXIS2_PLACEMENT_3D('',#1121,#892,#893);
#781=AXIS2_PLACEMENT_3D('',#1122,#894,#895);
#782=AXIS2_PLACEMENT_3D('',#1123,#896,#897);
#783=AXIS2_PLACEMENT_3D('',#1124,#898,#899);
#784=AXIS2_PLACEMENT_3D('',#1130,#903,#904);
#785=AXIS2_PLACEMENT_3D('',#1136,#908,#909);
#786=AXIS2_PLACEMENT_3D('',#1137,#910,#911);
#787=AXIS2_PLACEMENT_3D('',#1141,#913,#914);
#788=AXIS2_PLACEMENT_3D('',#1142,#915,#916);
#789=AXIS2_PLACEMENT_3D('',#1143,#917,#918);
#790=AXIS2_PLACEMENT_3D('',#1145,#919,#920);
#791=AXIS2_PLACEMENT_3D('',#1147,#921,#922);
#792=AXIS2_PLACEMENT_3D('',#1154,#926,#927);
#793=AXIS2_PLACEMENT_3D('',#1155,#928,#929);
#794=AXIS2_PLACEMENT_3D('',#1156,#930,#931);
#795=AXIS2_PLACEMENT_3D('',#1157,#932,#933);
#796=AXIS2_PLACEMENT_3D('',#1158,#934,#935);
#797=AXIS2_PLACEMENT_3D('',#1159,#936,#937);
#798=AXIS2_PLACEMENT_3D('',#1191,#941,#942);
#799=AXIS2_PLACEMENT_3D('',#1192,#943,#944);
#800=AXIS2_PLACEMENT_3D('',#1210,#945,#946);
#801=AXIS2_PLACEMENT_3D('',#1213,#948,#949);
#802=AXIS2_PLACEMENT_3D('',#1219,#953,#954);
#803=AXIS2_PLACEMENT_3D('',#1220,#955,#956);
#804=AXIS2_PLACEMENT_3D('',#1222,#957,#958);
#805=AXIS2_PLACEMENT_3D('',#1225,#960,#961);
#806=AXIS2_PLACEMENT_3D('',#1226,#962,#963);
#807=AXIS2_PLACEMENT_3D('',#1228,#964,#965);
#808=AXIS2_PLACEMENT_3D('',#1230,#966,#967);
#809=AXIS2_PLACEMENT_3D('',#1231,#968,#969);
#810=AXIS2_PLACEMENT_3D('',#1234,#971,#972);
#811=AXIS2_PLACEMENT_3D('',#1239,#975,#976);
#812=AXIS2_PLACEMENT_3D('',#1243,#978,#979);
#813=AXIS2_PLACEMENT_3D('',#1246,#981,#982);
#814=AXIS2_PLACEMENT_3D('',#1248,#984,#985);
#815=AXIS2_PLACEMENT_3D('',#1249,#986,#987);
#816=AXIS2_PLACEMENT_3D('',#1250,#988,#989);
#817=AXIS2_PLACEMENT_3D('',#1259,#994,#995);
#818=AXIS2_PLACEMENT_3D('',#1262,#997,#998);
#819=AXIS2_PLACEMENT_3D('',#1268,#1001,#1002);
#820=AXIS2_PLACEMENT_3D('',#1269,#1003,#1004);
#821=AXIS2_PLACEMENT_3D('',#1275,#1007,#1008);
#822=AXIS2_PLACEMENT_3D('',#1276,#1009,#1010);
#823=AXIS2_PLACEMENT_3D('',#1278,#1012,#1013);
#824=AXIS2_PLACEMENT_3D('',#1284,#1017,#1018);
#825=AXIS2_PLACEMENT_3D('',#1290,#1022,#1023);
#826=AXIS2_PLACEMENT_3D('',#1307,#1027,#1028);
#827=AXIS2_PLACEMENT_3D('',#1308,#1029,#1030);
#828=AXIS2_PLACEMENT_3D('',#1309,#1031,#1032);
#829=AXIS2_PLACEMENT_3D('',#1310,#1033,#1034);
#830=AXIS2_PLACEMENT_3D('',#1311,#1035,#1036);
#831=AXIS2_PLACEMENT_3D('',#1312,#1037,#1038);
#832=AXIS2_PLACEMENT_3D('',#1313,#1039,#1040);
#833=AXIS2_PLACEMENT_3D('',#1314,#1041,#1042);
#834=AXIS2_PLACEMENT_3D('',#1315,#1043,#1044);
#835=AXIS2_PLACEMENT_3D('',#1316,#1045,#1046);
#836=AXIS2_PLACEMENT_3D('',#1317,#1047,#1048);
#837=AXIS2_PLACEMENT_3D('',#1318,#1049,#1050);
#838=AXIS2_PLACEMENT_3D('',#1319,#1051,#1052);
#839=AXIS2_PLACEMENT_3D('',#1320,#1053,#1054);
#840=AXIS2_PLACEMENT_3D('',#1321,#1055,#1056);
#841=AXIS2_PLACEMENT_3D('',#1322,#1057,#1058);
#842=AXIS2_PLACEMENT_3D('',#1323,#1059,#1060);
#843=AXIS2_PLACEMENT_3D('',#1324,#1061,#1062);
#844=AXIS2_PLACEMENT_3D('',#1325,#1063,#1064);
#845=AXIS2_PLACEMENT_3D('',#1326,#1065,#1066);
#846=DIRECTION('',(0.,0.,1.));
#847=DIRECTION('',(1.,0.,0.));
#848=DIRECTION('',(1.,0.,0.));
#849=DIRECTION('',(0.,0.,1.));
#850=DIRECTION('',(0.,-1.,0.));
#851=DIRECTION('',(0.,0.,1.));
#852=DIRECTION('',(0.,1.,0.));
#853=DIRECTION('',(0.,0.,1.));
#854=DIRECTION('',(-1.,0.,0.));
#855=DIRECTION('',(0.,0.,-1.));
#856=DIRECTION('',(0.,0.,-1.));
#857=DIRECTION('',(0.,-1.,0.));
#858=DIRECTION('',(0.,0.,-1.));
#859=DIRECTION('',(0.,1.,0.));
#860=DIRECTION('',(0.,1.,0.));
#861=DIRECTION('',(0.,0.,1.));
#862=DIRECTION('',(0.,1.,0.));
#863=DIRECTION('',(0.,1.,0.));
#864=DIRECTION('',(0.,0.,-1.));
#865=DIRECTION('',(0.,1.,0.));
#866=DIRECTION('',(0.,1.,0.));
#867=DIRECTION('',(0.,0.,-1.));
#868=DIRECTION('',(0.,1.,0.));
#869=DIRECTION('',(0.,0.,-1.));
#870=DIRECTION('',(0.,1.,0.));
#871=DIRECTION('',(0.,1.,0.));
#872=DIRECTION('',(0.,0.,-1.));
#873=DIRECTION('',(0.,1.,0.));
#874=DIRECTION('',(0.,1.,0.));
#875=DIRECTION('',(0.,0.,1.));
#876=DIRECTION('',(0.,1.,0.));
#877=DIRECTION('',(0.,0.,-1.));
#878=DIRECTION('',(0.,1.,0.));
#879=DIRECTION('',(0.,1.,0.));
#880=DIRECTION('',(0.,0.,-1.));
#881=DIRECTION('',(0.,0.,1.));
#882=DIRECTION('',(-1.,0.,0.));
#883=DIRECTION('',(0.,0.,-1.));
#884=DIRECTION('',(-1.,0.,0.));
#885=DIRECTION('',(0.,0.,-1.));
#886=DIRECTION('',(-1.,0.,0.));
#887=DIRECTION('',(0.,0.,-1.));
#888=DIRECTION('',(-1.,0.,0.));
#889=DIRECTION('',(-1.,0.,0.));
#890=DIRECTION('',(0.,1.,0.));
#891=DIRECTION('',(-1.,0.,0.));
#892=DIRECTION('',(0.,1.,0.));
#893=DIRECTION('',(0.,0.,1.));
#894=DIRECTION('',(0.,1.,0.));
#895=DIRECTION('',(0.,0.,-1.));
#896=DIRECTION('',(0.,1.,0.));
#897=DIRECTION('',(0.,0.,-1.));
#898=DIRECTION('',(1.,0.,0.));
#899=DIRECTION('',(0.,0.,1.));
#900=DIRECTION('',(0.,1.,0.));
#901=DIRECTION('',(0.,0.,1.));
#902=DIRECTION('',(0.,0.,1.));
#903=DIRECTION('',(-1.,0.,0.));
#904=DIRECTION('',(0.,0.,-1.));
#905=DIRECTION('',(0.,0.,-1.));
#906=DIRECTION('',(0.,1.,0.));
#907=DIRECTION('',(0.,0.,-1.));
#908=DIRECTION('',(0.,1.,0.));
#909=DIRECTION('',(0.,0.,1.));
#910=DIRECTION('',(0.,1.,0.));
#911=DIRECTION('',(0.,0.,-1.));
#912=DIRECTION('',(0.,1.,0.));
#913=DIRECTION('',(0.,1.,0.));
#914=DIRECTION('',(0.,0.,-1.));
#915=DIRECTION('',(0.,0.,1.));
#916=DIRECTION('',(-1.,0.,0.));
#917=DIRECTION('',(0.,0.,-1.));
#918=DIRECTION('',(-1.,0.,0.));
#919=DIRECTION('',(0.,0.,-1.));
#920=DIRECTION('',(-1.,0.,0.));
#921=DIRECTION('',(0.,0.,-1.));
#922=DIRECTION('',(-1.,0.,0.));
#923=DIRECTION('',(-1.,0.,0.));
#924=DIRECTION('',(0.,1.,0.));
#925=DIRECTION('',(-1.,0.,0.));
#926=DIRECTION('',(0.,1.,0.));
#927=DIRECTION('',(0.,0.,1.));
#928=DIRECTION('',(0.,1.,0.));
#929=DIRECTION('',(0.,0.,-1.));
#930=DIRECTION('',(0.,1.,0.));
#931=DIRECTION('',(0.,0.,-1.));
#932=DIRECTION('',(0.,-1.,0.));
#933=DIRECTION('',(-1.,0.,0.));
#934=DIRECTION('',(0.,-1.,0.));
#935=DIRECTION('',(0.,0.,-1.));
#936=DIRECTION('',(0.441665567956284,0.,-0.897179762412112));
#937=DIRECTION('',(0.897179762412112,0.,0.441665567956284));
#938=DIRECTION('',(0.897179762412112,0.,0.441665567956284));
#939=DIRECTION('',(0.897179762412112,0.,0.441665567956284));
#940=DIRECTION('',(0.,1.,0.));
#941=DIRECTION('',(0.,1.,0.));
#942=DIRECTION('',(0.,0.,1.));
#943=DIRECTION('',(0.,1.,0.));
#944=DIRECTION('',(0.,0.,-1.));
#945=DIRECTION('',(0.,1.,0.));
#946=DIRECTION('',(0.,0.,-1.));
#947=DIRECTION('',(0.,1.,0.));
#948=DIRECTION('',(0.371769107039893,0.,-0.928325229136191));
#949=DIRECTION('',(0.928325229136191,0.,0.371769107039893));
#950=DIRECTION('',(0.928325229136191,0.,0.371769107039893));
#951=DIRECTION('',(0.928325229136191,0.,0.371769107039893));
#952=DIRECTION('',(0.,1.,0.));
#953=DIRECTION('',(0.,1.,0.));
#954=DIRECTION('',(0.,0.,1.));
#955=DIRECTION('',(0.,1.,0.));
#956=DIRECTION('',(0.,0.,-1.));
#957=DIRECTION('',(0.,1.,0.));
#958=DIRECTION('',(0.,0.,-1.));
#959=DIRECTION('',(0.,1.,0.));
#960=DIRECTION('',(0.,1.,0.));
#961=DIRECTION('',(0.,0.,1.));
#962=DIRECTION('',(0.,1.,0.));
#963=DIRECTION('',(0.,0.,-1.));
#964=DIRECTION('',(0.,1.,0.));
#965=DIRECTION('',(0.,0.,-1.));
#966=DIRECTION('',(0.,-1.,0.));
#967=DIRECTION('',(-1.,0.,0.));
#968=DIRECTION('',(0.,1.,0.));
#969=DIRECTION('',(0.,0.,-1.));
#970=DIRECTION('',(-1.,0.,1.66721562948568E-16));
#971=DIRECTION('',(0.,1.,0.));
#972=DIRECTION('',(0.,0.,-1.));
#973=DIRECTION('',(0.897179762412112,0.,0.441665567956284));
#974=DIRECTION('',(1.,0.,0.));
#975=DIRECTION('',(0.,-1.,0.));
#976=DIRECTION('',(-1.,0.,0.));
#977=DIRECTION('',(0.897179762412112,0.,0.441665567956284));
#978=DIRECTION('',(0.,1.,0.));
#979=DIRECTION('',(0.,0.,-1.));
#980=DIRECTION('',(1.,0.,-1.66721562948568E-16));
#981=DIRECTION('',(0.,1.,0.));
#982=DIRECTION('',(0.,0.,-1.));
#983=DIRECTION('',(-1.,0.,0.));
#984=DIRECTION('',(0.,-1.,0.));
#985=DIRECTION('',(0.,0.,-1.));
#986=DIRECTION('',(0.,-1.,0.));
#987=DIRECTION('',(0.,0.,-1.));
#988=DIRECTION('',(0.441665567956283,0.,-0.897179762412112));
#989=DIRECTION('',(0.897179762412112,0.,0.441665567956284));
#990=DIRECTION('',(0.,1.,0.));
#991=DIRECTION('',(0.897179762412112,0.,0.441665567956284));
#992=DIRECTION('',(0.,1.,0.));
#993=DIRECTION('',(0.897179762412112,0.,0.441665567956284));
#994=DIRECTION('',(0.,-1.,0.));
#995=DIRECTION('',(-1.,0.,0.));
#996=DIRECTION('',(1.,0.,0.));
#997=DIRECTION('',(0.,1.,0.));
#998=DIRECTION('',(0.,0.,-1.));
#999=DIRECTION('',(1.,0.,-1.66721562948568E-16));
#1000=DIRECTION('',(0.90630778703665,0.,0.422618261740699));
#1001=DIRECTION('',(0.,1.,0.));
#1002=DIRECTION('',(0.,0.,-1.));
#1003=DIRECTION('',(0.,0.,-1.));
#1004=DIRECTION('',(1.,0.,0.));
#1005=DIRECTION('',(1.,0.,0.));
#1006=DIRECTION('',(0.,1.,0.));
#1007=DIRECTION('',(0.,0.,1.));
#1008=DIRECTION('',(1.,0.,0.));
#1009=DIRECTION('',(0.,0.,1.));
#1010=DIRECTION('',(-1.,0.,0.));
#1011=DIRECTION('',(0.,1.,0.));
#1012=DIRECTION('',(0.441665567956283,0.,-0.897179762412112));
#1013=DIRECTION('',(0.897179762412112,0.,0.441665567956284));
#1014=DIRECTION('',(0.897179762412112,0.,0.441665567956284));
#1015=DIRECTION('',(0.,1.,0.));
#1016=DIRECTION('',(0.897179762412112,0.,0.441665567956284));
#1017=DIRECTION('',(0.422618261740699,0.,-0.90630778703665));
#1018=DIRECTION('',(0.90630778703665,0.,0.422618261740699));
#1019=DIRECTION('',(0.,1.,0.));
#1020=DIRECTION('',(0.90630778703665,0.,0.422618261740699));
#1021=DIRECTION('',(0.,1.,0.));
#1022=DIRECTION('',(-1.66721562948568E-16,0.,-1.));
#1023=DIRECTION('',(1.,0.,-1.66721562948568E-16));
#1024=DIRECTION('',(0.,1.,0.));
#1025=DIRECTION('',(1.,0.,-1.66721562948568E-16));
#1026=DIRECTION('',(0.,1.,0.));
#1027=DIRECTION('',(0.,-1.,0.));
#1028=DIRECTION('',(-1.,0.,0.));
#1029=DIRECTION('',(0.,1.,0.));
#1030=DIRECTION('',(0.,0.,-1.));
#1031=DIRECTION('',(0.,1.,0.));
#1032=DIRECTION('',(0.,0.,-1.));
#1033=DIRECTION('',(0.,-1.,0.));
#1034=DIRECTION('',(0.,0.,-1.));
#1035=DIRECTION('',(0.,1.,0.));
#1036=DIRECTION('',(0.,0.,-1.));
#1037=DIRECTION('',(0.,-1.,0.));
#1038=DIRECTION('',(0.,0.,-1.));
#1039=DIRECTION('',(0.,1.,0.));
#1040=DIRECTION('',(0.,0.,-1.));
#1041=DIRECTION('',(0.,-1.,0.));
#1042=DIRECTION('',(0.,0.,-1.));
#1043=DIRECTION('',(-0.89717976241211,0.,-0.441665567956287));
#1044=DIRECTION('',(-0.441665567956287,0.,0.89717976241211));
#1045=DIRECTION('',(0.897179762412112,0.,0.441665567956284));
#1046=DIRECTION('',(-0.441665567956283,0.,0.897179762412112));
#1047=DIRECTION('',(0.,-1.,0.));
#1048=DIRECTION('',(0.,0.,-1.));
#1049=DIRECTION('',(-0.89717976241211,-7.661676292644E-16,-0.441665567956287));
#1050=DIRECTION('',(-0.441665567956287,0.,0.89717976241211));
#1051=DIRECTION('',(-0.897179762412112,0.,-0.441665567956284));
#1052=DIRECTION('',(0.441665567956283,0.,-0.897179762412112));
#1053=DIRECTION('',(0.,-1.,0.));
#1054=DIRECTION('',(0.,0.,-1.));
#1055=DIRECTION('',(0.,0.,1.));
#1056=DIRECTION('',(-1.,0.,0.));
#1057=DIRECTION('',(0.,0.,1.));
#1058=DIRECTION('',(-1.,0.,0.));
#1059=DIRECTION('',(0.,0.,1.));
#1060=DIRECTION('',(-1.,0.,0.));
#1061=DIRECTION('',(0.,-1.,0.));
#1062=DIRECTION('',(0.,0.,-1.));
#1063=DIRECTION('',(0.,-1.,0.));
#1064=DIRECTION('',(0.,0.,1.));
#1065=DIRECTION('',(0.,1.,0.));
#1066=DIRECTION('',(1.,0.,0.));
#1067=CARTESIAN_POINT('',(0.,0.,0.));
#1068=CARTESIAN_POINT('',(0.1859,0.0953,0.0365826052948633));
#1069=CARTESIAN_POINT('',(0.1859,0.1463,0.0353168451040584));
#1070=CARTESIAN_POINT('',(0.1859,0.1463,0.0353168451040584));
#1071=CARTESIAN_POINT('',(0.1859,0.0953,0.0353168451040584));
#1072=CARTESIAN_POINT('',(0.1859,0.0953,0.0365826052948633));
#1073=CARTESIAN_POINT('',(0.1859,0.0953,0.0388));
#1074=CARTESIAN_POINT('',(0.1859,0.0953,0.0388));
#1075=CARTESIAN_POINT('',(0.1859,0.1463,0.0388));
#1076=CARTESIAN_POINT('',(0.1859,0.1463,0.0365826052948633));
#1077=CARTESIAN_POINT('',(0.1739,0.0953,0.0366513662434194));
#1078=CARTESIAN_POINT('',(0.1739,0.0953,0.0366513662434194));
#1079=CARTESIAN_POINT('',(0.1739,0.0953,0.0388));
#1080=CARTESIAN_POINT('',(0.1739,0.0953,0.0353168548397982));
#1081=CARTESIAN_POINT('',(0.1739,0.1463,0.0353168548397982));
#1082=CARTESIAN_POINT('',(0.1739,0.1463,0.0353168548397982));
#1083=CARTESIAN_POINT('',(0.1739,0.1463,0.0366513662434194));
#1084=CARTESIAN_POINT('',(0.1739,0.1463,0.0388));
#1085=CARTESIAN_POINT('',(0.1739,0.0953,0.0388));
#1086=CARTESIAN_POINT('',(0.179899969967768,0.0953,-0.00170003806581837));
#1087=CARTESIAN_POINT('',(0.1899,0.0953,0.0380617058340625));
#1088=CARTESIAN_POINT('',(0.1899,0.0953,0.0380617058340625));
#1089=CARTESIAN_POINT('',(0.1899,0.1463,0.0380617058340625));
#1090=CARTESIAN_POINT('',(0.179899969967768,0.0953,-0.00170003806581837));
#1091=CARTESIAN_POINT('',(0.1699,0.0953,0.0380617209401541));
#1092=CARTESIAN_POINT('',(0.1699,0.0953,0.0380617209401541));
#1093=CARTESIAN_POINT('',(0.1699,0.1463,0.0380617209401541));
#1094=CARTESIAN_POINT('',(0.179899969967768,0.1463,-0.00170003806581837));
#1095=CARTESIAN_POINT('',(0.179899969967768,0.1428,-0.00170003806581837));
#1096=CARTESIAN_POINT('',(0.155877043965277,0.1428,0.0315248909015117));
#1097=CARTESIAN_POINT('',(0.139201373257199,0.1428,-0.00666200384520641));
#1098=CARTESIAN_POINT('',(0.155877043965277,0.103,0.0315248909015117));
#1099=CARTESIAN_POINT('',(0.155877043965277,0.098,0.0315248909015117));
#1100=CARTESIAN_POINT('',(0.179899969967768,0.098,-0.00170003806581837));
#1101=CARTESIAN_POINT('',(0.139201373257199,0.098,-0.00666200384520641));
#1102=CARTESIAN_POINT('',(0.139201373257199,0.103,-0.00666200384520641));
#1103=CARTESIAN_POINT('',(0.1834,0.0953,0.0388));
#1104=CARTESIAN_POINT('',(0.1834,0.0953,0.0388));
#1105=CARTESIAN_POINT('',(0.1834,0.0953,0.0413));
#1106=CARTESIAN_POINT('',(0.1834,0.0953,0.0413));
#1107=CARTESIAN_POINT('',(0.1834,0.1463,0.0413));
#1108=CARTESIAN_POINT('',(0.1834,0.1463,0.0388));
#1109=CARTESIAN_POINT('',(0.1799,0.0953,0.0413));
#1110=CARTESIAN_POINT('',(0.1799,0.101,0.0413));
#1111=CARTESIAN_POINT('',(0.1784,0.101,0.0413));
#1112=CARTESIAN_POINT('',(0.1799,0.121,0.0413));
#1113=CARTESIAN_POINT('',(0.1784,0.121,0.0413));
#1114=CARTESIAN_POINT('',(0.1799,0.141,0.0413));
#1115=CARTESIAN_POINT('',(0.1784,0.141,0.0413));
#1116=CARTESIAN_POINT('',(0.1799,0.0953,0.0413));
#1117=CARTESIAN_POINT('',(0.1764,0.0953,0.0413));
#1118=CARTESIAN_POINT('',(0.1764,0.0953,0.0413));
#1119=CARTESIAN_POINT('',(0.1764,0.1463,0.0413));
#1120=CARTESIAN_POINT('',(0.1799,0.1463,0.0413));
#1121=CARTESIAN_POINT('',(0.1764,0.0953,0.0388));
#1122=CARTESIAN_POINT('',(0.1764,0.0953,0.0388));
#1123=CARTESIAN_POINT('',(0.1764,0.1463,0.0388));
#1124=CARTESIAN_POINT('',(0.1899,0.0953,0.0384308529170313));
#1125=CARTESIAN_POINT('',(0.1899,0.0953,0.0388));
#1126=CARTESIAN_POINT('',(0.1899,0.0953,0.0388));
#1127=CARTESIAN_POINT('',(0.1899,0.1463,0.0388));
#1128=CARTESIAN_POINT('',(0.1899,0.0953,0.0384308529170313));
#1129=CARTESIAN_POINT('',(0.1899,0.1463,0.0384308529170313));
#1130=CARTESIAN_POINT('',(0.1699,0.0953,0.0384308604700771));
#1131=CARTESIAN_POINT('',(0.1699,0.0953,0.0384308604700771));
#1132=CARTESIAN_POINT('',(0.1699,0.0953,0.0388));
#1133=CARTESIAN_POINT('',(0.1699,0.0953,0.0388));
#1134=CARTESIAN_POINT('',(0.1699,0.1463,0.0388));
#1135=CARTESIAN_POINT('',(0.1699,0.1463,0.0384308604700771));
#1136=CARTESIAN_POINT('',(0.1764,0.0953,0.0388));
#1137=CARTESIAN_POINT('',(0.1764,0.0953,0.0388));
#1138=CARTESIAN_POINT('',(0.1764,0.0953,0.0453));
#1139=CARTESIAN_POINT('',(0.1764,0.0953,0.0453));
#1140=CARTESIAN_POINT('',(0.1764,0.1463,0.0453));
#1141=CARTESIAN_POINT('',(0.1764,0.1463,0.0388));
#1142=CARTESIAN_POINT('',(0.1799,0.0953,0.0453));
#1143=CARTESIAN_POINT('',(0.1799,0.101,0.0453));
#1144=CARTESIAN_POINT('',(0.1784,0.101,0.0453));
#1145=CARTESIAN_POINT('',(0.1799,0.121,0.0453));
#1146=CARTESIAN_POINT('',(0.1784,0.121,0.0453));
#1147=CARTESIAN_POINT('',(0.1799,0.141,0.0453));
#1148=CARTESIAN_POINT('',(0.1784,0.141,0.0453));
#1149=CARTESIAN_POINT('',(0.1799,0.0953,0.0453));
#1150=CARTESIAN_POINT('',(0.1834,0.0953,0.0453));
#1151=CARTESIAN_POINT('',(0.1834,0.0953,0.0453));
#1152=CARTESIAN_POINT('',(0.1834,0.1463,0.0453));
#1153=CARTESIAN_POINT('',(0.1799,0.1463,0.0453));
#1154=CARTESIAN_POINT('',(0.1834,0.0953,0.0388));
#1155=CARTESIAN_POINT('',(0.1834,0.0953,0.0388));
#1156=CARTESIAN_POINT('',(0.1834,0.1463,0.0388));
#1157=CARTESIAN_POINT('',(0.140280234161602,0.0953,-0.0038011412665351));
#1158=CARTESIAN_POINT('',(0.179899969967768,0.0953,-0.00170003806581836));
#1159=CARTESIAN_POINT('',(0.115651202863323,0.103,0.0117224280048369));
#1160=CARTESIAN_POINT('',(0.115651202863323,0.103,0.0117224280048369));
#1161=CARTESIAN_POINT('',(0.120853659718025,0.103,0.0142835045669323));
#1162=CARTESIAN_POINT('',(0.142344807888655,0.103,0.0248632128489094));
#1163=CARTESIAN_POINT('',(0.155877043965277,0.098,0.0315248909015118));
#1164=CARTESIAN_POINT('',(0.155877043965277,0.0983527897158416,0.0315248909015118));
#1165=CARTESIAN_POINT('',(0.155481867598033,0.0989526880241475,0.0313303526361678));
#1166=CARTESIAN_POINT('',(0.154722508149752,0.0995380739966044,0.0309565335465501));
#1167=CARTESIAN_POINT('',(0.153907786147981,0.100030274178553,0.0305554604609614));
#1168=CARTESIAN_POINT('',(0.15279034990141,0.100596090440967,0.0300053665609718));
#1169=CARTESIAN_POINT('',(0.151345284213598,0.101203284247803,0.0292939865405115));
#1170=CARTESIAN_POINT('',(0.149585628085798,0.10180995623179,0.0284277392669404));
#1171=CARTESIAN_POINT('',(0.147808706432614,0.102305093089109,0.0275529924836898));
#1172=CARTESIAN_POINT('',(0.145413177982823,0.102810920310458,0.0263737166265441));
#1173=CARTESIAN_POINT('',(0.143584818542993,0.103,0.0254736479399193));
#1174=CARTESIAN_POINT('',(0.142344807888655,0.103,0.0248632128489094));
#1175=CARTESIAN_POINT('',(0.142344807888655,0.1378,0.0248632128489094));
#1176=CARTESIAN_POINT('',(0.143582354936318,0.1378,0.0254724351503683));
#1177=CARTESIAN_POINT('',(0.145410646166449,0.137988521081452,0.026372470258577));
#1178=CARTESIAN_POINT('',(0.147810565498063,0.138495283100743,0.0275539076683962));
#1179=CARTESIAN_POINT('',(0.14959284798828,0.138992101832413,0.0284312934959411));
#1180=CARTESIAN_POINT('',(0.151359529284006,0.139602127384466,0.0293009991341697));
#1181=CARTESIAN_POINT('',(0.152801280566765,0.14020880394525,0.0300107475322381));
#1182=CARTESIAN_POINT('',(0.153922522438185,0.140777633189924,0.0305627148733493));
#1183=CARTESIAN_POINT('',(0.154737239062086,0.141272066509576,0.0309637853115089));
#1184=CARTESIAN_POINT('',(0.155489384296773,0.141855095605431,0.0313340529726632));
#1185=CARTESIAN_POINT('',(0.155877043965277,0.142452207707233,0.0315248909015118));
#1186=CARTESIAN_POINT('',(0.155877043965277,0.1428,0.0315248909015118));
#1187=CARTESIAN_POINT('',(0.142344807888655,0.1378,0.0248632128489094));
#1188=CARTESIAN_POINT('',(0.115651202863323,0.1378,0.0117224280048369));
#1189=CARTESIAN_POINT('',(0.120853659718025,0.1378,0.0142835045669323));
#1190=CARTESIAN_POINT('',(0.120853659718025,0.095298,0.0142835045669323));
#1191=CARTESIAN_POINT('',(0.134238125147861,0.103,-0.00726712218499322));
#1192=CARTESIAN_POINT('',(0.134238125147861,0.1378,-0.00726712218499322));
#1193=CARTESIAN_POINT('',(0.132379279612661,0.1378,-0.00262549603931225));
#1194=CARTESIAN_POINT('',(0.133903643103567,0.1378,-0.00227832255361442));
#1195=CARTESIAN_POINT('',(0.133903643103567,0.1378,-0.00227832255361442));
#1196=CARTESIAN_POINT('',(0.134690596170631,0.1378,-0.00222556002753914));
#1197=CARTESIAN_POINT('',(0.136233486328312,0.138192107466748,-0.00251415316857084));
#1198=CARTESIAN_POINT('',(0.137866026158373,0.13951678586276,-0.00367047791719192));
#1199=CARTESIAN_POINT('',(0.13883650018629,0.141096468530761,-0.00508614734862844));
#1200=CARTESIAN_POINT('',(0.139136963101097,0.142236270195463,-0.00613370456145325));
#1201=CARTESIAN_POINT('',(0.139201373257199,0.1428,-0.00666200384520643));
#1202=CARTESIAN_POINT('',(0.133903643103567,0.103,-0.00227832255361442));
#1203=CARTESIAN_POINT('',(0.134690596170631,0.103,-0.00222556002753914));
#1204=CARTESIAN_POINT('',(0.136233486328312,0.102607892533252,-0.00251415316857081));
#1205=CARTESIAN_POINT('',(0.137866026158373,0.10128321413724,-0.00367047791719206));
#1206=CARTESIAN_POINT('',(0.138836500186289,0.099703531469239,-0.00508614734862801));
#1207=CARTESIAN_POINT('',(0.139136963101097,0.0985637298045377,-0.00613370456145418));
#1208=CARTESIAN_POINT('',(0.139201373257199,0.098,-0.00666200384520643));
#1209=CARTESIAN_POINT('',(0.133903643103567,0.103,-0.00227832255361442));
#1210=CARTESIAN_POINT('',(0.134238125147861,0.103,-0.00726712218499322));
#1211=CARTESIAN_POINT('',(0.132379279612661,0.103,-0.00262549603931225));
#1212=CARTESIAN_POINT('',(0.132379279612661,0.103,-0.00262549603931225));
#1213=CARTESIAN_POINT('',(0.123254723246602,0.103,-0.00627963369051194));
#1214=CARTESIAN_POINT('',(0.123254723246602,0.1378,-0.00627963369051194));
#1215=CARTESIAN_POINT('',(0.114130166880542,0.1378,-0.00993377134171164));
#1216=CARTESIAN_POINT('',(0.123254723246602,0.103,-0.00627963369051194));
#1217=CARTESIAN_POINT('',(0.114130166880542,0.103,-0.00993377134171164));
#1218=CARTESIAN_POINT('',(0.114130166880542,0.103,-0.00993377134171164));
#1219=CARTESIAN_POINT('',(0.110448746008621,0.103,-0.000741087469498952));
#1220=CARTESIAN_POINT('',(0.110448746008621,0.1378,-0.000741087469498952));
#1221=CARTESIAN_POINT('',(0.110448746008621,0.1378,0.00916135144274143));
#1222=CARTESIAN_POINT('',(0.110448746008621,0.103,-0.000741087469498952));
#1223=CARTESIAN_POINT('',(0.110448746008621,0.103,0.00916135144274143));
#1224=CARTESIAN_POINT('',(0.110448746008621,0.103,0.00916135144274143));
#1225=CARTESIAN_POINT('',(0.110448746008621,0.103,-0.000741087469498952));
#1226=CARTESIAN_POINT('',(0.110448746008621,0.103,-0.000741087469498952));
#1227=CARTESIAN_POINT('',(0.110448746008621,0.103,-0.00474108746949895));
#1228=CARTESIAN_POINT('',(0.110448746008621,0.1378,-0.000741087469498952));
#1229=CARTESIAN_POINT('',(0.110448746008621,0.1378,-0.00474108746949895));
#1230=CARTESIAN_POINT('',(0.159309293905752,0.103,-0.00231914708297441));
#1231=CARTESIAN_POINT('',(0.179899969967768,0.103,-0.00170003806581837));
#1232=CARTESIAN_POINT('',(0.159309293905752,0.103,0.0142835045669323));
#1233=CARTESIAN_POINT('',(0.118290198491023,0.103,0.0142835045669323));
#1234=CARTESIAN_POINT('',(0.116558147683454,0.103,0.0132835045669323));
#1235=CARTESIAN_POINT('',(0.117441478819366,0.103,0.0114891450421081));
#1236=CARTESIAN_POINT('',(0.117441478819366,0.103,0.0114891450421081));
#1237=CARTESIAN_POINT('',(0.112712902584438,0.103,0.00916135144274144));
#1238=CARTESIAN_POINT('',(0.102948746008621,0.103,0.00916135144274144));
#1239=CARTESIAN_POINT('',(0.159309293905752,0.1378,-0.00231914708297441));
#1240=CARTESIAN_POINT('',(0.145670620279049,0.1378,0.0253858470388056));
#1241=CARTESIAN_POINT('',(0.117441478819366,0.1378,0.0114891450421081));
#1242=CARTESIAN_POINT('',(0.112712902584438,0.1378,0.00916135144274144));
#1243=CARTESIAN_POINT('',(0.116558147683454,0.1378,0.0132835045669323));
#1244=CARTESIAN_POINT('',(0.118290198491023,0.1378,0.0142835045669323));
#1245=CARTESIAN_POINT('',(0.115651202863323,0.1378,0.0142835045669323));
#1246=CARTESIAN_POINT('',(0.179899969967768,0.1378,-0.00170003806581837));
#1247=CARTESIAN_POINT('',(0.159309293905752,0.1378,0.00916135144274144));
#1248=CARTESIAN_POINT('',(0.179899969967768,0.1428,-0.00170003806581837));
#1249=CARTESIAN_POINT('',(0.179899969967768,0.098,-0.00170003806581837));
#1250=CARTESIAN_POINT('',(0.115651202863323,0.095298,0.0117224280048369));
#1251=CARTESIAN_POINT('',(0.11699981325141,0.103,0.0123863248045202));
#1252=CARTESIAN_POINT('',(0.11699981325141,0.0953,0.0123863248045202));
#1253=CARTESIAN_POINT('',(0.11699981325141,0.102,0.0123863248045202));
#1254=CARTESIAN_POINT('',(0.115651202863323,0.0953,0.0117224280048369));
#1255=CARTESIAN_POINT('',(0.110448746008621,0.0953,0.00916135144274143));
#1256=CARTESIAN_POINT('',(0.110448746008621,0.095298,0.00916135144274143));
#1257=CARTESIAN_POINT('',(0.110448746008621,0.102,0.00916135144274143));
#1258=CARTESIAN_POINT('',(0.110448746008621,0.102,0.00916135144274142));
#1259=CARTESIAN_POINT('',(0.140280234161602,0.0953,-0.0038011412665351));
#1260=CARTESIAN_POINT('',(0.102948746008621,0.0953,0.00916135144274144));
#1261=CARTESIAN_POINT('',(0.101719607437715,0.0953,0.00916135144274144));
#1262=CARTESIAN_POINT('',(0.116558147683454,0.0953,0.0132835045669323));
#1263=CARTESIAN_POINT('',(0.116558147683454,0.0953,0.0142835045669323));
#1264=CARTESIAN_POINT('',(0.115651202863323,0.0953,0.0142835045669323));
#1265=CARTESIAN_POINT('',(0.110448746008621,0.0953,0.0142835045669323));
#1266=CARTESIAN_POINT('',(0.104956499597253,0.0953,0.0117224280048369));
#1267=CARTESIAN_POINT('',(0.101508298306845,0.0953,0.0101145053362598));
#1268=CARTESIAN_POINT('',(0.101719607437715,0.0953,0.00966135144274144));
#1269=CARTESIAN_POINT('',(0.102948746008621,0.095298,0.00916135144274144));
#1270=CARTESIAN_POINT('',(0.102948746008621,0.1453,0.00916135144274144));
#1271=CARTESIAN_POINT('',(0.101719607437715,0.1453,0.00916135144274144));
#1272=CARTESIAN_POINT('',(0.110448746008621,0.1453,0.00916135144274143));
#1273=CARTESIAN_POINT('',(0.110448746008621,0.095298,0.00916135144274143));
#1274=CARTESIAN_POINT('',(0.110448746008621,0.1388,0.00916135144274143));
#1275=CARTESIAN_POINT('',(0.112712902584438,0.1388,0.00916135144274144));
#1276=CARTESIAN_POINT('',(0.112712902584438,0.102,0.00916135144274144));
#1277=CARTESIAN_POINT('',(0.101719607437715,0.0953,0.00916135144274144));
#1278=CARTESIAN_POINT('',(0.115651202863323,0.095298,0.0117224280048369));
#1279=CARTESIAN_POINT('',(0.115651202863323,0.1453,0.0117224280048369));
#1280=CARTESIAN_POINT('',(0.11699981325141,0.1453,0.0123863248045202));
#1281=CARTESIAN_POINT('',(0.11699981325141,0.1453,0.0123863248045202));
#1282=CARTESIAN_POINT('',(0.11699981325141,0.1388,0.0123863248045202));
#1283=CARTESIAN_POINT('',(0.115651202863323,0.1388,0.0117224280048369));
#1284=CARTESIAN_POINT('',(0.104956499597253,0.095298,0.0117224280048369));
#1285=CARTESIAN_POINT('',(0.110448746008621,0.095298,0.0142835045669323));
#1286=CARTESIAN_POINT('',(0.110448746008621,0.1453,0.0142835045669323));
#1287=CARTESIAN_POINT('',(0.104956499597253,0.1453,0.0117224280048369));
#1288=CARTESIAN_POINT('',(0.101508298306845,0.1453,0.0101145053362598));
#1289=CARTESIAN_POINT('',(0.101508298306845,0.1453,0.0101145053362598));
#1290=CARTESIAN_POINT('',(0.115651202863323,0.095298,0.0142835045669323));
#1291=CARTESIAN_POINT('',(0.118290198491023,0.1378,0.0142835045669323));
#1292=CARTESIAN_POINT('',(0.117943544385072,0.1378,0.0142835045669323));
#1293=CARTESIAN_POINT('',(0.117290311041276,0.138067154570766,0.0142835045669323));
#1294=CARTESIAN_POINT('',(0.116799446617648,0.138558702272293,0.0142835045669323));
#1295=CARTESIAN_POINT('',(0.116558147683454,0.1388,0.0142835045669323));
#1296=CARTESIAN_POINT('',(0.116558147683454,0.1388,0.0142835045669323));
#1297=CARTESIAN_POINT('',(0.116558147683454,0.1378,0.0142835045669323));
#1298=CARTESIAN_POINT('',(0.116558147683454,0.1453,0.0142835045669323));
#1299=CARTESIAN_POINT('',(0.115651202863323,0.1453,0.0142835045669323));
#1300=CARTESIAN_POINT('',(0.116558147683454,0.0953,0.0142835045669323));
#1301=CARTESIAN_POINT('',(0.116558147683454,0.102,0.0142835045669323));
#1302=CARTESIAN_POINT('',(0.118290198491023,0.103,0.0142835045669323));
#1303=CARTESIAN_POINT('',(0.117943544385072,0.103,0.0142835045669323));
#1304=CARTESIAN_POINT('',(0.117290311041273,0.102732845429237,0.0142835045669323));
#1305=CARTESIAN_POINT('',(0.116799446617654,0.102241297727702,0.0142835045669323));
#1306=CARTESIAN_POINT('',(0.116558147683454,0.102,0.0142835045669323));
#1307=CARTESIAN_POINT('',(0.140280234161602,0.1453,-0.0038011412665351));
#1308=CARTESIAN_POINT('',(0.116558147683454,0.1453,0.0132835045669323));
#1309=CARTESIAN_POINT('',(0.101719607437715,0.1453,0.00966135144274144));
#1310=CARTESIAN_POINT('',(0.116558147683454,0.095298,0.0132835045669323));
#1311=CARTESIAN_POINT('',(0.116558147683454,0.102,0.0132835045669323));
#1312=CARTESIAN_POINT('',(0.116558147683454,0.095298,0.0132835045669323));
#1313=CARTESIAN_POINT('',(0.116558147683454,0.1388,0.0132835045669323));
#1314=CARTESIAN_POINT('',(0.116558147683454,0.1388,0.0132835045669323));
#1315=CARTESIAN_POINT('',(0.117441478819366,0.1388,0.0114891450421081));
#1316=CARTESIAN_POINT('',(0.11609286843128,0.1388,0.0108252482424247));
#1317=CARTESIAN_POINT('',(0.116558147683454,0.102,0.0132835045669323));
#1318=CARTESIAN_POINT('',(0.117441478819366,0.102,0.0114891450421081));
#1319=CARTESIAN_POINT('',(0.145670620279049,0.102,0.0253858470388056));
#1320=CARTESIAN_POINT('',(0.101719607437715,0.095298,0.00966135144274144));
#1321=CARTESIAN_POINT('',(0.1799,0.141,0.0402));
#1322=CARTESIAN_POINT('',(0.1799,0.121,0.0402));
#1323=CARTESIAN_POINT('',(0.1799,0.101,0.0402));
#1324=CARTESIAN_POINT('',(0.179899969967768,0.1463,-0.00170003806581836));
#1325=CARTESIAN_POINT('',(0.179899969967768,0.1463,-0.00170003806581836));
#1326=CARTESIAN_POINT('',(0.179899969967768,0.1463,0.00129999999999433));
#1327=MECHANICAL_DESIGN_GEOMETRIC_PRESENTATION_REPRESENTATION('',(#754),
#1328);
#1328=(
GEOMETRIC_REPRESENTATION_CONTEXT(3)
GLOBAL_UNCERTAINTY_ASSIGNED_CONTEXT((#1329))
GLOBAL_UNIT_ASSIGNED_CONTEXT((#1332,#1331,#1330))
REPRESENTATION_CONTEXT('thruster_holder_1','TOP_LEVEL_ASSEMBLY_PART')
);
#1329=UNCERTAINTY_MEASURE_WITH_UNIT(LENGTH_MEASURE(2.E-5),#1332,
'DISTANCE_ACCURACY_VALUE','Maximum Tolerance applied to model');
#1330=(
NAMED_UNIT(*)
SI_UNIT($,.STERADIAN.)
SOLID_ANGLE_UNIT()
);
#1331=(
NAMED_UNIT(*)
PLANE_ANGLE_UNIT()
SI_UNIT($,.RADIAN.)
);
#1332=(
LENGTH_UNIT()
NAMED_UNIT(*)
SI_UNIT($,.METRE.)
);
#1333=PRODUCT_DEFINITION_SHAPE('','',#1334);
#1334=PRODUCT_DEFINITION('','',#1336,#1335);
#1335=PRODUCT_DEFINITION_CONTEXT('',#1342,'design');
#1336=PRODUCT_DEFINITION_FORMATION_WITH_SPECIFIED_SOURCE('','',#1338,
 .NOT_KNOWN.);
#1337=PRODUCT_RELATED_PRODUCT_CATEGORY('','',(#1338));
#1338=PRODUCT('thruster_holder_1','thruster_holder_1',
'thruster_holder_1',(#1340));
#1339=PRODUCT_CATEGORY('','');
#1340=PRODUCT_CONTEXT('',#1342,'mechanical');
#1341=APPLICATION_PROTOCOL_DEFINITION('international standard',
'ap242_managed_model_based_3d_engineering',2020,#1342);
#1342=APPLICATION_CONTEXT('managed model based 3d engineering');
ENDSEC;
END-ISO-10303-21;
