M48
METRIC,LZ,000.000
;FILE_FORMAT=3:3
;TYPE=PLATED
;Layer: PTH_Through
;EasyEDA v6.5.46, 2025-08-23 08:41:19
;465f264bfcc448e69b16b2463cd41b42,68b764019e654ae09733ce1ad5a59164,10
;Gerber Generator version 0.2
;Holesize 1 = 0.310 mm
T01C0.310
;Holesize 2 = 0.501 mm
T02C0.501
;Holesize 3 = 0.701 mm
T03C0.701
;Holesize 4 = 0.800 mm
T04C0.800
;Holesize 5 = 0.889 mm
T05C0.889
;Holesize 6 = 1.301 mm
T06C1.301
%
G05
G90
T01
X006477Y-042037
X004826Y-012319
X011049Y006412
X015875Y-010033
X016637Y-010922
X017272Y-012065
X017653Y-012954
X052197Y-007747
X052959Y-008382
X053086Y-011049
X051943Y-012446
X017526Y-018796
X018415Y-018796
X018542Y-018034
X019177Y-017272
X051689Y-037592
X053040Y-036322
X053021Y-033655
X052197Y-033020
X047371Y-009779
X047371Y-022225
X047625Y-034925
X047625Y-047498
X052410Y-035646
X052373Y-010373
X009525Y-025400
X017272Y-028448
X021844Y-015494
X023876Y-026289
T02
X001323Y-002965G85X002123Y-002965
X001323Y004235G85X002123Y004235
T03
X002540Y-039629G85X002540Y-039429
X002540Y-041629G85X002540Y-041429
X002540Y-043629G85X002540Y-043429
X002140Y-045629G85X002940Y-045629
X002140Y-037429G85X002940Y-037429
X004373Y003060
X004373Y-001790
T04
X056404Y-020066
X058404Y-020066
X056531Y-026162
X058531Y-026162
T05
X002032Y-034417
X002032Y-031877
X002032Y-029337
X002032Y-026797
X002032Y-024257
X002032Y-021717
X002032Y-019177
X002032Y-016637
X020955Y-049784
X020955Y-047244
X020955Y-044704
X023749Y-049784
X023749Y-047244
X023749Y-044704
X028321Y-050038
X028321Y-047498
X028321Y-044958
X027940Y-037465
X027940Y-034925
X027940Y-032385
X028194Y-024765
X028194Y-022225
X028194Y-019685
X028194Y-012192
X028194Y-009652
X028194Y-007112
X002032Y-013589
X002032Y-011049
X002032Y-008509
X002032Y-005969
X022860Y-003429
X020320Y-003429
X017780Y-003429
X015240Y-003429
T06
X073152Y-050764
X073152Y-045756
X073279Y-038191
X073279Y-033183
X073279Y-025364
X073279Y-020356
X073152Y-012664
X073152Y-007656
X060162Y004445
X055154Y004445
M30
