M48
METRIC,LZ,000.000
;FILE_FORMAT=3:3
;TYPE=PLATED
;Layer: PTH_Through_Via
;EasyEDA v6.5.46, 2025-08-23 08:41:19
;465f264bfcc448e69b16b2463cd41b42,68b764019e654ae09733ce1ad5a59164,10
;Gerber Generator version 0.2
;Holesize 1 = 0.310 mm
T01C0.310
%
G05
G90
T01
X006477Y-042037
X004826Y-012319
X011049Y006412
X015875Y-010033
X016637Y-010922
X017272Y-012065
X017653Y-012954
X052197Y-007747
X052959Y-008382
X053086Y-011049
X051943Y-012446
X017526Y-018796
X018415Y-018796
X018542Y-018034
X019177Y-017272
X051689Y-037592
X053040Y-036322
X053021Y-033655
X052197Y-033020
X047371Y-009779
X047371Y-022225
X047625Y-034925
X047625Y-047498
X052410Y-035646
X052373Y-010373
X009525Y-025400
X017272Y-028448
X021844Y-015494
X023876Y-026289
M30
