G04 Layer: BottomSolderMaskLayer*
G04 Panelize: V-CUT, Column: 1, Row: 1, Board Size: 78mm x 70mm, Panelized Board Size: 78mm x 70mm*
G04 EasyEDA v6.5.46, 2025-08-23 08:41:19*
G04 465f264bfcc448e69b16b2463cd41b42,68b764019e654ae09733ce1ad5a59164,10*
G04 Gerber Generator version 0.2*
G04 Scale: 100 percent, Rotated: No, Reflected: No *
G04 Dimensions in millimeters *
G04 leading zeros omitted , absolute positions ,4 integer and 5 decimal *
%FSLAX45Y45*%
%MOMM*%

%AMMACRO1*4,1,8,-0.8085,-0.8382,-0.8382,-0.8084,-0.8382,0.8085,-0.8085,0.8382,0.8084,0.8382,0.8382,0.8085,0.8382,-0.8084,0.8084,-0.8382,-0.8085,-0.8382,0*%
%ADD10C,1.5032*%
%ADD11MACRO1*%
%ADD12C,1.6764*%
%ADD13C,2.1016*%
%ADD14O,1.1015979999999999X1.3014960000000002*%
%ADD15O,1.9015963999999999X1.1015979999999999*%
%ADD16O,2.0015962000000003X1.2015978000000003*%
%ADD17C,1.3000*%
%ADD18C,3.0000*%

%LPD*%
D10*
G01*
X5640400Y-2006600D03*
G01*
X5840399Y-2006600D03*
G01*
X5653100Y-2616200D03*
G01*
X5853099Y-2616200D03*
D11*
G01*
X203200Y-3441700D03*
D12*
G01*
X203200Y-3187700D03*
G01*
X203200Y-2933700D03*
G01*
X203200Y-2679700D03*
G01*
X203200Y-2425700D03*
G01*
X203200Y-2171700D03*
G01*
X203200Y-1917700D03*
G01*
X203200Y-1663700D03*
D13*
G01*
X7315200Y-5076444D03*
G01*
X7315200Y-4575555D03*
G01*
X7327900Y-3819144D03*
G01*
X7327900Y-3318255D03*
G01*
X7327900Y-2536444D03*
G01*
X7327900Y-2035555D03*
G01*
X7315200Y-1266444D03*
G01*
X7315200Y-765555D03*
D12*
G01*
X2095500Y-4978400D03*
G01*
X2095500Y-4724400D03*
D11*
G01*
X2095500Y-4470400D03*
D12*
G01*
X2374900Y-4978400D03*
G01*
X2374900Y-4724400D03*
D11*
G01*
X2374900Y-4470400D03*
D12*
G01*
X2832100Y-5003800D03*
G01*
X2832100Y-4749800D03*
D11*
G01*
X2832100Y-4495800D03*
D12*
G01*
X2794000Y-3746500D03*
G01*
X2794000Y-3492500D03*
D11*
G01*
X2794000Y-3238500D03*
D12*
G01*
X2819400Y-2476500D03*
G01*
X2819400Y-2222500D03*
D11*
G01*
X2819400Y-1968500D03*
D12*
G01*
X2819400Y-1219200D03*
G01*
X2819400Y-965200D03*
D11*
G01*
X2819400Y-711200D03*
D14*
G01*
X254000Y-3953027D03*
G01*
X254000Y-4152925D03*
G01*
X254000Y-4352772D03*
D15*
G01*
X254000Y-4562830D03*
G01*
X254000Y-3742944D03*
D16*
G01*
X172313Y-296494D03*
G01*
X172313Y423494D03*
D17*
G01*
X437311Y305993D03*
G01*
X437311Y-178993D03*
D11*
G01*
X203200Y-1358900D03*
D12*
G01*
X203200Y-1104900D03*
G01*
X203200Y-850900D03*
G01*
X203200Y-596900D03*
D11*
G01*
X2286000Y-342900D03*
D12*
G01*
X2032000Y-342900D03*
G01*
X1778000Y-342900D03*
G01*
X1524000Y-342900D03*
D13*
G01*
X6016243Y444500D03*
G01*
X5515356Y444500D03*
D18*
G01*
X-299999Y2D03*
G01*
X7899982Y-499996D03*
G01*
X-299999Y-4999989D03*
G01*
X7899982Y-4499990D03*
M02*
