G04 Layer: TopSilkscreenLayer*
G04 Panelize: V-CUT, Column: 1, Row: 1, Board Size: 78mm x 70mm, Panelized Board Size: 78mm x 70mm*
G04 EasyEDA v6.5.46, 2025-08-23 08:41:19*
G04 465f264bfcc448e69b16b2463cd41b42,68b764019e654ae09733ce1ad5a59164,10*
G04 Gerber Generator version 0.2*
G04 Scale: 100 percent, Rotated: No, Reflected: No *
G04 Dimensions in millimeters *
G04 leading zeros omitted , absolute positions ,4 integer and 5 decimal *
%FSLAX45Y45*%
%MOMM*%

%ADD10C,0.2032*%
%ADD11C,0.1524*%
%ADD12C,0.2540*%
%ADD13C,0.2030*%
%ADD14C,0.1500*%
%ADD15C,0.2000*%
%ADD16C,0.6000*%
%ADD17C,0.3000*%
%ADD18C,0.4000*%
%ADD19C,0.0139*%

%LPD*%
G36*
X6491884Y-4990947D02*
G01*
X6487464Y-4991252D01*
X6485839Y-4991709D01*
X6479438Y-4992217D01*
X6477965Y-4992674D01*
X6473850Y-4993132D01*
X6472377Y-4993741D01*
X6469227Y-4994148D01*
X6468110Y-4994706D01*
X6464808Y-4995113D01*
X6463893Y-4995722D01*
X6461556Y-4996129D01*
X6459778Y-4996891D01*
X6458712Y-4996891D01*
X6456629Y-4997907D01*
X6455816Y-4997907D01*
X6453530Y-4998923D01*
X6452819Y-4998923D01*
X6449720Y-5000142D01*
X6448450Y-5000853D01*
X6446926Y-5001107D01*
X6446418Y-5001666D01*
X6444589Y-5002174D01*
X6444081Y-5002682D01*
X6442354Y-5003139D01*
X6441389Y-5003850D01*
X6440170Y-5004104D01*
X6439916Y-5004511D01*
X6433413Y-5007711D01*
X6428892Y-5010200D01*
X6422847Y-5014010D01*
X6421932Y-5014874D01*
X6421678Y-5014874D01*
X6412839Y-5021478D01*
X6408153Y-5025491D01*
X6443116Y-5025491D01*
X6443116Y-5025694D01*
X6442862Y-5025694D01*
X6442862Y-5025491D01*
X6408153Y-5025491D01*
X6406919Y-5026609D01*
X6440881Y-5026609D01*
X6441744Y-5026304D01*
X6442252Y-5026660D01*
X6441846Y-5026914D01*
X6440881Y-5026609D01*
X6406919Y-5026609D01*
X6399123Y-5034330D01*
X6395466Y-5038394D01*
X6391249Y-5043576D01*
X6390538Y-5044795D01*
X6389522Y-5045964D01*
X6388506Y-5047589D01*
X6387033Y-5049367D01*
X6386372Y-5050790D01*
X6385763Y-5051094D01*
X6385763Y-5051602D01*
X6383883Y-5054295D01*
X6380988Y-5059629D01*
X6380581Y-5059883D01*
X6380276Y-5061051D01*
X6379514Y-5061966D01*
X6379057Y-5063439D01*
X6378498Y-5063896D01*
X6377940Y-5065674D01*
X6377584Y-5065674D01*
X6376924Y-5067858D01*
X6376365Y-5068316D01*
X6376060Y-5069535D01*
X6375044Y-5071313D01*
X6375044Y-5071973D01*
X6374028Y-5073954D01*
X6374028Y-5074767D01*
X6373215Y-5075986D01*
X6372758Y-5078069D01*
X6372148Y-5078984D01*
X6371844Y-5080762D01*
X6371132Y-5082184D01*
X6370624Y-5084724D01*
X6370066Y-5085588D01*
X6369761Y-5087772D01*
X6368999Y-5089601D01*
X6368542Y-5092852D01*
X6367983Y-5093970D01*
X6367475Y-5098237D01*
X6367150Y-5099050D01*
X6385915Y-5099050D01*
X6386118Y-5095951D01*
X6386779Y-5094935D01*
X6387185Y-5092141D01*
X6387846Y-5090972D01*
X6388303Y-5088585D01*
X6388862Y-5087772D01*
X6389370Y-5085181D01*
X6389928Y-5084368D01*
X6390436Y-5082387D01*
X6390944Y-5081778D01*
X6391452Y-5079949D01*
X6392265Y-5078374D01*
X6392265Y-5077510D01*
X6393078Y-5076545D01*
X6393535Y-5074869D01*
X6393942Y-5074666D01*
X6394653Y-5072583D01*
X6395161Y-5071973D01*
X6395669Y-5070500D01*
X6396228Y-5070043D01*
X6396532Y-5068874D01*
X6397244Y-5067960D01*
X6397752Y-5066487D01*
X6398209Y-5066233D01*
X6399022Y-5064556D01*
X6400698Y-5062220D01*
X6400698Y-5061762D01*
X6405118Y-5055260D01*
X6405524Y-5055260D01*
X6406184Y-5053990D01*
X6406794Y-5053431D01*
X6407251Y-5052568D01*
X6408013Y-5052060D01*
X6408013Y-5051602D01*
X6415633Y-5043728D01*
X6424676Y-5036261D01*
X6425031Y-5036261D01*
X6427266Y-5034381D01*
X6430060Y-5032654D01*
X6430314Y-5032298D01*
X6430873Y-5032298D01*
X6432092Y-5031384D01*
X6433210Y-5030876D01*
X6433210Y-5030520D01*
X6435090Y-5029860D01*
X6435090Y-5029504D01*
X6436563Y-5029047D01*
X6437020Y-5028488D01*
X6438544Y-5028031D01*
X6439306Y-5027269D01*
X6440525Y-5027269D01*
X6440779Y-5027625D01*
X6439154Y-5028285D01*
X6438900Y-5028895D01*
X6438290Y-5028895D01*
X6437731Y-5029606D01*
X6435191Y-5031181D01*
X6430162Y-5035143D01*
X6419037Y-5045405D01*
X6414363Y-5050434D01*
X6413703Y-5051450D01*
X6412026Y-5053177D01*
X6407708Y-5058613D01*
X6402425Y-5066182D01*
X6402120Y-5067096D01*
X6401714Y-5067096D01*
X6399022Y-5072024D01*
X6398412Y-5072481D01*
X6398158Y-5073650D01*
X6397345Y-5074310D01*
X6397091Y-5075428D01*
X6396075Y-5076748D01*
X6396075Y-5077409D01*
X6395212Y-5078425D01*
X6393738Y-5081828D01*
X6393129Y-5082286D01*
X6392875Y-5083657D01*
X6392113Y-5084572D01*
X6391656Y-5086197D01*
X6391046Y-5086705D01*
X6390589Y-5088636D01*
X6389979Y-5089093D01*
X6389725Y-5090566D01*
X6388963Y-5091785D01*
X6388455Y-5093563D01*
X6387846Y-5094224D01*
X6387592Y-5095748D01*
X6386880Y-5096967D01*
X6386372Y-5099050D01*
X6367150Y-5099050D01*
X6366888Y-5099964D01*
X6385204Y-5099964D01*
X6385407Y-5101082D01*
X6385204Y-5102148D01*
X6385204Y-5099964D01*
X6366888Y-5099964D01*
X6366459Y-5105450D01*
X6366052Y-5106466D01*
X6365544Y-5113172D01*
X6365798Y-5130342D01*
X6366459Y-5132832D01*
X6366916Y-5138521D01*
X6367526Y-5140147D01*
X6367932Y-5144109D01*
X6368592Y-5145532D01*
X6369050Y-5148732D01*
X6369761Y-5150358D01*
X6370066Y-5152491D01*
X6370675Y-5153660D01*
X6371132Y-5155946D01*
X6371844Y-5157317D01*
X6372148Y-5159146D01*
X6372758Y-5160010D01*
X6373215Y-5162143D01*
X6373774Y-5162753D01*
X6374231Y-5164734D01*
X6374841Y-5165547D01*
X6375298Y-5167325D01*
X6376111Y-5168290D01*
X6376111Y-5168950D01*
X6377279Y-5171389D01*
X6377381Y-5171998D01*
X6377990Y-5172456D01*
X6377990Y-5172913D01*
X6382359Y-5181142D01*
X6383477Y-5182463D01*
X6383477Y-5183124D01*
X6386118Y-5186984D01*
X6387084Y-5188813D01*
X6387388Y-5188813D01*
X6388100Y-5190236D01*
X6388455Y-5190236D01*
X6388760Y-5191099D01*
X6391706Y-5195011D01*
X6393942Y-5197551D01*
X6393942Y-5198008D01*
X6394704Y-5198516D01*
X6395262Y-5199532D01*
X6401409Y-5206187D01*
X6410045Y-5214315D01*
X6417360Y-5220208D01*
X6417767Y-5220208D01*
X6421678Y-5223205D01*
X6422085Y-5223205D01*
X6422644Y-5223916D01*
X6424574Y-5225186D01*
X6424980Y-5225186D01*
X6426047Y-5226100D01*
X6428232Y-5227320D01*
X6428943Y-5227980D01*
X6440271Y-5233974D01*
X6441948Y-5234482D01*
X6442506Y-5234990D01*
X6444081Y-5235397D01*
X6444589Y-5235956D01*
X6446418Y-5236413D01*
X6446926Y-5236972D01*
X6448450Y-5237276D01*
X6450279Y-5238191D01*
X6450838Y-5238191D01*
X6452819Y-5239207D01*
X6453682Y-5239207D01*
X6455816Y-5240172D01*
X6456629Y-5240172D01*
X6458204Y-5240985D01*
X6459982Y-5241239D01*
X6460591Y-5241544D01*
X6457645Y-5242814D01*
X6456629Y-5242814D01*
X6454952Y-5243626D01*
X6452870Y-5244033D01*
X6452209Y-5244541D01*
X6450330Y-5245049D01*
X6449720Y-5245557D01*
X6447332Y-5246217D01*
X6447078Y-5246573D01*
X6445300Y-5247030D01*
X6444284Y-5247792D01*
X6443675Y-5247792D01*
X6441948Y-5248757D01*
X6440881Y-5248960D01*
X6439865Y-5249773D01*
X6439154Y-5249773D01*
X6438138Y-5250586D01*
X6436360Y-5251246D01*
X6436360Y-5251551D01*
X6434785Y-5252059D01*
X6432042Y-5253786D01*
X6431584Y-5253786D01*
X6430416Y-5254701D01*
X6429044Y-5255260D01*
X6429044Y-5255514D01*
X6421831Y-5259882D01*
X6420916Y-5260797D01*
X6420612Y-5260797D01*
X6416700Y-5263794D01*
X6416344Y-5263794D01*
X6411061Y-5268112D01*
X6401308Y-5277154D01*
X6401308Y-5277408D01*
X6399479Y-5279085D01*
X6392824Y-5286857D01*
X6389776Y-5290820D01*
X6389522Y-5291582D01*
X6389166Y-5291582D01*
X6388506Y-5292801D01*
X6387693Y-5293563D01*
X6387388Y-5294579D01*
X6387033Y-5294579D01*
X6386423Y-5295900D01*
X6385814Y-5296408D01*
X6385306Y-5297779D01*
X6384950Y-5297779D01*
X6380327Y-5305602D01*
X6380327Y-5306314D01*
X6379565Y-5307279D01*
X6379057Y-5308650D01*
X6378448Y-5309260D01*
X6377990Y-5310987D01*
X6377584Y-5310987D01*
X6376924Y-5313172D01*
X6376568Y-5313375D01*
X6375857Y-5315458D01*
X6375298Y-5316067D01*
X6374841Y-5318048D01*
X6374282Y-5318658D01*
X6373825Y-5320487D01*
X6372961Y-5322062D01*
X6372961Y-5322874D01*
X6372199Y-5324500D01*
X6371691Y-5326583D01*
X6371132Y-5327446D01*
X6370828Y-5329478D01*
X6370066Y-5331256D01*
X6369608Y-5333746D01*
X6368999Y-5335117D01*
X6368592Y-5338267D01*
X6367983Y-5339435D01*
X6367526Y-5343652D01*
X6366916Y-5345277D01*
X6366459Y-5351068D01*
X6366052Y-5352440D01*
X6365748Y-5356606D01*
X6364782Y-5358384D01*
X6364782Y-5390946D01*
X6633464Y-5390946D01*
X6633718Y-5358638D01*
X6632905Y-5354828D01*
X6632448Y-5347665D01*
X6631686Y-5344464D01*
X6631381Y-5341061D01*
X6630822Y-5339740D01*
X6630365Y-5336235D01*
X6629755Y-5335066D01*
X6629349Y-5332323D01*
X6628536Y-5330647D01*
X6628231Y-5328462D01*
X6627723Y-5327650D01*
X6627164Y-5325262D01*
X6626606Y-5324398D01*
X6626148Y-5322265D01*
X6625590Y-5321401D01*
X6625081Y-5319471D01*
X6624523Y-5318861D01*
X6624015Y-5316880D01*
X6623456Y-5316067D01*
X6622999Y-5314492D01*
X6622186Y-5313527D01*
X6622186Y-5312816D01*
X6621221Y-5311089D01*
X6620916Y-5309971D01*
X6620357Y-5309463D01*
X6619798Y-5307888D01*
X6619087Y-5306974D01*
X6618782Y-5305755D01*
X6618376Y-5305501D01*
X6615430Y-5300065D01*
X6615074Y-5299862D01*
X6612788Y-5295950D01*
X6611670Y-5294731D01*
X6611670Y-5294172D01*
X6607048Y-5287873D01*
X6606438Y-5287568D01*
X6606438Y-5287162D01*
X6598767Y-5278272D01*
X6591198Y-5270906D01*
X6583883Y-5264810D01*
X6575907Y-5259070D01*
X6570421Y-5255615D01*
X6569913Y-5255615D01*
X6569913Y-5255209D01*
X6560362Y-5250027D01*
X6558838Y-5249570D01*
X6558330Y-5249011D01*
X6557111Y-5248757D01*
X6556146Y-5248046D01*
X6554419Y-5247589D01*
X6553911Y-5247030D01*
X6551879Y-5246573D01*
X6551422Y-5246014D01*
X6550101Y-5245760D01*
X6548221Y-5244795D01*
X6547459Y-5244795D01*
X6545478Y-5243779D01*
X6544614Y-5243779D01*
X6542481Y-5242814D01*
X6541617Y-5242814D01*
X6540601Y-5242407D01*
X6539890Y-5241442D01*
X6542278Y-5240934D01*
X6543598Y-5240172D01*
X6544614Y-5240172D01*
X6546291Y-5239410D01*
X6548170Y-5238953D01*
X6548831Y-5238445D01*
X6550914Y-5237988D01*
X6552184Y-5237226D01*
X6553504Y-5236972D01*
X6554012Y-5236413D01*
X6555740Y-5235956D01*
X6556349Y-5235448D01*
X6558025Y-5234940D01*
X6558686Y-5234432D01*
X6560464Y-5233771D01*
X6560464Y-5233466D01*
X6562191Y-5232908D01*
X6562394Y-5232400D01*
X6563918Y-5231942D01*
X6569913Y-5228742D01*
X6569913Y-5228386D01*
X6570472Y-5228386D01*
X6577584Y-5224018D01*
X6578295Y-5223357D01*
X6580479Y-5222087D01*
X6587540Y-5216601D01*
X6592265Y-5212588D01*
X6598462Y-5206695D01*
X6604660Y-5199938D01*
X6610654Y-5192572D01*
X6610654Y-5192268D01*
X6611518Y-5191302D01*
X6611924Y-5190236D01*
X6612331Y-5190236D01*
X6612991Y-5188915D01*
X6613652Y-5188356D01*
X6614058Y-5187238D01*
X6614414Y-5187238D01*
X6619036Y-5179517D01*
X6619290Y-5178450D01*
X6619849Y-5178247D01*
X6620103Y-5177028D01*
X6620865Y-5176113D01*
X6621424Y-5174437D01*
X6621729Y-5174437D01*
X6622491Y-5172506D01*
X6622999Y-5171948D01*
X6623303Y-5170728D01*
X6624269Y-5168950D01*
X6624269Y-5168290D01*
X6625132Y-5167274D01*
X6625488Y-5165598D01*
X6626098Y-5164734D01*
X6626606Y-5162905D01*
X6627418Y-5161330D01*
X6627418Y-5160518D01*
X6628231Y-5159095D01*
X6628688Y-5156860D01*
X6629298Y-5155946D01*
X6629806Y-5153355D01*
X6630162Y-5152898D01*
X6630822Y-5149748D01*
X6631381Y-5148529D01*
X6631838Y-5145328D01*
X6632448Y-5143906D01*
X6632905Y-5139944D01*
X6633514Y-5138267D01*
X6633921Y-5132527D01*
X6634378Y-5131155D01*
X6634784Y-5125364D01*
X6634784Y-5112766D01*
X6634378Y-5106466D01*
X6633972Y-5105450D01*
X6633514Y-5099608D01*
X6632905Y-5097983D01*
X6632448Y-5094173D01*
X6631686Y-5091938D01*
X6631381Y-5089347D01*
X6630822Y-5088229D01*
X6630314Y-5085588D01*
X6629704Y-5084419D01*
X6629298Y-5081981D01*
X6628688Y-5081066D01*
X6628231Y-5078984D01*
X6627622Y-5078069D01*
X6627164Y-5075986D01*
X6626402Y-5074767D01*
X6626402Y-5073904D01*
X6625336Y-5072024D01*
X6625336Y-5071364D01*
X6622999Y-5066182D01*
X6622440Y-5065572D01*
X6621932Y-5063998D01*
X6621170Y-5063032D01*
X6620916Y-5061915D01*
X6620306Y-5061458D01*
X6619849Y-5059984D01*
X6619290Y-5059375D01*
X6614464Y-5051145D01*
X6613804Y-5050637D01*
X6613804Y-5050180D01*
X6608114Y-5042255D01*
X6606438Y-5040528D01*
X6606438Y-5040274D01*
X6600240Y-5033213D01*
X6594703Y-5027574D01*
X6588150Y-5021986D01*
X6578904Y-5014874D01*
X6578346Y-5014874D01*
X6577787Y-5014163D01*
X6572097Y-5010708D01*
X6571132Y-5009896D01*
X6570675Y-5009896D01*
X6564325Y-5006289D01*
X6562598Y-5005527D01*
X6562344Y-5005120D01*
X6561124Y-5004866D01*
X6560159Y-5004155D01*
X6558584Y-5003698D01*
X6558127Y-5003139D01*
X6556248Y-5002631D01*
X6556248Y-5002377D01*
X6555181Y-5001920D01*
X6554419Y-5001920D01*
X6553403Y-5001107D01*
X6552184Y-5000853D01*
X6550304Y-4999888D01*
X6549542Y-4999888D01*
X6547612Y-4998923D01*
X6546850Y-4998923D01*
X6544868Y-4997907D01*
X6543751Y-4997907D01*
X6542278Y-4997145D01*
X6540093Y-4996688D01*
X6539128Y-4996129D01*
X6536283Y-4995672D01*
X6535369Y-4995113D01*
X6533083Y-4994859D01*
X6531406Y-4994148D01*
X6527749Y-4993690D01*
X6526326Y-4993132D01*
X6523380Y-4992878D01*
X6520230Y-4992116D01*
X6514592Y-4991709D01*
X6511645Y-4991049D01*
G37*
D10*
X4036568Y-1267205D02*
G01*
X4102100Y-1267205D01*
X4114291Y-1271270D01*
X4118609Y-1275334D01*
X4122674Y-1283462D01*
X4122674Y-1291844D01*
X4118609Y-1299971D01*
X4114291Y-1304036D01*
X4102100Y-1308100D01*
X4093972Y-1308100D01*
X4036568Y-1240281D02*
G01*
X4122674Y-1240281D01*
X4122674Y-1240281D02*
G01*
X4122674Y-1191005D01*
X4057141Y-1102613D02*
G01*
X4049013Y-1106931D01*
X4040886Y-1115060D01*
X4036568Y-1123187D01*
X4036568Y-1139444D01*
X4040886Y-1147826D01*
X4049013Y-1155954D01*
X4057141Y-1160018D01*
X4069334Y-1164081D01*
X4089908Y-1164081D01*
X4102100Y-1160018D01*
X4110227Y-1155954D01*
X4118609Y-1147826D01*
X4122674Y-1139444D01*
X4122674Y-1123187D01*
X4118609Y-1115060D01*
X4110227Y-1106931D01*
X4102100Y-1102613D01*
X4036568Y-1034795D02*
G01*
X4102100Y-1034795D01*
X4114291Y-1038860D01*
X4118609Y-1042923D01*
X4122674Y-1051305D01*
X4122674Y-1059434D01*
X4118609Y-1067562D01*
X4114291Y-1071626D01*
X4102100Y-1075689D01*
X4093972Y-1075689D01*
X4036568Y-1007871D02*
G01*
X4122674Y-1007871D01*
X4122674Y-1007871D02*
G01*
X4122674Y-958850D01*
X4057141Y-870457D02*
G01*
X4049013Y-874521D01*
X4040886Y-882650D01*
X4036568Y-890778D01*
X4036568Y-907287D01*
X4040886Y-915415D01*
X4049013Y-923544D01*
X4057141Y-927607D01*
X4069334Y-931671D01*
X4089908Y-931671D01*
X4102100Y-927607D01*
X4110227Y-923544D01*
X4118609Y-915415D01*
X4122674Y-907287D01*
X4122674Y-890778D01*
X4118609Y-882650D01*
X4110227Y-874521D01*
X4102100Y-870457D01*
X4036568Y-802386D02*
G01*
X4102100Y-802386D01*
X4114291Y-806450D01*
X4118609Y-810768D01*
X4122674Y-818895D01*
X4122674Y-827023D01*
X4118609Y-835152D01*
X4114291Y-839215D01*
X4102100Y-843279D01*
X4093972Y-843279D01*
X4036568Y-775462D02*
G01*
X4122674Y-775462D01*
X4122674Y-775462D02*
G01*
X4122674Y-726439D01*
X4057141Y-638047D02*
G01*
X4049013Y-642112D01*
X4040886Y-650239D01*
X4036568Y-658368D01*
X4036568Y-674878D01*
X4040886Y-683005D01*
X4049013Y-691134D01*
X4057141Y-695197D01*
X4069334Y-699262D01*
X4089908Y-699262D01*
X4102100Y-695197D01*
X4110227Y-691134D01*
X4118609Y-683005D01*
X4122674Y-674878D01*
X4122674Y-658368D01*
X4118609Y-650239D01*
X4110227Y-642112D01*
X4102100Y-638047D01*
D11*
X6110477Y-1980692D02*
G01*
X6105143Y-1970278D01*
X6094729Y-1959863D01*
X6084570Y-1954784D01*
X6063741Y-1954784D01*
X6053327Y-1959863D01*
X6042913Y-1970278D01*
X6037579Y-1980692D01*
X6032500Y-1996439D01*
X6032500Y-2022347D01*
X6037579Y-2037842D01*
X6042913Y-2048255D01*
X6053327Y-2058670D01*
X6063741Y-2063750D01*
X6084570Y-2063750D01*
X6094729Y-2058670D01*
X6105143Y-2048255D01*
X6110477Y-2037842D01*
X6212331Y-1991105D02*
G01*
X6206997Y-2006600D01*
X6196584Y-2017013D01*
X6181090Y-2022347D01*
X6176009Y-2022347D01*
X6160261Y-2017013D01*
X6149847Y-2006600D01*
X6144768Y-1991105D01*
X6144768Y-1986026D01*
X6149847Y-1970278D01*
X6160261Y-1959863D01*
X6176009Y-1954784D01*
X6181090Y-1954784D01*
X6196584Y-1959863D01*
X6206997Y-1970278D01*
X6212331Y-1991105D01*
X6212331Y-2017013D01*
X6206997Y-2043176D01*
X6196584Y-2058670D01*
X6181090Y-2063750D01*
X6170675Y-2063750D01*
X6155181Y-2058670D01*
X6149847Y-2048255D01*
X6123177Y-2577592D02*
G01*
X6117843Y-2567178D01*
X6107429Y-2556763D01*
X6097270Y-2551684D01*
X6076441Y-2551684D01*
X6066027Y-2556763D01*
X6055613Y-2567178D01*
X6050279Y-2577592D01*
X6045200Y-2593339D01*
X6045200Y-2619247D01*
X6050279Y-2634742D01*
X6055613Y-2645155D01*
X6066027Y-2655570D01*
X6076441Y-2660650D01*
X6097270Y-2660650D01*
X6107429Y-2655570D01*
X6117843Y-2645155D01*
X6123177Y-2634742D01*
X6157468Y-2572512D02*
G01*
X6167881Y-2567178D01*
X6183375Y-2551684D01*
X6183375Y-2660650D01*
X6228079Y-2551684D02*
G01*
X6285229Y-2551684D01*
X6253988Y-2593339D01*
X6269736Y-2593339D01*
X6280150Y-2598420D01*
X6285229Y-2603500D01*
X6290309Y-2619247D01*
X6290309Y-2629662D01*
X6285229Y-2645155D01*
X6274815Y-2655570D01*
X6259322Y-2660650D01*
X6243574Y-2660650D01*
X6228079Y-2655570D01*
X6223000Y-2650489D01*
X6217665Y-2640076D01*
X457707Y-2567178D02*
G01*
X468121Y-2561844D01*
X478536Y-2551429D01*
X483615Y-2541270D01*
X483615Y-2520442D01*
X478536Y-2510028D01*
X468121Y-2499613D01*
X457707Y-2494279D01*
X441960Y-2489200D01*
X416052Y-2489200D01*
X400557Y-2494279D01*
X390144Y-2499613D01*
X379729Y-2510028D01*
X374650Y-2520442D01*
X374650Y-2541270D01*
X379729Y-2551429D01*
X390144Y-2561844D01*
X400557Y-2567178D01*
X483615Y-2601468D02*
G01*
X374650Y-2601468D01*
X483615Y-2601468D02*
G01*
X374650Y-2674112D01*
X483615Y-2674112D02*
G01*
X374650Y-2674112D01*
X483615Y-2708402D02*
G01*
X374650Y-2708402D01*
X483615Y-2708402D02*
G01*
X374650Y-2781300D01*
X483615Y-2781300D02*
G01*
X374650Y-2781300D01*
X2403025Y539318D02*
G01*
X2403025Y430352D01*
X2403025Y430352D02*
G01*
X2465255Y430352D01*
X2499545Y539318D02*
G01*
X2499545Y430352D01*
X2499545Y539318D02*
G01*
X2567109Y539318D01*
X2499545Y487502D02*
G01*
X2541201Y487502D01*
X2499545Y430352D02*
G01*
X2567109Y430352D01*
X2601399Y539318D02*
G01*
X2601399Y430352D01*
X2601399Y539318D02*
G01*
X2637975Y539318D01*
X2653469Y534238D01*
X2663883Y523824D01*
X2668963Y513410D01*
X2674297Y497662D01*
X2674297Y471754D01*
X2668963Y456260D01*
X2663883Y445846D01*
X2653469Y435432D01*
X2637975Y430352D01*
X2601399Y430352D01*
X2708587Y518490D02*
G01*
X2719001Y523824D01*
X2734495Y539318D01*
X2734495Y430352D01*
X2070100Y-1370584D02*
G01*
X2070100Y-1479550D01*
X2070100Y-1370584D02*
G01*
X2111756Y-1479550D01*
X2153158Y-1370584D02*
G01*
X2111756Y-1479550D01*
X2153158Y-1370584D02*
G01*
X2153158Y-1479550D01*
X2265425Y-1396492D02*
G01*
X2260345Y-1386078D01*
X2249931Y-1375663D01*
X2239518Y-1370584D01*
X2218690Y-1370584D01*
X2208275Y-1375663D01*
X2197861Y-1386078D01*
X2192781Y-1396492D01*
X2187447Y-1412239D01*
X2187447Y-1438147D01*
X2192781Y-1453642D01*
X2197861Y-1464055D01*
X2208275Y-1474470D01*
X2218690Y-1479550D01*
X2239518Y-1479550D01*
X2249931Y-1474470D01*
X2260345Y-1464055D01*
X2265425Y-1453642D01*
X2299715Y-1370584D02*
G01*
X2299715Y-1448562D01*
X2305050Y-1464055D01*
X2315209Y-1474470D01*
X2330958Y-1479550D01*
X2341372Y-1479550D01*
X2356865Y-1474470D01*
X2367279Y-1464055D01*
X2372359Y-1448562D01*
X2372359Y-1370584D01*
X6693408Y-4849876D02*
G01*
X6802374Y-4849876D01*
X6693408Y-4849876D02*
G01*
X6802374Y-4808220D01*
X6693408Y-4766818D02*
G01*
X6802374Y-4808220D01*
X6693408Y-4766818D02*
G01*
X6802374Y-4766818D01*
X6693408Y-4701286D02*
G01*
X6698488Y-4711700D01*
X6708902Y-4722113D01*
X6719315Y-4727194D01*
X6735063Y-4732528D01*
X6760972Y-4732528D01*
X6776465Y-4727194D01*
X6786879Y-4722113D01*
X6797293Y-4711700D01*
X6802374Y-4701286D01*
X6802374Y-4680457D01*
X6797293Y-4670044D01*
X6786879Y-4659629D01*
X6776465Y-4654550D01*
X6760972Y-4649215D01*
X6735063Y-4649215D01*
X6719315Y-4654550D01*
X6708902Y-4659629D01*
X6698488Y-4670044D01*
X6693408Y-4680457D01*
X6693408Y-4701286D01*
X6693408Y-4578604D02*
G01*
X6802374Y-4578604D01*
X6693408Y-4614926D02*
G01*
X6693408Y-4542281D01*
X6693408Y-4476750D02*
G01*
X6698488Y-4487163D01*
X6708902Y-4497578D01*
X6719315Y-4502912D01*
X6735063Y-4507992D01*
X6760972Y-4507992D01*
X6776465Y-4502912D01*
X6786879Y-4497578D01*
X6797293Y-4487163D01*
X6802374Y-4476750D01*
X6802374Y-4456176D01*
X6797293Y-4445762D01*
X6786879Y-4435347D01*
X6776465Y-4430013D01*
X6760972Y-4424934D01*
X6735063Y-4424934D01*
X6719315Y-4430013D01*
X6708902Y-4435347D01*
X6698488Y-4445762D01*
X6693408Y-4456176D01*
X6693408Y-4476750D01*
X6693408Y-4390644D02*
G01*
X6802374Y-4390644D01*
X6693408Y-4390644D02*
G01*
X6693408Y-4343907D01*
X6698488Y-4328160D01*
X6703822Y-4323079D01*
X6714236Y-4317745D01*
X6724650Y-4317745D01*
X6735063Y-4323079D01*
X6740143Y-4328160D01*
X6745224Y-4343907D01*
X6745224Y-4390644D01*
X6745224Y-4354321D02*
G01*
X6802374Y-4317745D01*
X6714236Y-4283455D02*
G01*
X6708902Y-4273295D01*
X6693408Y-4257547D01*
X6802374Y-4257547D01*
X6706108Y-3592576D02*
G01*
X6815074Y-3592576D01*
X6706108Y-3592576D02*
G01*
X6815074Y-3550920D01*
X6706108Y-3509518D02*
G01*
X6815074Y-3550920D01*
X6706108Y-3509518D02*
G01*
X6815074Y-3509518D01*
X6706108Y-3443986D02*
G01*
X6711188Y-3454400D01*
X6721602Y-3464813D01*
X6732015Y-3469894D01*
X6747763Y-3475228D01*
X6773672Y-3475228D01*
X6789165Y-3469894D01*
X6799579Y-3464813D01*
X6809993Y-3454400D01*
X6815074Y-3443986D01*
X6815074Y-3423157D01*
X6809993Y-3412744D01*
X6799579Y-3402329D01*
X6789165Y-3397250D01*
X6773672Y-3391915D01*
X6747763Y-3391915D01*
X6732015Y-3397250D01*
X6721602Y-3402329D01*
X6711188Y-3412744D01*
X6706108Y-3423157D01*
X6706108Y-3443986D01*
X6706108Y-3321304D02*
G01*
X6815074Y-3321304D01*
X6706108Y-3357626D02*
G01*
X6706108Y-3284981D01*
X6706108Y-3219450D02*
G01*
X6711188Y-3229863D01*
X6721602Y-3240278D01*
X6732015Y-3245612D01*
X6747763Y-3250692D01*
X6773672Y-3250692D01*
X6789165Y-3245612D01*
X6799579Y-3240278D01*
X6809993Y-3229863D01*
X6815074Y-3219450D01*
X6815074Y-3198876D01*
X6809993Y-3188462D01*
X6799579Y-3178047D01*
X6789165Y-3172713D01*
X6773672Y-3167634D01*
X6747763Y-3167634D01*
X6732015Y-3172713D01*
X6721602Y-3178047D01*
X6711188Y-3188462D01*
X6706108Y-3198876D01*
X6706108Y-3219450D01*
X6706108Y-3133344D02*
G01*
X6815074Y-3133344D01*
X6706108Y-3133344D02*
G01*
X6706108Y-3086607D01*
X6711188Y-3070860D01*
X6716522Y-3065779D01*
X6726936Y-3060445D01*
X6737350Y-3060445D01*
X6747763Y-3065779D01*
X6752843Y-3070860D01*
X6757924Y-3086607D01*
X6757924Y-3133344D01*
X6757924Y-3097021D02*
G01*
X6815074Y-3060445D01*
X6732015Y-3021076D02*
G01*
X6726936Y-3021076D01*
X6716522Y-3015995D01*
X6711188Y-3010662D01*
X6706108Y-3000247D01*
X6706108Y-2979420D01*
X6711188Y-2969005D01*
X6716522Y-2963926D01*
X6726936Y-2958845D01*
X6737350Y-2958845D01*
X6747763Y-2963926D01*
X6763258Y-2974339D01*
X6815074Y-3026155D01*
X6815074Y-2953512D01*
X6706108Y-2309876D02*
G01*
X6815074Y-2309876D01*
X6706108Y-2309876D02*
G01*
X6815074Y-2268220D01*
X6706108Y-2226818D02*
G01*
X6815074Y-2268220D01*
X6706108Y-2226818D02*
G01*
X6815074Y-2226818D01*
X6706108Y-2161286D02*
G01*
X6711188Y-2171700D01*
X6721602Y-2182113D01*
X6732015Y-2187194D01*
X6747763Y-2192528D01*
X6773672Y-2192528D01*
X6789165Y-2187194D01*
X6799579Y-2182113D01*
X6809993Y-2171700D01*
X6815074Y-2161286D01*
X6815074Y-2140457D01*
X6809993Y-2130044D01*
X6799579Y-2119629D01*
X6789165Y-2114550D01*
X6773672Y-2109215D01*
X6747763Y-2109215D01*
X6732015Y-2114550D01*
X6721602Y-2119629D01*
X6711188Y-2130044D01*
X6706108Y-2140457D01*
X6706108Y-2161286D01*
X6706108Y-2038604D02*
G01*
X6815074Y-2038604D01*
X6706108Y-2074926D02*
G01*
X6706108Y-2002281D01*
X6706108Y-1936750D02*
G01*
X6711188Y-1947163D01*
X6721602Y-1957578D01*
X6732015Y-1962912D01*
X6747763Y-1967992D01*
X6773672Y-1967992D01*
X6789165Y-1962912D01*
X6799579Y-1957578D01*
X6809993Y-1947163D01*
X6815074Y-1936750D01*
X6815074Y-1916176D01*
X6809993Y-1905762D01*
X6799579Y-1895347D01*
X6789165Y-1890013D01*
X6773672Y-1884934D01*
X6747763Y-1884934D01*
X6732015Y-1890013D01*
X6721602Y-1895347D01*
X6711188Y-1905762D01*
X6706108Y-1916176D01*
X6706108Y-1936750D01*
X6706108Y-1850644D02*
G01*
X6815074Y-1850644D01*
X6706108Y-1850644D02*
G01*
X6706108Y-1803907D01*
X6711188Y-1788160D01*
X6716522Y-1783079D01*
X6726936Y-1777745D01*
X6737350Y-1777745D01*
X6747763Y-1783079D01*
X6752843Y-1788160D01*
X6757924Y-1803907D01*
X6757924Y-1850644D01*
X6757924Y-1814321D02*
G01*
X6815074Y-1777745D01*
X6706108Y-1733295D02*
G01*
X6706108Y-1676145D01*
X6747763Y-1707134D01*
X6747763Y-1691639D01*
X6752843Y-1681226D01*
X6757924Y-1676145D01*
X6773672Y-1670812D01*
X6784086Y-1670812D01*
X6799579Y-1676145D01*
X6809993Y-1686305D01*
X6815074Y-1702054D01*
X6815074Y-1717547D01*
X6809993Y-1733295D01*
X6804913Y-1738376D01*
X6794500Y-1743455D01*
X6693408Y-1039876D02*
G01*
X6802374Y-1039876D01*
X6693408Y-1039876D02*
G01*
X6802374Y-998220D01*
X6693408Y-956818D02*
G01*
X6802374Y-998220D01*
X6693408Y-956818D02*
G01*
X6802374Y-956818D01*
X6693408Y-891286D02*
G01*
X6698488Y-901700D01*
X6708902Y-912113D01*
X6719315Y-917194D01*
X6735063Y-922528D01*
X6760972Y-922528D01*
X6776465Y-917194D01*
X6786879Y-912113D01*
X6797293Y-901700D01*
X6802374Y-891286D01*
X6802374Y-870457D01*
X6797293Y-860044D01*
X6786879Y-849629D01*
X6776465Y-844550D01*
X6760972Y-839215D01*
X6735063Y-839215D01*
X6719315Y-844550D01*
X6708902Y-849629D01*
X6698488Y-860044D01*
X6693408Y-870457D01*
X6693408Y-891286D01*
X6693408Y-768604D02*
G01*
X6802374Y-768604D01*
X6693408Y-804926D02*
G01*
X6693408Y-732281D01*
X6693408Y-666750D02*
G01*
X6698488Y-677163D01*
X6708902Y-687578D01*
X6719315Y-692912D01*
X6735063Y-697992D01*
X6760972Y-697992D01*
X6776465Y-692912D01*
X6786879Y-687578D01*
X6797293Y-677163D01*
X6802374Y-666750D01*
X6802374Y-646176D01*
X6797293Y-635762D01*
X6786879Y-625347D01*
X6776465Y-620013D01*
X6760972Y-614934D01*
X6735063Y-614934D01*
X6719315Y-620013D01*
X6708902Y-625347D01*
X6698488Y-635762D01*
X6693408Y-646176D01*
X6693408Y-666750D01*
X6693408Y-580644D02*
G01*
X6802374Y-580644D01*
X6693408Y-580644D02*
G01*
X6693408Y-533907D01*
X6698488Y-518160D01*
X6703822Y-513079D01*
X6714236Y-507745D01*
X6724650Y-507745D01*
X6735063Y-513079D01*
X6740143Y-518160D01*
X6745224Y-533907D01*
X6745224Y-580644D01*
X6745224Y-544321D02*
G01*
X6802374Y-507745D01*
X6693408Y-421639D02*
G01*
X6766052Y-473455D01*
X6766052Y-395731D01*
X6693408Y-421639D02*
G01*
X6802374Y-421639D01*
X5346700Y-3986784D02*
G01*
X5346700Y-4095750D01*
X5346700Y-3986784D02*
G01*
X5388356Y-4095750D01*
X5429758Y-3986784D02*
G01*
X5388356Y-4095750D01*
X5429758Y-3986784D02*
G01*
X5429758Y-4095750D01*
X5495290Y-3986784D02*
G01*
X5484875Y-3991863D01*
X5474461Y-4002278D01*
X5469381Y-4012692D01*
X5464047Y-4028439D01*
X5464047Y-4054347D01*
X5469381Y-4069842D01*
X5474461Y-4080255D01*
X5484875Y-4090670D01*
X5495290Y-4095750D01*
X5516118Y-4095750D01*
X5526531Y-4090670D01*
X5536945Y-4080255D01*
X5542025Y-4069842D01*
X5547359Y-4054347D01*
X5547359Y-4028439D01*
X5542025Y-4012692D01*
X5536945Y-4002278D01*
X5526531Y-3991863D01*
X5516118Y-3986784D01*
X5495290Y-3986784D01*
X5617972Y-3986784D02*
G01*
X5617972Y-4095750D01*
X5581650Y-3986784D02*
G01*
X5654293Y-3986784D01*
X5719825Y-3986784D02*
G01*
X5709411Y-3991863D01*
X5698997Y-4002278D01*
X5693663Y-4012692D01*
X5688584Y-4028439D01*
X5688584Y-4054347D01*
X5693663Y-4069842D01*
X5698997Y-4080255D01*
X5709411Y-4090670D01*
X5719825Y-4095750D01*
X5740400Y-4095750D01*
X5750813Y-4090670D01*
X5761227Y-4080255D01*
X5766561Y-4069842D01*
X5771641Y-4054347D01*
X5771641Y-4028439D01*
X5766561Y-4012692D01*
X5761227Y-4002278D01*
X5750813Y-3991863D01*
X5740400Y-3986784D01*
X5719825Y-3986784D01*
X5805931Y-3986784D02*
G01*
X5805931Y-4095750D01*
X5805931Y-3986784D02*
G01*
X5852668Y-3986784D01*
X5868415Y-3991863D01*
X5873495Y-3997197D01*
X5878829Y-4007612D01*
X5878829Y-4018026D01*
X5873495Y-4028439D01*
X5868415Y-4033520D01*
X5852668Y-4038600D01*
X5805931Y-4038600D01*
X5842254Y-4038600D02*
G01*
X5878829Y-4095750D01*
X5913120Y-3986784D02*
G01*
X5913120Y-4095750D01*
X5913120Y-3986784D02*
G01*
X5949441Y-3986784D01*
X5964936Y-3991863D01*
X5975350Y-4002278D01*
X5980429Y-4012692D01*
X5985763Y-4028439D01*
X5985763Y-4054347D01*
X5980429Y-4069842D01*
X5975350Y-4080255D01*
X5964936Y-4090670D01*
X5949441Y-4095750D01*
X5913120Y-4095750D01*
X6020054Y-3986784D02*
G01*
X6020054Y-4095750D01*
X6020054Y-3986784D02*
G01*
X6066790Y-3986784D01*
X6082284Y-3991863D01*
X6087618Y-3997197D01*
X6092697Y-4007612D01*
X6092697Y-4018026D01*
X6087618Y-4028439D01*
X6082284Y-4033520D01*
X6066790Y-4038600D01*
X6020054Y-4038600D01*
X6056375Y-4038600D02*
G01*
X6092697Y-4095750D01*
X6126988Y-3986784D02*
G01*
X6126988Y-4095750D01*
X6161277Y-3986784D02*
G01*
X6202934Y-4095750D01*
X6244590Y-3986784D02*
G01*
X6202934Y-4095750D01*
X6278879Y-4007612D02*
G01*
X6289040Y-4002278D01*
X6304788Y-3986784D01*
X6304788Y-4095750D01*
X5346700Y-1497584D02*
G01*
X5346700Y-1606550D01*
X5346700Y-1497584D02*
G01*
X5388356Y-1606550D01*
X5429758Y-1497584D02*
G01*
X5388356Y-1606550D01*
X5429758Y-1497584D02*
G01*
X5429758Y-1606550D01*
X5495290Y-1497584D02*
G01*
X5484875Y-1502663D01*
X5474461Y-1513078D01*
X5469381Y-1523492D01*
X5464047Y-1539239D01*
X5464047Y-1565147D01*
X5469381Y-1580642D01*
X5474461Y-1591055D01*
X5484875Y-1601470D01*
X5495290Y-1606550D01*
X5516118Y-1606550D01*
X5526531Y-1601470D01*
X5536945Y-1591055D01*
X5542025Y-1580642D01*
X5547359Y-1565147D01*
X5547359Y-1539239D01*
X5542025Y-1523492D01*
X5536945Y-1513078D01*
X5526531Y-1502663D01*
X5516118Y-1497584D01*
X5495290Y-1497584D01*
X5617972Y-1497584D02*
G01*
X5617972Y-1606550D01*
X5581650Y-1497584D02*
G01*
X5654293Y-1497584D01*
X5719825Y-1497584D02*
G01*
X5709411Y-1502663D01*
X5698997Y-1513078D01*
X5693663Y-1523492D01*
X5688584Y-1539239D01*
X5688584Y-1565147D01*
X5693663Y-1580642D01*
X5698997Y-1591055D01*
X5709411Y-1601470D01*
X5719825Y-1606550D01*
X5740400Y-1606550D01*
X5750813Y-1601470D01*
X5761227Y-1591055D01*
X5766561Y-1580642D01*
X5771641Y-1565147D01*
X5771641Y-1539239D01*
X5766561Y-1523492D01*
X5761227Y-1513078D01*
X5750813Y-1502663D01*
X5740400Y-1497584D01*
X5719825Y-1497584D01*
X5805931Y-1497584D02*
G01*
X5805931Y-1606550D01*
X5805931Y-1497584D02*
G01*
X5852668Y-1497584D01*
X5868415Y-1502663D01*
X5873495Y-1507997D01*
X5878829Y-1518412D01*
X5878829Y-1528826D01*
X5873495Y-1539239D01*
X5868415Y-1544320D01*
X5852668Y-1549400D01*
X5805931Y-1549400D01*
X5842254Y-1549400D02*
G01*
X5878829Y-1606550D01*
X5913120Y-1497584D02*
G01*
X5913120Y-1606550D01*
X5913120Y-1497584D02*
G01*
X5949441Y-1497584D01*
X5964936Y-1502663D01*
X5975350Y-1513078D01*
X5980429Y-1523492D01*
X5985763Y-1539239D01*
X5985763Y-1565147D01*
X5980429Y-1580642D01*
X5975350Y-1591055D01*
X5964936Y-1601470D01*
X5949441Y-1606550D01*
X5913120Y-1606550D01*
X6020054Y-1497584D02*
G01*
X6020054Y-1606550D01*
X6020054Y-1497584D02*
G01*
X6066790Y-1497584D01*
X6082284Y-1502663D01*
X6087618Y-1507997D01*
X6092697Y-1518412D01*
X6092697Y-1528826D01*
X6087618Y-1539239D01*
X6082284Y-1544320D01*
X6066790Y-1549400D01*
X6020054Y-1549400D01*
X6056375Y-1549400D02*
G01*
X6092697Y-1606550D01*
X6126988Y-1497584D02*
G01*
X6126988Y-1606550D01*
X6161277Y-1497584D02*
G01*
X6202934Y-1606550D01*
X6244590Y-1497584D02*
G01*
X6202934Y-1606550D01*
X6283959Y-1523492D02*
G01*
X6283959Y-1518412D01*
X6289040Y-1507997D01*
X6294374Y-1502663D01*
X6304788Y-1497584D01*
X6325615Y-1497584D01*
X6336029Y-1502663D01*
X6341109Y-1507997D01*
X6346190Y-1518412D01*
X6346190Y-1528826D01*
X6341109Y-1539239D01*
X6330695Y-1554734D01*
X6278879Y-1606550D01*
X6351524Y-1606550D01*
X3777741Y-4113784D02*
G01*
X3767327Y-4118863D01*
X3756913Y-4129278D01*
X3751579Y-4139692D01*
X3746500Y-4155439D01*
X3746500Y-4181347D01*
X3751579Y-4196842D01*
X3756913Y-4207255D01*
X3767327Y-4217670D01*
X3777741Y-4222750D01*
X3798570Y-4222750D01*
X3808729Y-4217670D01*
X3819143Y-4207255D01*
X3824477Y-4196842D01*
X3829558Y-4181347D01*
X3829558Y-4155439D01*
X3824477Y-4139692D01*
X3819143Y-4129278D01*
X3808729Y-4118863D01*
X3798570Y-4113784D01*
X3777741Y-4113784D01*
X3863847Y-4113784D02*
G01*
X3863847Y-4222750D01*
X3863847Y-4113784D02*
G01*
X3910584Y-4113784D01*
X3926331Y-4118863D01*
X3931411Y-4124197D01*
X3936745Y-4134612D01*
X3936745Y-4150105D01*
X3931411Y-4160520D01*
X3926331Y-4165600D01*
X3910584Y-4170934D01*
X3863847Y-4170934D01*
X4007358Y-4113784D02*
G01*
X4007358Y-4222750D01*
X3971036Y-4113784D02*
G01*
X4043679Y-4113784D01*
X4088384Y-4113784D02*
G01*
X4145534Y-4113784D01*
X4114291Y-4155439D01*
X4130040Y-4155439D01*
X4140200Y-4160520D01*
X4145534Y-4165600D01*
X4150613Y-4181347D01*
X4150613Y-4191762D01*
X4145534Y-4207255D01*
X4135120Y-4217670D01*
X4119625Y-4222750D01*
X4103877Y-4222750D01*
X4088384Y-4217670D01*
X4083050Y-4212589D01*
X4077970Y-4202176D01*
X3790441Y-2856484D02*
G01*
X3780027Y-2861563D01*
X3769613Y-2871978D01*
X3764279Y-2882392D01*
X3759200Y-2898139D01*
X3759200Y-2924047D01*
X3764279Y-2939542D01*
X3769613Y-2949955D01*
X3780027Y-2960370D01*
X3790441Y-2965450D01*
X3811270Y-2965450D01*
X3821429Y-2960370D01*
X3831843Y-2949955D01*
X3837177Y-2939542D01*
X3842258Y-2924047D01*
X3842258Y-2898139D01*
X3837177Y-2882392D01*
X3831843Y-2871978D01*
X3821429Y-2861563D01*
X3811270Y-2856484D01*
X3790441Y-2856484D01*
X3876547Y-2856484D02*
G01*
X3876547Y-2965450D01*
X3876547Y-2856484D02*
G01*
X3923284Y-2856484D01*
X3939031Y-2861563D01*
X3944111Y-2866897D01*
X3949445Y-2877312D01*
X3949445Y-2892805D01*
X3944111Y-2903220D01*
X3939031Y-2908300D01*
X3923284Y-2913634D01*
X3876547Y-2913634D01*
X4020058Y-2856484D02*
G01*
X4020058Y-2965450D01*
X3983736Y-2856484D02*
G01*
X4056379Y-2856484D01*
X4142740Y-2856484D02*
G01*
X4090670Y-2929128D01*
X4168647Y-2929128D01*
X4142740Y-2856484D02*
G01*
X4142740Y-2965450D01*
X3777741Y-1586484D02*
G01*
X3767327Y-1591563D01*
X3756913Y-1601978D01*
X3751579Y-1612392D01*
X3746500Y-1628139D01*
X3746500Y-1654047D01*
X3751579Y-1669542D01*
X3756913Y-1679955D01*
X3767327Y-1690370D01*
X3777741Y-1695450D01*
X3798570Y-1695450D01*
X3808729Y-1690370D01*
X3819143Y-1679955D01*
X3824477Y-1669542D01*
X3829558Y-1654047D01*
X3829558Y-1628139D01*
X3824477Y-1612392D01*
X3819143Y-1601978D01*
X3808729Y-1591563D01*
X3798570Y-1586484D01*
X3777741Y-1586484D01*
X3863847Y-1586484D02*
G01*
X3863847Y-1695450D01*
X3863847Y-1586484D02*
G01*
X3910584Y-1586484D01*
X3926331Y-1591563D01*
X3931411Y-1596897D01*
X3936745Y-1607312D01*
X3936745Y-1622805D01*
X3931411Y-1633220D01*
X3926331Y-1638300D01*
X3910584Y-1643634D01*
X3863847Y-1643634D01*
X4007358Y-1586484D02*
G01*
X4007358Y-1695450D01*
X3971036Y-1586484D02*
G01*
X4043679Y-1586484D01*
X4140200Y-1586484D02*
G01*
X4088384Y-1586484D01*
X4083050Y-1633220D01*
X4088384Y-1628139D01*
X4103877Y-1622805D01*
X4119625Y-1622805D01*
X4135120Y-1628139D01*
X4145534Y-1638300D01*
X4150613Y-1654047D01*
X4150613Y-1664462D01*
X4145534Y-1679955D01*
X4135120Y-1690370D01*
X4119625Y-1695450D01*
X4103877Y-1695450D01*
X4088384Y-1690370D01*
X4083050Y-1685289D01*
X4077970Y-1674876D01*
X3777741Y-329184D02*
G01*
X3767327Y-334263D01*
X3756913Y-344678D01*
X3751579Y-355092D01*
X3746500Y-370839D01*
X3746500Y-396747D01*
X3751579Y-412242D01*
X3756913Y-422655D01*
X3767327Y-433070D01*
X3777741Y-438150D01*
X3798570Y-438150D01*
X3808729Y-433070D01*
X3819143Y-422655D01*
X3824477Y-412242D01*
X3829558Y-396747D01*
X3829558Y-370839D01*
X3824477Y-355092D01*
X3819143Y-344678D01*
X3808729Y-334263D01*
X3798570Y-329184D01*
X3777741Y-329184D01*
X3863847Y-329184D02*
G01*
X3863847Y-438150D01*
X3863847Y-329184D02*
G01*
X3910584Y-329184D01*
X3926331Y-334263D01*
X3931411Y-339597D01*
X3936745Y-350012D01*
X3936745Y-365505D01*
X3931411Y-375920D01*
X3926331Y-381000D01*
X3910584Y-386334D01*
X3863847Y-386334D01*
X4007358Y-329184D02*
G01*
X4007358Y-438150D01*
X3971036Y-329184D02*
G01*
X4043679Y-329184D01*
X4140200Y-344678D02*
G01*
X4135120Y-334263D01*
X4119625Y-329184D01*
X4109211Y-329184D01*
X4093463Y-334263D01*
X4083050Y-350012D01*
X4077970Y-375920D01*
X4077970Y-401828D01*
X4083050Y-422655D01*
X4093463Y-433070D01*
X4109211Y-438150D01*
X4114291Y-438150D01*
X4130040Y-433070D01*
X4140200Y-422655D01*
X4145534Y-407162D01*
X4145534Y-401828D01*
X4140200Y-386334D01*
X4130040Y-375920D01*
X4114291Y-370839D01*
X4109211Y-370839D01*
X4093463Y-375920D01*
X4083050Y-386334D01*
X4077970Y-401828D01*
X1815084Y-5105400D02*
G01*
X1924050Y-5105400D01*
X1815084Y-5105400D02*
G01*
X1815084Y-5058663D01*
X1820163Y-5043170D01*
X1825497Y-5037836D01*
X1835912Y-5032755D01*
X1851405Y-5032755D01*
X1861820Y-5037836D01*
X1866900Y-5043170D01*
X1872234Y-5058663D01*
X1872234Y-5105400D01*
X1815084Y-4998465D02*
G01*
X1924050Y-4972304D01*
X1815084Y-4946395D02*
G01*
X1924050Y-4972304D01*
X1815084Y-4946395D02*
G01*
X1924050Y-4920487D01*
X1815084Y-4894579D02*
G01*
X1924050Y-4920487D01*
X1815084Y-4860289D02*
G01*
X1924050Y-4860289D01*
X1815084Y-4860289D02*
G01*
X1924050Y-4818634D01*
X1815084Y-4776978D02*
G01*
X1924050Y-4818634D01*
X1815084Y-4776978D02*
G01*
X1924050Y-4776978D01*
X1835912Y-4742687D02*
G01*
X1830578Y-4732273D01*
X1815084Y-4716779D01*
X1924050Y-4716779D01*
X2184400Y-5167884D02*
G01*
X2184400Y-5276850D01*
X2184400Y-5167884D02*
G01*
X2231136Y-5167884D01*
X2246629Y-5172963D01*
X2251963Y-5178297D01*
X2257043Y-5188712D01*
X2257043Y-5204205D01*
X2251963Y-5214620D01*
X2246629Y-5219700D01*
X2231136Y-5225034D01*
X2184400Y-5225034D01*
X2291334Y-5167884D02*
G01*
X2317495Y-5276850D01*
X2343404Y-5167884D02*
G01*
X2317495Y-5276850D01*
X2343404Y-5167884D02*
G01*
X2369311Y-5276850D01*
X2395220Y-5167884D02*
G01*
X2369311Y-5276850D01*
X2429509Y-5167884D02*
G01*
X2429509Y-5276850D01*
X2429509Y-5167884D02*
G01*
X2471165Y-5276850D01*
X2512822Y-5167884D02*
G01*
X2471165Y-5276850D01*
X2512822Y-5167884D02*
G01*
X2512822Y-5276850D01*
X2552191Y-5193792D02*
G01*
X2552191Y-5188712D01*
X2557525Y-5178297D01*
X2562606Y-5172963D01*
X2573020Y-5167884D01*
X2593847Y-5167884D01*
X2604261Y-5172963D01*
X2609341Y-5178297D01*
X2614675Y-5188712D01*
X2614675Y-5199126D01*
X2609341Y-5209539D01*
X2598927Y-5225034D01*
X2547111Y-5276850D01*
X2619756Y-5276850D01*
X3099815Y-4724400D02*
G01*
X2990850Y-4724400D01*
X3099815Y-4724400D02*
G01*
X3099815Y-4771136D01*
X3094736Y-4786629D01*
X3089402Y-4791963D01*
X3078988Y-4797044D01*
X3063493Y-4797044D01*
X3053079Y-4791963D01*
X3048000Y-4786629D01*
X3042665Y-4771136D01*
X3042665Y-4724400D01*
X3099815Y-4831334D02*
G01*
X2990850Y-4857495D01*
X3099815Y-4883404D02*
G01*
X2990850Y-4857495D01*
X3099815Y-4883404D02*
G01*
X2990850Y-4909312D01*
X3099815Y-4935220D02*
G01*
X2990850Y-4909312D01*
X3099815Y-4969510D02*
G01*
X2990850Y-4969510D01*
X3099815Y-4969510D02*
G01*
X2990850Y-5011165D01*
X3099815Y-5052821D02*
G01*
X2990850Y-5011165D01*
X3099815Y-5052821D02*
G01*
X2990850Y-5052821D01*
X3099815Y-5097526D02*
G01*
X3099815Y-5154676D01*
X3058159Y-5123434D01*
X3058159Y-5138928D01*
X3053079Y-5149342D01*
X3048000Y-5154676D01*
X3032252Y-5159755D01*
X3021838Y-5159755D01*
X3006343Y-5154676D01*
X2995929Y-5144262D01*
X2990850Y-5128513D01*
X2990850Y-5113020D01*
X2995929Y-5097526D01*
X3001009Y-5092192D01*
X3011424Y-5087112D01*
X3061715Y-3467100D02*
G01*
X2952750Y-3467100D01*
X3061715Y-3467100D02*
G01*
X3061715Y-3513836D01*
X3056636Y-3529329D01*
X3051302Y-3534663D01*
X3040888Y-3539744D01*
X3025393Y-3539744D01*
X3014979Y-3534663D01*
X3009900Y-3529329D01*
X3004565Y-3513836D01*
X3004565Y-3467100D01*
X3061715Y-3574034D02*
G01*
X2952750Y-3600195D01*
X3061715Y-3626104D02*
G01*
X2952750Y-3600195D01*
X3061715Y-3626104D02*
G01*
X2952750Y-3652012D01*
X3061715Y-3677920D02*
G01*
X2952750Y-3652012D01*
X3061715Y-3712210D02*
G01*
X2952750Y-3712210D01*
X3061715Y-3712210D02*
G01*
X2952750Y-3753865D01*
X3061715Y-3795521D02*
G01*
X2952750Y-3753865D01*
X3061715Y-3795521D02*
G01*
X2952750Y-3795521D01*
X3061715Y-3881628D02*
G01*
X2989072Y-3829812D01*
X2989072Y-3907789D01*
X3061715Y-3881628D02*
G01*
X2952750Y-3881628D01*
X3087115Y-2197100D02*
G01*
X2978150Y-2197100D01*
X3087115Y-2197100D02*
G01*
X3087115Y-2243836D01*
X3082036Y-2259329D01*
X3076702Y-2264663D01*
X3066288Y-2269744D01*
X3050793Y-2269744D01*
X3040379Y-2264663D01*
X3035300Y-2259329D01*
X3029965Y-2243836D01*
X3029965Y-2197100D01*
X3087115Y-2304034D02*
G01*
X2978150Y-2330195D01*
X3087115Y-2356104D02*
G01*
X2978150Y-2330195D01*
X3087115Y-2356104D02*
G01*
X2978150Y-2382012D01*
X3087115Y-2407920D02*
G01*
X2978150Y-2382012D01*
X3087115Y-2442210D02*
G01*
X2978150Y-2442210D01*
X3087115Y-2442210D02*
G01*
X2978150Y-2483865D01*
X3087115Y-2525521D02*
G01*
X2978150Y-2483865D01*
X3087115Y-2525521D02*
G01*
X2978150Y-2525521D01*
X3087115Y-2622042D02*
G01*
X3087115Y-2570226D01*
X3040379Y-2564892D01*
X3045459Y-2570226D01*
X3050793Y-2585720D01*
X3050793Y-2601213D01*
X3045459Y-2616962D01*
X3035300Y-2627376D01*
X3019552Y-2632455D01*
X3009138Y-2632455D01*
X2993643Y-2627376D01*
X2983229Y-2616962D01*
X2978150Y-2601213D01*
X2978150Y-2585720D01*
X2983229Y-2570226D01*
X2988309Y-2564892D01*
X2998724Y-2559812D01*
X3087115Y-939800D02*
G01*
X2978150Y-939800D01*
X3087115Y-939800D02*
G01*
X3087115Y-986536D01*
X3082036Y-1002029D01*
X3076702Y-1007363D01*
X3066288Y-1012444D01*
X3050793Y-1012444D01*
X3040379Y-1007363D01*
X3035300Y-1002029D01*
X3029965Y-986536D01*
X3029965Y-939800D01*
X3087115Y-1046734D02*
G01*
X2978150Y-1072895D01*
X3087115Y-1098804D02*
G01*
X2978150Y-1072895D01*
X3087115Y-1098804D02*
G01*
X2978150Y-1124712D01*
X3087115Y-1150620D02*
G01*
X2978150Y-1124712D01*
X3087115Y-1184910D02*
G01*
X2978150Y-1184910D01*
X3087115Y-1184910D02*
G01*
X2978150Y-1226565D01*
X3087115Y-1268221D02*
G01*
X2978150Y-1226565D01*
X3087115Y-1268221D02*
G01*
X2978150Y-1268221D01*
X3071622Y-1364742D02*
G01*
X3082036Y-1359662D01*
X3087115Y-1343913D01*
X3087115Y-1333500D01*
X3082036Y-1318005D01*
X3066288Y-1307592D01*
X3040379Y-1302512D01*
X3014472Y-1302512D01*
X2993643Y-1307592D01*
X2983229Y-1318005D01*
X2978150Y-1333500D01*
X2978150Y-1338834D01*
X2983229Y-1354328D01*
X2993643Y-1364742D01*
X3009138Y-1370076D01*
X3014472Y-1370076D01*
X3029965Y-1364742D01*
X3040379Y-1354328D01*
X3045459Y-1338834D01*
X3045459Y-1333500D01*
X3040379Y-1318005D01*
X3029965Y-1307592D01*
X3014472Y-1302512D01*
X658621Y-4200179D02*
G01*
X669036Y-4189765D01*
X674115Y-4174271D01*
X674115Y-4153443D01*
X669036Y-4137949D01*
X658621Y-4127535D01*
X648207Y-4127535D01*
X637794Y-4132615D01*
X632460Y-4137949D01*
X627379Y-4148363D01*
X616965Y-4179605D01*
X611886Y-4189765D01*
X606552Y-4195099D01*
X596137Y-4200179D01*
X580644Y-4200179D01*
X570229Y-4189765D01*
X565150Y-4174271D01*
X565150Y-4153443D01*
X570229Y-4137949D01*
X580644Y-4127535D01*
X674115Y-4234469D02*
G01*
X565150Y-4260631D01*
X674115Y-4286539D02*
G01*
X565150Y-4260631D01*
X674115Y-4286539D02*
G01*
X565150Y-4312447D01*
X674115Y-4338355D02*
G01*
X565150Y-4312447D01*
X528573Y-4372645D02*
G01*
X528573Y-4466371D01*
X674115Y-4500661D02*
G01*
X565150Y-4500661D01*
X674115Y-4500661D02*
G01*
X674115Y-4547397D01*
X669036Y-4562891D01*
X663702Y-4568225D01*
X653287Y-4573305D01*
X642873Y-4573305D01*
X632460Y-4568225D01*
X627379Y-4562891D01*
X622300Y-4547397D01*
X622300Y-4500661D02*
G01*
X622300Y-4547397D01*
X616965Y-4562891D01*
X611886Y-4568225D01*
X601471Y-4573305D01*
X585723Y-4573305D01*
X575310Y-4568225D01*
X570229Y-4562891D01*
X565150Y-4547397D01*
X565150Y-4500661D01*
X674115Y-4638837D02*
G01*
X669036Y-4628423D01*
X658621Y-4618009D01*
X648207Y-4612675D01*
X632460Y-4607595D01*
X606552Y-4607595D01*
X591057Y-4612675D01*
X580644Y-4618009D01*
X570229Y-4628423D01*
X565150Y-4638837D01*
X565150Y-4659665D01*
X570229Y-4669825D01*
X580644Y-4680239D01*
X591057Y-4685573D01*
X606552Y-4690653D01*
X632460Y-4690653D01*
X648207Y-4685573D01*
X658621Y-4680239D01*
X669036Y-4669825D01*
X674115Y-4659665D01*
X674115Y-4638837D01*
X674115Y-4756185D02*
G01*
X669036Y-4745771D01*
X658621Y-4735357D01*
X648207Y-4730277D01*
X632460Y-4724943D01*
X606552Y-4724943D01*
X591057Y-4730277D01*
X580644Y-4735357D01*
X570229Y-4745771D01*
X565150Y-4756185D01*
X565150Y-4777013D01*
X570229Y-4787427D01*
X580644Y-4797841D01*
X591057Y-4802921D01*
X606552Y-4808255D01*
X632460Y-4808255D01*
X648207Y-4802921D01*
X658621Y-4797841D01*
X669036Y-4787427D01*
X674115Y-4777013D01*
X674115Y-4756185D01*
X674115Y-4878867D02*
G01*
X565150Y-4878867D01*
X674115Y-4842545D02*
G01*
X674115Y-4915189D01*
X1065784Y-4851400D02*
G01*
X1174750Y-4778755D01*
X1065784Y-4778755D02*
G01*
X1174750Y-4851400D01*
X1086612Y-4744465D02*
G01*
X1081278Y-4734052D01*
X1065784Y-4718304D01*
X1174750Y-4718304D01*
X1841500Y648715D02*
G01*
X1841500Y539750D01*
X1841500Y648715D02*
G01*
X1888236Y648715D01*
X1903729Y643636D01*
X1909063Y638302D01*
X1914144Y627887D01*
X1914144Y617473D01*
X1909063Y607060D01*
X1903729Y601979D01*
X1888236Y596900D01*
X1841500Y596900D01*
X1877821Y596900D02*
G01*
X1914144Y539750D01*
X1948434Y648715D02*
G01*
X1948434Y539750D01*
X1948434Y648715D02*
G01*
X2015997Y648715D01*
X1948434Y596900D02*
G01*
X1990090Y596900D01*
X1948434Y539750D02*
G01*
X2015997Y539750D01*
X2128265Y622807D02*
G01*
X2123186Y633221D01*
X2112772Y643636D01*
X2102358Y648715D01*
X2081529Y648715D01*
X2071115Y643636D01*
X2060702Y633221D01*
X2055622Y622807D01*
X2050288Y607060D01*
X2050288Y581152D01*
X2055622Y565657D01*
X2060702Y555244D01*
X2071115Y544829D01*
X2081529Y539750D01*
X2102358Y539750D01*
X2112772Y544829D01*
X2123186Y555244D01*
X2128265Y565657D01*
X2128265Y581152D01*
X2102358Y581152D02*
G01*
X2128265Y581152D01*
X2172970Y648715D02*
G01*
X2230120Y648715D01*
X2198877Y607060D01*
X2214625Y607060D01*
X2225040Y601979D01*
X2230120Y596900D01*
X2235200Y581152D01*
X2235200Y570737D01*
X2230120Y555244D01*
X2219706Y544829D01*
X2204211Y539750D01*
X2188463Y539750D01*
X2172970Y544829D01*
X2167890Y549910D01*
X2162556Y560323D01*
X152400Y623315D02*
G01*
X152400Y545337D01*
X157479Y529844D01*
X167894Y519429D01*
X183642Y514350D01*
X194055Y514350D01*
X209550Y519429D01*
X219963Y529844D01*
X225044Y545337D01*
X225044Y623315D01*
X332231Y607821D02*
G01*
X321818Y618236D01*
X306070Y623315D01*
X285495Y623315D01*
X269747Y618236D01*
X259334Y607821D01*
X259334Y597407D01*
X264668Y586994D01*
X269747Y581660D01*
X280162Y576579D01*
X311404Y566165D01*
X321818Y561086D01*
X326897Y555752D01*
X332231Y545337D01*
X332231Y529844D01*
X321818Y519429D01*
X306070Y514350D01*
X285495Y514350D01*
X269747Y519429D01*
X259334Y529844D01*
X366521Y623315D02*
G01*
X366521Y514350D01*
X366521Y623315D02*
G01*
X413257Y623315D01*
X428752Y618236D01*
X434086Y612902D01*
X439165Y602487D01*
X439165Y592073D01*
X434086Y581660D01*
X428752Y576579D01*
X413257Y571500D01*
X366521Y571500D02*
G01*
X413257Y571500D01*
X428752Y566165D01*
X434086Y561086D01*
X439165Y550671D01*
X439165Y534923D01*
X434086Y524510D01*
X428752Y519429D01*
X413257Y514350D01*
X366521Y514350D01*
X468121Y-555244D02*
G01*
X478536Y-544829D01*
X483615Y-529336D01*
X483615Y-508507D01*
X478536Y-493013D01*
X468121Y-482600D01*
X457707Y-482600D01*
X447294Y-487679D01*
X441960Y-493013D01*
X436879Y-503428D01*
X426465Y-534670D01*
X421386Y-544829D01*
X416052Y-550163D01*
X405637Y-555244D01*
X390144Y-555244D01*
X379729Y-544829D01*
X374650Y-529336D01*
X374650Y-508507D01*
X379729Y-493013D01*
X390144Y-482600D01*
X483615Y-589534D02*
G01*
X374650Y-615695D01*
X483615Y-641604D02*
G01*
X374650Y-615695D01*
X483615Y-641604D02*
G01*
X374650Y-667512D01*
X483615Y-693420D02*
G01*
X374650Y-667512D01*
X483615Y-727710D02*
G01*
X374650Y-727710D01*
X483615Y-727710D02*
G01*
X483615Y-764286D01*
X478536Y-779779D01*
X468121Y-790194D01*
X457707Y-795273D01*
X441960Y-800607D01*
X416052Y-800607D01*
X400557Y-795273D01*
X390144Y-790194D01*
X379729Y-779779D01*
X374650Y-764286D01*
X374650Y-727710D01*
X483615Y-834897D02*
G01*
X374650Y-834897D01*
X483615Y-834897D02*
G01*
X483615Y-881634D01*
X478536Y-897128D01*
X473202Y-902462D01*
X462787Y-907542D01*
X452373Y-907542D01*
X441960Y-902462D01*
X436879Y-897128D01*
X431800Y-881634D01*
X431800Y-834897D02*
G01*
X431800Y-881634D01*
X426465Y-897128D01*
X421386Y-902462D01*
X410971Y-907542D01*
X395223Y-907542D01*
X384810Y-902462D01*
X379729Y-897128D01*
X374650Y-881634D01*
X374650Y-834897D01*
X457707Y-1019810D02*
G01*
X468121Y-1014729D01*
X478536Y-1004315D01*
X483615Y-993902D01*
X483615Y-973073D01*
X478536Y-962660D01*
X468121Y-952245D01*
X457707Y-947165D01*
X441960Y-941831D01*
X416052Y-941831D01*
X400557Y-947165D01*
X390144Y-952245D01*
X379729Y-962660D01*
X374650Y-973073D01*
X374650Y-993902D01*
X379729Y-1004315D01*
X390144Y-1014729D01*
X400557Y-1019810D01*
X416052Y-1019810D01*
X416052Y-993902D02*
G01*
X416052Y-1019810D01*
X1409700Y-62484D02*
G01*
X1409700Y-140462D01*
X1414779Y-155955D01*
X1425194Y-166370D01*
X1440942Y-171450D01*
X1451355Y-171450D01*
X1466850Y-166370D01*
X1477263Y-155955D01*
X1482344Y-140462D01*
X1482344Y-62484D01*
X1558289Y-62484D02*
G01*
X1516634Y-171450D01*
X1558289Y-62484D02*
G01*
X1599945Y-171450D01*
X1532381Y-135128D02*
G01*
X1584197Y-135128D01*
X1634236Y-62484D02*
G01*
X1634236Y-171450D01*
X1634236Y-62484D02*
G01*
X1680971Y-62484D01*
X1696465Y-67563D01*
X1701800Y-72897D01*
X1706879Y-83312D01*
X1706879Y-93726D01*
X1701800Y-104139D01*
X1696465Y-109220D01*
X1680971Y-114300D01*
X1634236Y-114300D01*
X1670557Y-114300D02*
G01*
X1706879Y-171450D01*
X1777492Y-62484D02*
G01*
X1777492Y-171450D01*
X1741170Y-62484D02*
G01*
X1813813Y-62484D01*
X5789675Y-177292D02*
G01*
X5748020Y-68326D01*
X5706618Y-177292D02*
G01*
X5748020Y-68326D01*
X5672327Y-177292D02*
G01*
X5672327Y-68326D01*
X5672327Y-177292D02*
G01*
X5630672Y-68326D01*
X5589015Y-177292D02*
G01*
X5630672Y-68326D01*
X5589015Y-177292D02*
G01*
X5589015Y-68326D01*
X687578Y-990092D02*
G01*
X682244Y-979678D01*
X671829Y-969263D01*
X661670Y-964184D01*
X640842Y-964184D01*
X630428Y-969263D01*
X620013Y-979678D01*
X614679Y-990092D01*
X609600Y-1005839D01*
X609600Y-1031747D01*
X614679Y-1047242D01*
X620013Y-1057655D01*
X630428Y-1068070D01*
X640842Y-1073150D01*
X661670Y-1073150D01*
X671829Y-1068070D01*
X682244Y-1057655D01*
X687578Y-1047242D01*
X721868Y-985012D02*
G01*
X732281Y-979678D01*
X747776Y-964184D01*
X747776Y-1073150D01*
X903478Y-990092D02*
G01*
X898144Y-979678D01*
X887729Y-969263D01*
X877570Y-964184D01*
X856742Y-964184D01*
X846328Y-969263D01*
X835913Y-979678D01*
X830579Y-990092D01*
X825500Y-1005839D01*
X825500Y-1031747D01*
X830579Y-1047242D01*
X835913Y-1057655D01*
X846328Y-1068070D01*
X856742Y-1073150D01*
X877570Y-1073150D01*
X887729Y-1068070D01*
X898144Y-1057655D01*
X903478Y-1047242D01*
X942847Y-990092D02*
G01*
X942847Y-985012D01*
X948181Y-974597D01*
X953262Y-969263D01*
X963676Y-964184D01*
X984504Y-964184D01*
X994918Y-969263D01*
X999997Y-974597D01*
X1005331Y-985012D01*
X1005331Y-995426D01*
X999997Y-1005839D01*
X989584Y-1021334D01*
X937768Y-1073150D01*
X1010412Y-1073150D01*
X2540508Y-1767078D02*
G01*
X2550922Y-1761744D01*
X2561336Y-1751329D01*
X2566415Y-1741170D01*
X2566415Y-1720342D01*
X2561336Y-1709928D01*
X2550922Y-1699513D01*
X2540508Y-1694179D01*
X2524759Y-1689100D01*
X2498852Y-1689100D01*
X2483358Y-1694179D01*
X2472943Y-1699513D01*
X2462529Y-1709928D01*
X2457450Y-1720342D01*
X2457450Y-1741170D01*
X2462529Y-1751329D01*
X2472943Y-1761744D01*
X2483358Y-1767078D01*
X2566415Y-1811781D02*
G01*
X2566415Y-1868931D01*
X2524759Y-1837689D01*
X2524759Y-1853184D01*
X2519679Y-1863597D01*
X2514600Y-1868931D01*
X2498852Y-1874012D01*
X2488438Y-1874012D01*
X2472943Y-1868931D01*
X2462529Y-1858518D01*
X2457450Y-1842770D01*
X2457450Y-1827276D01*
X2462529Y-1811781D01*
X2467609Y-1806447D01*
X2478024Y-1801368D01*
X1957577Y-2958592D02*
G01*
X1952243Y-2948178D01*
X1941829Y-2937763D01*
X1931670Y-2932684D01*
X1910842Y-2932684D01*
X1900428Y-2937763D01*
X1890013Y-2948178D01*
X1884679Y-2958592D01*
X1879600Y-2974339D01*
X1879600Y-3000247D01*
X1884679Y-3015742D01*
X1890013Y-3026155D01*
X1900428Y-3036570D01*
X1910842Y-3041650D01*
X1931670Y-3041650D01*
X1941829Y-3036570D01*
X1952243Y-3026155D01*
X1957577Y-3015742D01*
X2043684Y-2932684D02*
G01*
X1991868Y-3005328D01*
X2069845Y-3005328D01*
X2043684Y-2932684D02*
G01*
X2043684Y-3041650D01*
X1309878Y-3123692D02*
G01*
X1304544Y-3113278D01*
X1294129Y-3102863D01*
X1283970Y-3097784D01*
X1263142Y-3097784D01*
X1252728Y-3102863D01*
X1242313Y-3113278D01*
X1236979Y-3123692D01*
X1231900Y-3139439D01*
X1231900Y-3165347D01*
X1236979Y-3180842D01*
X1242313Y-3191255D01*
X1252728Y-3201670D01*
X1263142Y-3206750D01*
X1283970Y-3206750D01*
X1294129Y-3201670D01*
X1304544Y-3191255D01*
X1309878Y-3180842D01*
X1406397Y-3097784D02*
G01*
X1354581Y-3097784D01*
X1349247Y-3144520D01*
X1354581Y-3139439D01*
X1370076Y-3134105D01*
X1385570Y-3134105D01*
X1401318Y-3139439D01*
X1411731Y-3149600D01*
X1416812Y-3165347D01*
X1416812Y-3175762D01*
X1411731Y-3191255D01*
X1401318Y-3201670D01*
X1385570Y-3206750D01*
X1370076Y-3206750D01*
X1354581Y-3201670D01*
X1349247Y-3196589D01*
X1344168Y-3186176D01*
X1894078Y-3301492D02*
G01*
X1888744Y-3291078D01*
X1878329Y-3280663D01*
X1868170Y-3275584D01*
X1847342Y-3275584D01*
X1836928Y-3280663D01*
X1826513Y-3291078D01*
X1821179Y-3301492D01*
X1816100Y-3317239D01*
X1816100Y-3343147D01*
X1821179Y-3358642D01*
X1826513Y-3369055D01*
X1836928Y-3379470D01*
X1847342Y-3384550D01*
X1868170Y-3384550D01*
X1878329Y-3379470D01*
X1888744Y-3369055D01*
X1894078Y-3358642D01*
X1990597Y-3291078D02*
G01*
X1985518Y-3280663D01*
X1969770Y-3275584D01*
X1959609Y-3275584D01*
X1943861Y-3280663D01*
X1933447Y-3296412D01*
X1928368Y-3322320D01*
X1928368Y-3348228D01*
X1933447Y-3369055D01*
X1943861Y-3379470D01*
X1959609Y-3384550D01*
X1964690Y-3384550D01*
X1980184Y-3379470D01*
X1990597Y-3369055D01*
X1995931Y-3353562D01*
X1995931Y-3348228D01*
X1990597Y-3332734D01*
X1980184Y-3322320D01*
X1964690Y-3317239D01*
X1959609Y-3317239D01*
X1943861Y-3322320D01*
X1933447Y-3332734D01*
X1928368Y-3348228D01*
X748792Y230378D02*
G01*
X738378Y225044D01*
X727963Y214629D01*
X722884Y204470D01*
X722884Y183642D01*
X727963Y173228D01*
X738378Y162813D01*
X748792Y157479D01*
X764539Y152400D01*
X790447Y152400D01*
X805942Y157479D01*
X816355Y162813D01*
X826770Y173228D01*
X831850Y183642D01*
X831850Y204470D01*
X826770Y214629D01*
X816355Y225044D01*
X805942Y230378D01*
X722884Y337312D02*
G01*
X831850Y285495D01*
X722884Y264668D02*
G01*
X722884Y337312D01*
X789178Y724407D02*
G01*
X783844Y734821D01*
X773429Y745236D01*
X763270Y750315D01*
X742442Y750315D01*
X732028Y745236D01*
X721613Y734821D01*
X716279Y724407D01*
X711200Y708660D01*
X711200Y682752D01*
X716279Y667257D01*
X721613Y656844D01*
X732028Y646429D01*
X742442Y641350D01*
X763270Y641350D01*
X773429Y646429D01*
X783844Y656844D01*
X789178Y667257D01*
X849376Y750315D02*
G01*
X833881Y745236D01*
X828547Y734821D01*
X828547Y724407D01*
X833881Y713994D01*
X844295Y708660D01*
X864870Y703579D01*
X880618Y698500D01*
X891031Y688086D01*
X896112Y677671D01*
X896112Y661923D01*
X891031Y651510D01*
X885697Y646429D01*
X870204Y641350D01*
X849376Y641350D01*
X833881Y646429D01*
X828547Y651510D01*
X823468Y661923D01*
X823468Y677671D01*
X828547Y688086D01*
X838962Y698500D01*
X854710Y703579D01*
X875284Y708660D01*
X885697Y713994D01*
X891031Y724407D01*
X891031Y734821D01*
X885697Y745236D01*
X870204Y750315D01*
X849376Y750315D01*
X852678Y-4165092D02*
G01*
X847344Y-4154678D01*
X836929Y-4144263D01*
X826770Y-4139184D01*
X805942Y-4139184D01*
X795528Y-4144263D01*
X785113Y-4154678D01*
X779779Y-4165092D01*
X774700Y-4180839D01*
X774700Y-4206747D01*
X779779Y-4222242D01*
X785113Y-4232655D01*
X795528Y-4243070D01*
X805942Y-4248150D01*
X826770Y-4248150D01*
X836929Y-4243070D01*
X847344Y-4232655D01*
X852678Y-4222242D01*
X886968Y-4160012D02*
G01*
X897381Y-4154678D01*
X912876Y-4139184D01*
X912876Y-4248150D01*
X999236Y-4139184D02*
G01*
X947165Y-4211828D01*
X1025144Y-4211828D01*
X999236Y-4139184D02*
G01*
X999236Y-4248150D01*
X497078Y-3593592D02*
G01*
X491744Y-3583178D01*
X481329Y-3572763D01*
X471170Y-3567684D01*
X450342Y-3567684D01*
X439928Y-3572763D01*
X429513Y-3583178D01*
X424179Y-3593592D01*
X419100Y-3609339D01*
X419100Y-3635247D01*
X424179Y-3650742D01*
X429513Y-3661155D01*
X439928Y-3671570D01*
X450342Y-3676650D01*
X471170Y-3676650D01*
X481329Y-3671570D01*
X491744Y-3661155D01*
X497078Y-3650742D01*
X531368Y-3588512D02*
G01*
X541781Y-3583178D01*
X557276Y-3567684D01*
X557276Y-3676650D01*
X654050Y-3567684D02*
G01*
X601979Y-3567684D01*
X596900Y-3614420D01*
X601979Y-3609339D01*
X617473Y-3604005D01*
X633221Y-3604005D01*
X648715Y-3609339D01*
X659129Y-3619500D01*
X664210Y-3635247D01*
X664210Y-3645662D01*
X659129Y-3661155D01*
X648715Y-3671570D01*
X633221Y-3676650D01*
X617473Y-3676650D01*
X601979Y-3671570D01*
X596900Y-3666489D01*
X591565Y-3656076D01*
X700278Y-3339592D02*
G01*
X694944Y-3329178D01*
X684529Y-3318763D01*
X674370Y-3313684D01*
X653542Y-3313684D01*
X643128Y-3318763D01*
X632713Y-3329178D01*
X627379Y-3339592D01*
X622300Y-3355339D01*
X622300Y-3381247D01*
X627379Y-3396742D01*
X632713Y-3407155D01*
X643128Y-3417570D01*
X653542Y-3422650D01*
X674370Y-3422650D01*
X684529Y-3417570D01*
X694944Y-3407155D01*
X700278Y-3396742D01*
X734568Y-3334512D02*
G01*
X744981Y-3329178D01*
X760476Y-3313684D01*
X760476Y-3422650D01*
X857250Y-3329178D02*
G01*
X851915Y-3318763D01*
X836421Y-3313684D01*
X826007Y-3313684D01*
X810260Y-3318763D01*
X800100Y-3334512D01*
X794765Y-3360420D01*
X794765Y-3386328D01*
X800100Y-3407155D01*
X810260Y-3417570D01*
X826007Y-3422650D01*
X831087Y-3422650D01*
X846836Y-3417570D01*
X857250Y-3407155D01*
X862329Y-3391662D01*
X862329Y-3386328D01*
X857250Y-3370834D01*
X846836Y-3360420D01*
X831087Y-3355339D01*
X826007Y-3355339D01*
X810260Y-3360420D01*
X800100Y-3370834D01*
X794765Y-3386328D01*
X585978Y-3060192D02*
G01*
X580644Y-3049778D01*
X570229Y-3039363D01*
X560070Y-3034284D01*
X539242Y-3034284D01*
X528828Y-3039363D01*
X518413Y-3049778D01*
X513079Y-3060192D01*
X508000Y-3075939D01*
X508000Y-3101847D01*
X513079Y-3117342D01*
X518413Y-3127755D01*
X528828Y-3138170D01*
X539242Y-3143250D01*
X560070Y-3143250D01*
X570229Y-3138170D01*
X580644Y-3127755D01*
X585978Y-3117342D01*
X620268Y-3055112D02*
G01*
X630681Y-3049778D01*
X646176Y-3034284D01*
X646176Y-3143250D01*
X753110Y-3034284D02*
G01*
X701294Y-3143250D01*
X680465Y-3034284D02*
G01*
X753110Y-3034284D01*
X585978Y-2856992D02*
G01*
X580644Y-2846578D01*
X570229Y-2836163D01*
X560070Y-2831084D01*
X539242Y-2831084D01*
X528828Y-2836163D01*
X518413Y-2846578D01*
X513079Y-2856992D01*
X508000Y-2872739D01*
X508000Y-2898647D01*
X513079Y-2914142D01*
X518413Y-2924555D01*
X528828Y-2934970D01*
X539242Y-2940050D01*
X560070Y-2940050D01*
X570229Y-2934970D01*
X580644Y-2924555D01*
X585978Y-2914142D01*
X620268Y-2851912D02*
G01*
X630681Y-2846578D01*
X646176Y-2831084D01*
X646176Y-2940050D01*
X706373Y-2831084D02*
G01*
X690879Y-2836163D01*
X685800Y-2846578D01*
X685800Y-2856992D01*
X690879Y-2867405D01*
X701294Y-2872739D01*
X722121Y-2877820D01*
X737615Y-2882900D01*
X748029Y-2893313D01*
X753110Y-2903728D01*
X753110Y-2919476D01*
X748029Y-2929889D01*
X742950Y-2934970D01*
X727202Y-2940050D01*
X706373Y-2940050D01*
X690879Y-2934970D01*
X685800Y-2929889D01*
X680465Y-2919476D01*
X680465Y-2903728D01*
X685800Y-2893313D01*
X695960Y-2882900D01*
X711707Y-2877820D01*
X732536Y-2872739D01*
X742950Y-2867405D01*
X748029Y-2856992D01*
X748029Y-2846578D01*
X742950Y-2836163D01*
X727202Y-2831084D01*
X706373Y-2831084D01*
X3251200Y-4278884D02*
G01*
X3251200Y-4387850D01*
X3251200Y-4278884D02*
G01*
X3297936Y-4278884D01*
X3313429Y-4283963D01*
X3318763Y-4289297D01*
X3323843Y-4299712D01*
X3323843Y-4310126D01*
X3318763Y-4320539D01*
X3313429Y-4325620D01*
X3297936Y-4330700D01*
X3251200Y-4330700D01*
X3287522Y-4330700D02*
G01*
X3323843Y-4387850D01*
X3363468Y-4304792D02*
G01*
X3363468Y-4299712D01*
X3368547Y-4289297D01*
X3373881Y-4283963D01*
X3384295Y-4278884D01*
X3404870Y-4278884D01*
X3415284Y-4283963D01*
X3420618Y-4289297D01*
X3425697Y-4299712D01*
X3425697Y-4310126D01*
X3420618Y-4320539D01*
X3410204Y-4336034D01*
X3358134Y-4387850D01*
X3431031Y-4387850D01*
X3238500Y-3021584D02*
G01*
X3238500Y-3130550D01*
X3238500Y-3021584D02*
G01*
X3285236Y-3021584D01*
X3300729Y-3026663D01*
X3306063Y-3031997D01*
X3311143Y-3042412D01*
X3311143Y-3052826D01*
X3306063Y-3063239D01*
X3300729Y-3068320D01*
X3285236Y-3073400D01*
X3238500Y-3073400D01*
X3274822Y-3073400D02*
G01*
X3311143Y-3130550D01*
X3355847Y-3021584D02*
G01*
X3412997Y-3021584D01*
X3382009Y-3063239D01*
X3397504Y-3063239D01*
X3407918Y-3068320D01*
X3412997Y-3073400D01*
X3418331Y-3089147D01*
X3418331Y-3099562D01*
X3412997Y-3115055D01*
X3402584Y-3125470D01*
X3387090Y-3130550D01*
X3371595Y-3130550D01*
X3355847Y-3125470D01*
X3350768Y-3120389D01*
X3345434Y-3109976D01*
X3251200Y-1751584D02*
G01*
X3251200Y-1860550D01*
X3251200Y-1751584D02*
G01*
X3297936Y-1751584D01*
X3313429Y-1756663D01*
X3318763Y-1761997D01*
X3323843Y-1772412D01*
X3323843Y-1782826D01*
X3318763Y-1793239D01*
X3313429Y-1798320D01*
X3297936Y-1803400D01*
X3251200Y-1803400D01*
X3287522Y-1803400D02*
G01*
X3323843Y-1860550D01*
X3410204Y-1751584D02*
G01*
X3358134Y-1824228D01*
X3436111Y-1824228D01*
X3410204Y-1751584D02*
G01*
X3410204Y-1860550D01*
X3238500Y-494284D02*
G01*
X3238500Y-603250D01*
X3238500Y-494284D02*
G01*
X3285236Y-494284D01*
X3300729Y-499363D01*
X3306063Y-504697D01*
X3311143Y-515112D01*
X3311143Y-525526D01*
X3306063Y-535939D01*
X3300729Y-541020D01*
X3285236Y-546100D01*
X3238500Y-546100D01*
X3274822Y-546100D02*
G01*
X3311143Y-603250D01*
X3407918Y-494284D02*
G01*
X3355847Y-494284D01*
X3350768Y-541020D01*
X3355847Y-535939D01*
X3371595Y-530605D01*
X3387090Y-530605D01*
X3402584Y-535939D01*
X3412997Y-546100D01*
X3418331Y-561847D01*
X3418331Y-572262D01*
X3412997Y-587755D01*
X3402584Y-598170D01*
X3387090Y-603250D01*
X3371595Y-603250D01*
X3355847Y-598170D01*
X3350768Y-593089D01*
X3345434Y-582676D01*
X5093715Y-5080000D02*
G01*
X4984750Y-5080000D01*
X5093715Y-5080000D02*
G01*
X5093715Y-5126736D01*
X5088636Y-5142229D01*
X5083302Y-5147563D01*
X5072888Y-5152644D01*
X5062474Y-5152644D01*
X5052059Y-5147563D01*
X5046979Y-5142229D01*
X5041900Y-5126736D01*
X5041900Y-5080000D01*
X5041900Y-5116321D02*
G01*
X4984750Y-5152644D01*
X5078222Y-5249418D02*
G01*
X5088636Y-5244084D01*
X5093715Y-5228589D01*
X5093715Y-5218176D01*
X5088636Y-5202681D01*
X5072888Y-5192268D01*
X5046979Y-5186934D01*
X5021072Y-5186934D01*
X5000243Y-5192268D01*
X4989829Y-5202681D01*
X4984750Y-5218176D01*
X4984750Y-5223510D01*
X4989829Y-5239004D01*
X5000243Y-5249418D01*
X5015738Y-5254497D01*
X5021072Y-5254497D01*
X5036565Y-5249418D01*
X5046979Y-5239004D01*
X5052059Y-5223510D01*
X5052059Y-5218176D01*
X5046979Y-5202681D01*
X5036565Y-5192268D01*
X5021072Y-5186934D01*
X5106415Y-3822700D02*
G01*
X4997450Y-3822700D01*
X5106415Y-3822700D02*
G01*
X5106415Y-3869436D01*
X5101336Y-3884929D01*
X5096002Y-3890263D01*
X5085588Y-3895344D01*
X5075174Y-3895344D01*
X5064759Y-3890263D01*
X5059679Y-3884929D01*
X5054600Y-3869436D01*
X5054600Y-3822700D01*
X5054600Y-3859021D02*
G01*
X4997450Y-3895344D01*
X5106415Y-4002531D02*
G01*
X4997450Y-3950462D01*
X5106415Y-3929634D02*
G01*
X5106415Y-4002531D01*
X5106415Y-2565400D02*
G01*
X4997450Y-2565400D01*
X5106415Y-2565400D02*
G01*
X5106415Y-2612136D01*
X5101336Y-2627629D01*
X5096002Y-2632963D01*
X5085588Y-2638044D01*
X5075174Y-2638044D01*
X5064759Y-2632963D01*
X5059679Y-2627629D01*
X5054600Y-2612136D01*
X5054600Y-2565400D01*
X5054600Y-2601721D02*
G01*
X4997450Y-2638044D01*
X5106415Y-2698495D02*
G01*
X5101336Y-2682747D01*
X5090922Y-2677668D01*
X5080508Y-2677668D01*
X5070093Y-2682747D01*
X5064759Y-2693162D01*
X5059679Y-2713989D01*
X5054600Y-2729484D01*
X5044186Y-2739897D01*
X5033772Y-2745231D01*
X5018024Y-2745231D01*
X5007609Y-2739897D01*
X5002529Y-2734818D01*
X4997450Y-2719070D01*
X4997450Y-2698495D01*
X5002529Y-2682747D01*
X5007609Y-2677668D01*
X5018024Y-2672334D01*
X5033772Y-2672334D01*
X5044186Y-2677668D01*
X5054600Y-2688081D01*
X5059679Y-2703576D01*
X5064759Y-2724404D01*
X5070093Y-2734818D01*
X5080508Y-2739897D01*
X5090922Y-2739897D01*
X5101336Y-2734818D01*
X5106415Y-2719070D01*
X5106415Y-2698495D01*
X5131815Y-1308100D02*
G01*
X5022850Y-1308100D01*
X5131815Y-1308100D02*
G01*
X5131815Y-1354836D01*
X5126736Y-1370329D01*
X5121402Y-1375663D01*
X5110988Y-1380744D01*
X5100574Y-1380744D01*
X5090159Y-1375663D01*
X5085079Y-1370329D01*
X5080000Y-1354836D01*
X5080000Y-1308100D01*
X5080000Y-1344421D02*
G01*
X5022850Y-1380744D01*
X5095493Y-1482597D02*
G01*
X5080000Y-1477518D01*
X5069586Y-1467104D01*
X5064252Y-1451610D01*
X5064252Y-1446276D01*
X5069586Y-1430781D01*
X5080000Y-1420368D01*
X5095493Y-1415034D01*
X5100574Y-1415034D01*
X5116322Y-1420368D01*
X5126736Y-1430781D01*
X5131815Y-1446276D01*
X5131815Y-1451610D01*
X5126736Y-1467104D01*
X5116322Y-1477518D01*
X5095493Y-1482597D01*
X5069586Y-1482597D01*
X5043424Y-1477518D01*
X5027929Y-1467104D01*
X5022850Y-1451610D01*
X5022850Y-1441195D01*
X5027929Y-1425447D01*
X5038343Y-1420368D01*
X4863084Y-1003300D02*
G01*
X4972050Y-1003300D01*
X4863084Y-1003300D02*
G01*
X4863084Y-956563D01*
X4868163Y-941070D01*
X4873497Y-935736D01*
X4883911Y-930655D01*
X4894325Y-930655D01*
X4904740Y-935736D01*
X4909820Y-941070D01*
X4914900Y-956563D01*
X4914900Y-1003300D01*
X4914900Y-966978D02*
G01*
X4972050Y-930655D01*
X4883911Y-896365D02*
G01*
X4878577Y-885952D01*
X4863084Y-870204D01*
X4972050Y-870204D01*
X4863084Y-804926D02*
G01*
X4868163Y-820420D01*
X4883911Y-830834D01*
X4909820Y-835913D01*
X4925313Y-835913D01*
X4951475Y-830834D01*
X4966970Y-820420D01*
X4972050Y-804926D01*
X4972050Y-794512D01*
X4966970Y-778763D01*
X4951475Y-768350D01*
X4925313Y-763270D01*
X4909820Y-763270D01*
X4883911Y-768350D01*
X4868163Y-778763D01*
X4863084Y-794512D01*
X4863084Y-804926D01*
X4888484Y-3632200D02*
G01*
X4997450Y-3632200D01*
X4888484Y-3632200D02*
G01*
X4888484Y-3585463D01*
X4893563Y-3569970D01*
X4898897Y-3564636D01*
X4909311Y-3559555D01*
X4919725Y-3559555D01*
X4930140Y-3564636D01*
X4935220Y-3569970D01*
X4940300Y-3585463D01*
X4940300Y-3632200D01*
X4940300Y-3595878D02*
G01*
X4997450Y-3559555D01*
X4909311Y-3525265D02*
G01*
X4903977Y-3514852D01*
X4888484Y-3499104D01*
X4997450Y-3499104D01*
X4909311Y-3464813D02*
G01*
X4903977Y-3454400D01*
X4888484Y-3438905D01*
X4997450Y-3438905D01*
X864615Y-2476500D02*
G01*
X755650Y-2476500D01*
X864615Y-2476500D02*
G01*
X864615Y-2523236D01*
X859536Y-2538729D01*
X854202Y-2544063D01*
X843787Y-2549144D01*
X833373Y-2549144D01*
X822960Y-2544063D01*
X817879Y-2538729D01*
X812800Y-2523236D01*
X812800Y-2476500D01*
X812800Y-2512821D02*
G01*
X755650Y-2549144D01*
X843787Y-2583434D02*
G01*
X849121Y-2593847D01*
X864615Y-2609595D01*
X755650Y-2609595D01*
X838707Y-2648965D02*
G01*
X843787Y-2648965D01*
X854202Y-2654300D01*
X859536Y-2659379D01*
X864615Y-2669794D01*
X864615Y-2690621D01*
X859536Y-2701036D01*
X854202Y-2706115D01*
X843787Y-2711450D01*
X833373Y-2711450D01*
X822960Y-2706115D01*
X807465Y-2695702D01*
X755650Y-2643886D01*
X755650Y-2716529D01*
X3009900Y521715D02*
G01*
X3009900Y412750D01*
X3009900Y521715D02*
G01*
X3056636Y521715D01*
X3072129Y516636D01*
X3077463Y511302D01*
X3082543Y500887D01*
X3082543Y490473D01*
X3077463Y480060D01*
X3072129Y474979D01*
X3056636Y469900D01*
X3009900Y469900D01*
X3046222Y469900D02*
G01*
X3082543Y412750D01*
X3116834Y500887D02*
G01*
X3127247Y506221D01*
X3142995Y521715D01*
X3142995Y412750D01*
X3187700Y521715D02*
G01*
X3244850Y521715D01*
X3213608Y480060D01*
X3229102Y480060D01*
X3239515Y474979D01*
X3244850Y469900D01*
X3249929Y454152D01*
X3249929Y443737D01*
X3244850Y428244D01*
X3234436Y417829D01*
X3218688Y412750D01*
X3203193Y412750D01*
X3187700Y417829D01*
X3182365Y422910D01*
X3177286Y433323D01*
X4114800Y356615D02*
G01*
X4114800Y278637D01*
X4119879Y263144D01*
X4130293Y252729D01*
X4146041Y247650D01*
X4156456Y247650D01*
X4171950Y252729D01*
X4182363Y263144D01*
X4187443Y278637D01*
X4187443Y356615D01*
X4221734Y335787D02*
G01*
X4232147Y341121D01*
X4247895Y356615D01*
X4247895Y247650D01*
X863600Y-4558284D02*
G01*
X863600Y-4636262D01*
X868679Y-4651755D01*
X879094Y-4662170D01*
X894842Y-4667250D01*
X905255Y-4667250D01*
X920750Y-4662170D01*
X931163Y-4651755D01*
X936244Y-4636262D01*
X936244Y-4558284D01*
X975868Y-4584192D02*
G01*
X975868Y-4579112D01*
X980947Y-4568697D01*
X986281Y-4563363D01*
X996695Y-4558284D01*
X1017270Y-4558284D01*
X1027684Y-4563363D01*
X1033018Y-4568697D01*
X1038097Y-4579112D01*
X1038097Y-4589526D01*
X1033018Y-4599939D01*
X1022604Y-4615434D01*
X970534Y-4667250D01*
X1043431Y-4667250D01*
X5880100Y-4609084D02*
G01*
X5880100Y-4687062D01*
X5885179Y-4702555D01*
X5895593Y-4712970D01*
X5911341Y-4718050D01*
X5921756Y-4718050D01*
X5937250Y-4712970D01*
X5947663Y-4702555D01*
X5952743Y-4687062D01*
X5952743Y-4609084D01*
X5997447Y-4609084D02*
G01*
X6054597Y-4609084D01*
X6023609Y-4650739D01*
X6039104Y-4650739D01*
X6049518Y-4655820D01*
X6054597Y-4660900D01*
X6059931Y-4676647D01*
X6059931Y-4687062D01*
X6054597Y-4702555D01*
X6044184Y-4712970D01*
X6028690Y-4718050D01*
X6013195Y-4718050D01*
X5997447Y-4712970D01*
X5992368Y-4707889D01*
X5987034Y-4697476D01*
G36*
X5919825Y-1841500D02*
G01*
X5919825Y-2171700D01*
X5929376Y-2161946D01*
X5938367Y-2151684D01*
X5946749Y-2140864D01*
X5954471Y-2129586D01*
X5961481Y-2117852D01*
X5967780Y-2105710D01*
X5973318Y-2093214D01*
X5978144Y-2080463D01*
X5982157Y-2067356D01*
X5985408Y-2054098D01*
X5987846Y-2040636D01*
X5989472Y-2027072D01*
X5990285Y-2013457D01*
X5990285Y-1999792D01*
X5989472Y-1986127D01*
X5987846Y-1972564D01*
X5985408Y-1959102D01*
X5982157Y-1945843D01*
X5978144Y-1932787D01*
X5973318Y-1919986D01*
X5967780Y-1907489D01*
X5961481Y-1895348D01*
X5954471Y-1883613D01*
X5946749Y-1872335D01*
X5938367Y-1861515D01*
X5929376Y-1851253D01*
G37*
G36*
X5932525Y-2451100D02*
G01*
X5932525Y-2781300D01*
X5942076Y-2771546D01*
X5951067Y-2761284D01*
X5959449Y-2750464D01*
X5967171Y-2739186D01*
X5974181Y-2727452D01*
X5980480Y-2715310D01*
X5986018Y-2702814D01*
X5990844Y-2690063D01*
X5994857Y-2676956D01*
X5998108Y-2663698D01*
X6000546Y-2650236D01*
X6002172Y-2636672D01*
X6002985Y-2623058D01*
X6002985Y-2609392D01*
X6002172Y-2595727D01*
X6000546Y-2582164D01*
X5998108Y-2568702D01*
X5994857Y-2555443D01*
X5990844Y-2542387D01*
X5986018Y-2529586D01*
X5980480Y-2517089D01*
X5974181Y-2504948D01*
X5967171Y-2493213D01*
X5959449Y-2481935D01*
X5951067Y-2471115D01*
X5942076Y-2460853D01*
G37*
G36*
X2401976Y340817D02*
G01*
X2401011Y268833D01*
X2426970Y304800D01*
G37*
G36*
X1062126Y-2457805D02*
G01*
X1062126Y-2544673D01*
X1148994Y-2544673D01*
G37*
D12*
X5674972Y-1811982D02*
G01*
X5674972Y-1891982D01*
X5634972Y-1851982D02*
G01*
X5714972Y-1851982D01*
X5687672Y-2421582D02*
G01*
X5687672Y-2501582D01*
X5647672Y-2461582D02*
G01*
X5727672Y-2461582D01*
D13*
X76200Y-1536700D02*
G01*
X76200Y-3378200D01*
D10*
X76200Y-1536700D02*
G01*
X330200Y-1536700D01*
X330200Y-3568700D01*
X76200Y-3568700D01*
X76200Y-3378200D01*
D14*
X2450000Y377799D02*
G01*
X2564998Y377799D01*
X2564998Y232801D01*
X2444998Y232801D01*
X2383000Y231800D02*
G01*
X2258999Y231800D01*
X2258999Y376798D01*
X2383000Y376798D01*
X2564998Y377799D02*
G01*
X2568000Y377799D01*
X2588000Y357799D01*
X2588000Y255800D01*
X2584998Y252801D01*
X2564998Y232801D01*
D12*
X1062101Y-2457820D02*
G01*
X1062103Y-2457820D01*
X1148981Y-2544698D01*
X2062099Y-1544701D02*
G01*
X1975220Y-1544701D01*
X2062099Y-1544701D02*
G01*
X2062099Y-1631581D01*
X1062101Y-1631581D02*
G01*
X1062101Y-1544701D01*
X1148981Y-1544701D01*
X1148981Y-2544698D02*
G01*
X1062101Y-2544698D01*
X1062101Y-2457820D01*
X2062099Y-2457820D02*
G01*
X2062099Y-2544698D01*
X1975218Y-2544698D01*
D15*
X1137099Y-1619699D02*
G01*
X1137099Y-2469700D01*
X1987100Y-2469700D01*
X1987100Y-1619699D01*
X1137099Y-1619699D01*
D12*
X7536992Y-5325998D02*
G01*
X7536992Y-4326001D01*
X6922566Y-5326532D02*
G01*
X6905200Y-5366004D01*
X7005200Y-5366004D01*
X6985508Y-5326532D01*
X6855200Y-5325998D02*
G01*
X6855200Y-4326001D01*
X6855200Y-5325998D02*
G01*
X7615199Y-5325998D01*
X6855200Y-4326001D02*
G01*
X7615199Y-4326001D01*
X7615199Y-5325998D02*
G01*
X7615199Y-4326001D01*
X7075119Y-5325998D02*
G01*
X7075119Y-4326001D01*
X7549692Y-4068698D02*
G01*
X7549692Y-3068701D01*
X6935266Y-4069232D02*
G01*
X6917900Y-4108704D01*
X7017900Y-4108704D01*
X6998208Y-4069232D01*
X6867900Y-4068698D02*
G01*
X6867900Y-3068701D01*
X6867900Y-4068698D02*
G01*
X7627899Y-4068698D01*
X6867900Y-3068701D02*
G01*
X7627899Y-3068701D01*
X7627899Y-4068698D02*
G01*
X7627899Y-3068701D01*
X7087819Y-4068698D02*
G01*
X7087819Y-3068701D01*
X7549692Y-2785998D02*
G01*
X7549692Y-1786001D01*
X6935266Y-2786532D02*
G01*
X6917900Y-2826004D01*
X7017900Y-2826004D01*
X6998208Y-2786532D01*
X6867900Y-2785998D02*
G01*
X6867900Y-1786001D01*
X6867900Y-2785998D02*
G01*
X7627899Y-2785998D01*
X6867900Y-1786001D02*
G01*
X7627899Y-1786001D01*
X7627899Y-2785998D02*
G01*
X7627899Y-1786001D01*
X7087819Y-2785998D02*
G01*
X7087819Y-1786001D01*
X7536992Y-1515998D02*
G01*
X7536992Y-516001D01*
X6922566Y-1516532D02*
G01*
X6905200Y-1556004D01*
X7005200Y-1556004D01*
X6985508Y-1516532D01*
X6855200Y-1515998D02*
G01*
X6855200Y-516001D01*
X6855200Y-1515998D02*
G01*
X7615199Y-1515998D01*
X6855200Y-516001D02*
G01*
X7615199Y-516001D01*
X7615199Y-1515998D02*
G01*
X7615199Y-516001D01*
X7075119Y-1515998D02*
G01*
X7075119Y-516001D01*
D11*
X6051440Y-3884719D02*
G01*
X5607159Y-3884719D01*
X5607159Y-3049480D01*
X6051440Y-3049480D01*
X6051440Y-3884719D01*
X6038740Y-1357419D02*
G01*
X5594459Y-1357419D01*
X5594459Y-522180D01*
X6038740Y-522180D01*
X6038740Y-1357419D01*
D12*
X4394200Y-4310379D02*
G01*
X4394200Y-5186679D01*
X3810000Y-5186679D01*
X3759200Y-5186679D01*
X3759200Y-4310379D01*
X4394200Y-4310379D01*
X3810000Y-5186679D02*
G01*
X3810000Y-4320539D01*
X4394200Y-3053079D02*
G01*
X4394200Y-3929379D01*
X3810000Y-3929379D01*
X3759200Y-3929379D01*
X3759200Y-3053079D01*
X4394200Y-3053079D01*
X3810000Y-3929379D02*
G01*
X3810000Y-3063239D01*
X4394200Y-1783079D02*
G01*
X4394200Y-2659379D01*
X3810000Y-2659379D01*
X3759200Y-2659379D01*
X3759200Y-1783079D01*
X4394200Y-1783079D01*
X3810000Y-2659379D02*
G01*
X3810000Y-1793239D01*
X4381500Y-525779D02*
G01*
X4381500Y-1402079D01*
X3797300Y-1402079D01*
X3746500Y-1402079D01*
X3746500Y-525779D01*
X4381500Y-525779D01*
X3797300Y-1402079D02*
G01*
X3797300Y-535939D01*
D10*
X2222500Y-4533900D02*
G01*
X2222500Y-4343400D01*
X1968500Y-4343400D01*
X1968500Y-5105400D01*
X2222500Y-5105400D01*
D13*
X2222500Y-5105400D02*
G01*
X2222500Y-4533900D01*
D10*
X2501900Y-4533900D02*
G01*
X2501900Y-4343400D01*
X2247900Y-4343400D01*
X2247900Y-5105400D01*
X2501900Y-5105400D01*
D13*
X2501900Y-5105400D02*
G01*
X2501900Y-4533900D01*
D10*
X2959100Y-4559300D02*
G01*
X2959100Y-4368800D01*
X2705100Y-4368800D01*
X2705100Y-5130800D01*
X2959100Y-5130800D01*
D13*
X2959100Y-5130800D02*
G01*
X2959100Y-4559300D01*
D10*
X2921000Y-3302000D02*
G01*
X2921000Y-3111500D01*
X2667000Y-3111500D01*
X2667000Y-3873500D01*
X2921000Y-3873500D01*
D13*
X2921000Y-3873500D02*
G01*
X2921000Y-3302000D01*
D10*
X2946400Y-2032000D02*
G01*
X2946400Y-1841500D01*
X2692400Y-1841500D01*
X2692400Y-2603500D01*
X2946400Y-2603500D01*
D13*
X2946400Y-2603500D02*
G01*
X2946400Y-2032000D01*
D10*
X2946400Y-774700D02*
G01*
X2946400Y-584200D01*
X2692400Y-584200D01*
X2692400Y-1346200D01*
X2946400Y-1346200D01*
D13*
X2946400Y-1346200D02*
G01*
X2946400Y-774700D01*
D12*
X473989Y-3722938D02*
G01*
X473989Y-4582932D01*
X34010Y-3722938D02*
G01*
X34010Y-4582932D01*
X473989Y-4582932D02*
G01*
X364304Y-4582932D01*
X143695Y-4582932D02*
G01*
X34010Y-4582932D01*
X473989Y-3722938D02*
G01*
X364304Y-3722938D01*
X143695Y-3722938D02*
G01*
X34010Y-3722938D01*
D11*
X1526740Y-4862598D02*
G01*
X1701800Y-4864100D01*
X1701800Y-3721100D01*
X1526740Y-3722601D01*
X1394259Y-3722601D02*
G01*
X1219200Y-3721100D01*
X1219200Y-4864100D01*
X1394259Y-4862598D01*
X1526740Y-4862598D02*
G01*
X1701800Y-4864100D01*
X1701800Y-3721100D01*
X1526740Y-3722601D01*
X1394259Y-3722601D02*
G01*
X1219200Y-3721100D01*
X1219200Y-4864100D01*
X1394259Y-4862598D01*
X1770042Y637420D02*
G01*
X1770042Y-27820D01*
X1475762Y-27820D01*
X1475762Y637420D01*
X1770042Y637420D01*
D15*
X58399Y-311500D02*
G01*
X-40195Y-311500D01*
X464799Y-254543D02*
G01*
X464799Y-311500D01*
X286202Y-311500D01*
X58399Y438497D02*
G01*
X-40195Y438497D01*
X464799Y381543D02*
G01*
X464799Y438497D01*
X286202Y438497D01*
X-40195Y438505D02*
G01*
X-105194Y463499D01*
X-105194Y438505D01*
X-45199Y413512D01*
X-45199Y383499D01*
X-60200Y373499D01*
X-105194Y373506D01*
X-105194Y-246506D01*
X-65189Y-246506D01*
X-45199Y-256489D01*
X-45199Y-286512D01*
X-105194Y-316509D01*
X-105194Y-336499D01*
X-40195Y-311505D01*
D10*
X76200Y-469900D02*
G01*
X330200Y-469900D01*
X330200Y-1485900D01*
X76200Y-1485900D01*
X76200Y-1295400D01*
D13*
X76200Y-469900D02*
G01*
X76200Y-1295400D01*
D10*
X1397000Y-469900D02*
G01*
X1397000Y-215900D01*
X2413000Y-215900D01*
X2413000Y-469900D01*
X2222500Y-469900D01*
D13*
X1397000Y-469900D02*
G01*
X2222500Y-469900D01*
D12*
X6265799Y666292D02*
G01*
X5265800Y666292D01*
X6266332Y51866D02*
G01*
X6305804Y34500D01*
X6305804Y134500D01*
X6266332Y114807D01*
X6265799Y-15499D02*
G01*
X5265800Y-15499D01*
X6265799Y-15499D02*
G01*
X6265799Y744499D01*
X5265800Y-15499D02*
G01*
X5265800Y744499D01*
X6265799Y744499D02*
G01*
X5265800Y744499D01*
X6265799Y204419D02*
G01*
X5265800Y204419D01*
D11*
X595439Y-1203180D02*
G01*
X595439Y-1344180D01*
X776160Y-1344180D02*
G01*
X776160Y-1203180D01*
X760920Y-1187940D02*
G01*
X610679Y-1187940D01*
X595439Y-1565419D02*
G01*
X595439Y-1424419D01*
X776160Y-1424419D02*
G01*
X776160Y-1565419D01*
X760920Y-1580659D02*
G01*
X610679Y-1580659D01*
X824039Y-1203180D02*
G01*
X824039Y-1344180D01*
X1004760Y-1344180D02*
G01*
X1004760Y-1203180D01*
X989520Y-1187940D02*
G01*
X839279Y-1187940D01*
X824039Y-1565419D02*
G01*
X824039Y-1424419D01*
X1004760Y-1424419D02*
G01*
X1004760Y-1565419D01*
X989520Y-1580659D02*
G01*
X839279Y-1580659D01*
X2439860Y-1870219D02*
G01*
X2439860Y-1729219D01*
X2259139Y-1729219D02*
G01*
X2259139Y-1870219D01*
X2274379Y-1885459D02*
G01*
X2424620Y-1885459D01*
X2439860Y-1507980D02*
G01*
X2439860Y-1648980D01*
X2259139Y-1648980D02*
G01*
X2259139Y-1507980D01*
X2274379Y-1492740D02*
G01*
X2424620Y-1492740D01*
X1457180Y-3087560D02*
G01*
X1598180Y-3087560D01*
X1598180Y-2906839D02*
G01*
X1457180Y-2906839D01*
X1441940Y-2922079D02*
G01*
X1441940Y-3072320D01*
X1819419Y-3087560D02*
G01*
X1678419Y-3087560D01*
X1678419Y-2906839D02*
G01*
X1819419Y-2906839D01*
X1834659Y-2922079D02*
G01*
X1834659Y-3072320D01*
X961880Y-3417760D02*
G01*
X1102880Y-3417760D01*
X1102880Y-3237039D02*
G01*
X961880Y-3237039D01*
X946640Y-3252279D02*
G01*
X946640Y-3402520D01*
X1324119Y-3417760D02*
G01*
X1183119Y-3417760D01*
X1183119Y-3237039D02*
G01*
X1324119Y-3237039D01*
X1339359Y-3252279D02*
G01*
X1339359Y-3402520D01*
X1743219Y-3237039D02*
G01*
X1602219Y-3237039D01*
X1602219Y-3417760D02*
G01*
X1743219Y-3417760D01*
X1758459Y-3402520D02*
G01*
X1758459Y-3252279D01*
X1380980Y-3237039D02*
G01*
X1521980Y-3237039D01*
X1521980Y-3417760D02*
G01*
X1380980Y-3417760D01*
X1365740Y-3402520D02*
G01*
X1365740Y-3252279D01*
X1055560Y-16019D02*
G01*
X1055560Y124980D01*
X874839Y124980D02*
G01*
X874839Y-16019D01*
X890079Y-31259D02*
G01*
X1040320Y-31259D01*
X1055560Y346219D02*
G01*
X1055560Y205219D01*
X874839Y205219D02*
G01*
X874839Y346219D01*
X890079Y361459D02*
G01*
X1040320Y361459D01*
X1082819Y598360D02*
G01*
X941819Y598360D01*
X941819Y417639D02*
G01*
X1082819Y417639D01*
X1098059Y432879D02*
G01*
X1098059Y583120D01*
X720580Y598360D02*
G01*
X861580Y598360D01*
X861580Y417639D02*
G01*
X720580Y417639D01*
X705340Y432879D02*
G01*
X705340Y583120D01*
X733280Y-4090860D02*
G01*
X874280Y-4090860D01*
X874280Y-3910139D02*
G01*
X733280Y-3910139D01*
X718040Y-3925379D02*
G01*
X718040Y-4075620D01*
X1095519Y-4090860D02*
G01*
X954519Y-4090860D01*
X954519Y-3910139D02*
G01*
X1095519Y-3910139D01*
X1110759Y-3925379D02*
G01*
X1110759Y-4075620D01*
X733280Y-3849560D02*
G01*
X874280Y-3849560D01*
X874280Y-3668839D02*
G01*
X733280Y-3668839D01*
X718040Y-3684079D02*
G01*
X718040Y-3834320D01*
X1095519Y-3849560D02*
G01*
X954519Y-3849560D01*
X954519Y-3668839D02*
G01*
X1095519Y-3668839D01*
X1110759Y-3684079D02*
G01*
X1110759Y-3834320D01*
X720580Y-3633660D02*
G01*
X861580Y-3633660D01*
X861580Y-3452939D02*
G01*
X720580Y-3452939D01*
X705340Y-3468179D02*
G01*
X705340Y-3618420D01*
X1082819Y-3633660D02*
G01*
X941819Y-3633660D01*
X941819Y-3452939D02*
G01*
X1082819Y-3452939D01*
X1098059Y-3468179D02*
G01*
X1098059Y-3618420D01*
X809480Y-3176460D02*
G01*
X950480Y-3176460D01*
X950480Y-2995739D02*
G01*
X809480Y-2995739D01*
X794240Y-3010979D02*
G01*
X794240Y-3161220D01*
X1171719Y-3176460D02*
G01*
X1030719Y-3176460D01*
X1030719Y-2995739D02*
G01*
X1171719Y-2995739D01*
X1186959Y-3010979D02*
G01*
X1186959Y-3161220D01*
X809480Y-2947860D02*
G01*
X950480Y-2947860D01*
X950480Y-2767139D02*
G01*
X809480Y-2767139D01*
X794240Y-2782379D02*
G01*
X794240Y-2932620D01*
X1171719Y-2947860D02*
G01*
X1030719Y-2947860D01*
X1030719Y-2767139D02*
G01*
X1171719Y-2767139D01*
X1186959Y-2782379D02*
G01*
X1186959Y-2932620D01*
X3298819Y-4587509D02*
G01*
X3427313Y-4587509D01*
X3427313Y-4404090D01*
X3298819Y-4404090D01*
X3203580Y-4587509D02*
G01*
X3075086Y-4587509D01*
X3075086Y-4404090D01*
X3203580Y-4404090D01*
X3286119Y-3330209D02*
G01*
X3414613Y-3330209D01*
X3414613Y-3146790D01*
X3286119Y-3146790D01*
X3190880Y-3330209D02*
G01*
X3062386Y-3330209D01*
X3062386Y-3146790D01*
X3190880Y-3146790D01*
X3298819Y-2060209D02*
G01*
X3427313Y-2060209D01*
X3427313Y-1876790D01*
X3298819Y-1876790D01*
X3203580Y-2060209D02*
G01*
X3075086Y-2060209D01*
X3075086Y-1876790D01*
X3203580Y-1876790D01*
X3286119Y-802909D02*
G01*
X3414613Y-802909D01*
X3414613Y-619490D01*
X3286119Y-619490D01*
X3190880Y-802909D02*
G01*
X3062386Y-802909D01*
X3062386Y-619490D01*
X3190880Y-619490D01*
X4785090Y-5127619D02*
G01*
X4785090Y-5256113D01*
X4968509Y-5256113D01*
X4968509Y-5127619D01*
X4785090Y-5032380D02*
G01*
X4785090Y-4903886D01*
X4968509Y-4903886D01*
X4968509Y-5032380D01*
X4797790Y-3870319D02*
G01*
X4797790Y-3998813D01*
X4981209Y-3998813D01*
X4981209Y-3870319D01*
X4797790Y-3775080D02*
G01*
X4797790Y-3646586D01*
X4981209Y-3646586D01*
X4981209Y-3775080D01*
X4797790Y-2613019D02*
G01*
X4797790Y-2741513D01*
X4981209Y-2741513D01*
X4981209Y-2613019D01*
X4797790Y-2517780D02*
G01*
X4797790Y-2389286D01*
X4981209Y-2389286D01*
X4981209Y-2517780D01*
X4797790Y-1343019D02*
G01*
X4797790Y-1471513D01*
X4981209Y-1471513D01*
X4981209Y-1343019D01*
X4797790Y-1247780D02*
G01*
X4797790Y-1119286D01*
X4981209Y-1119286D01*
X4981209Y-1247780D01*
X5026390Y-1089019D02*
G01*
X5026390Y-1217513D01*
X5209809Y-1217513D01*
X5209809Y-1089019D01*
X5026390Y-993780D02*
G01*
X5026390Y-865286D01*
X5209809Y-865286D01*
X5209809Y-993780D01*
X5013690Y-3590919D02*
G01*
X5013690Y-3719413D01*
X5197109Y-3719413D01*
X5197109Y-3590919D01*
X5013690Y-3495680D02*
G01*
X5013690Y-3367186D01*
X5197109Y-3367186D01*
X5197109Y-3495680D01*
X543290Y-2651119D02*
G01*
X543290Y-2779613D01*
X726709Y-2779613D01*
X726709Y-2651119D01*
X543290Y-2555880D02*
G01*
X543290Y-2427386D01*
X726709Y-2427386D01*
X726709Y-2555880D01*
X3057519Y213090D02*
G01*
X3186013Y213090D01*
X3186013Y396509D01*
X3057519Y396509D01*
X2962280Y213090D02*
G01*
X2833786Y213090D01*
X2833786Y396509D01*
X2962280Y396509D01*
D16*
G75*
G01*
X1232154Y-2347214D02*
G03*
X1232662Y-2347214I254J-29999D01*
D17*
G75*
G01*
X1125974Y-2593698D02*
G03*
X1126228Y-2593698I127J-15001D01*
D11*
G75*
G01*
X776160Y-1203180D02*
G03*
X760920Y-1187940I-15240J0D01*
G75*
G01*
X610680Y-1187940D02*
G03*
X595440Y-1203180I0J-15240D01*
G75*
G01*
X776160Y-1565420D02*
G02*
X760920Y-1580660I-15240J0D01*
G75*
G01*
X610680Y-1580660D02*
G02*
X595440Y-1565420I0J15240D01*
G75*
G01*
X1004760Y-1203180D02*
G03*
X989520Y-1187940I-15240J0D01*
G75*
G01*
X839280Y-1187940D02*
G03*
X824040Y-1203180I0J-15240D01*
G75*
G01*
X1004760Y-1565420D02*
G02*
X989520Y-1580660I-15240J0D01*
G75*
G01*
X839280Y-1580660D02*
G02*
X824040Y-1565420I0J15240D01*
G75*
G01*
X2259140Y-1870220D02*
G03*
X2274379Y-1885460I15240J0D01*
G75*
G01*
X2424621Y-1885460D02*
G03*
X2439860Y-1870220I-1J15240D01*
G75*
G01*
X2259140Y-1507980D02*
G02*
X2274379Y-1492740I15240J0D01*
G75*
G01*
X2424621Y-1492740D02*
G02*
X2439860Y-1507980I-1J-15240D01*
G75*
G01*
X1457180Y-2906840D02*
G03*
X1441940Y-2922080I0J-15240D01*
G75*
G01*
X1441940Y-3072320D02*
G03*
X1457180Y-3087560I15240J0D01*
G75*
G01*
X1819420Y-2906840D02*
G02*
X1834660Y-2922080I0J-15240D01*
G75*
G01*
X1834660Y-3072320D02*
G02*
X1819420Y-3087560I-15240J0D01*
G75*
G01*
X961880Y-3237040D02*
G03*
X946640Y-3252280I0J-15240D01*
G75*
G01*
X946640Y-3402520D02*
G03*
X961880Y-3417760I15240J0D01*
G75*
G01*
X1324120Y-3237040D02*
G02*
X1339360Y-3252280I0J-15240D01*
G75*
G01*
X1339360Y-3402520D02*
G02*
X1324120Y-3417760I-15240J0D01*
G75*
G01*
X1743220Y-3417760D02*
G03*
X1758460Y-3402520I0J15240D01*
G75*
G01*
X1758460Y-3252280D02*
G03*
X1743220Y-3237040I-15240J0D01*
G75*
G01*
X1380980Y-3417760D02*
G02*
X1365740Y-3402520I0J15240D01*
G75*
G01*
X1365740Y-3252280D02*
G02*
X1380980Y-3237040I15240J0D01*
G75*
G01*
X874840Y-16020D02*
G03*
X890080Y-31260I15240J0D01*
G75*
G01*
X1040320Y-31260D02*
G03*
X1055560Y-16020I0J15240D01*
G75*
G01*
X874840Y346220D02*
G02*
X890080Y361460I15240J0D01*
G75*
G01*
X1040320Y361460D02*
G02*
X1055560Y346220I0J-15240D01*
G75*
G01*
X1082820Y417640D02*
G03*
X1098060Y432880I0J15240D01*
G75*
G01*
X1098060Y583120D02*
G03*
X1082820Y598360I-15240J0D01*
G75*
G01*
X720580Y417640D02*
G02*
X705340Y432880I0J15240D01*
G75*
G01*
X705340Y583120D02*
G02*
X720580Y598360I15240J0D01*
G75*
G01*
X733280Y-3910140D02*
G03*
X718040Y-3925380I0J-15240D01*
G75*
G01*
X718040Y-4075620D02*
G03*
X733280Y-4090860I15240J0D01*
G75*
G01*
X1095520Y-3910140D02*
G02*
X1110760Y-3925380I0J-15240D01*
G75*
G01*
X1110760Y-4075620D02*
G02*
X1095520Y-4090860I-15240J0D01*
G75*
G01*
X733280Y-3668840D02*
G03*
X718040Y-3684080I0J-15240D01*
G75*
G01*
X718040Y-3834320D02*
G03*
X733280Y-3849560I15240J0D01*
G75*
G01*
X1095520Y-3668840D02*
G02*
X1110760Y-3684080I0J-15240D01*
G75*
G01*
X1110760Y-3834320D02*
G02*
X1095520Y-3849560I-15240J0D01*
G75*
G01*
X720580Y-3452940D02*
G03*
X705340Y-3468180I0J-15240D01*
G75*
G01*
X705340Y-3618420D02*
G03*
X720580Y-3633660I15240J0D01*
G75*
G01*
X1082820Y-3452940D02*
G02*
X1098060Y-3468180I0J-15240D01*
G75*
G01*
X1098060Y-3618420D02*
G02*
X1082820Y-3633660I-15240J0D01*
G75*
G01*
X809480Y-2995740D02*
G03*
X794240Y-3010980I0J-15240D01*
G75*
G01*
X794240Y-3161220D02*
G03*
X809480Y-3176460I15240J0D01*
G75*
G01*
X1171720Y-2995740D02*
G02*
X1186960Y-3010980I0J-15240D01*
G75*
G01*
X1186960Y-3161220D02*
G02*
X1171720Y-3176460I-15240J0D01*
G75*
G01*
X809480Y-2767140D02*
G03*
X794240Y-2782380I0J-15240D01*
G75*
G01*
X794240Y-2932620D02*
G03*
X809480Y-2947860I15240J0D01*
G75*
G01*
X1171720Y-2767140D02*
G02*
X1186960Y-2782380I0J-15240D01*
G75*
G01*
X1186960Y-2932620D02*
G02*
X1171720Y-2947860I-15240J0D01*
D17*
G75*
G01
X5990412Y-2006600D02*
G03X5990412Y-2006600I-250012J0D01*
G75*
G01
X6003112Y-2616200D02*
G03X6003112Y-2616200I-250012J0D01*
G75*
G01
X5991225Y-3824605D02*
G03X5991225Y-3824605I-15011J0D01*
G75*
G01
X6193409Y-3888029D02*
G03X6193409Y-3888029I-15011J0D01*
G75*
G01
X5978525Y-1297305D02*
G03X5978525Y-1297305I-15011J0D01*
G75*
G01
X6180709Y-1360729D02*
G03X6180709Y-1360729I-15011J0D01*
D18*
G75*
G01
X3698697Y-4329811D02*
G03X3698697Y-4329811I-19990J0D01*
G75*
G01
X3698697Y-3072511D02*
G03X3698697Y-3072511I-19990J0D01*
G75*
G01
X3698697Y-1802511D02*
G03X3698697Y-1802511I-19990J0D01*
G75*
G01
X3685997Y-545211D02*
G03X3685997Y-545211I-19990J0D01*
M02*
